<?xml version="1.0" encoding="utf-8"?>
<!-- Generator: Adobe Illustrator 19.1.0, SVG Export Plug-In . SVG Version: 6.00 Build 0)  -->
<svg version="1.1" id="_x2014_ÎÓÈ_1" xmlns="http://www.w3.org/2000/svg" xmlns:xlink="http://www.w3.org/1999/xlink" x="0px"
	 y="0px" viewBox="60 -44.3 170.9 138.3" style="enable-background:new 60 -44.3 170.9 138.3;" xml:space="preserve">
<style type="text/css">
	.st0{fill:#282828;}
</style>
<g>
	<path class="st0" d="M195,43.6L195,43.6C195,43.5,195,43.5,195,43.6C195,43.5,195,43.5,195,43.6L195,43.6z"/>
	<path class="st0" d="M216.1-41.5c-0.9-1.2-2-2.2-3.5-2.4c-0.1,0-1.2-0.4-1.8-0.4c-5-0.3-8.2,2.5-9.9,3.8c-1.5,1.1-2.5,2.5-3.7,3.8
		c-0.1,0.1,0,0.2,0,0.4c0.5,0.2,0.7-0.1,0.9-0.4c0.2-0.3,0.4-0.7,0.6-0.8c0.6-0.1,0.9-0.4,1.1-1c0.1-0.3,0.4-0.5,0.6-0.7
		c0.5-0.3,1-0.3,1.4-0.6s0.7-0.7,1.1-1.1c0.1-0.1,0.3-0.2,0.5-0.2c0.8-0.3,1.6-0.6,2.3-0.9c0.7-1.2,1.5,0,2.3-0.1
		c0.1,0,0.3,0,0.4-0.1c0.5-0.1,1,0,1.4,0.2c0.7,0.3,0.7,0.2,1.4-0.3c0.2,0.1,0.4,0.2,0.5,0.3c0.2,0.2,0.4,0.4,0.6,0.5l0,0l0,0
		c0.5,0.5,0.5,0.5,0.1,1.4c-0.3-0.2-0.6-0.4-0.3-0.9c0.1-0.2,0.2-0.4,0.2-0.5l0,0l0,0c-2.1,0.6-4.1,1.9-4.6,3.3
		c0.2-0.2,0.4-0.3,0.5-0.4c0.8-0.6,1.7-1.2,2.5-1.7c0.5-0.3,0.8-0.1,1.1,0.3c0.4,0.5,0.4,1.1-0.1,1.6c-0.4,0.4-0.9,0.7-1.4,1
		c0.1,0.9-0.7,1.3-1.3,1.9c-0.4-0.1-0.8-0.1-1.4-0.2c0.7,0.7,1.2,1.3,1.7,1.7c-0.1,0.5-0.1,0.8-0.2,1.1l0,0l0,0c0.2,0,0.4,0,0.7-0.1
		c0.1,0.4,0.2,0.7,0.4,1.2c-0.9-0.1-1.1-0.6-1.1-1.2l0,0l0,0c-0.7-0.7-1.5-1.4-2.4-2.2c0,0.5,0,0.8,0,1.1c-0.4,0.2-0.7,0.5-1,0.7
		c-0.3,0.2-0.7,0.2-1.1,0.3c0.1,0.3,0.2,0.7,0.3,1.1c-0.4,0.2-0.7,0.4-1,0.6c-0.5-0.3-1-0.5-1.4-0.8c-0.8,0.6-1.5,1.1-2.2,1.6
		c-0.3-1.8,0.6-4.1,1.8-5.1c-0.2,0.5-0.3,0.9-0.4,1.4c-0.1,0.5-0.3,1,0.1,1.4c0.5,0.4,1,0,1.5-0.3c0,0,0.1,0,0.1-0.1
		c1.2-0.9,2.2-2,3-3.2c0.1-0.2,0.2-0.5,0.2-0.7c-0.7-0.3-1,0-1.2,0.5c-0.2,0.7-0.6,1.2-1.1,1.7c-0.6,0.6-1.2,1.1-2.1,1.3
		c-0.1-1.5,1.1-2.5,1.3-3.9c-0.6,0.4-0.8-0.1-1.3-0.2c-0.9,1.5-2.1,2.8-2.5,4.5c-0.3,1.7-1.1,3.2-1.3,5c-0.4,0.1-0.8,0.6-1.5,0.3
		c0.8-1.8,1.9-3.4,2-5.4c-0.3,0.5-0.5,1.1-0.8,1.6c-0.6,1.3-1.3,2.5-2,3.8c-0.3,0.5-0.6,1-0.3,1.5c0.8,0.3,1.5,0.5,2.2,0.8
		c0.1,0,0.1,0.2,0.2,0.4c-0.3,0.2-0.6,0.4-0.9,0.7c-0.5-0.4-0.9-0.8-1.4-1.1c-0.1-0.1-0.3,0-0.6-0.1c0.3,0.8,1.1,0.9,1.3,1.7
		c-0.5,0.4-1,0.8-1.5,1.3c-0.4-0.4-0.7-0.7-1.1-1c-0.1,0.3-0.1,0.6,0,0.8c0.1,0.3,0.3,0.5,0.4,0.8c-0.8,0.7-1.2,1.7-2.5,1.4
		c0,0.7-0.1,1.3-0.9,1.5c-0.2,0.1-0.3,0.4-0.5,0.6c-0.1,0.2-0.3,0.5-0.4,0.5c-0.6,0.1-0.8,0.6-1.1,1c-0.2,0.3-0.5,0.4-0.9,0.7
		c-0.2-0.3-0.3-0.5-0.4-0.8c0.5-0.7,1-1.4,1.5-2s1.2-1.1,1.5-1.9c-0.7,0.6-1.3,1.2-1.9,1.8c-0.6,0.6-1,1.2-1.1,2
		c-0.6,0.6-0.7,1.4-0.9,2.1c-0.2,0-0.3-0.1-0.5-0.1c0,1.1-0.2,1.2-1,1c0.3-1.1,1.2-1.9,1.4-3.2c-1,0.3-1.2,1.1-1.6,1.7
		c-0.7,0.9-0.9,2-0.6,3.1l0,0c0,0,0,0,0.1,0c0.4,0,0.7,0.1,1.2,0.1c-0.6,0.6-0.9,0.1-1.2-0.1h-0.1l0,0c-0.1,0-0.2,0-0.3,0
		c-0.1,0.6,0.8,0.8,0.5,1.5c-0.5,0.1-0.9-0.1-1.1-0.5c-0.2-0.7-0.7-0.8-1.3-1c-0.2,0-0.3-0.2-0.7-0.3c0.4-0.3,0.7-0.5,1.1-0.7
		c-0.2-0.3-0.3-0.4-0.4-0.6c-0.2-0.4-0.2-0.8,0.1-1.1c0.2-0.2,0.6-0.2,1-0.2c0.3,0,0.5,0.1,1,0.3c-0.2-0.4-0.3-0.7-0.5-0.9
		c-0.2-0.2-0.4-0.4-0.6-0.6c0.4-1.1,1.2-0.2,1.8-0.6c-0.3-0.4-0.6-0.7-0.8-1c0.2-0.9,0.9-1.1,1.6-1.1c-0.1-0.9,0-1.5,0.5-1.8
		c0.2-0.1,0.5-0.1,0.8-0.2c0.1,0,0.1-0.2,0.3-0.4c-0.3-0.2-0.5-0.4-0.8-0.5c0-0.3,0-0.6,0-0.9c-0.4,0.5-0.9,1-1.3,1.6
		c-1.5,2.3-2.9,4.6-4.4,6.9c-0.5,0.7-0.9,1.5-1.5,2.4c-0.9,0.1-1.7,0.8-2.4,1.5c-1,1-1.9,2.1-2.9,3.2c-0.7,0.8-1.3,1.6-1.8,2.6
		c-0.2,0.5-5.3,4.9-6,5.7c-0.8,1-2,1.3-3.1,1.7c-1,0.4-1.9,0-2.9,0.1c-1.6,0.3-3.2,0.6-4.8,0.9c-0.2,0-0.4,0.1-0.5,0.2
		c-0.3,0.2-0.7,0.3-0.8,0.7c0.8-0.1,6.2-0.7,6.8-0.6c1.4,0.2,11,0,16.3,6.7c1.1,1.4,2.1,2.9,2.8,4.5c1,2.2,1.4,4.5,0.5,6.8
		c-0.2,0.5,0,3.4-8.7,13.1c-0.5,0.6-10.6,9.9-11.7,10.3c0,0.8-11,10.1-20.3,16.4c-1,0.7-7.3,3.7-9.4,4.6c-1.6,0.7-9.7,4-12.3,4.5
		c-1.3,0.2-8.3,1.8-9.9,1.5c-0.6-0.1-4.6-1.3-4.9-1.5c-0.8-0.5-1.5-1.1-2.3-1.6c-0.3-0.2-0.5-0.5-0.9-0.6c-0.7-0.2-1.1-0.7-1.4-1.4
		c-0.7,0.2-1.1-0.1-1.3-0.7c-0.2-0.8-0.1-1.5,0.3-2.4c0.4,0.7-0.3,1.7,0.9,2.1c0-0.3,0-0.5-0.1-0.7c-0.2-1.4,0-2.7,0.7-3.9
		c0.3-0.5,0.5-0.9,0.8-1.4c0.1-0.3,0.1-0.6,0.2-1c-0.7,0.3-0.8,1-1.2,1.5c-1.2,1.5-1.9,3.2-2.3,5.1c0,0.2-0.2,0.5-0.3,0.7
		c-0.7,0.8-1.4,1.6-2.1,2.4c-0.2,0.2-0.3,0.5-0.6,1c0.6-0.4,0.9-0.7,1.3-1c0.1,0.1,0.1,0.2,0.1,0.2c-0.4,1.2-1.5,1.7-2.2,2.6
		c0,0-0.1-0.1-0.4-0.2c0.4-0.9,0.7-1.8,1.1-2.7c0.4-0.9,1.2-1.5,1.4-2.7c-0.9,0.7-1.1,1.8-2,2.1c0.3-0.7,0.8-1.2,1.1-1.9
		c0.4-0.7,0.9-1.3,0.8-2.4c-0.3,0.5-0.5,0.7-0.6,0.9c-0.4,0.6-0.7,1.3-1,1.9c-0.1,0.1-0.4,0.1-0.6,0.2c0-0.8,0.7-1.2,0.5-2
		c-0.7,0.6-0.7,1.6-1.6,2.1c0.3-0.8,0.6-1.5,0.9-2.4c-0.8,0-1.5,0.1-1.9,0.1c-0.7-0.6-1.1-1.1-1.6-1.3c-1.1-0.5-2.2-0.7-3.4-0.4
		c-1.1,0.3-2.1,0.7-3.2,1c0,0-0.2,0-0.3-0.1c-0.7-0.7-1.5-0.7-2.4-0.6c-1.4,0.2-2.8,0.3-4.2,0.4c-0.2,0-0.4,0-0.7,0.1
		c-2.6,0.5-3.8,3.9-2.2,5.9c0.3,0.3,0.7,0.6,1,0.8c0.3,0.2,0.6,0.4,1,0.6c-0.5,0.4-0.5,1-1.1,1.1c-1.8-1.3-4.4-1.2-5.8,0.4
		c-1.2,1.4-2.2,2.9-2,4.8c0,0.1-0.1,0.1-0.2,0.2c-0.4,0.1-0.8,0-1.2,0.2c-1,0.3-1.9,0.7-2,2c-0.1,0.8-0.4,1.5-1.1,2.2
		c-1.3,1.2-1.7,2.8-1.5,4.5c0.1,1.2,0.6,1.6,1.9,1.7c1.4,0.1,2.9,0.1,4.2-0.5c0.7-0.3,1.4-0.3,2.1-0.2c0,1-1.2,0.9-1.3,1.7
		c-0.2,0.9-1.2,1-1.5,1.7c-0.4-0.1-0.7-0.1-1-0.2c-0.1,0.4-0.1,0.7-0.2,1.2c-1.2-1.1,0.2-1.6,0.4-2.4c-0.2-0.1-0.4-0.2-0.6-0.3
		c0.1-0.3,0.2-0.6,0.3-0.8c-0.9,0.4-1.4,1-1.9,1.7c-0.2,0.4-0.2,0.8-0.1,1.3c0.3,0.8,0.9,1.2,1.7,1.3c1.8,0.2,3.6-0.2,5.1-1.1
		c1-0.6,1.9-0.7,2.9-0.5c0.2,0,0.4,0.1,0.7,0.1c1,0,2.1,0.1,3-0.2c1.7-0.4,3.2-1.3,4.7-2.1c0.2-0.1,0.5-0.1,0.8-0.2
		c-0.4,1.1-0.3,2,0.5,2.7c0.2,0.2,0.3,0.5,0.5,0.9c-0.5-0.1-0.9-0.2-1.2-0.3c0.3,0.4,0.7,0.7,1.1,0.8c1.1,0.5,2.4,0.7,3.6,1.1
		c1.1,0.3,2.1,0.3,3.2,0c1-0.3,1.6-0.6,1.8-1.7c0.1-0.7,0.5-1.3,0.7-2c0.1-0.3,0.2-0.6,0.2-0.9c0-0.3,0-0.6-0.5-0.6
		c-0.2,1.2-0.3,2.3-1.2,3.6c0.3-1.3,0.5-2.3,0.7-3.2c-0.4-0.3-0.8-0.4-0.9-0.6c-1-1.4-2.4-1.9-4-2c-0.1,0-0.2-0.1-0.5-0.1
		c0.3-0.6,0.5-1.2,0.8-1.8c-1.3,0.1-1.3,0.1-1.4,1.3c0,0.6-0.2,0.8-1.1,0.7c0-0.9,1.2-1.6,0.6-2.7c-1.2,0-0.6,1.5-1.6,1.9
		c-0.1-0.8-0.2-1.5-0.3-2.3C81.4,83.3,81,84.2,80,84c0.4-0.5,0.8-0.9,1.2-1.4c-0.3-0.2-0.6-0.4-0.9-0.5c-1.3,0.4-1.7,1.9-2.9,2.4
		c0.5-0.7,1.3-1.3,1.6-2.1c0.3-0.8,1-1.1,1.6-1.4c0.4-0.2,0.9-0.4,1.2-0.7c0.5-0.4,1.1-0.8,1.5-1.3c0.6-0.6,1.4-0.8,2.3-1.2
		c0,0.3,0,0.5,0,0.6c-0.2,0.8,0.1,1.3,0.8,1.8c2.2,1.7,4.7,1.7,7.3,1.2c2.9-0.6,5.4-2.3,7.8-3.9c0.2-0.1,0.3-0.3,0.6-0.5
		c-0.4-0.4-0.7-0.6-0.9-0.8c-0.5,0.4-0.6,1.1-1.3,1.4c-0.1-0.8,0.7-1.2,0.4-2c-0.8,0.8-1,1.9-1.8,2.6c0-0.4,0.2-0.8,0.3-1.2
		c0.2-0.5,0.3-0.9-0.1-1.2C98,76,98.5,77,97.7,77c-0.1-0.3-0.3-0.6-0.4-0.9c0-0.1-0.2-0.1-0.4-0.2c-0.1,0.3-0.2,0.5-0.3,0.8
		c-0.4,0.1-0.8,0.2-1.2,0.2c-0.6-0.6-1.2-1.1-1.8-1.7c0.3-0.1,0.4-0.2,0.6-0.3c1.1-0.3,2.1-0.6,3-1.4c0.6-0.5,1.4-0.8,2.2-0.4
		c0.5-1,1.3-1.2,2.2-1.4c1.3-0.2,2.6,0,4,0.1c0.3,0,0.5,0.1,0.8,0.2c0.5,0.2,1,0.6,1.6,0.7c1.7,0.3,3.3,0.5,5,0.7
		c0.9,0.1,1.9,0.4,2.8,0c0.1-0.1,0.3,0,0.5,0.1c1.2,0.2,2.4,0.5,3.6-0.2c0.1-0.1,0.3-0.1,0.4,0c1.1,0.5,2.1,0.2,3.2-0.2
		c1.4-0.5,24.9-7.7,26.7-8.3c3.1-1.1,6.3-2.3,9.5-3.3c2.5-0.8,5-1.8,7.8-1.7c0.3,0,0.6-0.1,0.9-0.2c0.9-0.4,1.9-0.7,2.6-1.5
		c0.4-0.4,1-0.8,1.5-1c1.8-0.6,3.6-1.2,5.5-1.7c0.4-0.1,0.8,0,1.1,0c1-1.4,2.6-1.1,4-1.4c0.3-0.3,0.8-0.6,1.1-1
		c0.3-0.5,0.5-0.9,1-1.1c0.1,0.5-0.9,0.9,0.1,1.4c0.8-0.7,0.9-2.2,2.5-2.3c-0.3,0.5-0.6,0.8-0.8,1.1c-0.1,0.2,0,0.4,0.1,0.9
		c0.5-0.6,1-1,1.3-1.6c0.2-0.5,0.5-1,1.4-0.9c-0.4,0.6-0.8,1-1.1,1.4c0.2,0.4,0.5,0.6,0.8,0.2c0.3-0.3,0.5-0.7,0.7-1.1
		c0.3-0.6,0.8-1.2,1.4-1.5c0.7-0.4,1.4-0.7,1.9-1.2c0.3-0.3,0.8-0.6,1.4-0.3c-0.6,0.3-1.1,0.6-1.5,0.8c-0.6,0.4-0.6,0.7-0.4,1.5
		c0.5-0.2,1-0.5,1.3-1.1c0.2-0.4,0.5-0.7,0.8-1c0.1-0.1,0.2-0.1,0.3-0.1c0.3,0.2,0.7,0.4,0.9,0.6c0.7-0.5,0.1-1,0.2-1.5
		c0.3-0.2,0.7-0.5,1-0.8s0.7-0.7,1-1.1c-0.2-0.9,0.5-2.5,1.4-3.3c0,0.3,0,0.7,0,1c-0.5,0.6-0.5,0.7-0.1,1.1c0.1-0.4,0.1-0.7,0.2-1.1
		c0.5-1,1.1-2.1,1.6-3.1c0.6-1.3,1.2-2.5,2.6-3c0.4-0.2,0.9-0.4,1.2-1.1c-0.8,0.4-1.4,0.7-2,1.1c-0.1-0.2-0.2-0.4-0.3-0.5
		c-0.6,0.8-1.2,1.4-1.8,2.1c0,0.1,0.2,0.2,0.2,0.3c-0.3,0.6-0.6,1.2-0.8,1.8c-0.2-0.1-0.4-0.1-0.6-0.2c-0.5,0.6-0.8,1.5-1.9,1.7
		c0-0.4,0.1-0.7,0.1-0.9c-0.3,0.4-0.6,0.7-0.9,1.1l0,0c0,0,0,0-0.1,0c-0.1,0.3-0.3,0.7-0.4,1c-0.1,0-0.2-0.1-0.3-0.1
		c0.1-0.4,0.3-0.7,0.6-0.9c0,0,0,0,0-0.1l0,0c-0.1-0.1-0.2-0.3-0.2-0.4c-1.1,0.5-1,2-2.2,2.6c0-0.4,0.1-0.7,0.1-1
		c-0.5,0.7-1.2,2.2-1.3,3c-0.1,0.4-0.2,0.8-0.4,1.1c-0.2,0.4-0.2,0.4-1,0.2c-0.2-1.8,0.4-3.4,1.9-4.5c-0.1-0.1-0.3-0.2-0.3-0.3
		c0.1-0.4,0.2-0.7,0.4-1.1c-0.9,0.6-1.1,1.8-2.1,2.5c0.1-0.4,0.1-0.7,0.1-1c-0.6,0.9-1.2,1.8-1.5,2.9c-0.1,0.5-0.3,0.9-0.6,1.3
		c-0.1,0.2-0.5,0.3-0.8,0.5c0-0.3-0.1-0.6,0-0.7c0.6-0.8,0.7-1.8,1.2-2.6c0.4-0.9,0.9-1.7,1.3-2.6c0.1-0.2,0.2-0.5,0.3-0.7
		c0.1,0.1,0.2,0.1,0.4,0.2c-0.1,0.5-0.2,1-0.2,1.4c0.6-1.2,1.4-2.3,1.5-3.7l0,0l0,0l0,0c-0.2,0.2-0.4,0.5-0.5,0.7
		c-0.3,0.5-0.5,1-1.2,1c-0.2,0-0.4,0.2-0.6,0.4c-0.1-0.3-0.3-0.7-0.3-0.9c0.2-0.7,0.6-1.3,0.9-1.9c0.1-0.2,0.5-0.4,0.7-0.6
		c-0.1,0-0.3,0-0.5,0c0-0.6,0.1-1.1,0.5-1.4c0.7-0.5,1.4-0.9,2.3-1.2c-0.1,0.6-0.3,1-0.7,1.3c-0.3,0.2-0.5,0.5-0.8,0.7
		c0.2,0,0.3,0,0.6-0.1c-0.2,0.6-0.3,1.2-0.5,1.8l0,0c0.4-0.6,0.8-1.3,1.1-1.9c0.3-0.5,0.6-0.9,1.2-1.1c0.3-0.1,0.6-0.3,0.9-0.5
		c0.2-0.1,0.5-0.1,0.8-0.1c-0.5,1.2-0.8,2.2-1.7,3c0.2,0.2,0.3,0.3,0.5,0.6c0.9-1.8,1.8-3.6,2.6-5.3c0-0.1,0-0.1-0.1-0.3
		c-0.8,1.3-2,1.9-3.5,2.2c0.3-1.4,1.4-2.5,1.5-3.9c-0.5,0.6-0.9,1.3-1.2,2c-0.5,1-1.4,1.4-2.4,1.8c-0.2,0.1-0.5-0.1-0.5-0.1
		c-0.6,0.5-1.1,0.9-1.6,1.3c-0.2,0.1-0.3,0.3-0.5,0.5c0.2-0.1,0.5-0.1,0.8-0.2c-0.1,0.9-0.4,1.5-1,2c-0.2,0.2-0.4,0.4-0.6,0.6l0,0
		c0.2,0,0.4-0.1,0.7-0.2c-0.3,1-0.5,1.9-1.5,2.5c0.2-0.9,1-1.5,0.8-2.4l0,0l0,0l0,0c-0.2,0.1-0.5,0.2-0.8,0.3
		c-0.1-1.3,0.5-2.1,1.4-2.7c-0.2,0-0.3,0-0.7,0c0.7-1.7,1.3-3.2,2-4.7c-0.3,0.1-0.5,0.3-0.6,0.5c-0.5,1.3-1.1,2.5-1.6,3.8
		c-0.3,0.8-0.7,1.4-1.6,1.5c0-0.3,0-0.5,0-0.7l0,0c-0.2,0.3-0.4,0.7-0.6,1c-0.1,0.2-0.3,0.3-0.6,0.4c0.1-0.9,0.6-1.7,1.1-2.5
		c0,0.4,0,0.7,0.1,1.1l0,0l0,0l0,0c0.6-0.7,0.7-1.6,1.1-2.5c0.4-1,0.9-2,1.4-3c0.1-0.2,0.1-0.3,0.1-0.7c-0.3,0.4-0.5,0.6-0.7,0.8
		l-0.1-0.1c0.5-1.4,2.9-3.3,1.7-10.7c-1.1-7-3.8-10.5-4.4-11.9c-0.6-1.2-1.4-2.4-2.2-3.5c-0.4-0.6-3.4-4.5-2-9.2
		c0.2-0.7,3.6-4.5,3.8-4.7c1.1-1.2,2.3-2.2,3.7-3c0.4-0.2,0.8-0.3,1.2-0.6c1.4-0.9,2.8-1.9,4.2-2.8c0.7-0.5,1.4-0.9,2.1-1.4
		c2-1.2,4.1-2.3,6.1-3.6c1-0.6,1.9-1.3,2.8-2.1c1.7-1.6,3.4-3.4,5.1-5.1c1.4-1.5,2.7-3.1,3.7-4.9c0.1-0.2,0.3-0.6,0.2-0.7
		c-0.4-0.7,0.1-1.1,0.5-1.4c0.6-0.4,0.7-0.9,0.9-1.5c0.2-0.8,0.1-1.6,0.2-2.4C218.2-38.6,217.2-40,216.1-41.5z M83.6,88.9
		c0.2-0.2,0.4-0.4,0.6-0.5l0,0c0-0.1,0-0.1,0-0.2c-0.1-0.4-0.1-0.8-0.2-1.1h0.1c0,0.4,0,0.8,0,1.2c0,0.1,0,0.1,0,0.2l0,0
		c0,0.4-0.1,0.7-0.1,1.2c0.2-0.1,0.4-0.1,0.7-0.2c-0.1,0.5-0.1,1-0.2,1.5c0.8-0.6,0.8-0.6,1.1-3.6c0.7,1.5-0.2,2.8-0.4,4.3
		c0.4-0.3,0.5-0.4,0.7-0.5c-0.1,1.5-0.9,1.6-2,1.2c-1.6-0.6-2.3-2.5-1.4-4.1C83,88.4,83.3,88.6,83.6,88.9z M81.4,84.2
		c0.1,0,0.2,0.1,0.3,0.1c-0.1,0.2-0.3,0.5-0.4,0.7c-0.1,0-0.1-0.1-0.2-0.1C81.2,84.7,81.3,84.4,81.4,84.2z M79,85.4
		c0.1-0.3,0.2-0.5,0.4-0.8c0.1,0,0.2,0.1,0.3,0.1c-0.1,0.3-0.3,0.6-0.5,1C79.1,85.6,79,85.5,79,85.4z M78.6,87c0.1,0,0.1,0,0.2,0.1
		c-0.1,0.2-0.2,0.5-0.3,0.7c-0.1,0-0.1,0-0.2-0.1C78.4,87.5,78.5,87.2,78.6,87z M90,69.2c0.1,0,0.1,0.1,0.2,0.1
		c-0.1,0.2-0.2,0.4-0.3,0.6c-0.1,0-0.1-0.1-0.2-0.1C89.8,69.6,89.9,69.4,90,69.2z M90.6,70.7c-0.1,0.2-0.2,0.5-0.3,0.7
		c-0.1,0-0.1,0-0.2-0.1c0.1-0.2,0.2-0.5,0.3-0.7C90.4,70.7,90.5,70.7,90.6,70.7z M84.5,63.8c1.2-0.3,2.3-0.6,3.5-0.2
		c0.4,0.1,0.9,0.2,1,0.8c-0.2,0-0.4,0-0.7,0c-0.2,0.9,0.1,2.1-0.9,2.8c-0.2-0.2-0.3-0.4-0.5-0.6l0,0l0,0l0,0
		c-0.4-0.6-0.7-1.2-1.1-1.8c-0.1,0.2-0.4,1-0.4,1.2c-0.9,0.3-1.7-0.2-2.6-0.2C83,64.8,83.5,64.1,84.5,63.8z M89.5,74.5
		c-0.2-0.9,0.2-1.3,0.6-1.7C90.2,73.4,90.2,73.4,89.5,74.5z M90.4,77.9c-0.8-0.4-0.6-1-0.8-1.4C90.4,76.7,90.3,77.3,90.4,77.9z
		 M88,76.6c0.5,0,0.7,0.3,0.7,0.8c-0.4-0.1-0.8-0.2-1.3-0.3C87.7,76.9,87.8,76.6,88,76.6z M86.9,74.2C86.9,74.2,86.8,74.2,86.9,74.2
		c0-0.3,0.1-0.4,0.2-0.6c0.1,0,0.1,0.1,0.2,0.1C87.1,73.9,87,74,86.9,74.2z M74.1,67.9c0.4-1,0.8-1.9,1.8-2.1
		c0.4-0.1,0.9-0.1,1.3-0.1c1,0,2-0.1,2.8-0.6c0.3-0.2,0.5-0.5,0.3-0.9c-0.1,0-0.2-0.1-0.3-0.1c-1,0.7-2,0.9-3.2,0.6
		c-1-0.2-1.9-0.1-2.8,0.5c-0.1,0.1-0.2,0.1-0.5,0.1c0.4-0.5,0.8-0.8,1.3-0.9c1.8-0.2,3.6-0.4,5.4-0.7c0.7-0.1,1.2,0.2,1.5,0.8
		C80.1,66.5,77.3,68.1,74.1,67.9z M78.2,72.8c0.1,0.6,0.2,1.2,0.1,1.8c-0.1,0.5,0.1,1.2-0.5,1.5c-0.2-0.7-0.3-2.3-0.2-3.6
		C77.8,72.6,78.2,72.7,78.2,72.8z M74.8,72.6c0.6-0.3,1.3-0.4,2-0.6c0.4,1.8,0.4,2.7,0,3.9c-1,0.6-1.5-0.4-2.3-0.6
		c-0.4-0.1-0.5-0.6-0.6-1C73.7,73.4,73.9,72.9,74.8,72.6z M68.1,72.9c1-1.1,2.8-1.5,4.3-0.9c0,0.2-0.1,0.4-0.1,0.6
		c-0.1,0.2-0.2,0.4-0.3,0.6c-0.2-0.1-0.4-0.2-0.7-0.4c-0.1,0.6-0.3,1.2-0.4,1.8h-0.1c0-0.5,0-1.1,0-1.8c-0.6,0.5-0.5,1.2-0.6,1.7
		c-0.1,0.5-0.3,1-0.5,1.8c-0.1-1,0.2-1.8-0.3-2.7c-0.1,0.4-0.3,0.6-0.3,0.8c0,1-0.1,2-0.3,3.3c-0.5-1,0-2-0.7-3
		C68,75.4,68,75.8,68,76.2c-0.2,0-0.5,0-0.7,0.1c-0.2,0.1-0.3,0.4-0.4,0.7C66.3,76,66.8,74.4,68.1,72.9z M74.4,82.4
		c0.2,0.9-0.4,1.1-0.7,1.6c-0.3,0.4-0.5,1-1.3,1.4C73,84.1,73.7,83.3,74.4,82.4z M67.6,83.5c-0.9,0.2-0.8,1-1.1,1.6
		c-0.1,0.3-0.2,0.6-0.4,0.9c-0.3-0.1-0.5-0.2-0.8-0.3c-0.1,0.3-0.3,0.6-0.5,1.1c-0.1-0.3-0.1-0.5-0.2-0.7c-0.1,0-0.1-0.1-0.2-0.1
		c-0.1,0.3-0.2,0.7-0.3,1c-0.4-0.2-0.6-0.4-0.8-0.5c-0.2,0.3-0.4,0.7-0.5,1c-0.7,0-0.8-0.6-1.1-0.8c0.7-1.4,1.1-1.6,2.4-1.3
		c0.6,0.2,1,0.1,1.4-0.4c0.3-0.4,0.7-0.7,0.9-1.1c0.1-0.2,0.1-0.5,0.2-0.8c-1.1-0.3-1.7,0.8-2.6,0.9c-0.9,0.1-1.8,0.4-2.7,0.7
		c0.2-1,1.1-1,1.7-1.2s1.1-0.4,1.7-0.6c1-0.4,2.1-0.5,3.3,0C67.8,83,67.8,83.5,67.6,83.5z M67.7,80.9c0.1-0.9,0.1-1.4,0.2-2l0,0
		c-0.2,0.3-0.4,0.6-0.6,1c-0.2,0.4-0.4,0.9-0.8,1.3c0-0.3,0-0.7,0-1.2c-0.4,0.3-0.6,0.5-0.8,0.7c-0.1-0.2-0.3-0.3-0.5-0.6
		c-0.2,0.3-0.4,0.6-0.7,0.9c-0.4-0.5-0.7-0.9-1-1.3c0.2-0.9,0.5-1.3,1.4-1.4c1.1-0.1,2.1-0.1,3,0.7l0,0l0,0l0,0
		c0.2,0,0.5,0.1,0.8,0.2C68.3,79.7,68.1,80.1,67.7,80.9z M69.1,87.7c0.7-0.3,0.7-0.3,1.1,0.6C69.6,88,69.4,87.8,69.1,87.7z
		 M68.4,80.6c0.2-0.4,0.5-0.8,0.7-1.2C69.3,80,69,80.3,68.4,80.6z M74.4,87.6c-0.8,0.5-1.5,0.9-2.3,1.4c0,0.2-0.1,0.6-0.2,0.9
		c-0.5,0-0.7-0.1-0.8-0.6c-0.1-0.9,0.5-1.9,1.3-2.3c0.8-0.3,1.5-0.7,2.3-1c0.3-0.1,0.6-0.1,0.9-0.1c0.3,0,0.7,0.1,1.1,0.3
		C76.1,87.2,75.1,87.2,74.4,87.6z M76.1,84.7c0-0.5,0.1-0.8,0.9-0.6C76.6,84.4,76.4,84.5,76.1,84.7z M76.4,81.3
		c-0.3-0.2-0.6-0.5-0.8-0.7c-0.2,0.2-0.3,0.4-0.4,0.6c-0.9-0.3-0.9-1.2-1.6-1.7c0.7-0.4,1.1,0.3,1.7,0.3c0.7-0.4,1.5-0.6,2.5,0
		c0,0.2-0.1,0.6-0.1,1c-0.2-0.1-0.4-0.2-0.6-0.4C76.8,80.7,76.6,81,76.4,81.3z M77.5,83.2c-0.1-0.9-0.1-0.8,0.9-1
		C78.2,82.7,78,83.1,77.5,83.2z M80.2,79.5c-0.4,0.2-0.7,0.5-1.2,0c-0.2,0.2-0.3,0.4-0.5,0.6c-0.1-0.1-0.2-0.2-0.2-0.3
		c0.1-0.4,0.2-0.7,0.3-1.1c-0.3-0.7-0.9-0.6-1.4-0.6c-0.6,0-1.3-0.2-1.9-0.3c-0.1,0-0.3-0.2-0.5-0.4c0.9-0.4,1.6-0.7,2.5-0.3
		c0.5,0.2,1,0.4,1.5,0.5C79.7,77.9,80.3,78.4,80.2,79.5z M78.7,75.9c0-0.2-0.1-0.4,0-0.6c0.1-0.8,0.1-1.6,0.2-2.4
		c0-0.3,0-0.3,0.8-0.4C79.5,73.8,79.4,74.9,78.7,75.9z M80.3,73.5h-0.1c0-0.3,0-0.5,0.1-0.8h0.1C80.4,73.1,80.3,73.3,80.3,73.5z
		 M81.3,69.9l-0.2-0.1c0.1-0.2,0.2-0.4,0.3-0.5c0.1,0.1,0.2,0.1,0.3,0.2C81.6,69.7,81.5,69.8,81.3,69.9z M80.2,68.4
		c0.4-1.4,1.6-1.3,2.5-1.6c0.7-0.2,1.5-0.1,2.2,0.5C83.3,67.7,81.7,68,80.2,68.4z M85.8,68c0.5,0.7,0.5,1-0.2,1.5
		C85.7,68.9,85.7,68.6,85.8,68z M90,81c-0.9-0.2-1.9-0.4-2.7-1.1c-0.3-0.3-0.5-0.6-0.4-1c1.3-0.5,1.3-0.5,3.4,0.6
		c0.1,0.3,0.1,0.6,0.3,1.1c0.2-0.6,0.3-0.9,0.5-1.3C91.5,80.3,90.9,81.2,90,81z M91.1,77.8c-0.1-0.3-0.2-0.4-0.2-0.5s0-0.3,0-0.6
		C91.3,77.3,91.3,77.3,91.1,77.8z M90.5,74.8c0.4-0.7,0.7-1.3,1-2C91.8,73.9,91.4,74.7,90.5,74.8z M92.7,77.6c-0.1,0-0.1,0-0.2,0
		c0.1-0.4,0.1-0.7,0.2-1.1c0.1,0,0.1,0,0.2,0C92.9,76.9,92.8,77.2,92.7,77.6z M91.7,69.4c-0.1-0.1-0.3-0.2-0.4-0.3
		c0.2-0.1,0.4-0.2,0.8-0.4C91.9,68.9,91.8,69.1,91.7,69.4z M94,77.4c0.1,0,0.1,0,0.2,0c0,0.2-0.1,0.4-0.1,0.6c-0.1,0-0.1,0-0.2,0
		C93.9,77.8,93.9,77.6,94,77.4z M93.8,72.7c0-0.6,0.2-0.9,0.7-0.7C94.4,72.2,94.1,72.4,93.8,72.7z M95.7,72.7L95.7,72.7
		c0.2,0,0.4,0,0.7,0c-0.2,0.6-0.5,0.7-1.1,0.8C95.5,73.2,95.6,73,95.7,72.7C95.7,72.8,95.7,72.8,95.7,72.7L95.7,72.7
		c-0.1-0.1-0.2-0.3-0.2-0.3c0.3-0.5,0.6-0.9,1-1.3c0.1,0.1,0.1,0.1,0.2,0.2C96.4,71.7,96,72.2,95.7,72.7L95.7,72.7z M96.4,69.9
		C96,70.4,95.7,71,94.5,71c1-1.2,2-2.2,3-3.2C97.6,68.7,96.9,69.2,96.4,69.9z M97.2,72c0.4-0.6,0.9-1.1,1.3-1.8
		C98.7,71,98.4,71.4,97.2,72z M97.2,70.6c0-0.8,0.3-1.3,1.2-1.6C98.3,69.9,97.7,70.2,97.2,70.6z M118.8,72.5
		c0.5-0.8,1.3-1.2,2.2-1.6C120.4,71.6,119.8,72.3,118.8,72.5z M124.2,71.3c0.6-0.9,1.3-1.4,2.1-1.7
		C125.9,70.4,125.5,71.3,124.2,71.3z M126.5,70.5c0.7-0.6,1.3-1.2,2-1.9C128.2,69.6,127.5,70.4,126.5,70.5z M128.2,70.2
		c1.1-1.1,1.9-2.2,3.3-2.5c-0.5,0.5-0.9,0.9-1.4,1.4C129.6,69.5,129.3,70.2,128.2,70.2z M130.4,69.5c0.5-0.5,0.8-0.9,1.2-1.2
		c0.9-0.5,1.9-1,2.9-1.5C133.6,68.3,131.9,69.4,130.4,69.5z M136.5,67.8c-1.2-0.7-1.2-1.1-0.2-2.7c0.4,0.6-0.4,1-0.3,1.5
		c0.2,0,0.4,0.1,0.6,0.1C136.8,67.2,136.9,67.5,136.5,67.8z M137.9,66.9c-0.1-0.1-0.2-0.1-0.3-0.2c0-0.1,0.1-0.2,0.1-0.3
		c0.1,0.1,0.2,0.1,0.3,0.2C138,66.8,138,66.9,137.9,66.9z M139.4,66.7c-0.7-0.7-0.7-0.7-0.2-1.4C139.5,65.8,139.4,66.2,139.4,66.7z
		 M141.4,66.2c-0.8-0.5-1.1-1.2-1.4-1.9c0-0.1,0.2-0.4,0.3-0.7C140.8,64.5,141.5,65,141.4,66.2z M142.6,65.6c-0.2,0-0.5-0.2-0.5-0.4
		c-0.1-0.3-0.1-0.7,0.4-0.8c0.1,0.2,0.3,0.4,0.4,0.6C143,65.3,143,65.6,142.6,65.6z M143.8,65.1c-0.4-0.6-0.5-1,0-1.5
		C144.5,64.4,144.5,64.4,143.8,65.1z M145.4,64.2c-0.1-0.2-0.1-0.5-0.3-0.8C145.5,63.7,145.5,63.7,145.4,64.2z M147,63.3
		c-0.1,0-0.3,0-0.3-0.1c-0.3-0.4-0.3-0.7,0.2-1c0.1,0.1,0.2,0.1,0.2,0.1C147.4,62.7,147.4,63,147,63.3z M146.7,59
		c-0.1,0-0.1-0.1-0.2-0.1c0.1-0.2,0.3-0.3,0.4-0.5c0.1,0,0.1,0.1,0.2,0.1C147,58.7,146.9,58.9,146.7,59z M148.7,63.2
		c-0.8-0.6-0.8-1.4-0.5-2.2C148.4,61.8,149.4,62.3,148.7,63.2z M148.8,59.4c-0.1,0-0.1,0-0.2,0c0-0.2,0-0.3,0.1-0.5c0,0,0.1,0,0.2,0
		C148.8,59,148.8,59.2,148.8,59.4z M149.8,62.8c0.4-0.5,0.7-0.8,1-1.2C151.2,62.5,151.2,62.5,149.8,62.8z M150.7,59
		c-0.4-0.4-0.6-0.7,0-1.1C150.7,58.3,150.7,58.7,150.7,59z M155.5,52.1c0.1,0,0.1,0,0.2,0c0,0.2-0.1,0.4-0.1,0.7c-0.1,0-0.1,0-0.2,0
		C155.5,52.6,155.5,52.4,155.5,52.1z M153,56.9c0.5,0.8,0,1-0.4,1.4C152.3,57.7,152.6,57.4,153,56.9z M151.8,61.7
		c-0.5-0.6-0.7-0.9-0.2-1.3C151.6,60.7,151.7,61.1,151.8,61.7z M153,59.9c-0.7-0.7-0.7-0.8,0.2-1.5C153.6,59.1,153.5,59.5,153,59.9z
		 M154.3,61.3c-0.4-0.5-0.3-1-0.2-1.5C154.5,60.3,155,60.7,154.3,61.3z M154,56.3c0.1-0.3,0.2-0.5,0.4-0.9c0.5,0.6,0.2,0.8-0.1,1
		C154.2,56.4,154.1,56.3,154,56.3z M155.3,60.8c0-0.3,0-0.6-0.1-0.8l0,0c0,0,0,0,0-0.1c-0.7-1-0.7-1-0.1-1.8c0,0,0.1,0,0.3,0
		c0,0.6-0.1,1.1-0.1,1.7l0,0l0,0c0.4-0.3,0.7-0.9,1.3-0.3C156.2,60.1,155.8,60.4,155.3,60.8z M156.9,59.5c-0.2-0.5-0.4-1-0.7-1.7
		c0.7,0.1,1.2,0.2,1.8,0.3C157.9,58.8,157.8,59.3,156.9,59.5z M157.9,51.3c0,0.7,0.3,1.2-0.5,1.4C157.6,52.3,157.7,51.9,157.9,51.3z
		 M159.1,58.4c-0.5-0.3-0.3-0.7-0.3-1.1l0,0l0,0c-0.2-0.1-0.4-0.1-0.4-0.2c-0.1-0.5,0-0.9,0.5-1.5c0,0.7,0,1.2-0.1,1.7l0,0l0,0
		c0.2,0.1,0.4,0.2,0.6,0.3C159.2,57.9,159.1,58.1,159.1,58.4z M159.6,57c-0.3-0.4-0.3-0.4,0.1-1.2C159.7,56.4,159.7,56.7,159.6,57z
		 M159.5,50.5c0-0.2,0-0.4,0-0.5c0.1,0,0.1,0,0.2,0c0,0.2,0,0.4,0,0.5C159.7,50.5,159.6,50.5,159.5,50.5z M161.1,57.1
		c-0.7-0.9-0.7-1.1,0-2.1C161.3,55.8,161.4,56.4,161.1,57.1z M175.2,35.4c0.1,0,0.1,0,0.2,0c0.1,0.3,0.2,0.5,0.2,0.8l-0.1,0.1
		c-0.1-0.1-0.3-0.2-0.3-0.4C175.1,35.7,175.1,35.6,175.2,35.4z M174.8,36.9c1.2,0.9,1.2,1.2,0.6,2.7
		C174.5,38.7,174.3,37.9,174.8,36.9z M173,37.7c0.6,0.7,0.1,1.1-0.1,1.7C172.5,38.8,172.7,38.3,173,37.7z M172.8,42.4
		c0.5,0.3,0.4,0.6,0.1,0.9C172.9,43,172.8,42.7,172.8,42.4z M171.2,40.4c0.6,0.6,0.6,0.6,0.2,1.5C171.1,41.4,171.1,41.4,171.2,40.4z
		 M171.6,44.6c0.5,0.7,0.5,1.2,0.1,1.9C171.4,45.8,171.4,45.3,171.6,44.6z M170.7,43.5c0,0.4,0,0.8,0,1.2
		C170.3,44.2,170.3,44.2,170.7,43.5z M170.2,48.3c0.3,0.6,0.3,0.9-0.2,1.2C169.5,49,169.9,48.8,170.2,48.3z M169.3,44.9
		c0.2,1.2,0.2,2.1-0.2,3.2C168.1,46.8,168.7,46,169.3,44.9z M168.2,48c1.2,1,0.3,1.8,0.1,2.7C168,49.8,167.8,49,168.2,48z
		 M167.1,45.7c-0.1,0.4-0.1,0.7-0.1,1l0,0v0.1c0.4,0.5,0.5,1.1,0,1.8c-0.6-0.7,0.2-1.2,0-1.8c0,0,0-0.1-0.1-0.1l0,0
		c-0.2,0.2-0.3,0.4-0.6,0.6C166.3,46.6,166.5,46.2,167.1,45.7z M168.2,51.8c0,0.2,0,0.4,0,0.6c-0.1,0-0.1,0-0.2,0
		c-0.1-0.2-0.1-0.4-0.2-0.6C167.9,51.8,168.1,51.8,168.2,51.8z M167.2,50.1c0.1,1.1-0.1,1.9-0.5,2.7C166.5,51.9,166.5,51,167.2,50.1
		z M165.8,43.3c0.1,0,0.1,0,0.2,0.1c-0.1,0.3-0.2,0.7-0.3,1c-0.1,0-0.2-0.1-0.3-0.1C165.6,44,165.7,43.7,165.8,43.3z M166.3,48.8
		c0.5,0.7,0.5,1.1-0.4,2.2C165.8,49.8,165.8,49.8,166.3,48.8z M164.7,47.8c0.1,0,0.2,0,0.3,0c-0.1,0.3-0.1,0.6-0.2,1
		c-0.1,0-0.1,0-0.2,0C164.7,48.5,164.7,48.2,164.7,47.8z M164.2,47.3c0.1,0,0.2,0.1,0.2,0.1c-0.1,0.2-0.2,0.5-0.3,0.7
		c-0.1,0-0.1-0.1-0.2-0.1C164,47.8,164.1,47.5,164.2,47.3z M164.4,53.5c-0.3-0.8-0.1-1.6,0.3-2.4C164.9,51.9,164.8,52.7,164.4,53.5z
		 M163.8,49.9c0.1,0,0.2,0.1,0.3,0.1c-0.1,0.5-0.2,1-0.3,1.4C163.5,50.9,163.6,50.4,163.8,49.9z M162.1,46.2c0.1,0,0.2,0,0.3,0
		c0,0.3-0.1,0.5-0.1,0.8c-0.1,0-0.1,0-0.2,0C162.1,46.7,162.1,46.5,162.1,46.2z M161.1,49.8c-0.3-0.4-0.2-0.8,0.1-1.2
		C161.5,49,161.5,49.4,161.1,49.8z M170.7,56.5c-0.5,0.7-1,1.5-2.1,1c-0.1,0-0.3,0.2-0.5,0.4c-0.1-0.2-0.3-0.4-0.5-0.7
		c-0.2,0.4-0.4,0.7-0.6,1.1c-0.3-0.3-0.6-0.6-0.9-1.1c0.7-0.4,1.4-0.8,2.1-1.2c0.6-0.4,1.5-0.2,1.9-1.2c-0.9-0.2-1.7-0.5-2.5,0.1
		c-0.5,0.3-1,0.6-1.5,0.9c-0.9,0.5-1.6,1.2-1.8,2.2c-0.1,0.4-0.3,0.6-0.7,0.5c-0.2-0.5-0.5-1-0.7-1.5c-0.2-0.5-0.1-0.8,0.6-1.1
		c0.1,0.1,0.1,0.2,0.2,0.3c0,0.1,0,0.2,0.1,0.4c0.6-0.4,1.1-0.8,1.6-1.2c0.2-0.1,0.2-0.3,0.3-0.5c0.2-0.4,0.5-0.7,1-0.8
		c0.2,0,0.4-0.2,0.6-0.4c1.2-0.8,2.5-1.1,3.9-0.4c0.1,0.1,0.2,0.2,0.4,0.4C171.2,54.7,171.4,55.7,170.7,56.5z M171.5,50.5
		c-0.3-0.2-0.5-0.5-0.9-0.8c0.2-0.3,0.3-0.6,0.6-1.1C171.9,49.6,171.9,49.6,171.5,50.5z M172.1,48.4c-0.5-0.5-0.4-0.8-0.1-1.3
		C172.4,47.5,172.3,47.9,172.1,48.4z M173,49.8c-0.4-1-0.4-1,0.2-1.5C174,49.3,174,49.5,173,49.8z M173.7,44
		c0.4,0.7-0.1,1.1-0.4,1.7C173.1,45,173.3,44.5,173.7,44z M174.6,46c-0.1,1-0.2,1.6-0.3,2.3C173.5,47.4,173.5,47.3,174.6,46z
		 M174.8,49c-0.3-0.8,0.1-1,0.5-1.1C175.2,48.2,175.1,48.5,174.8,49z M175.4,45.3c0,0.2,0.1,0.5,0.2,0.8
		C175.2,45.8,175.2,45.8,175.4,45.3z M176.4,53.1c-0.2-0.8,0.2-1.1,0.6-1.4C177.4,52.4,177,52.7,176.4,53.1z M176.1,44.9
		c-0.7-0.2-0.7-0.2-0.4-1.1C176.1,44.1,176.3,44.4,176.1,44.9z M177.7,53.4c-0.1,0-0.1-0.1-0.2-0.1c0.1-0.2,0.2-0.4,0.2-0.6
		c0.1,0,0.2,0.1,0.3,0.1C177.9,53,177.8,53.2,177.7,53.4z M176.6,43.5c-0.4-0.5-0.6-0.9,0-1.5C177.1,42.5,176.9,42.9,176.6,43.5z
		 M198.6,42.8c-0.4,1-0.9,2-1.3,3c-0.3,0-0.5-0.1-0.8-0.1C196.8,44.4,197.1,43.2,198.6,42.8z M196.4,44.1c0,1.1-0.8,1.9-1.2,2.8
		C195.1,45.7,195.7,44.9,196.4,44.1z M191,43.1c-0.2,0.5-0.4,0.9-0.8,1.5C190.2,43.6,190.2,43.6,191,43.1z M181.5-14.1
		c0,0.6,0.1,0.9,0,1.1c-0.2,0.5-0.5,0.4-0.9-0.1C180.9-13.5,181.1-13.7,181.5-14.1z M174.4,2.6c-0.1-0.1-0.1-0.1-0.1-0.2
		c0-0.1,0.1-0.1,0.1-0.2c0.1,0.1,0.1,0.2,0.2,0.3C174.5,2.5,174.5,2.6,174.4,2.6z M175.3,1.1c0-0.4,0-0.6-0.1-0.9
		C175.8,0.4,175.6,0.7,175.3,1.1z M176.4-3c-0.6-0.3-1-0.6-1.6-0.9c-0.1,1,0.8,1,1.1,1.7c-0.2,0.2-0.4,0.5-0.7,0.8
		c-0.6-0.3-1-0.6-1.5-0.9c-0.1,0.1-0.1,0.1-0.2,0.2c0.3,0.4,0.6,0.8,1,1.3c-0.1,0.3-0.3,0.7-0.4,1c-0.7,0.2-1.1-0.9-1.8-0.1
		c0.2,0.2,0.4,0.3,0.6,0.5c0.2,0.1,0.3,0.2,0.7,0.5c-0.3,0.1-0.5,0.3-0.6,0.3c-0.3-0.1-0.5-0.2-0.9-0.4c-0.3,0.7,1,0.9,0.3,1.6
		c-0.2-0.1-0.5-0.3-0.8-0.3c-0.2-0.1-0.5-0.1-0.8,0c-0.8,0.3-0.8,0.4-1.7,0.3c0.1-0.2,0.1-0.4,0.2-0.7c-0.2-0.2-0.5-0.3-0.9-0.6
		c0.6,0.1,0.9,0.1,1.4,0.2c-0.2-0.4-0.3-0.7-0.4-1.1c0.3-0.1,0.5-0.1,0.9-0.2c0-0.2,0-0.5,0-0.8c0.9-0.1,0.9-1.4,2-1.3
		c0-0.4,0-0.7-0.1-1c0.4,0,0.7,0,1,0c0.1-0.3,0.1-0.6,0.2-1.1c0.9-0.3,1.5-1.5,2.7-1.3c0.4,0.5,0.7,1,1.2,1.5
		C177-3.6,176.7-3.3,176.4-3z M181.9,26.7c0.5,0.9,1,1.8,1.5,2.7c0,0,0,0,0.1,0l0,0c0.4,0.3,0.7,0.7,0.6,1.2
		c-0.6-0.3-0.5-0.8-0.6-1.2l0,0c0,0,0,0,0-0.1c-0.7-0.4-1.3-0.9-1.7-1.6C181.5,27.5,181.7,27.1,181.9,26.7z M183.5,11.8
		c0.1-0.1,0.2-0.2,0.4-0.3c0.7,0.5,0.4,1.3,0.5,2.1c-1.6-1.2-2-2.9-2.9-4.4C183,9.9,183.3,10.3,183.5,11.8z M180.4,0.1
		c0-0.4-0.1-0.7-0.2-1.3C180.7-0.7,180.8-0.3,180.4,0.1z M182.5,8.1c0.5,0.4,0.8,0.7,0.8,1.3C183,9,182.4,8.9,182.5,8.1z
		 M182.5,13.4c0.3,0.3,0.4,0.4,0.6,0.6c0.3,0.5,0.4,1.2,1.1,1.4c0.1,0,0.2,0.2,0.2,0.3c0.1,0.7,0.3,1.4,0.4,2
		C184.1,17.3,182.7,14.3,182.5,13.4z M184.7,19.9c0,0.3,0.1,0.6,0.1,0.9c-0.1,0-0.1,0-0.2,0c-0.1-0.3-0.2-0.6-0.3-0.8
		C184.5,19.9,184.6,19.9,184.7,19.9z M183.1,17.8c1.1,0.6,0.7,1.5,0.6,2.4C182.6,19.5,183.5,18.5,183.1,17.8z M183.3,21.5
		c0.6,0.6,0.8,1.3,0.9,2.2C183.1,23.1,182.9,22.6,183.3,21.5z M183.6,26.1c-0.9-0.3-0.9-0.6-0.4-2C183.8,24.7,184.2,25.3,183.6,26.1
		z M185.6,37.8L185.6,37.8c0.2-0.1,0.4-0.3,0.6-0.5C186,38.1,186,38.1,185.6,37.8C185.6,37.8,185.5,37.8,185.6,37.8
		C185.5,37.8,185.5,37.8,185.6,37.8c-0.1-0.1-0.3-0.3-0.4-0.3c-1,0-1,0-0.9-0.8c0-0.1,0-0.2,0.1-0.4l0,0l0,0
		c-0.2,0.1-0.3,0.2-0.5,0.4c-0.6-0.8-0.6-1.6-0.5-2.5c1.2,0.5,1.3,0.7,1,2.1l0,0l0,0c0.2-0.2,0.4-0.4,0.7-0.6
		c0.3,0.4,0.5,0.7,0.7,0.9C185.7,37.1,185.6,37.4,185.6,37.8L185.6,37.8z M183.1,32.2c0-0.3,0.2-0.6,0.3-1.2c0.6,0.8,0.6,0.8,0,1.8
		C183.2,32.6,183,32.4,183.1,32.2z M184.9,34.6c-1.4-1-1.5-1.3-0.5-2.3C184.9,33,185.2,33.7,184.9,34.6z M182.6,30.1
		c0.1,0.4-0.1,0.7-0.5,1c-0.1-0.7-0.2-1.2-0.3-1.8C182.4,29.3,182.4,29.7,182.6,30.1z M181.8,32.8c0.6,0.5,0.4,1.2,0.6,1.8
		C181.4,33.9,181.4,33.8,181.8,32.8z M181.3,31.4c0.5,0.3,0.4,0.5,0.1,0.9C181.3,32,181.3,31.8,181.3,31.4z M181.8,35.4
		c0.1,0,0.1,0,0.2,0c0,0.2,0,0.5,0,0.7c-0.1,0-0.2,0-0.3-0.1C181.7,35.8,181.8,35.6,181.8,35.4z M182.6,36.3c0.1,0,0.2,0,0.2,0.1
		c0.2,0.4,0.6,0.9,0.5,1.3c-0.1,0.6,0.5,0.7,0.6,1c0.1,0.5,0.2,0.9,0.4,1.6c-1.2-0.5-1.7-1.2-2.2-2
		C181.7,37.6,181.7,37.5,182.6,36.3z M180.4,28c0,0.3,0.1,0.6,0.1,0.9C179.9,28.7,179.9,28.4,180.4,28z M181.4,35.3
		c-0.1,0-0.1,0.1-0.2,0.1c-0.1-0.2-0.2-0.4-0.3-0.6c0.1,0,0.1-0.1,0.2-0.1C181.3,34.9,181.3,35.1,181.4,35.3z M181.6,38.7
		c0,0.8,0.8,1.4,0.3,2.2C180.7,40,180.7,39.9,181.6,38.7z M182.3,42.4c-0.3,0.3-0.3,0.9-0.8,0.2c-0.8-0.3-0.9-0.9-0.9-1.7
		c1,0.3,1,0.4,1,1.6C181.7,42.4,181.9,42,182.3,42.4z M180.6,35.5c0.2,0.5,0.3,0.9,0.4,1.4C180.1,36.2,180.1,36.2,180.6,35.5z
		 M181.1,38c-0.2,0.3-0.4,0.6-0.6,0.9c-0.6,0-0.9-0.3-0.8-0.7c0.1-0.4,0.3-0.7,0.5-1.1C180.6,37.4,180.8,37.7,181.1,38z M179.6,40.2
		c-0.1,0.2-0.1,0.4-0.2,0.6c-0.1,0-0.1,0-0.2-0.1c0-0.2,0.1-0.4,0.1-0.6C179.5,40.1,179.5,40.1,179.6,40.2z M178.8,35.6
		c0.4,0.3,1,0.5,0.5,1.4C179.1,36.4,179,36,178.8,35.6z M180.7,43.9c-0.2,0.3-0.3,0.5-0.5,0.7c-0.7-0.2-1-0.7-1.5-1.2
		c0.2-0.3,0.3-0.6,0.5-1C179.8,43,180.2,43.4,180.7,43.9z M180,42.3c0.1-0.1,0.1-0.1,0.2-0.2c0.2,0.3,0.4,0.5,0.5,0.8
		c-0.1,0-0.1,0.1-0.2,0.1C180.4,42.8,180.2,42.6,180,42.3z M179.3,32.3c0.4,1,0.2,1.9,0.5,3.1C178.4,34,178.4,34,179.3,32.3z
		 M177.9,30.9c0.8,0.6,0.5,1.2,0.3,1.8C178.1,32.1,177.5,31.6,177.9,30.9z M178.4,37.2c-0.1-0.2-0.2-0.5-0.3-0.9
		C178.7,36.5,178.6,36.8,178.4,37.2z M178.2,37.9c0.9,0.5,0.5,1.1,0.2,1.8C178,39,178,38.5,178.2,37.9z M177.2,33.8
		c0.5,0.7,0.2,1.1,0.1,1.7C176.6,35,176.9,34.5,177.2,33.8z M178.4,44.3c0.1,0.4,0.2,0.8,0.3,1.2C177.7,45.2,177.7,45.2,178.4,44.3z
		 M176.9,37.5c0-0.2,0.1-0.4,0.3-0.8c0.6,0.7,0.4,1.3,0.2,2C176.9,38.4,177,37.9,176.9,37.5z M176.2,32.8c0.1,0,0.2,0,0.3,0
		c-0.1,0.3-0.1,0.6-0.2,0.9c-0.1,0-0.1,0-0.2,0C176.2,33.5,176.2,33.2,176.2,32.8z M177.9,43.4c0,0.1,0.1,0.3,0,0.4
		c-0.1,0.2-0.3,0.4-0.4,0.6C177.4,43.8,177.4,43.8,177.9,43.4z M178.6,51.9c0-0.1,0-0.3,0.1-0.4s0.2-0.1,0.5-0.3
		c-0.2,0.4-0.3,0.6-0.4,0.8C178.8,52,178.7,51.9,178.6,51.9z M179.1,53c0.3-0.4,0.3-0.4,0.9-0.3c-0.2,0.1-0.3,0.2-0.5,0.3
		C179.4,53,179.3,53,179.1,53z M180.2,54.2c0.3-0.4,0.3-0.4,0.9-0.6C181,54.1,180.6,54.2,180.2,54.2z M180.6,51.4
		c-0.1-0.1-0.1-0.1-0.2-0.2c0.3-0.3,0.6-0.7,1-1.1C181.1,51,181.1,51,180.6,51.4z M181.4,52.2c0.2-0.4,0.4-0.6,0.5-0.9
		C182.1,51.8,182.1,51.8,181.4,52.2z M182.4,53.6c0-0.6,0.3-0.9,0.9-0.9C182.9,53.1,182.7,53.4,182.4,53.6z M183.2,51.9
		c0.4-0.4,0.8-0.9,1.1-1.3C184.3,51.3,184.1,51.9,183.2,51.9z M183.2,47.6c-0.1-1,0.7-1.3,1-2.1C184.1,46.9,183.9,47.3,183.2,47.6z
		 M183.2,41.4c-0.3-0.3-0.5-0.7-0.4-1.2C183.8,40.8,183.8,40.8,183.2,41.4z M183.9,43.1c0-0.2,0-0.3,0-0.4s0.2-0.2,0.5-0.5
		c-0.2,0.5-0.3,0.8-0.4,1C184.1,43.2,184,43.1,183.9,43.1z M184.8,47.2c0.3-0.4,0.6-0.8,0.9-1.2C185.7,46.6,185.6,47.1,184.8,47.2z
		 M184.5,39.4c-0.2-0.4-0.3-0.8-0.5-1.3C184.7,38.4,184.9,38.7,184.5,39.4z M186.5,38.6c0.3,0.9,0,1.4-1.4,2
		C185.6,40,186,39.3,186.5,38.6z M187.2,40.7c-0.2,0.4-0.4,0.8-0.7,1.2C186.5,41,186.5,41,187.2,40.7z M186.4,45.9
		c0-1,0.6-1.4,1.1-1.9C187.5,44.9,187.4,45.2,186.4,45.9z M189.5,45c-0.3,0.9-0.6,1.7-1,2.6c-0.1,0.3-0.4,0.6-0.7,1.1
		c-0.1-2.7,0.3-3.6,1.9-4.7C189.8,44.3,189.6,44.7,189.5,45z M189.4,39.1c-0.2,1.8-0.5,2.3-1.6,2.2
		C187.9,40.3,188.2,39.5,189.4,39.1z M188,42c-0.1,0.6-0.3,1-0.7,1.4c-0.4,0.3-0.8,0.7-1.3,1.1C186.4,43.3,187.3,42.8,188,42z
		 M187,36.4c-1.2-0.8-1.4-1.2-1-2.4c0.3,0.3,0.5,0.6,0.7,0.8c0.1,0.1,0.1,0.3,0.2,0.4C187.5,35.8,187.6,35.8,187,36.4z M185.2,31.1
		c0.1,0,0.2-0.1,0.3-0.1c0.1,0.3,0.2,0.6,0.4,1C185.2,31.8,185.3,31.5,185.2,31.1z M187,33.6c-0.2-0.3-0.8-0.3-0.4-1.1
		c0.3,0.4,0.5,0.7,0.7,1C187.1,33.6,187,33.6,187,33.6z M188,35c-0.7-0.6-0.7-0.6,0.1-1.2C188.5,34.2,188.4,34.6,188,35z
		 M188.1,31.7c-0.1,0.3-0.2,0.5-0.3,0.8c-0.1,0-0.2,0-0.3-0.1c-0.5-0.6-1.2-1.1-1.2-2c-0.7,0.1-0.8-0.4-1.1-0.8
		c-0.3-0.4-0.5-0.9-0.9-1.3c-0.7-0.7-0.5-1.5-0.1-2.6c0.2,0.7,0.3,1.1,0.5,1.5c0.5,0,1,0.1,1.1,0.8c0.1,0.7,0.3,1.4,0.5,2
		c0.2-0.3,0.5-0.6,0.7-0.9c0.7,0.9,1.8,1.7,2.2,3.3C188.7,32.1,188.4,31.9,188.1,31.7z M189.4,30.4c-1.1-0.4-1.5-1.4-2.1-2.1
		c-0.3-0.4-0.2-1.1-0.2-1.7l0,0l0,0c-0.2,0.2-0.4,0.5-0.7,0.8c-0.8-0.6-1.2-1.3-1.5-2.1c-0.1-0.1-0.1-0.4-0.1-0.5
		c0.5-0.5,0-1,0.1-1.7c1.2,1.1,2.1,2,2.2,3.5l0,0c0,0,0,0,0,0.1c0.9,0.8,1.3,1.8,1.9,2.8c0.4-0.8-0.4-1.7,0.2-2.5
		C190.3,28,189.7,29.1,189.4,30.4z M185.6,22c0.4,0.5,0.7,0.8,0.6,1.3C185.7,23.1,185.6,22.7,185.6,22z M186.5,22.3
		c0-0.3-0.1-0.5-0.1-0.8C186.8,21.9,186.8,21.9,186.5,22.3z M187.4,17c-0.9-0.8-0.7-1.5-0.4-2.3C187.4,15.2,187.4,15.2,187.4,17z
		 M187.9,18.6c0.6,0.3,0.6,0.3,0.9,0.9c-0.3,0.3-0.5,0.5-1,0.9C187.9,19.7,187.9,19.2,187.9,18.6z M189.9,26.2
		c-0.1-0.1-0.2-0.2-0.3-0.4l0.2-0.3c0.1,0,0.2,0.2,0.4,0.3C190.1,26,190,26.1,189.9,26.2z M190,22.5c0,0.2,0.1,0.4,0.1,0.6
		c0.1,0.3,0.1,0.7,0.1,1.1c-1.4-0.8-1.6-1.3-1.1-2.6c0.1-0.2,0-0.4,0-0.6c0-0.3,0-0.6,0-1C190,21,190.1,21.2,190,22.5z M188.2,15.5
		C188.2,15.5,188.3,15.5,188.2,15.5c0.1-0.2,0.1-0.4,0.1-0.7c0.6,0.1,0.5,0.6,0.7,1C188.7,15.7,188.5,15.6,188.2,15.5
		C188.3,15.5,188.3,15.5,188.2,15.5C188.3,15.5,188.3,15.5,188.2,15.5c0.2,0.4,0.3,0.7,0.6,1c0.6,0.8,0.9,1.6,1,2.7
		c-0.3-0.2-0.5-0.3-0.7-0.4c-0.5-0.7-1.1-1.3-1.3-2.2C187.8,16.2,187.7,15.7,188.2,15.5L188.2,15.5z M186.7,12.7L186.7,12.7
		c0.1-0.2,0.2-0.4,0.3-0.8c0.2,0.3,0.3,0.5,0.4,0.9C187.1,12.7,186.9,12.7,186.7,12.7C186.8,12.7,186.8,12.7,186.7,12.7
		C186.8,12.7,186.8,12.7,186.7,12.7c0.2,0.4,0.3,0.7,0.4,1.1C186.5,13.6,186.7,13.1,186.7,12.7L186.7,12.7z M185.2,8.1
		c0.7,0.5,0.6,1.1,0.8,1.7C185.4,9.4,185.3,8.9,185.2,8.1z M185,9.9c0.8,0.8,1.3,1.7,1.3,2.9C185.1,12,184.8,11.4,185,9.9z
		 M186.3,15.8c-0.1,0.3,0,0.6,0.1,0.9c0.1,0.4,0.4,0.7,0.5,1.1c0.1,0.6,0.2,1.2,0.3,1.8h-0.1c-0.1-0.3-0.2-0.7-0.3-1.2
		c-0.6,0.7,0.1,1.4-0.3,2.1c-0.7-0.3-0.8-1.1-1.1-1.7c-0.4-0.7,0.4-1.3,0.4-2.1c-0.2-0.3-0.3-0.7-0.5-1.1c0.3-0.1,0.5-0.2,0.8-0.2
		c-0.4-0.5-0.8-0.8-0.9-1.3c-0.1-0.5,0-1,0-1.7C185.9,13.4,186.6,14.4,186.3,15.8z M184.4,10.5c-0.1,0-0.2,0-0.3,0
		c-0.1-0.8-0.2-1.6-0.4-2.7C184.6,8.8,184.4,9.7,184.4,10.5z M180.9-10.3c-0.1,0.1-0.3,0.3-0.5,0.5c-0.3-0.1-0.5-0.2-0.9-0.3
		c-0.1,0.3-0.1,0.5-0.2,0.8l0,0l0,0c0.5,0.1,0.8,0.5,1,1c-0.4-0.2-0.9-0.4-1-1l0,0l0,0c-0.2,0.1-0.4,0.2-0.7,0.3
		c0.3,0.5,0.5,0.9,0.7,1.4c-0.5-0.3-0.9-0.5-1.4-0.8c0,0.4,0,0.7,0.1,1c-0.2-0.1-0.5-0.2-0.7-0.3c-0.1,0.1-0.2,0.2-0.3,0.3
		c-0.3,0.9-0.3,0.9-1.4,0.6c0.1-0.3,0.1-0.7,0.3-1c0.6-0.7,1-1.6,1.9-2.2c0.4-0.3,0.6-0.9,0.9-1.3c0.8-0.2,1.7-0.4,2.6-0.6
		c0.1,0.5,0.3,0.9,0.5,1.4s0.8,0.7,0.9,1.4C181.8-9.4,181.6-10.2,180.9-10.3z M186.4-8.8c-0.1,0-0.2,0-0.3,0c0-0.3,0-0.6,0-1
		c0.1,0,0.2,0,0.3,0C186.4-9.5,186.4-9.2,186.4-8.8z M186.9-8.7c0.2-0.6,0.3-1.2,0.5-1.9C188.4-9.5,188.3-9.1,186.9-8.7z
		 M189.1-11.3c0.3,0.4,0.4,0.6,0.5,0.8C188.9-10.3,189.1-10.7,189.1-11.3z M190.2-11.1c-0.6-0.7-1.3-1-0.9-2
		c0.2,0.3,0.4,0.5,0.5,0.8c0.2-0.1,0.4-0.2,0.8-0.3C190.5-12.1,190.4-11.7,190.2-11.1z M191-11.5c-0.4-0.5,0.2-0.6,0.3-1
		c0.1-0.3,0-0.7,0-1.3C191.9-12.4,191.8-12.3,191-11.5z M191.2-16.7c-0.1-0.2-0.2-0.3-0.2-0.4s0.2-0.2,0.3-0.3
		c0.1,0.1,0.2,0.2,0.2,0.3C191.4-16.9,191.3-16.8,191.2-16.7z M194.4-20.4c0.6,0.6,0.3,1,0.2,1.7C194.2-19.3,193.9-19.7,194.4-20.4z
		 M193.1-18.8c0,0.4,0,0.6,0.1,1C192.3-18.4,192.3-18.4,193.1-18.8z M192.5-12.5c-0.2-0.6,0.3-0.8,0.5-1.2c0.1-0.3,0-0.8,0-1.2
		c0.2,0,0.4,0,0.4,0c0.3,0.4,0.6,0.8,0.7,1.2C194.1-13.1,193.6-12.7,192.5-12.5z M194.7-13.7c0.3-0.8,0.5-1.4,0.7-2
		c0.4,0.1,0.7,0.2,0.9,0.2C196.2-14.5,195.6-14.1,194.7-13.7z M196.1-18.1c0.4,0.3,0.7,0.4,1,0.7c-0.2,0.4-0.4,0.8-0.6,1.4
		C195.9-16.7,196.1-17.3,196.1-18.1z M197-15.1c0.2-0.8,0.4-1.3,0.5-1.8c0.1,0,0.1,0,0.2,0c0.1,0.4,0.2,0.8,0.3,1.2
		C197.7-15.5,197.4-15.3,197-15.1z M197.2-21.9c0.1,0.4,0.2,0.8,0.3,1.1c0,0.1,0,0.2-0.1,0.5c-0.6-0.9-0.9-1.7-1.1-2.6
		c0.3-0.2,0.6-0.5,0.9-0.7C196.9-22.8,196.9-22.8,197.2-21.9z M202.8-31.2c-0.2,0.5-0.7,0.6-1.1,0.8
		C201.8-30.9,202.1-31.2,202.8-31.2z M202.2-27.5c-0.4,0.1-0.8,0.3-1.3,0.5c-0.3-0.4-0.6-0.9-1-1.4c0.5-0.3,0.9-0.6,1.3-0.9
		C202.1-28.9,202.2-28.2,202.2-27.5z M203.1-25.4c0,0.3-0.1,0.5-0.2,0.9c-0.8-0.6-0.7-1.2-0.6-1.9C203-26.2,203.1-25.7,203.1-25.4z
		 M201.4-23.4c-0.4-0.6-0.5-1.2-0.4-1.9C201.8-24.6,201.8-24.4,201.4-23.4z M200.7-29.8c-0.3,0.5-0.6,0.6-1.2,0.8
		C199.8-29.6,200.1-29.8,200.7-29.8z M198.5-17.2c-0.2-1.4-0.2-1.4,0.8-1.8C199-18.3,198.8-17.8,198.5-17.2z M198.7-24.2
		c0.2,0.7,0.5,1.3,0.7,2C198.6-22.7,198.5-23.4,198.7-24.2z M200.8-18.4c-0.3,0.5-0.3,1.3-1,1.5c-0.3-1.1,0-1.8,1.2-3.1
		C201.3-19.4,201.3-19.4,200.8-18.4z M199-25.7c-0.5-0.4-0.9-0.7-1.4-1.1c0.5-0.6,1.1-0.9,1.8-1.1c0.3,0.5,0.6,0.9,0.9,1.3
		C200.1-26.1,199.6-25.9,199-25.7z M201.5-18.2c-0.2-1,0.4-1.7,0.8-2.4c0.3-0.6,0.5-1.3,1.4-1.4c0.2,1.3-0.8,2-1.1,3
		C202.5-18.5,202.1-18.2,201.5-18.2z M203.9-19.8c0.1-0.4,0.2-0.7,0.4-1.1C204.9-20.4,204.9-20.4,203.9-19.8z M205.3-21.3
		c-0.7-0.5-0.7-0.5-0.1-1.5c0.1,0,0.3,0,0.4,0.1c0.1,0.1,0.2,0.2,0.3,0.3C205.6-22.1,205.5-21.7,205.3-21.3z M205-26.5
		c-0.1,0-0.1-0.1-0.2-0.1c0.1-0.2,0.2-0.3,0.3-0.5c0,0,0.2,0.1,0.3,0.1C205.3-26.8,205.1-26.7,205-26.5z M204.5-27.6
		c-0.2-0.4-0.4-0.8-0.7-1.4c-0.2,0.5-0.3,0.8-0.4,1.2c-0.5-0.7-0.9-1.3-1.4-2c0.6-0.3,1-0.6,1.6-0.9c0.6,0.9,1.2,1.7,1.8,2.6
		C205.1-27.9,204.8-27.7,204.5-27.6z M204.1-30.9c0.5-0.3,0.9-0.4,1.2-0.6c1.5,1.2,1.7,1.6,1.7,3c-0.2-1-0.9-1.3-1.6-1.6
		C204.9-30.2,204.6-30.5,204.1-30.9z M207.8-24c-0.4,1.6-0.5,1.7-1.3,2.2c0.2-1.1,0.2-2.2,0.9-3.1C208-24.7,207.9-24.4,207.8-24z
		 M208.5-23.3c0-0.7,0.3-0.7,0.8-0.7C209-23.8,208.8-23.6,208.5-23.3z M208.9-24.5c-0.4-0.6-0.1-0.9,0.4-1.1
		C209.1-25.2,209-24.9,208.9-24.5z M208.8-30.3c-0.5-0.2-0.5-0.9-1.2-0.6c0.1,0.4,0.2,0.7,0.4,1l-0.1,0.1c-0.4-0.5-0.7-1-1.1-1.4
		c-0.5-0.4-0.9-0.7-1.1-1.3c0.5-0.3,1.1-0.7,1.6-1c0.9,0.7,1.2,1.7,1.6,2.6C209-30.8,208.9-30.5,208.8-30.3z M209.9-25
		C209.8-25,209.8-25.1,209.9-25c-0.1-0.2-0.1-0.4,0-0.6c0,0,0-0.1,0.1-0.1c0,0.1,0.1,0.1,0.1,0.2C210-25.3,209.9-25.2,209.9-25z
		 M210.4-26.8c-0.1,0-0.1-0.1-0.2-0.1c0.1-0.2,0.2-0.5,0.3-0.7c0.1,0,0.2,0.1,0.3,0.1C210.7-27.2,210.5-27,210.4-26.8z M213.3-39.5
		c0,0,0.1,0,0.2,0c-0.1,0.2-0.1,0.4-0.2,0.6c-0.1,0-0.1-0.1-0.2-0.1C213.1-39.2,213.2-39.4,213.3-39.5z M213.3-37.6
		c0,0.3,0.1,0.5,0,0.7c0,0.1-0.2,0.3-0.4,0.6C212.6-37,212.6-37.3,213.3-37.6z M210.8-36.5c0,1-0.3,1.4-1,1.7
		C209.8-35.6,210.4-35.8,210.8-36.5z M210.9-34.6c0.4,0.6,0.4,0.6-0.5,0.9C210.6-34,210.7-34.3,210.9-34.6z M211.9-27.5
		c-0.6-0.7,0.1-1.3,0.2-1.9C212.7-28.2,212.7-28.1,211.9-27.5z M215.4-31.5c-0.5,0.7-0.9,1.5-1.4,2.2l0,0l0,0l0,0
		c0.1,0,0.2-0.1,0.4-0.2c0,1.4-1.2,1.9-1.8,2.8c0-1.1,0.6-1.9,1.4-2.6l0,0c-0.1,0-0.4-0.1-0.4-0.1c0-0.2,0-0.3,0.1-0.5
		c0.4-1,0.8-2,1.2-2.9c0.1-0.3,0.3-0.5,0.5-0.9C215.9-32.9,215.9-32.2,215.4-31.5z M216.1-34.1c-0.4-0.6-0.1-1.1,0.2-1.6
		C216.8-35.2,216.8-35.1,216.1-34.1z"/>
	<path class="st0" d="M191.9,61.5c-1.1,0.5-2.4,0.7-3.5,1.4c-0.1,0-0.2,0-0.3,0c0.1-0.5,0.8-0.7,0.6-1.6c-0.6,0.7-1,1.3-1.5,1.8
		c-0.7,0.7-1.1,0.9-1.8,0.8c0.4-0.5,0.8-0.9,1.2-1.3c0.4-0.4,0.8-0.7,1.1-1.4c-1.4,0.5-1.8,1.9-3,2.3c0.1-0.3,0.2-0.6,0.4-0.8
		c0.4-0.4,0.8-0.8,1.2-1.3c0.1-0.1,0.1-0.4,0.1-0.5c-0.8,0.5-1.3,1.1-1.9,1.7c-0.2,0.1-0.4,0.2-0.7,0.4c0.3-0.9,1.1-1.2,1.1-2
		c-0.6-0.2-0.7,0.3-1,0.5c0,0-0.2,0-0.3,0c0-0.3,0.1-0.7,0.1-1.1c-0.5,0-0.9-0.1-1.3-0.1c-0.3,0.3-0.6,0.5-0.8,0.8
		c-0.4-0.3-0.7-0.5-1.1-0.7c-1.4-0.8-3-1.4-4.6-0.8c-1.7,0.7-3.3,1.6-4.3,3.2c-0.4,0.7-0.7,1.4-1.1,2.1c0.4,0.7,0.8,1.4,1.2,2.1
		c-0.9,0.6-1.6,0.6-2.3-0.1c-0.8,0.4-1.5,0.2-2.2-0.2c-0.4-0.2-0.8-0.3-1.2-0.5c-0.9-0.4-1.8-0.3-2.6,0.3c-0.8,0.5-1.6,1.1-2.4,1.7
		c-0.8,0.7-1.1,2.2-0.8,3.2c0.4,1.4,1.4,2.2,2.5,3c0.7,0.5,1.5,0.3,2.2,0.3c0.5,0,1-0.2,1.4-0.2c0.3-0.1,0.6-0.2,0.9-0.2
		c1.4,0.4,2.6-0.2,3.9-0.7c1.2-0.4,2.3-1.3,3.6-1.2c0.1,0,0.2-0.1,0.2-0.1c1.9-0.9,3.9-1.8,5.8-2.7c0.1-0.1,0.2-0.2,0.1-0.1
		c0.3-1.1,0.6-1.9,0.9-3.1c0.7-0.3,1.6-0.7,2.4-1c1-0.4,2-0.8,3-1.2c1.1-0.4,2-1.1,3.3-1c0.1,0,0.3,0,0.4-0.1c0.5-0.3,1-0.7,1.7-0.5
		c0.1,0,0.4-0.2,0.4-0.4c0-0.2-0.1-0.6-0.3-0.7C192.5,61.4,192.1,61.4,191.9,61.5z M168.5,68.5c0,0.9,0,1.5,0,2.1
		C168.1,69.6,168.1,69.6,168.5,68.5z M167.5,68c0.1,0,0.1,0,0.2,0.1c0,0.3-0.1,0.5-0.1,0.8c-0.1,0-0.2-0.1-0.3-0.1
		C167.4,68.5,167.5,68.3,167.5,68z M166.4,68c0-0.2,0.1-0.3,0.2-0.4c0.1,0,0.2,0.1,0.2,0.1c-0.1,0.3-0.1,0.6-0.2,0.8
		c-0.1,0-0.1,0-0.2,0C166.4,68.3,166.4,68.1,166.4,68z M169.9,71c-0.2,0.5-0.6,1-1,1.2c-0.7,0.3-1.4,0.7-2.1,1.2
		c-0.2,0.2-0.6,0.2-0.9,0.2c-1.4,0.2-2.7-0.3-3.8-1c-0.9-0.6-1.3-1.6-1.1-2.8c0.9-0.1,1.8-0.2,2.8-0.4c1.4,0.9,3,1.8,4.6,2.8
		c0.4-0.9,0.7-1.6,1-2.5C170.1,70.2,170,70.6,169.9,71z M174.3,66.8c0-0.3-0.1-0.5-0.1-0.8c0.1,0,0.1,0,0.2,0c0,0.2,0.1,0.5,0.1,0.7
		C174.4,66.8,174.4,66.8,174.3,66.8z M175.5,70.4c0-0.1-0.1-0.1-0.1-0.2c0.2-0.2,0.4-0.3,0.7-0.5c0,0.1,0.1,0.1,0.1,0.2
		C175.9,70.1,175.7,70.2,175.5,70.4z M180.5,65.1c-0.1-0.3-0.3-0.5-0.5-0.9c-0.3,0.6-0.5,1-0.7,1.5c-0.2-0.2-0.4-0.3-0.6-0.6
		c-0.5,0.6-1.2,0.5-1.8,0.4c-0.7-0.1-1.4-0.1-2-0.6c-0.9-0.6-1.1-0.5-1.7,0.7c-0.1-0.3-0.2-0.5-0.4-0.8c-0.2,0.3-0.5,0.5-0.7,0.8
		c-0.5-0.5-0.5-0.9-0.1-1.4l0,0l0,0c-0.7-0.7,0-1.1,0.4-1.5c-0.1,0.5-0.3,1-0.4,1.5l0,0l0,0c0.5,0.1,0.9-0.1,1.3-0.5
		c0.7-0.8,1-0.8,2-0.4c1.4,0.7,2.8,0.6,4.3,0.1c0.3-0.1,0.6-0.4,0.4-0.7c-0.1-0.2-0.4-0.3-0.6-0.3c-1.3,0.1-2.6,0.2-3.8-0.8
		c-0.2-0.2-0.6-0.1-0.9-0.1c-0.4,0-0.8,0.1-1.3,0.2c0.8-0.9,1.6-1.4,2.7-1.6c0.1,0.5,0.1,0.9,0.2,1.6c0.5-0.7,0.9-1.2,1.3-1.8
		c0.1,0.6,0.2,1.1,0.4,1.9c0.4-0.6,0.6-1,0.8-1.4c0.1,0,0.1,0,0.2,0.1c0,0.4-0.1,0.8-0.1,1.3c1.1,0,2.1,0.2,2.7,1.2
		C181.2,63.6,180.9,64.3,180.5,65.1z"/>
	<path class="st0" d="M130.6,80.7c0.4-0.6,1.1-1,0.9-1.9c-0.8,1-1.4,2-2.3,2.9c0.8-2,0.8-2,0.3-2.5c-0.4,1.7-1.3,2.9-2.4,4.1
		c0.1-0.4,0.2-0.8,0.4-1.2c0.4-0.8,0.6-1.7,0.6-2.6c0-0.1-0.2-0.3-0.4-0.6c-0.2,1.2-0.2,2.2-0.8,3.1c-0.4-0.5-0.6-0.9-0.9-1.3
		c-0.4,0-0.6-0.1-0.9-0.4s-0.7-0.6-1-0.8c-1.4-0.4-2.8-0.8-4.3-0.7c-1.9,0.2-3.8,0.6-5.3,1.9c-0.2-0.1-0.4-0.2-0.5-0.3
		c-0.9-0.7-2-0.7-3.1-0.4c-1.3,0.3-2.4,1-3.4,2c-1.3,1.2-1.8,2.7-1.7,4.5c0.9,0.7,2,0.8,3,0.5c0.9-0.2,1.7-0.4,2.6-0.2
		c0.3,0.1,0.7,0,1-0.1c0.9-0.3,1.8-0.8,2.8-0.3c0.1,0.1,0.3,0,0.4,0c1.5,0,3-0.1,4.5-0.5c0.8-0.2,1.5-0.4,2.4-0.2
		c0.4,0.1,0.8,0,1.2-0.1c0.7-0.3,1.5-0.6,2.3-0.6c0.2,0,0.4-0.1,0.6-0.2c1.2-0.4,2.2-1.3,3.5-1.6c0.3-0.1,0.5-0.4,0.7-0.6
		c0.6-0.8,1.1-1.6,1.6-2.5c0.1-0.2,0.1-0.4,0.2-0.7c-1.1,1-1.6,2.4-3,3C129.7,81.8,130.2,81.3,130.6,80.7z M113.3,81.9
		c-0.2-0.1-0.5-0.2-0.8-0.4c0,0.6,0,1.1,0,1.6c-0.1,0-0.1,0-0.2,0c-0.1-0.4-0.2-0.8-0.4-1.4c-0.6,0.9,0,1.9-0.8,2.6
		c-0.1-0.6-0.2-1.1-0.3-1.8c-0.7,0.9-0.1,1.9-0.8,2.7c-0.2-0.5-0.4-0.9-0.6-1.5c-0.6,0.7,0,1.4-0.5,2.1c-0.2-0.4-0.4-0.7-0.6-1.3
		c-0.2,0.6-0.3,0.9-0.4,1.5c-0.5-0.1-1-0.1-1.5-0.2c0-3.4,4.4-6.4,7.2-5C113.4,81.4,113.4,81.7,113.3,81.9z M114.2,84.7
		c-0.3-0.4-0.3-0.4,0.1-0.8C114.3,84.1,114.3,84.4,114.2,84.7z M119.6,83.7c-0.7,0.3-1.4,0.6-2,0.9c0,0.1,0.1,0.2,0.1,0.3
		c0.5-0.1,0.9-0.2,1.6-0.4c-0.2,0.4-0.3,0.8-0.5,0.8c-1,0.5-2.1,0.6-3.3,0.4c-0.4-0.1-0.5-0.3-0.6-1.1c0.5,0.1,1,0.2,1.5,0.3
		c1-0.5,1.7-1.4,2.1-2.4c0.4-0.9,1.1-1.1,1.9-1C120.9,82.9,120.7,83.2,119.6,83.7z M121.7,82.4c-0.3-0.5-0.3-0.5,0-1.2
		C121.7,81.7,121.7,82,121.7,82.4z M122.8,80.4c-0.7-0.1-1.3-0.3-2-0.4c-0.4,0-0.8,0.1-1.2,0.2c-1.3,0.2-2.4,0.6-3.4,1.4
		c-0.4,0.3-0.8,0.6-1.3,0.3c0.1-1,0.9-1.4,1.7-1.7c1.7-0.8,3.4-0.9,5.2-0.6c0.5,0.1,1,0.2,1.5,0.6C123.1,80.2,122.9,80.4,122.8,80.4
		z"/>
	<path class="st0" d="M115.4,39.4c1.9-2.1,3.8-4.2,5.6-6.3c1.4-1.6,2.7-3.3,4.1-4.9c0.5-0.5,1-1,1.5-1.5c2-2.2,4.1-4.5,6.1-6.7
		c1.1-1.2,2.2-2.5,3.3-3.8c1.5-1.8,3.3-3.2,5-4.8c2.1-2,4.7-3.2,7.1-4.7c1.4-0.8,2.8-1.5,4.2-2.3c0-0.1,0-0.1-0.1-0.2
		c-1.1,0.3-3.5,1.2-3.6,1.3c-0.5,0.3-1,0.6-1.5,1c-3.1,2-6.2,4.1-8.8,6.7c-1,1-1.9,2.1-2.9,3.1c-1.5,1.7-3.1,3.3-4.6,5
		c-1.3,1.4-2.5,2.8-3.7,4.2c-1.4,1.5-2.9,3-4.4,4.5c-1.1,1.1-2.2,2.2-3.2,3.4c-1.9,2.5-3.9,5-6,7.3c-1,1.1-1.9,2.1-2.8,3.2
		c-0.3,0.4-0.4,0.7,0,1.2C112.3,43,113.8,41.2,115.4,39.4z"/>
	<path class="st0" d="M203.8-39.6c0.2,0.1,0.4,0.2,0.5,0.3c0.6-0.3,1.1-0.5,1.6-0.8c0.6-0.3,0.8-0.7,0.6-1.4
		c-3.7,0.9-5.6,3.6-6.9,6.7C200.8-36.6,201.9-38.4,203.8-39.6z"/>
	<path class="st0" d="M192.2-30.2c1-0.4,1.3-1.7,2.2-2.3c0.2-0.1,0.2-0.5,0.3-0.8c0.1-0.5,0.4-0.8,0.9-0.8c0.2,0,0.4-0.1,0.7-0.2
		c0-0.5,0-0.9,0-1.3c-1.9,1.8-3.6,3.8-5.2,5.7c-0.2,0.3-0.2,0.7-0.3,1.1C192.3-28.6,192.4-28.7,192.2-30.2z"/>
	<path class="st0" d="M102.9,65c0-0.7-0.1-1.5-0.1-2.2c0-0.8,0-1.5,0-2.3c0-0.7,0.3-1.5-0.2-2.1c-0.5,0.3-0.3,0.7-0.3,1
		c0,0.4,0,1-0.1,1.1c-0.8,0.4-0.4,1.1-0.6,1.7c-0.2-0.2-0.5-0.4-0.7-0.7c-0.4,0.7-0.1,1.4,0,2c0,0.2,0.2,0.3,0.4,0.5
		c0.1-0.4,0.1-0.6,0.2-1c0.1,0.5,0.2,0.8,0.3,1.1c0.5-0.7,0.4-1.6,0.6-2.7C102.5,62.9,102.3,64,102.9,65z"/>
	<path class="st0" d="M213.9,41.7c0.5-0.4,0.9-0.7,1.4-1.1c-0.6,0-1.2,0.8-1.9,0.3c0,0-0.4,0.3-0.5,0.5s0,0.4,0.1,0.7
		c-1.4,0.8-2.7,1.6-4,2.3c0.1,0.3,0.2,0.7,0.4,1.2c0.4-0.2,0.8-0.3,1.1-0.6c0.1-0.1,0.1-0.5,0.1-0.7c1.3-0.6,2.8-0.9,3.9-2
		c-0.7,0.2-1.3,0.5-2.3,0.9C212.8,42.3,213.4,42.1,213.9,41.7z"/>
	<path class="st0" d="M190.8-23.7c-1,1.2-2,2.5-3,3.7c-0.4,0.5-0.5,0.9-0.1,1.5c1.5-1.9,3.2-3.6,4.2-5.9
		C191.2-24.4,191.1-24,190.8-23.7z"/>
	<path class="st0" d="M205.7,36.5c-0.6,0.8-1.1,1.5-1.6,2.3c0.1,0.8-0.5,1.5-0.7,2.3s-1,1.3-0.7,2.3c0.6-0.7,0.9-1.5,1.1-2.1
		c0.6-1.5,1-3.2,2.7-4.1c0.2-0.1,0.3-0.3,0.4-0.4c-0.3,0.1-0.7,0.2-1,0.3C205.9,36.9,205.8,36.7,205.7,36.5z"/>
	<path class="st0" d="M207,36.8L207,36.8c0.1-0.1,0.2-0.1,0.2-0.1C207.1,36.7,207.1,36.8,207,36.8L207,36.8z"/>
	<path class="st0" d="M205.6,44.3L205.6,44.3L205.6,44.3L205.6,44.3L205.6,44.3z"/>
	<path class="st0" d="M202.9,45.4c-0.7-0.1-1,0.3-1.3,0.7c0,0,0,0.2,0,0.3c0.3,0,0.7-0.1,1.1-0.2c-0.2,0.5-0.3,0.8-0.4,1.3
		c0.3,0.1,0.4,0.1,0.6,0.1c0.3-1.3,0.4-1.4,1.9-2.1c0.6-0.3,0.8-0.6,0.8-1.2c-0.5,0.3-1.1,0.6-1.6,0.8
		C203.6,45.3,203.3,45.4,202.9,45.4z"/>
	<path class="st0" d="M211,37.5c0.3-0.3,0.7-0.4,1-0.7c0.3-0.2,0.7-0.4,0.6-1c-1.3,0.9-2.5,1.8-3.9,2.8c0.5,0,0.8,0,1.1,0
		c0.1,0.4,0.1,0.7,0.2,1.2c0.5-0.4,1-0.8,1.4-1.1C210.8,38.4,210.6,37.9,211,37.5z"/>
	<path class="st0" d="M222,38.6c-0.3,0.1-0.6,0.2-0.8,0.3c-1.7,1.1-3.4,2.3-5,3.4c-0.3,0.2-0.4,0.5-0.6,0.8c0.1,0.1,0.1,0.2,0.2,0.3
		c0.2-0.1,0.5-0.2,0.5-0.3c0.1-0.6,0.6-1,1.1-1.3c1.3-0.8,2.6-1.8,4.1-2.5C221.6,39.3,222,39.2,222,38.6z"/>
	<path class="st0" d="M222.3,40c-0.2,0.1-0.2,0.4-0.4,0.7c1.1,0,1.9-0.1,2.7-0.7c-0.2-0.4-0.4-0.6-0.7-1
		C223.4,39.3,222.8,39.6,222.3,40z"/>
	<path class="st0" d="M206.2,41.3c0.2-0.2,0.5-0.3,0.5-0.5c0.2-0.7,0.6-1.2,1.2-1.5c0-0.3,0-0.5,0-0.7s0-0.4,0-0.6
		c-0.7,0.9-1.3,1.8-2,2.9C205.9,40.9,206,41.1,206.2,41.3z"/>
	<path class="st0" d="M103.8,59.9c0-0.6,0.1-1.2,0.2-1.8c0.3,1.7-0.1,3.5,0.6,5.3c0-2.3,0.1-4.6,0.1-6.9c0.3,0.8,0.3,1.6,0.4,2.5
		c0.1,1.6,0.1,3.2,0.2,4.8c0,0,0.1,0.1,0.3,0.1c0-0.4,0-0.7,0.1-1.2c0.3,0.2,0.5,0.3,0.7,0.4c-0.8,2.2-0.6,4.1,0.6,4.9
		c0.6,0.4,1.4,0.5,2.2,0.6c1,0.1,1.7-0.6,2.2-1.1c0.9,0.1,1.5,0.3,2.2,0.2c0.6-0.1,1.4,0.2,2-0.7c-0.7,0.1-1.2,0.1-1.6,0.2
		c-1.1,0.2-2-0.3-2.7-1.1c-0.2-0.2-0.3-0.5-0.3-0.7c0.2-0.8,0.4-1.6,1.1-2.2c0.5-0.5,1-0.8,1.8-0.7c0.2,0,0.5-0.1,0.8-0.2
		c-0.4,1.3-1.5,2.3-1.7,3.8c1.1-0.2,1.7-1,2.1-1.7c0.5-0.8,0.9-1.6,1.4-2.5c0.6,0.5,1.1,0.9,1.5,1.2c0,0.9,0.1,1.7,0.1,2.4
		c1,1,2,1.2,3.2,0.6c0.2-0.1,0.5-0.1,0.8-0.2l0,0l0,0c0.2-0.5,0.5-0.8,1-0.9c-0.1,0.7-0.6,0.7-1,0.9l0,0l0,0
		c0.1,0.7,0.7,0.7,1.1,0.7c1.1-0.1,2.1-0.3,3.1-0.6c0.2-0.1,0.5-0.2,0.7-0.4c0.5-0.7,1.2-1,2.1-1c0.8-0.1,1-0.4,1.2-1.4
		c-0.3,0.1-0.5,0.2-0.7,0.2c-0.7,0.2-1.4,0.5-2.1,0.7c-0.2,0.1-0.6,0-0.8-0.1c-0.6-0.3-1.2-0.6-1.7-1.1c-0.4-0.3-0.6-0.8-0.8-1.3
		c-0.2-0.4,0-0.9,0.5-1.1c1.2-0.7,3.1-0.6,3.9,0.5c0.6,0.8,1.4,1.1,2.4,1.2c0-0.3,0.1-0.5,0-0.7c-0.5-1.4-1.5-2.2-2.9-2.4
		c-0.5-0.1-1.2,0-1.7-0.5c0.3-0.2,0.5-0.4,0.7-0.4c0.9-0.1,1.9-0.2,2.7,0.3c0.8,0.4,1.4,0.8,2,1.5c1.1,1.1,1.3,1.2,2.8,0.4
		c0.5-0.3,0.9-0.7,1.3-1.2c0.5-0.5,1.1-0.7,1.8-0.9c-0.2,0.5-0.3,0.9-0.5,1.3c0.3,0.2,0.5,0.4,0.8,0.7c-0.8,0.6-1.5,1-2.2,1.5
		s-1.6,0.7-2.2,1.7c1-0.2,1.6-0.7,2.2-1.1c1.8-1.2,3.6-2.5,5.3-3.8c1.5-1.1,3-2.1,4.4-3.2c2.9-2.3,5.8-4.7,8.7-7.1
		c1.3-1.1,12.2-11.4,13.6-12.9c1.4-1.6,2.9-3.1,4.4-4.7c2.7-2.8,3.4-3.7,5.3-6.7c0.1-0.2,1.5-3.8,1.7-4.8c0.5-2.2-0.4-3.6-0.8-4.3
		c-0.8-1.2-1.6-2.3-2.6-3.3c-1.4-1.4-3.3-2-4.7-3.4c-0.1-0.1-0.2-0.1-0.2-0.1c-4.2-1.8-8.5-2.3-13-1.7c-0.9,0.1-1.8,0.3-2.8,0.5
		c-2.3,0.3-4.4,1-6.3,2.1c-2.1,1.2-4.2,2.4-6.1,3.8c-0.4,0.3-0.7,0.6-1,1c-0.2,0.3-0.4,0.6-0.7,0.8c-2.7,2.2-4.9,4.7-7.1,7.3
		c-1.3,1.6-2.7,3-4.1,4.6c-1.4,1.5-2.9,3-4.3,4.6c-0.6,0.7-1.3,1.5-1,2.6c0.1,0.2-0.1,0.5-0.3,1c-0.1-0.7-0.2-1.2-0.2-1.7
		c-0.9,0.7-1.8,1.3-2.4,2.2c0,0.1,0,0.2,0,0.3l0,0l0,0c0.3,0.7-0.3,1.1-0.3,1.9c-0.4-0.9-0.1-1.4,0.3-1.9l0,0l0,0
		c-0.4,0.3-0.8,0.6-1.2,1c-0.6,0.7-1.2,1.4-1.9,2c-0.2,0.1-0.5,0.1-0.8,0.2c0,1-0.6,1.6-1.2,2.1c-1.3,1.1-2.3,2.5-3.4,3.7
		c-0.5,0.5-0.8,1.1-1.2,1.7l0,0l0,0c0.4,0.5,0.1,0.9-0.2,1.4c-0.3-0.6,0.1-1,0.2-1.4l0,0l0,0c-0.2,0.1-0.5,0.2-0.7,0.4
		c-1.3,1.6-2.6,3.2-3.7,4.6c-0.1,1.5-0.1,2.8-0.2,4c-0.1,1.3,0.2,2.6-0.2,4.2c-0.4-1-0.2-1.8-0.2-2.5c0-0.8,0.1-1.6,0.1-2.4
		c0-0.7,0.3-1.5-0.2-2.4c-0.1,0.5-0.3,0.7-0.3,0.9c0,2.1,0,4.3,0,6.4c0,0.2-0.1,0.4-0.2,0.6c-0.2-0.9-0.2-1.8-0.3-2.7
		c-0.1-0.8,0.1-1.7-0.4-2.7c-0.2,0.5-0.2,1.1-0.5,1.2c-0.5,0.3-0.5,0.6-0.6,1.1c0,0.4-0.1,0.9-0.1,1.3c-0.2-0.5-0.1-1.1-0.4-1.7
		c-0.6,1-0.2,1.9-0.2,2.7c0,0.9,0,1.8,0.5,2.6C103.9,61.1,103.8,60.5,103.8,59.9z M111.1,60.1c-0.5-0.4-0.4-0.7-0.1-1.1
		C111.1,59.4,111.1,59.7,111.1,60.1z M111.8,59.9c-0.1-0.5-0.1-1-0.2-1.5c0.1,0,0.2,0,0.2,0.1c0.1,0.5,0.1,1,0.2,1.4
		C111.9,59.9,111.9,59.9,111.8,59.9z M112.8,60.1c-0.2-0.6-0.4-1.1-0.3-1.9C113.2,58.9,112.6,59.5,112.8,60.1z M116,59.5
		c0.2,0.3,0.3,0.5,0.4,0.8C116,60.1,116,60.1,116,59.5z M116,57.7c-1.5-0.1-2.1-1-1.5-2.7c0.2,0.4,0.2,0.7,0.3,0.9
		c0.7-0.2,0.7-0.2,0.7-1.3c0.5,0.3,1,0.5,1.4,0.7c0.3-0.2,0.7-0.4,1.1-0.7c0-0.3,0.1-0.6,0.1-1c0.2,0.4,0.4,0.8,0.6,1.2
		c0.2-0.1,0.3-0.2,0.3-0.2c0.1-0.3,0.1-0.7,0.2-1.1c0.4,0.8,0.2,1.5,0.6,2.3c0.4,0.7-0.3,1.7-1.1,1.9
		C117.8,57.6,116.9,57.7,116,57.7z M118.3,64.2c0.2-0.5,0.5-1,0.7-1.5c1.1,0.2,1.8,0.8,2.3,1.7C120.3,65.7,119.8,65.7,118.3,64.2z
		 M121.6,62.5c-0.4-0.3-0.8-0.6-1.2-0.9c1.2,0,1.8,0.9,2.5,2C122.1,63.3,122,62.8,121.6,62.5z M120.7,59.9c0.3,0.5,1.3,0.3,1.4,1.2
		c-0.7-0.2-1.3-0.4-1.9-0.5c-0.2-0.7,0.3-1.1,0.8-1.4c0.5-0.4,1.1-0.7,1.8-0.3C122.4,60,121.3,59.3,120.7,59.9z M120.4,55.5
		c0.1-0.7,0.2-1.4,0.3-2.3C121.1,54.1,121.1,54.3,120.4,55.5z M121.3,55.6c0.1,0,0.1,0,0.2,0c0,0.2-0.1,0.4-0.1,0.5
		c-0.1,0-0.1,0-0.2,0C121.2,56,121.3,55.8,121.3,55.6z M121.5,51.9c-0.3-0.8-0.1-1.2,0.3-1.7C122.1,50.9,121.9,51.3,121.5,51.9z
		 M122.7,51.6c0,0.1-0.1,0.2-0.2,0.4c-0.1-0.2-0.1-0.3-0.1-0.4c0-0.3,0.1-0.6,0.2-0.8c0.1,0,0.1,0,0.2,0
		C122.8,51,122.8,51.3,122.7,51.6z M131.4,54.8c-0.1,0.1-0.3,0.2-0.4,0.3c-1.1,0.5-2,1.2-3.3,1.2c-0.7,0-1.4,0.3-2.1,0.4
		c-1.4,0.2-2-0.3-2.2-1.8c0.3,0,0.7,0,1.1,0c0,0.1,0.1,0.3,0.2,0.4s0.2,0.3,0.2,0.4c0.9-0.3-0.2-1.6,1.1-1.6c0,0.3,0.1,0.6,0.2,1.2
		c0.3-0.6,0.6-1,1-1.7c0,0.8,0,1.2,0,1.7c1,0,0.4-1,1.1-1.3c0,0.3,0,0.5,0,0.7s0,0.4,0.3,0.6c0.2-0.4,0.5-0.9,0.7-1.3
		c0.7-0.2,1.7,0.4,2-0.9c-0.2-0.1-0.4-0.1-0.6-0.2c-0.3,0-0.6,0.1-0.9,0c-1.7-0.5-3.3-0.2-4.9,0.4c-0.1,0-0.2,0-0.4,0
		c0.3-0.5,0.5-1,0.8-1.6c-0.5,0-0.7,0-1.1,0c0.3-2.7,1.5-4.2,3.7-4.4c-0.2,0.5-0.3,1-0.5,1.4c0,0.1-0.1,0.3-0.1,0.3
		c-1.2,0.6-1.3,1.8-1.6,2.8c0,0,0,0.1,0,0.2c0.3,0.1,0.7,0.1,1,0.2c1.3-1,3.6-0.9,4.9,0C132.1,53,132.1,54.2,131.4,54.8z M131.1,40
		c1.1-0.5,2-0.3,2.6,0.8c0.5,1,0.7,2.1,0.6,3.1c-0.1,1.3-0.7,2.2-2.4,2c-0.3-0.1-0.7-0.1-1.3-0.2c0.6-0.3,1-0.5,1.6-0.4
		c0.4,0.1,0.5-0.2,0.4-0.7c-0.5-0.1-1-0.2-1.5-0.3c0.2-0.9-0.2-1.9,0.7-2.6c0.1-0.2,0.2-0.4,0.3-0.7C131.7,40.7,131.4,40.4,131.1,40
		z M129.7,41.5c-0.1,0.9-0.1,1.7-0.2,2.5c-0.1,0.7-0.4,1.5-0.6,2.3c0.4,0.1,0.6,0.1,0.9,0.2c-0.3,0.2-0.5,0.4-0.7,0.6
		c-0.4-0.3-0.9-0.5-1.2-0.7c0-0.6-0.1-1.2-0.1-1.8c0-1.5,0.6-2.8,1.6-3.9c0.2-0.2,0.6-0.3,0.9-0.5c0.2,0.5,0.3,0.8,0.5,1.3
		C130.4,41.5,130,41.5,129.7,41.5z M129,48.8c0.2-0.1,0.3-0.5,0.4-0.8c0.4-1.3,2.1-1.8,3.1-1c0.2,0.1,0.3,0.4,0.4,0.7
		c0.1,0.4,0.1,0.8,0.2,1.3c-0.2-0.2-0.5-0.4-0.7-0.6c-0.7,0.7-1.4,1.4-2,2.1c-0.2,0.2-0.1,0.5-0.2,0.8c-0.7-0.1-1.5-0.2-2.4-0.3
		C128.1,50.1,128.3,49.4,129,48.8z M136.6,56.1c-1.5,0.8-2.9,1.1-4.7,0.2c0.4-0.4,0.6-0.8,0.9-1c0.2-0.2,0.5-0.3,0.7-0.3
		s0.5,0.1,0.7,0.1c0.3,0,0.5-0.2,0.8-0.3c0.1,0.3,0.3,0.6,0.5,1.1c0.2-0.6,0.2-1,0.4-1.5c0.3,0.2,0.5,0.4,0.6,0.5
		C136.6,55.3,136.6,55.7,136.6,56.1z M135.8,52.5c0.1-0.1,0.2-0.2,0.3-0.2c0.2,0,0.3,0,0.5,0C136.4,52.8,136.4,52.8,135.8,52.5z
		 M139.8,33.1c0.2,0.8,0.5,1.5,0.6,2.3c0.1,0.3-0.1,0.7-0.3,1c-0.3,0.9-0.7,1.8-0.4,2.9c0,0.1,0,0.2,0,0.3c0.1,0.5,0.5,0.9,0.9,0.8
		c0.5-0.1,0.7-0.4,0.7-0.9c0-0.7,0-1.4-0.1-2.2c1-1,0.5-2.2-0.1-3.2c-0.4-0.6-0.4-1.1-0.2-1.7c1.1-0.3,1.3-0.2,1.8,0.5
		c0.4,0.6,0.7,1.2,0.7,2c-0.1,1,0.2,1.8,0.7,2.7c-0.2,0.5-0.7,0.6-1.1,0.9c-0.8,0.5-1.2,1.1-1.4,2c-0.1,0.6-0.4,1.2-0.7,2.1
		c-0.7-0.9-1.1-1.6-1.7-2.2c-0.5-0.6-1.2-1-1.9-1.6c0.1-1.1,0.3-2.3,0.3-3.5c0-1,0.7-1.7,1.2-2.4C139.2,32.5,139.7,32.6,139.8,33.1z
		 M138.7,30.1c0-0.2,0-0.4,0-0.7c0.1,0,0.1,0,0.2,0c0,0.2,0.1,0.5,0.1,0.7C138.9,30.1,138.8,30.1,138.7,30.1z M140.5,29.1
		c0,0.7,0.1,1.3-0.2,2C139.5,29.5,139.5,29.3,140.5,29.1z M143.2,39.2c0,0.5-0.3,0.7-0.8,0.7C142.7,39.7,142.9,39.4,143.2,39.2z
		 M138.1,40.2c0.7,0.3,0.9,0.9,1.2,1.5c0.6,1,0.6,1,1.4,1.3c0,0.1,0,0.2-0.1,0.2c-0.9,0.4-1.8,0.8-2.7,1.3c-1.2-1.7-2-3.6-3.7-4.9
		C135.7,39.2,136.9,39.7,138.1,40.2z M137.1,56c-0.1-1.1-0.1-1.8,0.5-2.6C137.8,54.8,137.8,55,137.1,56z M137.6,52.6
		c-0.1,0-0.2-0.1-0.3-0.2c0.1-0.1,0.2-0.3,0.3-0.4c0.1,0.1,0.3,0.3,0.3,0.3C137.8,52.4,137.7,52.5,137.6,52.6z M138.2,55.1
		c0.1-1.3,0.2-2.4,0.3-3.7C139,52.6,138.9,54.1,138.2,55.1z M141.7,44.5c-0.4,0.8,0.5,1.4,0.2,2.1c-0.3-0.3-0.5-0.5-0.9-1
		c0.2,1,0.4,1.6,0.6,2.5c-0.3-0.2-0.5-0.3-0.9-0.5c0,0.4,0,0.7,0,1.1c-0.3-0.2-0.5-0.4-0.9-0.7c0.1,0.6,0.1,1,0.2,1.6
		c-0.4-0.5-0.6-0.7-0.8-1c-0.4,0.1-0.8,0.3-1.2,0.4c0.1,0.3,0.1,0.5,0.2,1.1c-0.3-0.5-0.6-0.8-0.8-1.1c-0.3,0-0.6,0-0.9,0
		c0-0.2-0.1-0.3-0.1-0.4c0.2-1,0.5-2,1.6-2.5c0.3-0.1,0.6-0.5,0.7-0.8c0.2-0.5,0.5-0.7,0.9-0.9c0.9-0.4,1.8-0.4,2.7-0.2
		c0.7,0.2,1.2,0.6,1.3,1.4C142.6,45.8,142.4,44.7,141.7,44.5z M148.3,46.8c-0.1,0-0.1,0-0.2-0.1c0.1-0.2,0.2-0.5,0.2-0.7
		c0.1,0,0.2,0.1,0.2,0.1C148.5,46.3,148.4,46.5,148.3,46.8z M148.5,40.3c0,0.4,0,0.8,0,1.2c0,0.3,0.1,0.7,0.1,1.1
		c-0.5,0.5-0.8,1.4-1.8,1.4c-0.1,0-0.3,0.2-0.4,0.3c-0.3,0.2-0.7,0.5-1.2,0.9c-0.1-2.4,1.5-3.6,2.6-5.2c-0.2-0.2-0.4-0.4-0.6-0.4
		c-0.4,0-0.8,0.1-1.1,0.4c-0.6,0.6-1.2,1.3-1.7,2c-0.4,0.5-0.8,1.1-1.2,1.6c-0.5-0.1-0.8-0.2-1.2-0.2c-0.3-0.7-0.1-1.2,0.4-1.5
		c0.8-0.5,1.3-1.3,2.3-1.6c0.2-0.1,0.4-0.4,0.6-0.5c0.4-0.3,0.8-0.6,1.2-0.8C147.6,38.5,148.5,39.1,148.5,40.3z M145.4,34.1
		c0.5-0.4,1-0.7,1.5-1.1c0.8-0.6,1.8-0.4,2.7-0.4c-0.3,0.6-0.5,1.2-0.8,1.8c-0.2-0.2-0.4-0.4-0.7-0.8c0.1,0.6,0.1,1,0.1,1.5
		c-0.5-0.4-0.6-1.2-1.4-1.4c0.1,0.3,0.1,0.5,0.1,0.7c0.2,0.4,0.4,0.7,0.5,1.1c0.2,0.6,0.1,0.9-0.6,1c-0.4,0-0.9,0.1-1.3,0.1
		c-0.3,0-0.6-0.1-0.9-0.1C144.3,35.3,144.6,34.6,145.4,34.1z M143.9,31.1c0.1,0,0.2-0.1,0.2-0.1c0.1,0.3,0.2,0.5,0.3,0.8
		c0,0-0.1,0-0.1,0.1C144.2,31.6,144.1,31.4,143.9,31.1z M149,31c-0.4,0.2-0.6,0.3-0.9,0.5c-0.1-0.5-0.2-0.8-0.3-1.2
		c0.1,0,0.1-0.1,0.2-0.1C148.3,30.4,148.6,30.6,149,31z M148.2,28.9c0.7,0.1,0.8,0.6,1,1C148.8,29.7,148.4,29.5,148.2,28.9z
		 M149.9,40.7c-0.3-1.1-0.5-2.2,0.2-3.4C150.3,38.6,150.1,39.6,149.9,40.7z M149.6,45.4c0-0.7,0.4-1.3,0.8-1.9
		C150.4,44.5,150.4,44.5,149.6,45.4z M150.6,41.6c-0.3-1,0.1-1.8,0.2-2.5C151,39.9,151,40.7,150.6,41.6z M148.9,27.4
		c0.6,0.5,0.9,0.9,1.1,1.6C148.7,28.5,148.7,28.4,148.9,27.4z M148.9,26.6c-2,0.7-1.8,2.6-2.1,4.1c-0.6,0.2-0.8-0.2-0.9-0.7
		c-0.4-1.8,0.8-3.5,2.6-3.7c0.3,0,0.6,0,1-0.1c0.3,0.5,0.6,1.1,0.9,1.6l-0.1,0.1C149.8,27.5,149.4,27,148.9,26.6z M154.5,38
		c-0.2,0.7-0.5,1.3-0.7,2.1c-0.4,0.1-0.8,0.2-1.1,0.3c-0.9-0.4-1.2-1.8-0.8-3.3c0.4-1.5,1.8-2.7,3.4-2.1c-0.1,0.5-0.3,0.9-0.4,1.3
		C154.8,36.8,154.7,37.4,154.5,38z M150.6,26.1c0.1,0.2,0.1,0.5,0.2,0.7c-0.1,0-0.1,0-0.2,0.1c-0.1-0.2-0.2-0.5-0.3-0.7
		C150.4,26.1,150.5,26.1,150.6,26.1z M150.3,24.5c0-0.3,0-0.6-0.1-0.8c0.1,0,0.1,0,0.2,0c0,0.3,0,0.6,0.1,0.8
		C150.4,24.5,150.4,24.5,150.3,24.5z M155.7,39.8c0-0.6,0-0.6,0.9-0.9C156.3,39.2,156,39.5,155.7,39.8z M156.8,38c0-1.3,0-2.5,0-3.7
		C157.6,35.6,157.5,36.8,156.8,38z M156.4,31.2c-1.5,1.1-3.1,2.4-4.9,3.1c-0.3-0.6-0.1-1.1,0.1-1.5c0.5-1.1,1.2-2,2.1-2.7
		s1.9-1.1,3-1.4c0.4-0.1,0.9-0.2,1.3,0.2C157.8,29.9,157.1,30.6,156.4,31.2z M151.9,25.2c-0.1,0.5-0.1,0.8-0.2,1
		C151.2,25.8,151.2,25.8,151.9,25.2z M150.9,19.8c0.1-0.1,0.1-0.1,0.2-0.2c0.2,0.2,0.3,0.3,0.5,0.5c0,0.1-0.1,0.1-0.1,0.2
		C151.3,20.1,151.1,19.9,150.9,19.8z M153.1,22.9c-0.2-0.5-0.4-0.9-0.7-1.4c0.5,0,0.8,0.1,1.3,0.1c0.1-0.1,0.2-0.1,0.2-0.2
		c1.7-1.7,2-1.7,4.1-0.8c1.3,0.6,1.5,1.6,0.5,2.7c-0.9-0.4-1.8-0.8-2.7-1.1C154.8,21.9,154,22.6,153.1,22.9z M155.3,23.8
		c-0.2,0-0.4,0.1-0.6,0.1l-0.1-0.2c0.2-0.1,0.4-0.1,0.5-0.2C155.2,23.6,155.3,23.7,155.3,23.8z M152.3,18.7c-0.1,0-0.1,0-0.2,0.1
		c-0.1-0.2-0.2-0.3-0.2-0.5c0-0.1,0.1-0.3,0.1-0.4c0.1,0,0.1,0,0.2,0C152.3,18.1,152.3,18.4,152.3,18.7z M160.2,35.2
		c0,0.6,0,1.1,0,1.9c-0.3-0.7-0.4-1.1-0.6-1.5c-0.1,0-0.1,0-0.2,0c-0.1,0.5-0.2,1-0.2,1.4c-0.2-1.4-0.7-2.7,0-4.2
		c0.6-1.2,1-1.5,2.4-1.3c0.1,0,0.3,0.1,0.4,0.1c0.6,1.6-0.8,2.6-1.2,3.8C160.6,35.3,160.5,35.3,160.2,35.2z M161.4,28.5
		c0.4,0.4,0.6,0.8,0.4,1.5C161.3,29.5,161.1,29.1,161.4,28.5z M164.4,34.8c-1.1,0.7-1.6,1.9-2.6,2.7c-0.1,0.1-0.2,0.1-0.5,0.2
		c0.1-1.1,0.9-1.7,1.3-2.6c0.3-0.8,1-1.5,1.6-2.3C164.8,33.7,164.9,34.5,164.4,34.8z M164.6,28.1c-0.2-0.5-0.4-0.8-0.5-1.1
		c-0.5-0.1-0.8,0.5-1.3,0.3c-0.2-0.1-0.8,0.4-1.1,0c-0.5,0.3-1,0.6-1.5,0.9c0.2,0.7,0.4,1.5,0.7,2.5c-1.1-0.5-0.6-1.8-1.6-2
		c-0.3,0.9,0.9,2-0.4,2.7c-0.5-0.3-0.5-0.6-0.3-1.1c0.3-0.8,0.5-1.6-0.2-2.4c1.1-0.4,1.7-1.1,1.5-2.2c0.7-0.4,1.3-0.7,1.9-1.1
		c1-0.6,1.9-0.4,2.7,0.6C165.2,26,165.3,26.9,164.6,28.1z M166.5,29.5c0.1-1.2,0.7-2.2,1.6-3c0.1,0.1,0.2,0.1,0.3,0.2
		C167.8,27.6,167.2,28.5,166.5,29.5z M168.4,28.1c0.5-1.4,1.1-2,2.2-2.2c0,0.2,0,0.4-0.1,0.7C169.3,26.3,169.2,27.6,168.4,28.1z
		 M171.4,28.3c0,0.2-0.3,0.3-0.6,0.4c0.3-0.9-0.1-1.9,0.4-2.8c0.1,0,0.2,0,0.3,0C171.6,26.7,171.6,27.5,171.4,28.3z M171.6,24.9
		c-0.2-0.1-0.5-0.2-0.7-0.4c0.1-0.1,0.1-0.2,0.2-0.2c0.2,0.1,0.4,0.3,0.7,0.4C171.6,24.8,171.6,24.8,171.6,24.9z M175,22.6L175,22.6
		L175,22.6c0.1,1,0.3,1.9-0.6,2.8C174.2,24.2,174.5,23.4,175,22.6C175,22.7,175,22.7,175,22.6C174.9,22.7,175,22.7,175,22.6
		c0-0.3,0-0.6,0-0.9c0.1,0,0.1,0,0.2,0C175.1,22.1,175.1,22.4,175,22.6z M157.5,6.9c0.2,0,0.4,0,0.6-0.1c0,0.1,0,0.1,0,0.2
		c-0.2,0-0.4,0-0.6,0.1C157.5,7,157.5,7,157.5,6.9z M159.3,7.8c-0.3,0.5-0.5,0.9-0.9,1.6c-0.1-0.7-0.1-1-0.2-1.4
		C158.6,7.9,158.9,7.9,159.3,7.8z M157.2,8.5c-0.2,0.3-0.4,0.6-0.6,1C156.4,8.6,156.4,8.6,157.2,8.5z M156.5,10.8
		c0-0.8,0.6-1.1,1.1-1.7c0,0.2,0.1,0.5,0.1,0.7c0.1,0.8-0.3,1.6,0.1,2.5c0.1,0.2-0.1,0.7-0.2,1c-0.1,0.4-0.3,0.8-0.5,1.3
		c1.3-0.6,1.1-1.9,1.6-2.8c-0.1-0.4-0.4-0.8-0.3-1.1c0.1-0.7,0.5-1.2,1.2-1.9c0,1.6,0.2,2.8,0,4.1l0,0l0,0l0,0
		c0.1,0.5,0.1,0.9-0.1,1.4c-0.3,0.4-0.5,0.9-0.3,1.4c1.2-1.5,0.9-3.1,0.9-4.7c0-0.9,0-1.9-0.1-2.8c0-0.4,0.2-0.8,0.6-0.7
		c0.2,0,0.5,0.3,0.6,0.6c0.3,0.7,0,1.4-0.3,1.8c0.2,0.4,0.4,0.7,0.5,1c0.1,1.2,0.1,2.4,0.3,3.6c0-0.2,0.1-0.3,0.1-0.5
		c0.1-1.5,0.1-3,0.2-4.5c0-1,0.1-1.1,1.1-1.8c0.5,2.4,0,4.8,0.5,7.1c0.1-2.3,0.2-4.6,0.3-6.9c0.5-0.2,1-0.1,1.5,0.3c0,2,0,4,0.1,6.1
		c0.1,0,0.2,0,0.3,0c0.2-2,0-3.9,0.3-6c0.5,0,0.9,0.1,1.2,0.1c0.6,0.9-0.2,1.8,0.3,2.8c0.4-0.4,0.3-0.9,0.4-1.3
		c0.1-0.4,0.1-0.8,0.2-1.3c0.3,0.2,0.5,0.2,0.6,0.4c0.1,0.2-0.1,0.5,0,0.6c0.1,0.2,0.3,0.4,0.5,0.5c0.1,0,0.3-0.2,0.4-0.4
		s0.2-0.4,0.2-0.5c0.6-0.1,0.8,0.1,1.1,0.4c0.7,0.5,1.5,1.1,2.3,1.6c-0.3,0.2-0.6,0.4-0.9,0.6c0.1,0.1,0.1,0.3,0.2,0.3
		c0.7,0,1.2,0.4,1.5,1.1c0.4,0.7,0.8,1.4,1.2,2.1c0.1,0.3,0.2,0.6,0.2,0.9c0,1.1-0.1,2.1-0.2,3.2c0,0.5-0.3,0.9-0.6,1.3
		c0-0.4,0-0.9-0.1-1.3c-0.6,1.5-0.4,3.2-1,4.7c-0.1-1.2,0.3-2.3,0-3.5c-0.4,0.4-0.4,0.4-0.5,1.9c0,0.6,0.2,1.3-0.4,2.2
		c-0.1-0.7-0.2-1.2-0.3-1.9c-0.3,0.5-0.4,0.8-0.6,1c-0.5-0.3-1.2-0.3-1.3-1.2c0-0.4-0.4-0.6-0.8-0.6c-0.7,0-1.3-0.1-2,0.2
		c-0.6,0.3-1.3,0.5-2,0.8c-0.2,0.1-0.3,0.3-0.4,0.7c0.3-0.1,0.6-0.1,0.9-0.2c0.5-0.2,1-0.5,1.4-0.7c0.6-0.2,1.1-0.2,1.6,0.2
		c-0.3,1.5-0.3,1.5-1.6,1.7c-0.2,0-0.4,0.1-0.6,0.2c-0.2,0-0.4,0.1-0.7,0.1c-0.2-0.3-0.4-0.6-0.5-0.6c-0.7-0.2-1.3-0.5-1.8-0.6
		s-1-0.2-1.6-0.2c-0.5,0-0.9,0.2-1.5,0.3c-0.1-0.2-0.3-0.4-0.4-0.6c-0.1-0.3-0.2-0.6-0.3-0.9c-0.5-1.5-1.6-2.4-3.1-2.8
		c-0.3-0.1-0.5-0.2-0.7-0.3c0,0-0.1-0.1-0.2-0.2c0.5-1.5,0.4-2.9-1-4c0.2-0.7,0.3-1.3,1-1.6C156.4,12.6,156.5,11.7,156.5,10.8z
		 M155.3,8.3c0.1,0.1,0.2,0.1,0.2,0.2c-0.2,0.3-0.4,0.5-0.5,0.8c-0.1-0.1-0.2-0.1-0.2-0.2C155,8.8,155.2,8.6,155.3,8.3z M153.5,8.9
		c0-0.1,0.2-0.2,0.4-0.3c0.1,0.1,0.2,0.1,0.2,0.2c-0.1,0.2-0.3,0.5-0.5,1C153.5,9.3,153.4,9.1,153.5,8.9z M154,10
		c0.2,0.7,0.2,0.7-0.5,1.4C153.3,10.8,153.7,10.5,154,10z M154.6,13.5c0.5-1.4-0.4-2.9,1-4c0.4,0.6,0.1,1.2-0.1,1.7
		c0.2,0.1,0.3,0.2,0.5,0.3c-0.4,1.1-0.7,2.2-1.1,3.3c-0.6,0-1.1-0.1-1.1-0.7C153.8,13.7,154.1,13.4,154.6,13.5z M152.8,10
		c0.3,0.5,0.1,0.8-0.2,1.2C152.4,10.6,152.4,10.6,152.8,10z M152.8,13.5c0.2,0.2,0.3,0.3,0.5,0.5c-0.1,0.1-0.1,0.2-0.2,0.2
		c-0.4-0.2-0.8-0.3-1.2-0.5c0.2-0.5,0.4-1,0.7-1.6C153.2,12.6,152.7,13.1,152.8,13.5z M151.6,11.5c0.3,0.8,0.3,0.8-0.2,1.4
		C151.2,12.1,151.2,12.1,151.6,11.5z M150.4,11.1c0.2,0.6,0.2,1-0.2,1.4C150,12,149.9,11.6,150.4,11.1z M149.2,12.8
		c0.4,0.6,0.4,0.6-0.1,1.1C149.2,13.6,149.2,13.3,149.2,12.8z M149.5,15.5c0.8-0.9,1.5-1.2,2.7-0.7c0.7,0.2,1.6,0.8,2.1,1.4
		c-1.9-0.4-3.8-0.6-5.2,0.8c-0.1,0.8,1.1,0.5,0.7,1.3c-0.5,0.1-0.8-0.1-0.9-0.6C148.6,16.9,148.9,16.2,149.5,15.5z M148.9,19.9
		c0.6,0.1,0.9,0.8,0.4,1.1c-0.7,0.5-0.7,1.4-1.4,1.8c-0.2,0.1-0.2,0.6-0.3,1c-0.9,0.4-1.7,0.9-2.7,0.4c0.6-1.4,1.5-2.6,2.4-3.8
		C147.7,20,148.3,19.8,148.9,19.9z M147.2,13.4c0.1,0,0.1,0.1,0.2,0.1c-0.1,0.2-0.2,0.5-0.3,0.7c-0.1,0-0.2-0.1-0.3-0.1
		C147,13.8,147.1,13.6,147.2,13.4z M147.5,15.8c0,0.8-0.5,1.1-0.6,1.6C146.7,16.7,147.1,16.4,147.5,15.8z M146.9,18.1
		c0.1,0.2,0.1,0.5,0.2,0.8c-0.3,0-0.4,0-0.7,0c0.1-0.3,0.2-0.6,0.3-0.8C146.8,18.1,146.8,18.1,146.9,18.1z M145.6,12.9
		c0.1,0,0.1,0,0.2,0c0,0.2-0.1,0.4-0.1,0.7c-0.1,0-0.1,0-0.2,0C145.5,13.3,145.5,13.1,145.6,12.9z M140.9,20.7
		c0.1-0.2,0.3-0.2,0.5-0.4c0.1-0.1,0.4-0.1,0.4-0.3c0.3-1.2,1.5-1,2.3-1.3c0.4-0.1,0.9,0.2,1.4,0.4c-0.2,1.1-0.8,1.8-1.6,2.1
		c-1.1,0.4-1.6,1.2-1.7,2.3c0,0.1-0.1,0.2-0.1,0.2s-0.1,0.1-0.2,0.1c-0.1-0.4-0.1-0.8-0.2-1.3c-0.6,0.1-1.1,0.1-1.6,0.2
		C140.2,22.2,140.5,21.5,140.9,20.7z M143.1,23.4c0,0.4,0,0.7,0,1.1c-0.1,0-0.2,0-0.3,0c0-0.4,0.1-0.7,0.1-1.1
		C143,23.4,143,23.4,143.1,23.4z M136.9,27.6c1-0.4,2-0.8,3.1-0.9c1-0.1,2-0.4,3-0.7c0.6,0.4,0.6,0.4,0.9,1.2c-0.3,0.3-0.6,0.6-1,1
		c0.1,0.4,0.3,0.7,0.5,1.1c-0.4,0-0.6-0.1-0.8-0.1c-0.2,0-0.3,0.2-0.6,0.4c0.1-1,0-1.8-1.2-2.4c-0.6,0.1-1.4,0.2-2.2,0.3
		c-1.2,0.1-1.6,0.9-2.2,1.8c0.4,0.1,0.6,0.2,0.9,0.3c0.2,0.1,0.5,0.1,0.7,0.3c0.1,0.1,0.1,0.4,0.1,0.5c-0.1,0.1-0.3,0.2-0.4,0.2
		c-0.5-0.2-1-0.4-1.4-0.7c-0.4-0.2-0.5-0.6-0.3-1.1C136,28.3,136.3,27.8,136.9,27.6z M134.9,21.9c-0.1,0.6-0.1,1.3-0.8,2
		C134.3,22.9,134.4,22.3,134.9,21.9z M134.4,25.3c0,0,0.1,0,0.2-0.1c0.1,0.1,0.1,0.1,0.1,0.2c0,0.2-0.1,0.4-0.2,0.6h-0.2
		C134.3,25.7,134.3,25.5,134.4,25.3z M134.3,29c0.1-0.3,0.2-0.6,0.4-1.1c0.1,0.7,0.1,0.7-0.4,1.4C134.2,29.2,134.2,29.1,134.3,29z
		 M133.5,36.1c-0.3,0.9-0.3,1.8-0.4,2.9c-0.6,0-1.3,0-2.1,0c0.5-1.1,0.8-2,1.3-2.9c0.4-0.8,0.9-1.5,1.4-2.3c0.2-0.3,0.2-0.3,1-0.3
		C134.3,34.5,133.7,35.3,133.5,36.1z M132.5,24c-0.1,0.6-0.2,1-0.2,1.3C132,24.9,131.8,24.4,132.5,24z M133.6,27.6
		c0,0.9,0,1.7,0,2.6c-0.4,0.2-0.5,0.6-0.5,1.3c0.3-0.3,0.4-0.5,0.6-0.6c0,0.6,0.1,1.1-0.6,1.6C132.8,30.7,132.9,29.2,133.6,27.6z
		 M132.3,28.8c0,1.2,0.1,2.4,0.1,3.6c0,0.5,0.1,1-0.6,1.6c0.2-1.9-0.3-3.6,0.3-5.4C132.2,28.7,132.3,28.8,132.3,28.8z M130.6,28.8
		c0.1-0.4,0.2-0.8,0.3-1.2C131.3,28.1,131,28.5,130.6,28.8z M131.3,25.4c-0.2,0.6-0.5,1.1-0.7,1.7c-0.1,0-0.2-0.1-0.3-0.1
		C130.4,26.4,130.7,25.8,131.3,25.4z M131.6,34.1c0,0.8-0.2,1.5-0.6,2.3c-0.5-1.5-0.5-2.8-0.4-4.1C131.3,32.7,131.5,33.4,131.6,34.1
		z M129.6,28.7c0.1,0,0.2,0,0.3,0c0,0.4,0.1,0.9-0.6,1.4C129.4,29.5,129.5,29.1,129.6,28.7z M129.6,32.4
		C129.6,32.3,129.6,32.3,129.6,32.4c-0.3-0.4-0.3-0.8,0.1-1.3C130,31.6,129.8,31.9,129.6,32.4C129.7,32.3,129.7,32.3,129.6,32.4
		C129.7,32.3,129.7,32.3,129.6,32.4c0.1,0,0.2,0.1,0.2,0.1c0.3,1.5,0.7,3,0.4,4.6c0,0.1-0.1,0.1-0.1,0.2
		C129.6,36.4,129.5,35,129.6,32.4C129.7,32.4,129.6,32.4,129.6,32.4z M130.1,38.4c0.1,0,0.2,0,0.3,0c0.1,0.4,0.3,0.8-0.5,1.2
		C130,39.1,130.1,38.7,130.1,38.4z M128.4,28.9c0.2,1.2,0.2,1.3-0.4,2.5C127.8,30.4,128.1,29.7,128.4,28.9z M128.1,33.1
		c0.1,0,0.2,0,0.3,0c0,0.9,0.1,1.7,0.1,2.6l0,0l0,0c0.1-0.1,0.2-0.1,0.4-0.3c0.4,0.4,0.6,0.9,0.5,1.5c-0.1,0.6-0.2,1.1,0.1,1.7
		c0.2,0.4,0.1,0.8-0.4,1.1c-0.6-1.3-0.7-2.7-0.5-4.1l0,0c0,0,0,0,0-0.1C127.9,34.9,128.1,34,128.1,33.1z M127.2,29.8
		c0.1,0,0.1,0,0.2,0c0,0.2-0.1,0.4-0.1,0.6c-0.1,0-0.1,0-0.2,0C127.1,30.2,127.1,30,127.2,29.8z M124.9,35.3
		c0.1-0.5,0.3-1.1,0.4-1.6l0,0l0,0c-0.1,0-0.2,0.1-0.5,0.1c0-0.9,0-1.8,0.8-2.6c0.1,0.6-0.1,1.1-0.2,1.5c-0.1,0.3-0.1,0.7-0.1,1l0,0
		l0,0c0.1-0.1,0.2-0.1,0.4-0.2c0.5,1-0.2,1.8-0.2,2.8c0.2-0.1,0.4-0.2,0.6-0.3c0.3,1.3,0.4,2.6,1,3.8c-0.2-2.6-0.9-5.2,0.3-7.9
		c0.1,0.4,0.2,0.7,0.2,1.1c-0.2,1.7,0.4,3.2,0.4,4.9c0,0.8,0.1,1.7,0.1,2.5c0.1,0.7-0.3,1.1-1,1.2c0-0.3,0-0.5,0-0.9
		c-0.5,0.1-0.9,0.2-1.4,0.4c-0.5-1.2-0.7-2.4-0.3-3.7C124.9,36.8,124.7,36.1,124.9,35.3z M123.7,36.9c-0.1-0.5,0.2-1,0.5-1.5
		c0,0.7,0.1,1.4,0.1,2s0.1,0.6,0.6,1.7c0.3,0.7,0.4,1.6,0.4,2.3c0,0.4-0.4,0.8-0.9,0.9C124.1,40.5,123.9,38.7,123.7,36.9z
		 M122.9,34.6c0,2.1-0.4,4-0.1,5.8c0.1-0.6,0.3-1.1,0.4-1.7c0.1,0.8,0.5,1.7-0.2,2.4c-0.1,0.4-0.1,0.8-0.2,1.3
		C121.8,40.3,121.8,36.7,122.9,34.6z M123.7,43.2c-0.5-0.4-0.4-0.9-0.1-1.6C124,42.2,123.9,42.7,123.7,43.2z M121.1,37.6
		c0.2,0.8,0,1.3-0.4,2C120.5,38.8,120.5,38.2,121.1,37.6z M120.6,42.4c0.2-0.7,0.3-1.2,0.5-1.9c0.2,0.4,0.3,0.7,0.4,1
		c0.1-0.2,0.2-0.3,0.3-0.5c0.1,0.7,0.3,1.3,0.4,2c-0.8,0.1-1.5,0.3-2.2,0.4c-0.2-0.8-0.2-1.6,0.1-2.6
		C120.3,41.4,120.4,41.8,120.6,42.4z M119.3,41.2c-0.3-0.6-0.2-0.9,0.3-1.3C119.5,40.3,119.5,40.6,119.3,41.2z M119.5,37.4
		c0.1,0.7-0.2,1.2-0.5,1.8C118.6,38.1,118.6,38.1,119.5,37.4z M119.6,41.7c0,0.6,0,1.1-0.1,1.6C119.3,42.5,119.3,42.5,119.6,41.7z
		 M118.5,42.1c0.3,0.4,0.3,0.4-0.1,0.8C118.5,42.7,118.5,42.4,118.5,42.1z M117.7,39.3c0.1,0,0.2,0.1,0.3,0.1
		c-0.1,0.2-0.2,0.4-0.2,0.7c-0.1,0-0.1,0-0.2,0C117.6,39.8,117.7,39.5,117.7,39.3z M117.8,41.4c0.1,0,0.1,0,0.2,0c0,0.3,0,0.5,0,0.8
		c-0.1,0-0.1,0-0.2,0C117.8,42,117.8,41.7,117.8,41.4z M118.4,46.8L118.4,46.8C118.4,46.7,118.4,46.7,118.4,46.8
		c0-1.5,0.2-1.8,1.6-2.2c0.7-0.2,1.5-0.3,2.2-0.5c0.9-0.2,1.4,0.2,2,0.8c0.5,0.5,0.8,1.1,1.7,1.1c0.6,0,0.6,0.5,0.1,1
		c-0.2-0.2-0.3-0.4-0.5-0.6c-0.4,0-1.1,0.6-1.2,1.1c-0.1,0.3,0,0.6-0.1,0.9c0,0.1-0.2,0.2-0.4,0.4c-0.1-0.4-0.1-0.7-0.1-0.9
		c0-0.2,0-0.4,0-0.7c-1-0.3-0.7,0.7-1.1,1.1c-0.1-0.4-0.2-0.7-0.3-1.1c-0.1,0-0.2-0.1-0.2-0.1c-0.5,0.1-0.8,0.3-1.3-0.2
		c-0.4-0.5-0.8-0.3-1.4,0.8c0-0.3-0.1-0.4-0.1-0.6s0-0.3-0.1-0.6C118.8,46.7,118.6,46.7,118.4,46.8
		C118.4,46.7,118.4,46.8,118.4,46.8L118.4,46.8c0,0.4-0.2,0.5-0.8,0.4C118,47,118.2,46.9,118.4,46.8z M117.6,45.3
		c0,0.3-0.1,0.5-0.1,0.8c-0.1,0-0.1,0-0.2,0c0-0.3,0.1-0.5,0.1-0.8C117.5,45.3,117.6,45.3,117.6,45.3z M116.9,41.4
		c0,0.6,0.1,1,0.1,1.4c-0.1,0-0.2,0-0.3,0C116.5,42.4,116.4,42,116.9,41.4z M116.1,44c0.7,1,0.5,2,0.5,3.1
		C115.9,46.5,115.9,46.5,116.1,44z M114.9,44.9c0.1,0,0.1,0,0.2,0c0,0.3-0.1,0.6-0.1,0.9c-0.1,0-0.1,0-0.2,0
		C114.8,45.5,114.9,45.2,114.9,44.9z M116,47.8c1.3,0,1.1,1.5,2,1.8c-0.4,0.8-0.8,1.4-1.3,2.2c0.2,0.4,0.7,0.7,0.5,1.5
		c-0.2-0.2-0.4-0.3-0.6-0.5c-0.3,0.2-0.7,0.4-1.1,0.7c-0.7,0.5-1.3,0.6-2.1,0.1c0.2-0.8,0.5-1.6,0.9-2.3c0.1-0.2,0.3-0.4,0.4-0.7
		C115.3,49.8,116,49,116,47.8z M113.6,45.1c0.1,0,0.2,0,0.2,0c0.1,0.8,0.2,1.6,0.3,2.4c0,0.1-0.3,0.3-0.6,0.7
		C113.5,46.9,113.6,46,113.6,45.1z M112.7,45.3c0.5,0.6,0,1.2,0,1.8c0.1,0.5,0.5,1.1-0.1,1.6C112.6,47.5,111.7,46.4,112.7,45.3z
		 M111.4,48.5c0.3,0.8,0.3,0.8-0.3,1.6C110.9,49.4,111.1,49,111.4,48.5z M110.2,50c0.1,0,0.1,0,0.2,0c-0.1,0.2-0.1,0.5-0.2,0.7h-0.1
		C110.1,50.5,110.1,50.2,110.2,50z M109.8,53.3c0.3-0.7,0.7-1.5,1.2-2.1c0.8-1,1.8-1.8,2.8-2.6c0.1-0.1,0.2-0.1,0.6-0.2
		c-0.1,0.4-0.1,0.7-0.2,0.9c-0.4,0.6-0.8,1.2-1.2,1.7c-0.5,0.6-0.8,1.2-0.9,2c0,0.7-0.7,1.3-1.4,1.3C110,54.5,109.6,53.9,109.8,53.3
		z M109.1,57c-0.1,0-0.1,0-0.2,0c0-0.2,0-0.4,0-0.6h0.1C109.1,56.6,109.1,56.8,109.1,57z M107.1,56c0-1.4,0.1-2.8,0.2-4.2
		c0-0.4,0.1-0.7,0.5-0.9c0.3,0.3,0.2,0.7,0.2,1.1c-0.1,1.3-0.1,2.6-0.2,3.8c0.2-0.8,0.4-1.5,0.5-2.3c0.1-0.3,0.1-0.7,0.2-1
		c0.3,0.9,0.1,1.9,0,2.8s0.2,1.8-0.6,2.6c0-0.7-0.1-1.4-0.1-2.2c-0.2,0.7-0.3,1.3-0.5,2h-0.1C107.1,57.2,107,56.6,107.1,56z
		 M108.4,62.4c-0.3,1.1-0.3,2.1-1.6,2.4c0.5,0.5,0.6,1.1,1.3,1.4c0.7-0.4,0.7-1.3,1.4-2c-0.1,0.8-0.2,1.5-0.2,2.2
		c0.1,0.1,0.3,0.3,0.6,0.5c-0.1,0.1-0.2,0.3-0.4,0.3c-0.8,0-1.7,0-2.4-0.6c-0.9-0.6-1-1.7-0.4-2.6C107,63.5,107.5,62.9,108.4,62.4z"
		/>
	<path class="st0" d="M200.1,37.5c-0.5,0.8-1,1.6-1.5,2.3c-0.8-0.2-0.8-0.2-1.2,0.3c0.2,0.3,0.5,0.7,0.7,1
		C199.3,40.2,199.8,39,200.1,37.5z"/>
	<path class="st0" d="M198.2,41.2L198.2,41.2C198.2,41.3,198.2,41.3,198.2,41.2C198.2,41.3,198.2,41.3,198.2,41.2L198.2,41.2z"/>
	<path class="st0" d="M92.9,88.1c-0.2,0.5-0.3,1.1-0.5,1.6s-0.4,1.1-0.6,1.6c-0.2,0.5-0.7,0.9-0.7,1.6
		C92.3,91.9,93.2,89.5,92.9,88.1z"/>
	<path class="st0" d="M203.2,34.7c0.1,0,0.2-0.1,0.2-0.1c0.1-0.1,0.2-0.3,0.3-0.5c-0.1-0.1-0.1-0.1-0.2-0.2
		c-1.2,0.8-2.4,1.6-3.5,2.4c0.1,0.5,0.1,0.8,0.1,1.1C200.8,36.2,201.9,35.4,203.2,34.7z"/>
	<path class="st0" d="M200.1,37.4C200.1,37.4,200.1,37.5,200.1,37.4C200.1,37.5,200.1,37.5,200.1,37.4
		C200.1,37.5,200.1,37.5,200.1,37.4C200.1,37.5,200.1,37.5,200.1,37.4z"/>
	<path class="st0" d="M192.4-24.9c0,0.1,0.1,0.2,0.1,0.3c0.8-0.5,2.3-2.5,2.5-3.3C193.9-27.1,193.1-26,192.4-24.9z"/>
	<path class="st0" d="M207.9,42.4c-0.3,0.5-0.8,0.7-1.2,0.9c-0.4,0.2-0.7,0.6-1,0.9c0.8-0.4,1.6-0.8,2.5-1c0.6-0.2,0.8-0.5,0.9-1.3
		C208.5,42.1,208.1,42.1,207.9,42.4z"/>
	<path class="st0" d="M94.2,88c-0.4,1.1-0.8,2.1-1.2,3.4c1.4-0.7,1.2-1.8,1.5-2.8C94.6,88.4,94.6,88.1,94.2,88z"/>
	<path class="st0" d="M228,38.9c1.2,0.4,2.2,0.1,2.9-0.9C230.5,37.9,229,38.4,228,38.9z"/>
	<path class="st0" d="M202,42.9c-0.4,0-0.6,0.1-0.8,0.3c-0.5,0.4-0.8,1-1.5,1.2c0.3,0.2,0.6,0.5,0.9,0.8
		C201.1,44.3,201.5,43.6,202,42.9z"/>
	<path class="st0" d="M199.7,44.3L199.7,44.3C199.7,44.3,199.6,44.3,199.7,44.3C199.6,44.3,199.6,44.3,199.7,44.3
		C199.6,44.3,199.7,44.3,199.7,44.3z"/>
	<path class="st0" d="M94.9,90.6c1-0.4,1.4-1.5,1-2.7C95.5,88.8,95,89.6,94.9,90.6z"/>
	<path class="st0" d="M104.6,75.8c-0.6-0.5-1.2,0.2-1.9-0.1c0.1,0.4,0,0.6,0.1,0.8c0.1,0.1,0.4,0.3,0.6,0.2
		C103.9,76.6,104.4,76.5,104.6,75.8z"/>
	<path class="st0" d="M194.2,43.4L194.2,43.4C194.1,43.4,194.1,43.4,194.2,43.4C194.1,43.4,194.2,43.4,194.2,43.4L194.2,43.4z"/>
	<path class="st0" d="M195,43.5c0.7-0.9,1.2-1.9,1.2-3.2c-0.4,1.2-1.2,2.1-2,3C194.5,43.2,194.8,43,195,43.5z"/>
	<path class="st0" d="M188.2-23.6c-0.5-0.6-0.2-1.1,0-1.6c-0.7,0.4-1.1,1-1.3,1.8c0.4,0.2,0.8,0.3,1.3,0.5
		C188.2-23.2,188.3-23.5,188.2-23.6z"/>
	<path class="st0" d="M186.9-23.5C186.8-23.5,186.8-23.5,186.9-23.5C186.8-23.5,186.8-23.4,186.9-23.5
		C186.8-23.4,186.8-23.4,186.9-23.5C186.9-23.4,186.9-23.5,186.9-23.5z"/>
	<path class="st0" d="M210,35.4c0.2-0.1,0.5-0.3,0.4-0.9c-1.1,0.8-2.1,1.5-3.1,2.2C208.1,36.3,209.1,35.8,210,35.4z"/>
	<path class="st0" d="M215.4,40.5L215.4,40.5c-0.1,0-0.1,0.1-0.1,0.1C215.4,40.6,215.4,40.6,215.4,40.5L215.4,40.5z"/>
	<path class="st0" d="M218.8,38.3c-1.3,0.7-2.4,1.2-3.3,2.2c0.6-0.3,1.1-0.5,1.7-0.8C217.7,39.3,218.5,39.3,218.8,38.3z"/>
	<path class="st0" d="M86.8,84.5c0.3,0.4,0.5,0.8,0.8,1.3c0.3-0.3,0.6-0.6,0.8-0.9C87.5,84.1,87.5,84.1,86.8,84.5z"/>
	<path class="st0" d="M100.3,58.9L100.3,58.9L100.3,58.9L100.3,58.9L100.3,58.9z"/>
	<path class="st0" d="M102.3,55.4c-1,1.1-1.6,2.2-2,3.4C101,58.2,101.9,56.6,102.3,55.4z"/>
	<path class="st0" d="M200.1,45.3c-0.6,0.2-0.5,0.5-0.1,1c0.6-0.3,1.4-0.2,1.6-1.2C201.1,45.2,200.6,45.2,200.1,45.3z"/>
	<path class="st0" d="M189.6-25.1c0.1-0.1,0.2-0.3,0.3-0.5c-0.4-0.2-0.7-0.4-1-0.6c-0.2,0.2-0.4,0.4-0.5,0.5s-0.1,0.2-0.1,0.4
		C188.7-25,189.1-24.9,189.6-25.1z"/>
	<path class="st0" d="M188.2-25.3L188.2-25.3C188.2-25.3,188.2-25.2,188.2-25.3C188.2-25.2,188.2-25.2,188.2-25.3L188.2-25.3z"/>
	<path class="st0" d="M211.4,38.6c1.1-0.2,2-0.9,3.1-1.7C213.4,37.1,212.3,37.8,211.4,38.6z"/>
	<path class="st0" d="M211.4,38.6C211.4,38.6,211.3,38.6,211.4,38.6C211.3,38.6,211.3,38.6,211.4,38.6
		C211.3,38.6,211.3,38.7,211.4,38.6C211.3,38.6,211.4,38.6,211.4,38.6z"/>
	<path class="st0" d="M197.8,47.8c1.1,0.3,1.1,0.3,1.7-0.5c-0.2-0.1-0.3-0.3-0.5-0.5C198.6,47.2,198.3,47.4,197.8,47.8z"/>
	<path class="st0" d="M203.7,43.4c0.8,0.1,0.8,0.1,1.2-0.9C204.1,42.5,204.1,42.5,203.7,43.4z"/>
	<path class="st0" d="M191.6-28.1c-0.7,0.2-1.5-0.3-1.7,0.6C190.9-27.1,190.9-27.1,191.6-28.1z"/>
	<path class="st0" d="M133.1,81.1c1-0.4,1-0.4,0.7-1.6C133.2,80,132.8,80.4,133.1,81.1z"/>
	<path class="st0" d="M216.3,37.6c-0.9,0.5-1.7,0.9-2.3,1.5C215,38.9,215.5,38.6,216.3,37.6z"/>
	<path class="st0" d="M221.6,34.2c-0.6-0.1-1.1-0.2-1.6,0.3C220.8,34.9,220.8,34.9,221.6,34.2z"/>
	<path class="st0" d="M216.2,35.1c-0.7,0.1-1.1,0.3-1,1C215.9,36.3,216.2,35.9,216.2,35.1z"/>
	<path class="st0" d="M98.2,89.1c0.6-0.2,0.8-0.6,0.8-1.4C98.4,88.2,98,88.4,98.2,89.1z"/>
	<path class="st0" d="M135,79.9c-0.1,0.5,0.2,0.6,0.6,0.7c0.4-0.2,0.6-0.5,0.2-0.8C135.5,79.5,135,79.6,135,79.9z"/>
	<path class="st0" d="M212,40.2C212,40.2,212.1,40.2,212,40.2c0.1,0,0.1,0,0.1-0.1C212.1,40.2,212.1,40.2,212,40.2L212,40.2z"/>
	<path class="st0" d="M212,40.2c-0.7,0.2-1.3,0.6-1.7,1.2C210.9,41,211.5,40.6,212,40.2z"/>
	<path class="st0" d="M106.2,49.8c-0.4,0.5-0.9,0.9-1.1,1.5C106,50.7,106,50.7,106.2,49.8z"/>
	<path class="st0" d="M194.4,33.3c-0.2,0.5-0.5,1-0.7,1.5c0.1,0,0.2,0.1,0.2,0.1C194.2,34.4,194.5,33.9,194.4,33.3z"/>
	<path class="st0" d="M126.6,79.5c-0.4,0.3-0.9,0.5-0.7,1.1C126.7,80.4,126.7,80.4,126.6,79.5z"/>
	<path class="st0" d="M125.9,80.6L125.9,80.6L125.9,80.6L125.9,80.6L125.9,80.6z"/>
	<path class="st0" d="M213.8,39.2C213.8,39.2,213.9,39.2,213.8,39.2C213.9,39.1,213.9,39.1,213.8,39.2
		C213.9,39.1,213.9,39.1,213.8,39.2C213.8,39.1,213.8,39.2,213.8,39.2z"/>
	<path class="st0" d="M212.1,40.2c0.7-0.1,1.2-0.5,1.7-1C213.1,39.2,212.6,39.6,212.1,40.2z"/>
	<path class="st0" d="M195.3,50.9c0.4-0.5,0.6-0.9,0.8-1.5C195.3,50.1,195.3,50.1,195.3,50.9z"/>
	<path class="st0" d="M103.8,63h-0.1c0.1,0.5,0.1,0.9,0.2,1.4h0.1C103.9,63.9,103.8,63.4,103.8,63z"/>
	<path class="st0" d="M137.4,79.8c0.5,0.2,0.8,0,1-0.6C137.9,79.2,137.5,79.2,137.4,79.8z"/>
	<path class="st0" d="M201.7,45.1c0.3-0.1,0.7-0.1,1.2-0.2C202.3,44.5,202,44.7,201.7,45.1z"/>
	<path class="st0" d="M201.7,45.1L201.7,45.1C201.6,45.1,201.6,45.1,201.7,45.1L201.7,45.1L201.7,45.1z"/>
	<path class="st0" d="M209-38.3c0,0.2,0,0.5,0,0.7c0.1,0,0.1,0,0.2,0c0-0.2,0.1-0.5,0.1-0.7C209.2-38.3,209.1-38.3,209-38.3z"/>
	<path class="st0" d="M87.5,65c0-0.3-0.3-0.6-0.8-0.3c0.1,0.6,0.2,1.2,0.3,1.9c0.2-0.1,0.3-0.1,0.6-0.2C87.6,66,87.6,65.5,87.5,65z"
		/>
	<path class="st0" d="M159.4,19.4c0.5-0.6,1.3-2.5,1.3-3.8c-0.5,1-1,1.9-1.6,2.9C158.9,18.9,159,19.2,159.4,19.4z"/>
	<path class="st0" d="M170.9,10.9c0.3,0.3,0.6,0.6,1,0.2c-0.3-0.6-0.7-1.1-1-1.7C170.4,10.2,170.4,10.4,170.9,10.9z"/>
	<path class="st0" d="M171,9.5C171,9.5,171,9.4,171,9.5C171,9.4,171,9.4,171,9.5C170.9,9.4,170.9,9.4,171,9.5
		C170.9,9.4,170.9,9.4,171,9.5z"/>
	<path class="st0" d="M157.3,17.1c0.1,0,0.2,0.1,0.3,0.1c0.3-0.8,0.6-1.7,0.9-2.5C157.7,15.4,157.5,16.3,157.3,17.1z"/>
	<path class="st0" d="M158.4,14.7L158.4,14.7C158.4,14.6,158.4,14.6,158.4,14.7C158.4,14.6,158.4,14.6,158.4,14.7L158.4,14.7z"/>
	<path class="st0" d="M162.7,16.2c-0.3,0.5-0.7,0.9-0.3,1.8C162.7,17.2,162.8,16.7,162.7,16.2z"/>
	<path class="st0" d="M159.1,12.9c-0.3,0.5-0.7,1.1-0.6,1.8c0.4-0.6,0.7-1.2,1.1-1.7C159.4,12.6,159.2,12.7,159.1,12.9z"/>
	<path class="st0" d="M158.5,17.9c-0.1,0-0.1,0-0.2-0.1c-0.1,0.3-0.2,0.5-0.3,0.8c0.1,0,0.1,0.1,0.2,0.1
		C158.3,18.5,158.4,18.2,158.5,17.9z"/>
	<path class="st0" d="M132.8,41.8c-0.4,0-0.7,0-1,0c0,0.6-0.1,1.2-0.1,1.9C132.8,43.3,132.5,42.5,132.8,41.8z"/>
	<path class="st0" d="M131.8,41.7L131.8,41.7L131.8,41.7L131.8,41.7L131.8,41.7z"/>
</g>
</svg>
