<?xml version="1.0" encoding="utf-8"?>
<!-- Generator: Adobe Illustrator 19.1.0, SVG Export Plug-In . SVG Version: 6.00 Build 0)  -->
<!DOCTYPE svg PUBLIC "-//W3C//DTD SVG 1.1//EN" "http://www.w3.org/Graphics/SVG/1.1/DTD/svg11.dtd">
<svg version="1.1" id="Isolation_Mode" xmlns="http://www.w3.org/2000/svg" xmlns:xlink="http://www.w3.org/1999/xlink" x="0px"
	 y="0px" width="165.6px" height="163.3px" viewBox="-396 199.7 165.6 163.3"
	 style="enable-background:new -396 199.7 165.6 163.3;" xml:space="preserve">
<style type="text/css">
	.st0{enable-background:new    ;}
	.st1{fill:#242424;}
	.st2{fill:#FFFFFF;}
	.st3{fill:#4F6367;}
</style>
<g class="st0">
	<path class="st1" d="M-391.8,334.4v-18.2h4.8c3.4,0,6.1,0.8,8,2.4c1.9,1.6,2.9,3.8,2.9,6.7c0,1.7-0.4,3.2-1.1,4.5
		c-0.7,1.3-1.9,2.4-3.3,3.2c-0.8,0.5-1.7,0.8-2.7,1c-1,0.2-2.2,0.3-3.6,0.3h-5V334.4z M-387.5,330.5h1c1.9,0,3.4-0.5,4.5-1.4
		c1.1-0.9,1.6-2.2,1.6-3.8s-0.5-2.9-1.6-3.8c-1.1-0.9-2.6-1.4-4.5-1.4h-1V330.5z"/>
	<path class="st1" d="M-371,334.4l9.3-18.8h0.3l9.1,18.8h-4.6l-1.2-2.6h-7.4l-1.2,2.6H-371z M-364.2,328.6h4.8l-2.4-5.7
		L-364.2,328.6z"/>
	<path class="st1" d="M-344.2,334.4v-8.6l-6.5-9.6h5.2l3.8,5.8l4.2-5.8h4.6l-7,9.4v8.8C-339.9,334.4-344.2,334.4-344.2,334.4z"/>
</g>
<g class="st0">
	<path class="st1" d="M-324.3,334.4v-18.2h2.2v16.2h8.6v2H-324.3z"/>
	<path class="st1" d="M-306,334.4v-18.2h2.2v18.2H-306z"/>
	<path class="st1" d="M-279.2,333.1c-1.3,0.6-2.5,1.1-3.6,1.4c-1.1,0.3-2.1,0.5-3.1,0.5c-2.7,0-5-0.9-6.8-2.7
		c-1.8-1.8-2.6-4.1-2.6-7c0-2.8,0.9-5.2,2.7-7c1.8-1.8,4.1-2.7,6.8-2.7c1.1,0,2.1,0.1,3.1,0.4s1.9,0.7,2.8,1.2l-0.1,2.3
		c-1-0.7-2-1.2-3-1.5c-0.9-0.3-1.9-0.5-2.8-0.5c-2.1,0-3.9,0.7-5.2,2.2c-1.4,1.5-2.1,3.4-2.1,5.7c0,2.3,0.7,4.1,2,5.5
		c1.3,1.4,3.1,2.1,5.2,2.1c0.8,0,1.5-0.1,2.3-0.3c0.8-0.2,1.6-0.5,2.4-0.9v-4.7h-5.5v-1.9h7.6L-279.2,333.1L-279.2,333.1z"/>
	<path class="st1" d="M-270.2,334.4v-18.2h2.1v7.6h10.1v-7.6h2.1v18.2h-2.1v-8.6h-10.1v8.6C-268.1,334.4-270.2,334.4-270.2,334.4z"
		/>
	<path class="st1" d="M-241.8,334.4v-16.3h-6.4v-2h15v2h-6.4v16.2h-2.2V334.4z"/>
</g>
<g class="st0">
	<path class="st1" d="M-391.6,358.4v-17h3.6c2.4,0,4.2,0.4,5.4,1.3c1.2,0.9,1.9,2.1,1.9,3.7c0,1.2-0.4,2.3-1.2,3.2s-1.9,1.4-3.2,1.7
		l6.2,7.2h-2.5l-5.9-7h-2.1v7h-2.2V358.4z M-389.6,349.8h1.7c1.7,0,2.9-0.3,3.8-0.9c0.9-0.6,1.3-1.4,1.3-2.6c0-1.2-0.4-2-1.3-2.5
		c-0.9-0.5-2.2-0.8-4.1-0.8h-1.4V349.8z"/>
	<path class="st1" d="M-371.7,349.9c0-1.3,0.2-2.4,0.6-3.5c0.4-1.1,1-2.1,1.8-2.9c0.8-0.8,1.7-1.5,2.7-1.9c1-0.4,2.1-0.7,3.2-0.7
		s2.2,0.2,3.2,0.7s1.9,1.1,2.7,1.9c0.8,0.9,1.4,1.8,1.8,2.9c0.4,1.1,0.6,2.3,0.6,3.5c0,1.1-0.1,2.1-0.4,3c-0.3,0.9-0.7,1.8-1.3,2.6
		c-0.8,1.1-1.8,1.9-2.9,2.6c-1.1,0.7-2.4,0.9-3.7,0.9c-1.1,0-2.2-0.2-3.2-0.7s-1.9-1.1-2.7-1.9c-0.8-0.9-1.4-1.8-1.8-2.9
		S-371.7,351.1-371.7,349.9z M-369.7,349.9c0,2,0.6,3.7,1.8,5.1s2.7,2.1,4.5,2.1c1.8,0,3.3-0.7,4.5-2c1.2-1.3,1.8-3.1,1.8-5.1
		s-0.6-3.8-1.8-5.1s-2.7-2-4.5-2c-1.8,0-3.3,0.7-4.5,2.1C-369.1,346.4-369.7,347.8-369.7,349.9z"/>
	<path class="st1" d="M-348.8,358.4l7.9-17.4h0.2l7.9,17.4h-2.1l-1.9-4.3h-8l-1.9,4.3H-348.8z M-344,352.4h6.6l-3.3-7.5L-344,352.4z
		"/>
	<path class="st1" d="M-325.7,355.3c1.1,0.6,2,1.1,2.7,1.4c0.7,0.3,1.5,0.4,2.2,0.4c1.1,0,1.9-0.3,2.6-0.8s1-1.3,1-2.2
		c0-0.7-0.2-1.4-0.7-1.9s-1.4-1.1-2.6-1.7l-1.2-0.5c-1.3-0.6-2.2-1.3-2.8-2.1c-0.6-0.8-0.9-1.7-0.9-2.7c0-1.3,0.5-2.3,1.4-3.1
		s2.1-1.2,3.6-1.2c0.7,0,1.4,0.1,2.1,0.3s1.3,0.5,2,0.8v2.2c-0.7-0.5-1.4-1-2.1-1.2c-0.7-0.2-1.4-0.4-2-0.4c-0.9,0-1.6,0.2-2.2,0.7
		c-0.6,0.5-0.8,1.1-0.8,1.8c0,0.7,0.2,1.3,0.7,1.8s1.3,1,2.4,1.5l1.2,0.5c1.3,0.6,2.3,1.3,3,2.2c0.7,0.9,1,1.9,1,3
		c0,1.4-0.5,2.6-1.5,3.5c-1,0.9-2.3,1.4-3.9,1.4c-0.8,0-1.6-0.1-2.4-0.3s-1.6-0.5-2.5-1L-325.7,355.3z"/>
	<path class="st1" d="M-301.8,358.4v-15.2h-6v-1.8h14v1.8h-6v15.2C-299.8,358.4-301.8,358.4-301.8,358.4z"/>
	<path class="st1" d="M-285.4,358.4v-17h9.3v1.7h-7.4v5.6h6.4v1.7h-6.4v6.2h7.5v1.8C-276,358.4-285.4,358.4-285.4,358.4z"/>
	<path class="st1" d="M-266.1,358.4v-17h3.6c2.4,0,4.2,0.4,5.4,1.3c1.2,0.9,1.9,2.1,1.9,3.7c0,1.2-0.4,2.3-1.2,3.2
		c-0.8,0.9-1.9,1.4-3.2,1.7l6.2,7.2h-2.5l-5.9-7h-2.1v7h-2.2V358.4z M-264.1,349.8h1.7c1.7,0,2.9-0.3,3.8-0.9
		c0.9-0.6,1.3-1.4,1.3-2.6c0-1.2-0.4-2-1.3-2.5c-0.9-0.5-2.3-0.8-4.2-0.8h-1.4v6.8H-264.1z"/>
	<path class="st1" d="M-246,355.3c1.1,0.6,2,1.1,2.7,1.4c0.7,0.3,1.5,0.4,2.2,0.4c1.1,0,1.9-0.3,2.6-0.8s1-1.3,1-2.2
		c0-0.7-0.2-1.4-0.7-1.9s-1.4-1.1-2.6-1.7l-1.2-0.5c-1.3-0.6-2.2-1.3-2.8-2.1c-0.6-0.8-0.9-1.7-0.9-2.7c0-1.3,0.5-2.3,1.4-3.1
		s2.1-1.2,3.6-1.2c0.7,0,1.4,0.1,2.1,0.3s1.3,0.5,2,0.8v2.2c-0.7-0.5-1.4-1-2.1-1.2c-0.7-0.2-1.4-0.4-2-0.4c-0.9,0-1.6,0.2-2.2,0.7
		s-1,1-1,1.7c0,0.7,0.2,1.3,0.7,1.8s1.3,1,2.4,1.5l1.2,0.5c1.3,0.6,2.3,1.3,3,2.2s1,1.9,1,3c0,1.4-0.5,2.6-1.5,3.5s-2.3,1.4-3.9,1.4
		c-0.8,0-1.6-0.1-2.4-0.3c-0.8-0.2-1.6-0.5-2.5-1L-246,355.3z"/>
</g>
<path class="st1" d="M-330.2,291.6c3.8-5.4,10-8.9,17.1-8.9s13.3,3.5,17.1,8.9c14.6-6.5,24.8-21.2,24.8-38.3
	c0-23.2-18.8-41.9-41.9-41.9c-23.2,0-41.9,18.8-41.9,41.9C-355,270.4-344.8,285.1-330.2,291.6z"/>
<g>
	<path class="st2" d="M-335.3,231.1c9.9-9.9,22.8-14.4,34-12.9c-3.7-1.2-7.7-1.9-11.8-1.9c-20.5,0-37.1,16.6-37.1,37.1
		c0,4.1,0.7,8.1,1.9,11.8C-349.6,254-345.2,241.1-335.3,231.1z"/>
</g>
<path class="st3" d="M-313,200.7c-29,0-52.7,23.6-52.7,52.7c0,3.7,0.4,7.3,1.1,10.8c-0.1,0-0.2,0-0.3,0.1l-26.6,14
	c-2,0.7-3,2.9-2.2,4.9l2.1,5.5c0.7,2,2.9,3,4.9,2.2l29.2-6.9c0.4-0.2,0.8-0.4,1.1-0.7c9.5,13.7,25.4,22.8,43.3,22.8
	c29,0,52.6-23.6,52.6-52.7C-260.4,224.3-284,200.7-313,200.7z M-313,301.8c-26.7,0-48.4-21.7-48.4-48.4
	c-0.1-26.7,21.7-48.5,48.4-48.5c26.7,0,48.4,21.7,48.4,48.4C-264.6,280.1-286.3,301.8-313,301.8z"/>
</svg>
