<?xml version="1.0" encoding="utf-8"?>
<!-- Generator: Adobe Illustrator 19.1.0, SVG Export Plug-In . SVG Version: 6.00 Build 0)  -->
<svg version="1.1" id="logo_x27_s" xmlns="http://www.w3.org/2000/svg" xmlns:xlink="http://www.w3.org/1999/xlink" x="0px" y="0px"
	 viewBox="0 0 64 11.2" style="enable-background:new 0 0 64 11.2;" xml:space="preserve">
<style type="text/css">
	.st0{fill:#7A9E9F;}
</style>
<g>
	<path id="color_3_" class="st0" d="M24.9,8.4c0.1,0.1,0.2,0.1,0.3,0.2c0.2,0.1,0.3,0.3,0.3,0.5c0,0.3-0.3,0.6-0.6,0.5
		c-0.3-0.1-0.6-0.4-0.7-0.6c-0.1-0.2,0-0.5,0.1-0.6c0.1,0,0.1-0.1,0.2-0.1c0.1,0,0.2,0,0.3,0c0-0.3,0.1-0.6,0.1-0.9
		c0.1-0.3,0.1-0.6,0.3-0.9c0.1-0.2,0.3-0.5,0.4-0.7c0,0,0,0,0,0C25.2,5.9,25,5.9,24.7,6c-0.4,0.1-0.9,0.2-1.3,0.3
		c-0.3,0.1-0.6,0.1-0.9,0.1c-0.3,0-0.6,0.1-0.9,0.1c0,0.1-0.1,0.2-0.1,0.2c-0.1,0-0.1,0.1-0.2,0.1c-0.4,0.1-0.7,0.3-0.9,0.6
		c-0.1,0.1-0.2,0.2-0.2,0.4c0,0,0,0.1,0,0.1C20,8,20,8.1,20,8.3c0.1,0.3,0.1,0.6,0.3,0.9c0.1,0,0.1,0,0.2,0c0.4,0,0.8,0.4,0.8,0.8
		c0,0.2-0.2,0.4-0.4,0.3c-0.3,0-0.5-0.1-0.7-0.3c-0.2-0.2-0.3-0.5-0.2-0.7c0,0,0-0.1,0-0.1c-0.1-0.3-0.2-0.6-0.3-0.9
		c-0.3,0.5-0.4,1.1-0.4,1.6c0.1,0.1,0.2,0.2,0.3,0.2c0.2,0.1,0.2,0.3,0.2,0.5c0,0.2-0.1,0.4-0.2,0.5c-0.1,0.1-0.2,0.1-0.4,0.1
		c-0.3-0.1-0.5-0.2-0.7-0.5c-0.1-0.2-0.2-0.4-0.1-0.7c0,0,0,0,0-0.1c-0.1,0-0.1-0.1-0.2-0.1c-0.1-0.1-0.2-0.1-0.3-0.2
		c-0.1,0-0.1-0.1-0.2-0.2c-0.1-0.1,0-0.3,0.2-0.3c0.1,0,0.1,0,0.2,0c0.1-0.2,0.2-0.3,0.5-0.4c0.2-0.1,0.3,0,0.5,0.1
		c0,0.1,0.1,0.1,0.1,0.2c0.1-0.1,0.1-0.1,0.1-0.2c0.1-0.5,0.3-0.9,0.5-1.3c0.2-0.3,0.4-0.5,0.6-0.7c0.1-0.1,0.2-0.2,0.4-0.3
		c0-0.1-0.1,0-0.1,0c-0.4,0-0.7,0.1-1.1,0.1c-0.4,0-0.8,0-1.1,0c-0.2,0-0.4,0-0.6,0c0,0.2-0.2,0.2-0.3,0.2c-0.4,0-0.7,0.1-1.1,0.3
		c-0.4,0.2-0.7,0.4-1,0.6c-0.3,0.2-0.5,0.4-0.7,0.7c0.1,0,0.1,0.1,0.2,0.1c0.3,0.1,0.5,0.4,0.7,0.6c0.1,0.1,0.1,0.2,0.1,0.3
		c0,0.2-0.1,0.4-0.3,0.4c-0.2,0-0.3,0-0.5,0c-0.3-0.1-0.5-0.2-0.7-0.4c0,0-0.1,0.1-0.1,0.1c-0.1,0.2-0.3,0.2-0.4,0.2
		c-0.4,0-0.6-0.2-0.9-0.5c-0.1-0.1-0.1-0.3,0-0.4c0.1-0.2,0.2-0.3,0.4-0.4c-0.1-0.1-0.1-0.2-0.2-0.2C12.7,8,12.8,7.8,13,7.7
		c0.3-0.1,0.6-0.1,0.9,0c0.2,0.1,0.4,0.2,0.5,0.5c0,0,0,0.1,0.1,0.1C14.7,8.1,14.8,8,15,7.9c0.3-0.3,0.7-0.5,1.1-0.7
		c0,0,0.1,0,0.1,0c0.2-0.2,0.5-0.3,0.9-0.3c0,0,0.1,0,0.1,0c0-0.1-0.1-0.1-0.1-0.1c-0.2,0-0.4,0-0.6,0c-0.4,0-0.8-0.1-1.2-0.1
		c-0.2,0-0.3-0.1-0.5,0c-0.1,0-0.2,0-0.3-0.1c-0.2-0.1-0.4-0.1-0.6-0.2c-0.6-0.1-1.2-0.2-1.8-0.2c-0.2,0-0.4,0-0.7-0.1
		C11.3,6.1,11.1,6,11,6c-0.1,0.1-0.3,0.2-0.5,0.2c-0.1,0-0.2,0-0.4,0.1c-0.3,0-0.6,0.1-0.9,0.3C8.8,6.7,8.4,7,8.4,7.7
		c0,0.1,0.1,0,0.2,0.1c0.4,0.1,0.7,0.6,0.7,1c0,0.3-0.2,0.4-0.5,0.4C8.4,9.1,8.1,8.7,8,8.3C8,8.1,8,8,8,7.9c0.1-0.1,0.1-0.1,0.2-0.1
		c0-0.2,0.1-0.5,0.1-0.7C8,7.2,7.4,7.6,7.2,8c0,0,0.1,0.1,0.1,0.2c0.1,0.2,0.2,0.4,0.2,0.7c0,0.4-0.3,0.7-0.7,0.6
		C6.3,9.4,6,9.2,5.7,8.8c-0.1-0.1-0.1-0.2,0-0.2c0.1-0.1,0.1-0.3,0.3-0.4C6.1,8.1,6.2,8,6.3,8c0.1-0.1,0.3-0.1,0.4-0.1
		c0.1,0,0.2,0,0.3,0c0.3-0.4,0.8-0.7,1.2-1c0,0,0.1,0,0.1-0.1c0.4-0.4,1-0.6,1.6-0.7C10,6,10.1,6,10.3,5.9c-0.1-0.1-0.1-0.1-0.1-0.1
		C10,5.7,9.7,5.7,9.5,5.6c-0.1,0-0.2-0.1-0.4-0.1C9,5.5,8.9,5.4,8.7,5.4c-0.1,0-0.2,0-0.2-0.1C8.2,5.2,7.8,5.1,7.4,5
		C7.4,5,7.3,5,7.2,4.9C7,4.8,6.8,4.7,6.5,4.6c-0.4-0.1-0.7-0.3-1-0.5C5.4,4.2,5.2,4.2,5,4.2c-0.4-0.1-0.8,0-1.2,0.1
		C3.5,4.3,3.3,4.5,3,4.7c0,0.1,0.1,0.1,0.1,0.2c0.1,0.2,0.1,0.6-0.1,0.8C2.9,5.8,2.7,5.9,2.5,5.9c-0.4,0-0.7-0.2-0.9-0.4
		C1.4,5.3,1.3,5.2,1.5,5c0-0.1,0.1-0.1,0.1-0.2c0-0.3,0.2-0.4,0.4-0.5c0.1-0.1,0.2,0,0.3,0c0.2,0.1,0.4,0.1,0.6,0.2
		C3.2,4.3,3.4,4.1,3.8,4c0.3-0.1,0.7-0.1,1-0.2c0-0.1,0-0.1,0-0.1c-0.1,0-0.2-0.1-0.2-0.1C4,3.4,3.5,3.1,3.1,2.8
		C2.8,2.6,2.6,2.5,2.4,2.3c-0.1,0-0.1-0.1-0.2-0.1C2.1,2.4,2,2.5,1.9,2.7C1.8,2.9,1.6,3,1.3,3C1,2.9,0.9,2.8,0.7,2.6
		C0.5,2.4,0.4,2.2,0.4,2c0-0.2,0-0.3,0.1-0.4c0,0,0,0,0,0C0.4,1.4,0.3,1.2,0.2,1C0.1,0.9,0,0.8,0,0.6C0,0.4,0.1,0.2,0.3,0.1
		C0.5,0,0.6,0,0.8,0c0.1,0,0.3,0,0.4,0.1c0.2,0.1,0.3,0.2,0.3,0.4c0,0.1,0,0.2,0,0.3C1.6,1,1.6,0.9,1.5,1.3C1.7,1.4,1.8,1.6,2,1.7
		C2.1,1.8,2.2,1.9,2.3,2c0.2,0.3,0.5,0.5,0.8,0.7C3.4,2.8,3.5,2.9,3.7,3c0.7,0.4,1.4,0.7,2,1.1C6,4.3,6.2,4.4,6.5,4.4
		c0-0.1,0-0.1-0.1-0.1c0,0-0.1-0.1-0.1-0.1C6.2,3.9,6,3.6,5.9,3.2C5.8,3.1,5.7,2.9,5.6,2.7c-0.1,0-0.1,0.1-0.1,0.1
		C5.2,2.9,5,2.9,4.7,2.8C4.4,2.7,4.2,2.5,4.1,2.2C3.9,1.7,4,1.6,4.2,1.4c0.2,0,0.3,0.1,0.5,0.1c0,0,0-0.1,0-0.1
		c0-0.2-0.1-0.3-0.1-0.5c0-0.1,0-0.2,0-0.3C4.9,0,5.3,0,5.6,0.3C5.8,0.4,5.9,0.6,6,0.8C6,0.9,6,1,6.1,1.1c0.1,0,0.2-0.1,0.3-0.1
		C6.7,1,6.9,1.1,7,1.3c0.2,0.4,0.3,0.7,0.2,1.1C7.1,2.8,6.8,2.9,6.5,2.9c-0.1,0-0.2-0.1-0.3-0.1C6.1,2.6,6,2.6,5.9,2.5
		c-0.1,0-0.1,0.1-0.1,0.1C6,3.4,6.4,4.1,7.1,4.5c0.2,0.1,0.3,0.3,0.5,0.2c0,0,0.1,0,0.1,0C7.8,5,8,5,8.2,5.1C8.5,5.2,8.8,5.3,9,5.3
		c0.2,0.1,0.4,0.1,0.6,0.2c0.1,0,0.2,0.1,0.3,0.1c0.3,0.1,0.6,0.1,0.9,0.2c0.3,0.1,0.5,0.1,0.8,0.1c0.3,0,0.5,0.1,0.8,0.1
		c0.5,0.1,0.9,0.1,1.4,0.2c0-0.1-0.1-0.2-0.2-0.3c-0.3-0.3-0.6-0.6-0.9-1c-0.3-0.4-0.6-0.6-1-0.8c-0.2-0.1-0.5-0.1-0.8,0
		c0,0-0.1,0.1-0.1,0.1c-0.1,0.2-0.2,0.3-0.5,0.3c-0.2,0-0.4-0.1-0.5-0.2C9.7,4.1,9.5,3.9,9.5,3.5c0-0.1,0-0.2,0.2-0.2
		c0.3-0.1,0.5,0,0.7,0.1c0.2,0.1,0.3,0.2,0.4,0.4c0.2,0,0.4,0,0.7,0c0.2,0,0.4,0.1,0.6,0.3c-0.1-0.5-0.4-0.8-0.5-1.3
		c-0.1,0-0.1,0-0.2-0.1c-0.1-0.1-0.3-0.1-0.4-0.3c-0.1-0.1-0.3-0.3-0.5-0.3c0-0.2,0-0.3,0.1-0.4c0-0.1,0.1-0.2,0.2-0.1
		c0.1,0,0.1,0,0.2,0c0.1,0,0.2-0.1,0.3-0.1c0.1,0,0.2,0,0.3,0.1C11.9,1.8,12,2,12,2.3c0,0.1,0,0.2-0.1,0.3c-0.1,0.1-0.1,0.3,0,0.4
		c0.1,0.4,0.3,0.8,0.5,1.2c0.3,0.4,0.6,0.9,1,1.3c0.3,0.3,0.7,0.6,1,0.8c0.1,0,0.2,0.1,0.3,0.1c0.8,0.1,1.6,0.2,2.4,0.2
		c0.1,0,0.1,0,0.2,0c0.7,0.1,1.5,0.1,2.2,0.1c0.4,0,0.8-0.1,1.2-0.1c0.5-0.1,1.1-0.1,1.6-0.2c0.1,0,0.1,0,0.2,0
		c-0.5-0.3-1-0.6-1.5-0.9c-0.2,0.1-0.3,0.1-0.4,0c-0.1-0.1-0.3-0.2-0.5-0.2c-0.3-0.1-0.5-0.2-0.7-0.4c-0.1,0-0.2-0.1-0.3-0.1
		c-0.1,0.1-0.2,0.1-0.2,0.2c-0.2,0.2-0.4,0.2-0.6,0.1c-0.3-0.1-0.5-0.2-0.7-0.5c-0.2-0.3,0-0.7,0.4-0.8c0.4,0,0.8,0.1,1,0.5
		c0.1,0.2,0.3,0.4,0.5,0.4c0.3,0.1,0.6,0.3,0.9,0.4c0,0,0.1,0,0.2,0c-0.2-0.2-0.3-0.3-0.4-0.4c-0.2-0.2-0.4-0.4-0.5-0.7
		c-0.1-0.1-0.2-0.2-0.3-0.2c-0.2-0.1-0.3-0.2-0.4-0.4c-0.1-0.3-0.1-0.4,0.3-0.5C19.4,2.6,19.9,2.8,20,3c0.1,0.1,0.1,0.3,0.1,0.5
		c0,0.1-0.1,0.2-0.3,0.3c0,0,0,0-0.1,0.1c0.5,0.7,1.1,1.3,1.9,1.7c0.3,0.1,0.5,0.3,0.8,0.4c0.3,0.2,0.6,0.2,0.9,0.1
		c0.4-0.1,0.8-0.2,1.2-0.3c0.3-0.1,0.6-0.1,0.9-0.2c0.5-0.1,0.9-0.2,1.4-0.4c0.2-0.1,0.4-0.1,0.6-0.2c-1.1-0.2-2.1-0.7-3-1.2
		c-0.2,0-0.3,0.1-0.5,0.1c-0.3-0.1-0.6-0.2-0.8-0.4c-0.2-0.2-0.2-0.4-0.1-0.6c0.1-0.1,0.1-0.3,0.3-0.3c0.1-0.1,0.2-0.1,0.3-0.1
		c0.3,0,0.5,0.1,0.7,0.3c0.3,0.2,0.3,0.4,0.3,0.7c0,0.1,0,0.1-0.1,0.2c0,0,0.1,0.1,0.1,0.1c0.7,0.4,1.4,0.7,2.1,0.9
		c0.3,0.1,0.5,0.1,0.8,0.1c0.1,0,0.1,0,0.2,0c0.1-0.1,0.3-0.1,0.5-0.1c0,0,0.1,0,0.1,0c0.4-0.2,0.8-0.4,1.3-0.6c0.1,0,0.1,0,0.1-0.1
		c0.1-0.1,0.2-0.2,0.4-0.2c0.3-0.2,0.7-0.3,0.9-0.6c0,0,0.1,0,0.1,0c0.1,0.1,0.1,0.2,0,0.2c-0.2,0.1-0.3,0.2-0.5,0.3
		c-0.2,0.1-0.4,0.3-0.6,0.4c-0.1,0.1-0.3,0.2-0.4,0.3c-0.3,0.3-0.5,0.7-0.7,1.1c-0.1,0.2-0.2,0.3-0.3,0.5c-0.1,0.2-0.2,0.4-0.3,0.6
		c0.1,0.1,0.2,0,0.3,0c0.4-0.1,0.8,0.1,1,0.5C30,7.1,30,7.3,30,7.4c0,0.2-0.2,0.3-0.4,0.3c-0.1,0-0.2,0-0.4-0.1c0,0.1,0,0.2,0.1,0.2
		c0,0.1,0,0.1,0,0.2c-0.1,0.2-0.2,0.4-0.5,0.4c-0.2,0-0.5-0.1-0.7-0.3c-0.1-0.1-0.2-0.3-0.2-0.4c0-0.1,0-0.2,0-0.3
		c-0.1-0.1-0.2-0.1-0.4-0.2c-0.2-0.1-0.3-0.2-0.3-0.4c0,0,0.1-0.1,0.1-0.2c0.2-0.3,0.4-0.4,0.7-0.3c0.1,0,0.2,0.1,0.4,0.1
		c0,0,0.1-0.1,0.1-0.1c0.1-0.4,0.4-0.8,0.6-1.2c0.1-0.2,0.3-0.5,0.4-0.7c-0.2,0-0.4,0.1-0.5,0.2c-0.5,0.2-1,0.4-1.5,0.6
		c-0.3,0.1-0.6,0.2-0.9,0.3C26.2,5.6,26,5.7,25.7,6c-0.5,0.6-0.8,1.2-0.8,2C24.9,8.1,24.9,8.2,24.9,8.4z M6.9,8.1
		C6.6,8,6.4,8,6.3,8.3c0,0.1-0.1,0.1-0.2,0.1C5.9,8.4,5.9,8.7,6,8.8c0.3,0.3,0.6,0.5,1,0.5c0.1,0,0.2-0.1,0.3-0.2
		c0.1-0.3,0.1-0.5-0.1-0.8c0,0,0,0-0.1,0C7,8.3,7,8.3,6.9,8.4C6.9,8.3,6.9,8.3,6.9,8.1z M2.7,4.6C2.5,4.5,2.4,4.4,2.2,4.5
		c0,0-0.1,0-0.1,0.1C2,4.6,2,4.7,1.9,4.8C1.8,4.8,1.8,4.9,1.8,5c0,0.1,0,0.1,0,0.2C1.7,5.4,1.8,5.5,2,5.5c0.1,0.1,0.3,0.1,0.4,0.2
		c0.2,0.1,0.5,0,0.6-0.2c0.1-0.2,0.1-0.4,0-0.6c0-0.1-0.1-0.1-0.2-0.1c0,0-0.1,0-0.1,0C2.7,4.8,2.7,4.7,2.7,4.6z M5.9,1.9
		C6,2.3,6.2,2.5,6.6,2.6c0.2,0,0.3,0,0.4-0.2C7,2.3,7,2.2,7,2.2C7,2,7,1.8,7,1.7C6.9,1.4,6.7,1.3,6.4,1.3c-0.2,0-0.2,0-0.3,0.2
		C6.1,1.6,6,1.7,5.9,1.9z M5.3,1.6c0,0,0.1,0.1,0.2,0.1c0.1,0.1,0.2,0,0.3-0.1c0-0.1,0-0.2,0.1-0.3c0.2-0.4-0.1-0.8-0.4-1
		c-0.2-0.1-0.4,0-0.5,0.2C4.8,0.9,4.9,1.4,5.3,1.6z M1.7,2.3C1.7,2.3,1.7,2.3,1.7,2.3c0-0.1,0-0.1,0-0.2c0-0.3-0.2-0.5-0.6-0.5
		c-0.1,0-0.1,0-0.2,0c-0.1,0-0.2,0.1-0.3,0.1c0,0.1-0.1,0.1-0.1,0.2C0.6,2.3,1,2.7,1.3,2.7c0.2,0,0.4-0.1,0.5-0.3
		C1.8,2.3,1.8,2.3,1.7,2.3C1.7,2.3,1.7,2.3,1.7,2.3z M4.3,1.6c-0.1,0.3,0,0.5,0.1,0.7c0.1,0.1,0.3,0.2,0.4,0.3
		c0.1,0.1,0.3,0.1,0.4,0c0.2-0.1,0.2-0.2,0.2-0.4c0-0.1-0.1-0.1-0.1-0.2C5.1,1.9,4.9,1.7,4.5,1.6C4.5,1.6,4.4,1.6,4.3,1.6z M0.5,1.2
		c0.1,0,0.2,0.1,0.3,0.1c0.1,0,0.2,0,0.2-0.1C1.2,1,1.2,0.8,1.2,0.6c0-0.1,0-0.2-0.1-0.3C0.9,0.2,0.7,0.2,0.5,0.3
		c-0.2,0-0.3,0.2-0.2,0.3C0.2,0.8,0.4,1,0.5,1.2z M23.5,2.7c-0.1,0.1-0.2,0.2-0.2,0.3c-0.1,0.1-0.1,0.2,0,0.3
		c0.1,0.1,0.3,0.2,0.5,0.3c0.2,0.1,0.4,0.1,0.5-0.1c0.1,0,0.1-0.1,0.1-0.2c0-0.1,0-0.2-0.1-0.3C24.1,2.8,23.8,2.7,23.5,2.7z
		 M14.5,8.8c-0.1,0.1-0.2,0.2-0.3,0.3c0.1,0.3,0.4,0.5,0.7,0.6c0.1,0,0.2,0,0.3,0c0.1,0,0.1-0.1,0.1-0.2c0-0.1,0-0.1,0-0.2
		C15.1,9,14.9,8.8,14.5,8.8z M17.7,4.1c0.1,0.3,0.1,0.3,0.4,0.5c0.3,0.2,0.5,0.1,0.7-0.1C18.7,4,18.3,3.9,18,3.8
		C17.8,3.8,17.8,4,17.7,4.1z M19.3,10.1c-0.1,0-0.2-0.1-0.3-0.1c-0.2,0-0.3,0.1-0.3,0.2c0,0.1,0,0.3,0.1,0.4
		c0.1,0.2,0.3,0.3,0.5,0.3c0.1,0,0.1,0,0.2,0c0.2-0.2,0.3-0.4,0.1-0.6C19.4,10.2,19.4,10.2,19.3,10.1z M8.4,7.9
		C8.4,8,8.4,8.2,8.3,8.2c0,0,0,0.1,0,0.1c0,0.2,0.2,0.6,0.5,0.6C9,9,9.1,8.9,9.1,8.7c0-0.2-0.1-0.4-0.2-0.6C8.8,8,8.6,7.9,8.4,7.9z
		 M13.1,8.1c0.2,0.3,0.5,0.4,0.8,0.4c0,0,0.1,0,0.1,0c0.2-0.1,0.3-0.3,0.1-0.4c-0.2-0.2-0.4-0.3-0.6-0.3C13.3,7.8,13.1,7.9,13.1,8.1
		z M13.7,9.6c0.2-0.2,0.2-0.4,0.1-0.6c-0.1-0.2-0.3-0.2-0.5-0.2C13.1,8.8,13,8.9,12.9,9c-0.1,0.1-0.1,0.2,0,0.2
		C13.1,9.5,13.4,9.6,13.7,9.6z M29,8.1c0-0.2,0-0.3-0.1-0.4c-0.1-0.1-0.1-0.2-0.2-0.2c0,0-0.1,0-0.1,0.1c-0.1-0.1-0.1-0.1-0.2-0.2
		c0,0-0.1,0-0.1,0c0,0-0.1,0.1-0.1,0.1c0,0.1,0,0.2,0,0.2c0,0.3,0.2,0.4,0.4,0.5C28.7,8.3,28.9,8.2,29,8.1z M29.5,6.9
		c-0.2-0.2-0.4-0.1-0.7-0.1c-0.1,0-0.1,0.1-0.1,0.2c0,0.1,0.1,0.1,0.1,0.2c0.1,0.1,0.3,0.2,0.4,0.2c0.1,0,0.2,0.1,0.2,0.1
		c0.1,0,0.2,0,0.2-0.1c0-0.1,0-0.2,0-0.2C29.7,7.1,29.6,7,29.5,6.9z M24.3,8.7c0.1,0.3,0.3,0.5,0.6,0.6c0.1,0.1,0.2,0,0.3,0
		c0.1-0.1,0.1-0.2,0.1-0.3c0-0.1-0.1-0.2-0.2-0.3c-0.2-0.1-0.4-0.2-0.6-0.3C24.4,8.6,24.4,8.7,24.3,8.7z M9.8,3.5
		c0,0.1-0.1,0.2-0.1,0.2c0,0.2,0.3,0.5,0.5,0.6c0.2,0,0.3,0,0.4-0.1c0.1-0.1,0-0.2-0.1-0.3C10.4,3.6,10.2,3.5,9.8,3.5z M19,9.5
		c0-0.1,0-0.1,0-0.2C18.9,9,18.6,9,18.4,9.2c-0.1,0.1-0.2,0.2-0.3,0.2c0.1,0.2,0.3,0.3,0.5,0.3C18.7,9.6,18.8,9.6,19,9.5z M11.5,2.5
		c0.1,0,0.2-0.1,0.2-0.2c0-0.2-0.1-0.4-0.2-0.5c0,0-0.1-0.1-0.2,0c-0.2,0-0.3,0.1-0.4,0.2C11.1,2.2,11.3,2.4,11.5,2.5z M20.2,9.5
		c0.2,0.3,0.3,0.5,0.6,0.5c0.1,0,0.3,0,0.3-0.2c0-0.1,0-0.2-0.2-0.3c-0.1-0.1-0.3-0.2-0.4-0.2C20.4,9.5,20.3,9.5,20.2,9.5z
		 M27.5,6.9c0.4,0.4,0.5,0.4,0.8,0.1c0-0.2,0-0.3-0.2-0.3c-0.2-0.1-0.4-0.1-0.6,0C27.6,6.7,27.5,6.8,27.5,6.9z M19.8,3.5
		c0.1-0.2,0.1-0.2,0-0.3c-0.2-0.2-0.4-0.3-0.7-0.1c0.1,0.2,0.1,0.2,0.2,0.3C19.5,3.5,19.6,3.5,19.8,3.5z"/>
	<path id="color_2_" class="st0" d="M39.1,8c-0.1-0.8-0.3-1.4-0.8-2c-0.2-0.3-0.5-0.5-0.9-0.5c-0.3-0.1-0.6-0.2-0.9-0.3
		c-0.5-0.2-1-0.4-1.5-0.6c-0.2-0.1-0.3-0.2-0.5-0.2c0.1,0.3,0.3,0.5,0.4,0.7c0.2,0.4,0.5,0.7,0.6,1.2c0,0,0,0.1,0.1,0.1
		c0.1,0,0.2-0.1,0.4-0.1c0.3-0.1,0.5,0,0.7,0.3c0,0.1,0.1,0.1,0.1,0.2c0,0.2-0.1,0.4-0.3,0.4c-0.1,0.1-0.2,0.1-0.4,0.2
		c0,0.1,0,0.2,0,0.3c0,0.2-0.1,0.3-0.2,0.4c-0.2,0.2-0.4,0.3-0.7,0.3c-0.2,0-0.4-0.1-0.5-0.4c0-0.1,0-0.1,0-0.2c0-0.1,0-0.1,0.1-0.2
		c-0.1,0-0.2,0-0.4,0.1c-0.2,0-0.4-0.1-0.4-0.3c0-0.1,0-0.3,0.1-0.4c0.2-0.3,0.6-0.6,1-0.5c0.1,0,0.2,0.1,0.3,0
		c-0.1-0.2-0.2-0.4-0.3-0.6c-0.1-0.2-0.2-0.3-0.3-0.5c-0.2-0.4-0.4-0.7-0.7-1.1C34.1,4.2,34,4.1,33.8,4c-0.2-0.1-0.4-0.2-0.6-0.4
		c-0.2-0.1-0.3-0.2-0.5-0.3c-0.1-0.1-0.1-0.1,0-0.2c0,0,0.1,0,0.1,0c0.3,0.3,0.6,0.4,0.9,0.6c0.1,0.1,0.3,0.1,0.4,0.2
		c0,0,0.1,0.1,0.1,0.1c0.4,0.2,0.8,0.4,1.3,0.6c0,0,0.1,0,0.1,0c0.2-0.1,0.3,0,0.5,0.1c0.1,0,0.1,0,0.2,0c0.3,0,0.5,0,0.8-0.1
		c0.7-0.2,1.5-0.5,2.1-0.9c0,0,0.1-0.1,0.1-0.1c0-0.1,0-0.1-0.1-0.2c-0.1-0.3,0-0.5,0.3-0.7c0.2-0.1,0.5-0.2,0.7-0.3
		c0.1,0,0.2,0,0.3,0.1c0.1,0.1,0.2,0.2,0.3,0.3c0.1,0.2,0.1,0.4-0.1,0.6c-0.2,0.2-0.5,0.3-0.8,0.4c-0.2,0-0.4-0.1-0.5-0.1
		c-1,0.5-1.9,1-3,1.2c0.2,0.1,0.4,0.2,0.6,0.2c0.5,0.1,0.9,0.3,1.4,0.4c0.3,0.1,0.6,0.1,0.9,0.2c0.4,0.1,0.8,0.2,1.2,0.3
		c0.3,0.1,0.6,0,0.9-0.1c0.3-0.1,0.5-0.3,0.8-0.4c0.8-0.4,1.4-1,1.9-1.7c0,0,0,0-0.1-0.1c-0.1,0-0.2-0.1-0.3-0.3
		c0-0.2,0-0.3,0.1-0.5c0.1-0.2,0.6-0.4,0.9-0.3c0.3,0.1,0.4,0.2,0.3,0.5c-0.1,0.2-0.2,0.3-0.4,0.4c-0.1,0.1-0.2,0.1-0.3,0.2
		c-0.2,0.2-0.3,0.5-0.5,0.7c-0.1,0.1-0.2,0.3-0.4,0.4c0.1,0,0.1,0,0.2,0c0.3-0.1,0.6-0.3,0.9-0.4c0.2-0.1,0.4-0.2,0.5-0.4
		c0.2-0.4,0.6-0.5,1-0.5c0.4,0,0.6,0.4,0.4,0.8c-0.2,0.3-0.4,0.4-0.7,0.5c-0.2,0.1-0.5,0-0.6-0.1C45.1,4.7,45,4.6,45,4.6
		c-0.1,0-0.2,0.1-0.3,0.1C44.5,4.8,44.2,4.9,44,5c-0.2,0.1-0.4,0.1-0.5,0.2c-0.2,0.1-0.3,0.1-0.4,0c-0.5,0.3-1,0.6-1.5,0.9
		c0.1,0,0.1,0,0.2,0c0.5,0.1,1.1,0.1,1.6,0.2c0.4,0,0.8,0.1,1.2,0.1c0.7,0,1.5,0,2.2-0.1c0.1,0,0.1,0,0.2,0c0.8,0,1.6-0.1,2.4-0.2
		c0.1,0,0.2,0,0.3-0.1c0.4-0.2,0.7-0.5,1-0.8c0.4-0.4,0.7-0.8,1-1.3c0.2-0.4,0.4-0.8,0.5-1.2c0-0.1,0-0.3,0-0.4
		c0-0.1-0.1-0.2-0.1-0.3c0-0.2,0.1-0.5,0.2-0.7c0.1-0.1,0.2-0.1,0.3-0.1c0.1,0,0.2,0.1,0.3,0.1c0.1,0,0.1,0,0.2,0
		c0.1,0,0.2,0,0.2,0.1c0,0.1,0.1,0.3,0.1,0.4c-0.2,0-0.3,0.1-0.5,0.3c-0.1,0.1-0.2,0.2-0.4,0.3c-0.1,0-0.1,0-0.2,0.1
		c-0.1,0.5-0.3,0.8-0.5,1.3c0.2-0.1,0.4-0.3,0.6-0.3c0.2,0,0.4,0,0.7,0c0.1-0.2,0.3-0.3,0.4-0.4c0.2-0.2,0.5-0.2,0.7-0.1
		c0.1,0,0.2,0.1,0.2,0.2c0,0.3-0.2,0.6-0.4,0.7c-0.1,0.1-0.3,0.2-0.5,0.2c-0.2,0-0.4-0.1-0.5-0.3c0-0.1-0.1-0.1-0.1-0.1
		c-0.3-0.1-0.5-0.1-0.8,0c-0.4,0.2-0.8,0.4-1,0.8c-0.3,0.4-0.6,0.7-0.9,1C50.3,6,50.2,6,50.2,6.2c0.5-0.1,1-0.1,1.4-0.2
		c0.3,0,0.5-0.1,0.8-0.1c0.3,0,0.5-0.1,0.8-0.1c0.3-0.1,0.6-0.1,0.9-0.2c0.1,0,0.2,0,0.3-0.1c0.2-0.1,0.4-0.1,0.6-0.2
		c0.3-0.1,0.5-0.1,0.8-0.2C56,5,56.2,5,56.4,4.8c0,0,0.1,0,0.1,0c0.2,0,0.4-0.1,0.5-0.2c0.6-0.5,1-1.1,1.2-1.9c0-0.1,0-0.1-0.1-0.1
		c-0.1,0.1-0.2,0.1-0.3,0.2c-0.1,0.1-0.2,0.1-0.3,0.1c-0.3,0.1-0.6-0.1-0.7-0.4c-0.1-0.4,0-0.8,0.2-1.1C57.1,1.1,57.3,1,57.6,1
		c0.1,0,0.2,0.1,0.3,0.1C58,1,58,0.9,58.1,0.8c0.1-0.2,0.2-0.4,0.4-0.6c0.3-0.2,0.7-0.3,0.9,0.2c0,0.1,0.1,0.2,0,0.3
		c0,0.2-0.1,0.3-0.1,0.5c0,0.1,0,0.1,0,0.1c0.2,0.1,0.4-0.1,0.5-0.1c0.3,0.2,0.4,0.3,0.2,0.8c-0.1,0.3-0.4,0.5-0.6,0.6
		c-0.3,0.1-0.5,0.1-0.8,0c0,0-0.1-0.1-0.2-0.1c-0.1,0.2-0.2,0.4-0.2,0.5c-0.1,0.3-0.3,0.6-0.5,0.9c0,0-0.1,0.1-0.1,0.1
		c0,0-0.1,0.1-0.1,0.1c0.3-0.1,0.6-0.2,0.8-0.3c0.7-0.4,1.4-0.7,2-1.1c0.2-0.1,0.3-0.2,0.5-0.3c0.3-0.2,0.6-0.4,0.8-0.7
		c0.1-0.1,0.2-0.2,0.4-0.3c0.2-0.1,0.3-0.2,0.4-0.4c-0.1-0.3-0.1-0.3,0.1-0.5c0-0.1,0-0.2,0-0.3c0-0.2,0.1-0.3,0.3-0.4
		C63,0.1,63.1,0,63.3,0c0.2,0,0.3,0,0.4,0.1c0.3,0.1,0.4,0.3,0.3,0.6c0,0.1-0.1,0.3-0.2,0.4c-0.1,0.2-0.2,0.3-0.4,0.5c0,0,0,0,0,0
		c0.2,0.1,0.2,0.2,0.1,0.4c-0.1,0.2-0.2,0.4-0.3,0.6C63.2,2.8,63,2.9,62.7,3c-0.3,0-0.5,0-0.6-0.3c-0.1-0.2-0.2-0.3-0.3-0.5
		c-0.1,0-0.1,0.1-0.2,0.1c-0.2,0.2-0.5,0.3-0.7,0.5c-0.5,0.3-0.9,0.6-1.4,0.8c-0.1,0-0.2,0.1-0.2,0.1c0,0-0.1,0.1,0,0.1
		c0.3,0.1,0.7,0.1,1,0.2c0.4,0.1,0.6,0.3,0.9,0.5c0.2-0.1,0.4-0.1,0.6-0.2c0.1,0,0.2,0,0.3,0c0.2,0.1,0.4,0.2,0.4,0.5
		c0,0.1,0,0.1,0.1,0.2c0.1,0.2,0.1,0.4-0.1,0.5c-0.3,0.3-0.6,0.4-0.9,0.4c-0.2,0-0.4-0.1-0.6-0.2c-0.2-0.2-0.2-0.6-0.1-0.8
		c0-0.1,0.1-0.1,0.1-0.2c-0.2-0.2-0.5-0.4-0.8-0.5c-0.4-0.1-0.8-0.1-1.2-0.1c-0.2,0-0.3,0-0.5-0.1c-0.3,0.2-0.6,0.4-1,0.5
		c-0.2,0.1-0.5,0.2-0.7,0.3C56.7,5,56.7,5,56.6,5c-0.4,0-0.7,0.2-1.1,0.3c-0.1,0-0.2,0.1-0.2,0.1c-0.1,0-0.2,0.1-0.4,0.1
		c-0.1,0-0.2,0.1-0.4,0.1c-0.2,0.1-0.5,0.1-0.7,0.2c0,0-0.1,0-0.1,0.1C53.9,6,54,6,54.2,6c0.6,0.1,1.1,0.3,1.6,0.7
		c0,0,0.1,0,0.1,0.1c0.4,0.3,0.9,0.6,1.2,1c0.1,0,0.2,0,0.3,0c0.2,0,0.3,0,0.4,0.1C57.8,8,58,8.1,58.1,8.2c0.1,0.1,0.2,0.2,0.3,0.4
		c0,0.1,0,0.2,0,0.2c-0.3,0.4-0.6,0.6-1.1,0.7c-0.4,0.1-0.7-0.2-0.7-0.6c0-0.2,0.1-0.5,0.2-0.7c0-0.1,0.1-0.1,0.1-0.2
		c-0.2-0.3-0.8-0.8-1.1-0.9c0,0.2,0.1,0.5,0.1,0.7c0.1,0,0.1,0.1,0.2,0.1c0,0.1,0,0.3,0,0.4c0,0.5-0.4,0.8-0.8,0.9
		c-0.3,0-0.5-0.1-0.5-0.4c0-0.4,0.3-0.9,0.7-1c0.1,0,0.1,0,0.2-0.1c0-0.7-0.4-1-0.9-1.3c-0.3-0.1-0.6-0.2-0.9-0.3
		c-0.1,0-0.3-0.1-0.4-0.1c-0.2,0-0.3,0-0.5-0.2c-0.2,0-0.3,0.1-0.4,0.1c-0.2,0-0.4,0-0.7,0.1c-0.6,0.1-1.2,0.2-1.8,0.2
		c-0.2,0-0.4,0.1-0.6,0.2c-0.1,0-0.2,0-0.3,0.1c-0.1-0.1-0.3-0.1-0.5,0c-0.4,0-0.8,0.1-1.2,0.1c-0.2,0-0.4,0-0.6,0
		c-0.1,0-0.1,0-0.1,0.1c0,0,0.1,0,0.1,0c0.3,0,0.6,0.1,0.9,0.3c0,0,0.1,0,0.1,0c0.4,0.2,0.7,0.5,1.1,0.7c0.2,0.1,0.3,0.3,0.5,0.4
		c0-0.1,0.1-0.1,0.1-0.1c0.1-0.2,0.3-0.4,0.5-0.5c0.3-0.1,0.6-0.1,0.9,0c0.3,0.1,0.3,0.3,0.2,0.6c0,0.1-0.1,0.1-0.2,0.2
		c0.2,0.1,0.3,0.2,0.4,0.4c0.1,0.1,0.1,0.3,0,0.4c-0.2,0.3-0.5,0.4-0.9,0.5c-0.2,0-0.3,0-0.4-0.2c0,0-0.1-0.1-0.1-0.1
		c-0.2,0.2-0.4,0.3-0.7,0.4c-0.2,0.1-0.3,0.1-0.5,0c-0.2,0-0.3-0.2-0.3-0.4c0-0.1,0-0.2,0.1-0.3c0.2-0.3,0.4-0.5,0.7-0.6
		c0,0,0.1,0,0.2-0.1c-0.2-0.3-0.4-0.5-0.7-0.7c-0.3-0.2-0.7-0.4-1-0.6C47.3,7.1,47,7,46.6,7c-0.2,0-0.3-0.1-0.3-0.2
		c-0.2,0-0.4,0-0.6,0c-0.4,0-0.8,0-1.1,0c-0.4,0-0.7-0.1-1.1-0.1c0,0-0.1,0-0.1,0c0.1,0.1,0.2,0.2,0.4,0.3c0.2,0.2,0.4,0.5,0.6,0.7
		c0.3,0.4,0.4,0.8,0.5,1.3c0,0.1,0,0.1,0.1,0.2C44.9,9.1,45,9,45,9c0.1-0.2,0.3-0.2,0.5-0.1c0.2,0.1,0.3,0.2,0.4,0.4
		c0.1,0,0.1,0,0.2,0c0.2,0,0.2,0.2,0.2,0.3c0,0.1-0.1,0.1-0.2,0.2c-0.1,0.1-0.2,0.1-0.3,0.2c-0.1,0-0.1,0.1-0.2,0.1c0,0,0,0.1,0,0.1
		c0.1,0.2,0.1,0.4-0.1,0.7c-0.2,0.3-0.4,0.4-0.7,0.5c-0.1,0-0.3,0-0.4-0.1c-0.2-0.1-0.2-0.3-0.2-0.5c0-0.2,0.1-0.4,0.2-0.5
		c0.1-0.1,0.2-0.2,0.3-0.2c-0.1-0.6-0.2-1.1-0.4-1.6c-0.1,0.3-0.2,0.6-0.3,0.9c0,0,0,0.1,0,0.1c0.1,0.3,0,0.5-0.2,0.7
		c-0.2,0.2-0.4,0.3-0.7,0.3c-0.2,0-0.4-0.1-0.4-0.3c0-0.4,0.4-0.8,0.8-0.8c0.1,0,0.1,0,0.2,0c0.2-0.3,0.2-0.6,0.3-0.9
		c0-0.1,0-0.2-0.1-0.4c0,0,0,0,0-0.1c0-0.2-0.1-0.3-0.2-0.4c-0.3-0.3-0.5-0.5-0.9-0.6c-0.1,0-0.2,0-0.2-0.1
		c-0.1-0.1-0.1-0.1-0.1-0.2c-0.3,0-0.6-0.1-0.9-0.1c-0.3,0-0.6-0.1-0.9-0.1c-0.4-0.1-0.9-0.2-1.3-0.3c-0.3-0.1-0.5-0.1-0.8-0.2
		c0,0,0,0,0,0c0.1,0.2,0.3,0.5,0.4,0.7c0.1,0.3,0.2,0.6,0.3,0.9c0,0.3,0.1,0.6,0.1,0.9c0.1,0,0.2,0,0.3,0c0.1,0,0.1,0,0.2,0.1
		C40,8.5,40,8.8,39.9,8.9c-0.2,0.3-0.4,0.5-0.7,0.6c-0.4,0.1-0.6-0.2-0.6-0.5c0-0.2,0.1-0.4,0.3-0.5c0.1-0.1,0.2-0.1,0.3-0.2
		C39.2,8.2,39.1,8.1,39.1,8z M57.1,8.4c-0.1,0-0.1-0.1-0.2-0.1c0,0,0,0-0.1,0c-0.2,0.2-0.2,0.5-0.1,0.8c0,0.1,0.1,0.2,0.3,0.2
		c0.4,0,0.7-0.1,1-0.5c0.1-0.1,0.1-0.4-0.1-0.4c-0.1,0-0.1-0.1-0.2-0.1C57.6,8,57.4,8,57.1,8C57.2,8.3,57.2,8.3,57.1,8.4z M61.4,4.8
		C61.3,4.8,61.3,4.9,61.4,4.8c-0.2,0-0.3,0-0.3,0.1c-0.1,0.2-0.1,0.4,0,0.6c0.1,0.2,0.4,0.2,0.6,0.2c0.1,0,0.3-0.1,0.4-0.2
		c0.1-0.1,0.2-0.2,0.2-0.3c0-0.1,0-0.1,0-0.2c0-0.1,0-0.2-0.1-0.2C62,4.7,62,4.6,61.9,4.5c0,0-0.1-0.1-0.1-0.1
		c-0.1,0-0.3,0.1-0.5,0.2C61.3,4.7,61.4,4.8,61.4,4.8z M57.9,1.4c-0.1-0.1-0.1-0.2-0.3-0.2c-0.3,0-0.5,0.1-0.5,0.4
		C57,1.8,57,2,57,2.1c0,0.1,0,0.2,0.1,0.3c0.1,0.2,0.2,0.2,0.4,0.2c0.4-0.1,0.6-0.3,0.6-0.7C58,1.7,57.9,1.6,57.9,1.4z M59.2,0.6
		c0-0.2-0.3-0.3-0.5-0.2c-0.3,0.2-0.6,0.6-0.4,1c0,0.1,0,0.2,0.1,0.3c0,0.1,0.1,0.2,0.3,0.1c0.1,0,0.1-0.1,0.2-0.1
		C59.1,1.4,59.2,0.9,59.2,0.6z M62.3,2.3C62.3,2.3,62.2,2.3,62.3,2.3c0,0.3,0.1,0.4,0.4,0.4C63,2.7,63.4,2.3,63.4,2
		c0-0.1,0-0.1-0.1-0.2c-0.1-0.1-0.2-0.1-0.3-0.1c-0.1,0-0.1,0-0.2,0c-0.3,0-0.5,0.2-0.6,0.5C62.4,2.2,62.4,2.2,62.3,2.3
		C62.4,2.3,62.4,2.3,62.3,2.3C62.3,2.3,62.3,2.3,62.3,2.3z M59.5,1.6c-0.3,0.1-0.6,0.3-0.8,0.5c0,0-0.1,0.1-0.1,0.2
		c-0.1,0.2,0,0.3,0.2,0.4c0.1,0.1,0.3,0.1,0.4,0c0.1-0.1,0.3-0.2,0.4-0.3c0.2-0.2,0.3-0.4,0.1-0.7C59.6,1.6,59.6,1.6,59.5,1.6z
		 M63.8,0.6c0-0.2-0.1-0.3-0.2-0.3c-0.2,0-0.4,0-0.6,0.1c-0.1,0.1-0.2,0.2-0.1,0.3c0,0.2,0.1,0.4,0.2,0.6c0.1,0.1,0.1,0.1,0.2,0.1
		c0.1,0,0.2-0.1,0.3-0.1C63.6,1,63.8,0.8,63.8,0.6z M39.7,2.9c-0.1,0.1-0.1,0.2-0.1,0.3c0,0.1,0,0.2,0.1,0.2
		c0.1,0.2,0.3,0.2,0.5,0.1c0.2-0.1,0.3-0.2,0.5-0.3c0.1-0.1,0.1-0.2,0-0.3c-0.1-0.1-0.1-0.2-0.2-0.3C40.2,2.7,40,2.8,39.7,2.9z
		 M48.7,9.4c0,0.1,0,0.1,0,0.2c0,0.1,0.1,0.2,0.1,0.2c0.1,0,0.2,0,0.3,0c0.3-0.1,0.6-0.3,0.7-0.6c-0.1-0.1-0.2-0.2-0.3-0.3
		C49.1,8.8,48.9,9,48.7,9.4z M46,3.8c-0.3,0.1-0.7,0.3-0.7,0.7c0.2,0.3,0.5,0.3,0.7,0.2c0.2-0.2,0.3-0.2,0.4-0.5
		C46.3,4,46.2,3.8,46,3.8z M44.6,10.2c-0.2,0.2-0.2,0.4,0.1,0.6c0,0,0.1,0,0.2,0c0.2,0,0.4-0.2,0.5-0.3c0.1-0.1,0.1-0.2,0.1-0.4
		c0-0.2-0.2-0.3-0.3-0.2c-0.1,0-0.3,0.1-0.3,0.1C44.7,10.2,44.6,10.2,44.6,10.2z M55.2,8.1c-0.1,0.2-0.2,0.3-0.2,0.6
		c0,0.2,0.1,0.4,0.4,0.3c0.2-0.1,0.5-0.4,0.5-0.6c0,0,0-0.1,0-0.1c-0.1-0.1-0.1-0.2-0.2-0.3C55.4,7.9,55.3,8,55.2,8.1z M50.5,7.8
		c-0.3,0-0.5,0.1-0.6,0.3c-0.1,0.2-0.1,0.4,0.1,0.4c0,0,0.1,0,0.1,0c0.3,0,0.6-0.2,0.8-0.4C50.9,7.9,50.7,7.8,50.5,7.8z M51.1,9.2
		c0.1-0.1,0.1-0.2,0-0.2c-0.1-0.1-0.2-0.2-0.3-0.3c-0.2,0-0.4,0-0.5,0.2c-0.1,0.2-0.1,0.4,0.1,0.6C50.6,9.6,50.9,9.4,51.1,9.2z
		 M35.4,8.2C35.6,8,35.9,8,35.9,7.7c0-0.1,0-0.2,0-0.2c-0.1,0-0.1-0.1-0.1-0.1c0,0-0.1,0-0.1,0c-0.1,0.1-0.1,0.1-0.2,0.2
		c0,0-0.1-0.1-0.1-0.1c-0.1,0-0.2,0.1-0.2,0.2C35,7.8,35,7.9,35,8.1C35.2,8.2,35.3,8.2,35.4,8.2z M34.3,7.1c-0.1,0.1-0.1,0.2,0,0.2
		c0,0.1,0.1,0.1,0.2,0.1c0.1,0,0.2,0,0.2-0.1c0.1-0.1,0.3-0.1,0.4-0.2c0.1,0,0.1-0.1,0.1-0.2c0-0.1,0-0.2-0.1-0.2
		c-0.2-0.1-0.5-0.1-0.7,0.1C34.4,6.9,34.4,7,34.3,7.1z M39.5,8.5c-0.2,0.1-0.4,0.1-0.6,0.3c-0.1,0.1-0.1,0.2-0.2,0.3
		c0,0.1,0,0.2,0.1,0.3c0.1,0.1,0.2,0.1,0.3,0c0.2-0.1,0.5-0.3,0.6-0.6C39.6,8.6,39.6,8.6,39.5,8.5z M53.5,3.8
		c-0.1,0.1-0.1,0.2-0.1,0.3c0.1,0.1,0.2,0.2,0.4,0.1c0.2-0.1,0.5-0.3,0.5-0.6c0-0.1,0-0.1-0.1-0.2C53.9,3.5,53.6,3.6,53.5,3.8z
		 M45.5,9.7c0.2,0,0.4-0.1,0.5-0.3c-0.1-0.1-0.2-0.2-0.3-0.2C45.4,9,45.2,9,45.1,9.3c0,0.1,0,0.1,0,0.2C45.2,9.6,45.3,9.6,45.5,9.7z
		 M53,1.9c-0.1-0.2-0.2-0.2-0.4-0.2c0,0-0.1,0-0.2,0c-0.2,0.1-0.2,0.3-0.2,0.5c0,0.1,0.1,0.2,0.2,0.2C52.7,2.3,52.9,2.2,53,1.9z
		 M43.6,9.4c-0.2,0-0.3,0-0.4,0.2C43.1,9.6,43,9.7,43,9.9c0,0.1,0.1,0.2,0.2,0.2c0.3-0.1,0.4-0.2,0.6-0.5
		C43.7,9.5,43.6,9.5,43.6,9.4z M36.5,6.6c-0.2-0.1-0.4-0.1-0.6,0c-0.1,0.1-0.2,0.2-0.2,0.3c0.3,0.3,0.4,0.3,0.8-0.1
		C36.5,6.8,36.5,6.7,36.5,6.6z M44.7,3.3c0.1-0.1,0.1-0.1,0.2-0.3c-0.3-0.2-0.5-0.1-0.7,0.1c-0.1,0.1-0.1,0.2,0,0.3
		C44.4,3.5,44.6,3.4,44.7,3.3z"/>
</g>
</svg>
