<?xml version="1.0" encoding="utf-8"?>
<!-- Generator: Adobe Illustrator 19.1.0, SVG Export Plug-In . SVG Version: 6.00 Build 0)  -->
<svg version="1.1" id="Layer_1" xmlns="http://www.w3.org/2000/svg" xmlns:xlink="http://www.w3.org/1999/xlink" x="0px" y="0px"
	 viewBox="13 -12 75 75" style="enable-background:new 13 -12 75 75;" xml:space="preserve">
<style type="text/css">
	.st0{fill:#FFFFFF;}
</style>
<path class="st0" d="M55.6,30.4l-1.3,1.4L67,44.5c1.1,1.1,1.1,2.7,0.2,3.7c-0.5,0.4-1,0.7-1.7,0.7s-1.4-0.3-2-0.8
	c-0.1-0.1-0.2-0.2-0.3-0.3L51.6,34.7l-1.3,1.4l11.5,12.7c0.1,0.2,0.3,0.3,0.4,0.5c0.9,0.9,2.1,1.4,3.3,1.4c1.1,0,2.2-0.4,3-1.2
	s1.3-2,1.2-3.2c-0.1-1.2-0.6-2.3-1.4-3.1L55.6,30.4z M39.4,27.5c0.9,0,1.7-0.3,2.4-0.8l2,2.2l1.4-1.3L42.8,25c0,0-0.4-0.5-1-0.5
	c-0.2,0-0.5,0.1-0.8,0.4c-0.4,0.4-1,0.7-1.6,0.7c-0.7,0-1.4-0.4-2.1-1.3C36,22.5,26.6,8.8,26.6,8.8c-0.7-0.7-0.8-1.8-0.1-2.5
	c0.3-0.3,0.7-0.5,1.1-0.5c0.5,0,1,0.2,1.4,0.6l18.8,18.8l1.4-1.3L30.3,5.1C29.6,4.4,28.6,4,27.6,4c-0.9,0-1.8,0.4-2.5,1
	c-1.3,1.3-1.3,3.5,0,5c1,1.5,9.4,13.7,10.6,15.5C37,27.1,38.4,27.5,39.4,27.5z M69.8,2.1c-0.7,0-1.5,0.3-2,0.8L53.3,17.4
	c-0.7,0.7-1.1,1.4-1.2,2.2c-0.2,0.9,0.1,1.9,0.6,2.7l-22,20.4c-0.1,0.1-0.2,0.2-0.3,0.3c-1.8,1.8-1.9,4.6-0.2,6.3
	c0.8,0.8,1.9,1.2,3,1.2c1.2,0,2.4-0.5,3.3-1.4c0.1-0.1,0.2-0.2,0.3-0.3l20.4-22c0.8,0.6,1.5,0.7,2.1,0.7c1,0,2-0.5,2.8-1.3
	l14.4-14.4c1.1-1.1,1.1-2.8,0.1-3.9c-0.3-0.3-0.7-0.5-1-0.6c-0.1-0.4-0.3-0.7-0.6-1s-0.6-0.5-1-0.6c-0.1-0.4-0.3-0.7-0.6-1
	s-0.6-0.5-1-0.6c-0.1-0.4-0.3-0.7-0.6-1C71.2,2.4,70.5,2.1,69.8,2.1z M69.8,4c0.2,0,0.4,0.1,0.6,0.2c0.3,0.3,0.3,0.9-0.1,1.3
	L58.5,17.3l0,0c-0.1,0.1-0.2,0.4,0,0.5c0.1,0.1,0.1,0.1,0.2,0.1c0.1,0,0.2,0,0.3-0.1l0,0L70.8,6c0.2-0.2,0.4-0.3,0.7-0.3
	c0.2,0,0.4,0.1,0.6,0.2c0.3,0.3,0.3,0.9-0.1,1.2L60.1,19l0,0c-0.1,0.1-0.1,0.3,0,0.4s0.1,0.1,0.2,0.1c0.1,0,0.2,0,0.2-0.1l0,0
	L72.4,7.5c0.2-0.2,0.4-0.3,0.7-0.3c0.2,0,0.4,0.1,0.6,0.2C74,7.7,74,8.3,73.6,8.6l-11.9,12l0,0c-0.1,0.1-0.2,0.4,0,0.5
	c0.1,0.1,0.1,0.1,0.2,0.1c0.1,0,0.2,0,0.3-0.1l0,0L74,9.3C74.2,9.1,74.4,9,74.7,9c0.2,0,0.4,0.1,0.6,0.2c0.3,0.3,0.3,0.9-0.1,1.2
	L60.8,24.9c-0.4,0.4-0.9,0.8-1.5,0.8c-0.4,0-0.8-0.2-1.3-0.6c-0.3-0.3-0.6-0.4-0.8-0.4c-0.6,0-1,0.5-1,0.5L35.4,47.6
	c-0.1,0.1-0.1,0.2-0.2,0.2c-0.6,0.6-1.3,0.8-2,0.8c-0.6,0-1.2-0.2-1.7-0.7c-1-1-0.9-2.6,0.2-3.7c0.1-0.1,0.2-0.2,0.2-0.2l22.5-20.8
	c0,0,1-0.9,0.1-1.8c-1.1-1.1-0.5-2.1,0.1-2.8L69,4.2C69.3,4.1,69.5,4,69.8,4"/>
</svg>
