<?xml version="1.0" encoding="utf-8"?>
<!-- Generator: Adobe Illustrator 19.1.0, SVG Export Plug-In . SVG Version: 6.00 Build 0)  -->
<svg version="1.1" id="Layer_1" xmlns="http://www.w3.org/2000/svg" xmlns:xlink="http://www.w3.org/1999/xlink" x="0px" y="0px"
	 viewBox="13 -12 75 75" style="enable-background:new 13 -12 75 75;" xml:space="preserve">
<style type="text/css">
	.st0{fill:#FFFFFF;}
</style>
<path class="st0" d="M73.5,24c-1.1,21-7.1,30.4-20,31.4c-0.6,0-1.2,0.1-1.8,0.1c-0.3,0-0.7,0-1,0c-3.6-9.5-1.3-18.8,3.4-29.6
	c4.3-10,1.7-20.8-1.9-30.4c6.1,0.1,11.2,2.2,14.9,6.1C71.8,6.4,74,14.2,73.5,24z M27.6,27.3c-1-9.3,1.5-18.1,6.6-24.1
	c3.9-4.5,9.1-7.2,15-7.7C51.9,3.9,51,15.1,46.7,25c-4,9.3-3.7,18.6,0.8,30C36.8,52.9,29.2,42.5,27.6,27.3z M52.4,2.1
	c2.2,7.6,3.1,15.6-0.1,23c-3.1,7.3-5.8,15.1-5.2,23c-2.2-8.1-1.8-15.3,1.3-22.3C51.8,18,53.1,9.5,52.4,2.1z M51.7-8.3
	c-0.5,0-1.1,0-1.6,0c-7.4,0.4-13.8,3.5-18.6,9.1c-5.8,6.8-8.6,16.6-7.5,26.9c1.8,18.9,13,31.5,27.7,31.5c0.7,0,1.4,0,2.1-0.1
	c15-1.2,22.2-12,23.4-35c0.6-10.8-2-19.6-7.4-25.2C65.3-5.8,59-8.3,51.7-8.3z"/>
</svg>
