<?xml version="1.0" encoding="utf-8"?>
<!-- Generator: Adobe Illustrator 19.1.0, SVG Export Plug-In . SVG Version: 6.00 Build 0)  -->
<svg version="1.1" id="Layer_1" xmlns="http://www.w3.org/2000/svg" xmlns:xlink="http://www.w3.org/1999/xlink" x="0px" y="0px"
	 viewBox="13 -12 75 75" style="enable-background:new 13 -12 75 75;" xml:space="preserve">
<style type="text/css">
	.st0{fill:#FFFFFF;}
</style>
<path class="st0" d="M79,28.5H67v-12h12V28.5z M79,43.5H67v-12h12V43.5z M79,58.5H67v-12h12V58.5z M64,28.5H52v-12h12V28.5z
	 M64,43.5H52v-12h12V43.5z M64,58.5H52v-12h12V58.5z M49,28.5H37v-12h12V28.5z M49,43.5H37v-12h12V43.5z M49,58.5H37v-12h12V58.5z
	 M34,28.5H22v-12h12V28.5z M34,43.5H22v-12h12V43.5z M34,58.5H22v-12h12V58.5z M17.5,12v44.9c0,3.4,2.7,6.1,6,6.1h54
	c3.3,0,6-2.7,6-6.1V12H17.5z"/>
<path class="st0" d="M65.5,7.5C63,7.5,61,5.5,61,3c0-1.7,0.9-3.1,2.2-3.9V3c0,1.2,1,2.2,2.2,2.2s2.2-1,2.2-2.2v-3.9
	c1.3,0.8,2.2,2.2,2.2,3.9C70,5.5,68,7.5,65.5,7.5z M35.5,7.5C33,7.5,31,5.5,31,3c0-1.7,0.9-3.1,2.2-3.9V3c0,1.2,1,2.2,2.2,2.2
	s2.2-1,2.2-2.2v-3.9c1.3,0.8,2.2,2.2,2.2,3.9C40,5.5,38,7.5,35.5,7.5z M77.5-3h-9.8v-6.8c0-1.2-1-2.2-2.2-2.2s-2.2,1-2.2,2.2V-3
	H37.8v-6.8c0-1.2-1-2.2-2.2-2.2s-2.2,1-2.2,2.2V-3h-9.8c-3.3,0-6,2.7-6,6.1V9h66V3.1C83.5-0.3,80.8-3,77.5-3z"/>
</svg>
