<?xml version="1.0" encoding="utf-8"?>
<!-- Generator: Adobe Illustrator 19.1.0, SVG Export Plug-In . SVG Version: 6.00 Build 0)  -->
<svg version="1.1" id="Layer_1" xmlns="http://www.w3.org/2000/svg" xmlns:xlink="http://www.w3.org/1999/xlink" x="0px" y="0px"
	 viewBox="13 -12 75 75" style="enable-background:new 13 -12 75 75;" xml:space="preserve">
<style type="text/css">
	.st0{fill:#FFFFFF;}
</style>
<path class="st0" d="M64.6,24.9L81.2,8.6c0.1,0.3,0.1,0.6,0.1,0.9V41c0,0.1,0.1,0.1,0.1,0.3L64.6,24.9z M78.4,44.2H22.9
	c-0.3,0-0.6-0.1-0.8-0.2l17-16.7l2.2,2.1c2.6,2.5,5.9,3.8,9.4,3.8c3.5,0,6.9-1.4,9.4-3.8l2.3-2.4l17.1,16.9
	C79.2,44,78.9,44.2,78.4,44.2z M19.8,41V9.5c0-0.3,0.1-0.6,0.2-0.9l16.9,16.5l-17,16.6C19.8,41.5,19.8,41.2,19.8,41z M22.9,6.8h55.5
	c0.2,0,0.4-0.1,0.7-0.1L58,27.3c-1.9,1.9-4.6,3-7.4,3c-2.8,0-5.4-1.1-7.4-3l-21-20.5C22.4,6.7,22.7,6.8,22.9,6.8z M78.2,3.8H22.8
	c-3.3,0-6,2.7-6,6v31.5c0,3.3,2.7,6,6,6h55.5c3.3,0,6-2.7,6-6V9.8C84.2,6.4,81.6,3.8,78.2,3.8z"/>
</svg>
