<?xml version="1.0" encoding="utf-8"?>
<!-- Generator: Adobe Illustrator 19.1.0, SVG Export Plug-In . SVG Version: 6.00 Build 0)  -->
<svg version="1.1" id="Layer_1" xmlns="http://www.w3.org/2000/svg" xmlns:xlink="http://www.w3.org/1999/xlink" x="0px" y="0px"
	 viewBox="13 -12 75 75" style="enable-background:new 13 -12 75 75;" xml:space="preserve">
<style type="text/css">
	.st0{fill:#FFFFFF;}
</style>
<path class="st0" d="M81.4,48.7c0,4.5-1.9,6.4-6.4,6.4H30.6c1.1-1.6,1.7-3.7,1.7-6.4V-3.5h49.1V48.7z M28.8,48.7
	c0.4,4.7-1.3,6.8-4.3,6.8c-3.2,0-4.9-2.2-4.9-6.8V28.1h9.3v20.6H28.8z M28.8-7v31.6H16v24.1c0,6.3,3.2,9.7,9.3,9.9H75
	c6.5,0,9.9-3.4,9.9-9.9V-7H28.8z"/>
<rect x="53.1" y="2.5" class="st0" width="24.2" height="20.2"/>
<rect x="35.8" y="2.5" class="st0" width="14.5" height="2.9"/>
<rect x="35.8" y="11.1" class="st0" width="14.5" height="2.9"/>
<rect x="35.8" y="19.8" class="st0" width="14.5" height="2.9"/>
<rect x="35.8" y="28.4" class="st0" width="41.6" height="2.9"/>
<rect x="35.8" y="37" class="st0" width="41.6" height="2.9"/>
<rect x="35.8" y="45.7" class="st0" width="41.6" height="2.9"/>
</svg>
