<?xml version="1.0" encoding="utf-8"?>
<!-- Generator: Adobe Illustrator 19.1.0, SVG Export Plug-In . SVG Version: 6.00 Build 0)  -->
<svg version="1.1" id="Layer_1" xmlns="http://www.w3.org/2000/svg" xmlns:xlink="http://www.w3.org/1999/xlink" x="0px" y="0px"
	 viewBox="13 -12 75 75" style="enable-background:new 13 -12 75 75;" xml:space="preserve">
<style type="text/css">
	.st0{fill:#FFFFFF;}
</style>
<path class="st0" d="M57.8,56H74V25.6h6l-5.8-6.1V8.3h-5.6v5.4L50.4-4.7L20.9,25.6h5.9V56h16.3V36.4h14.6V56H57.8z M74.8,58.9H57
	c-1.2,0-2.1-1-2.1-2.1V39.2h-8.8v17.6c0,1.2-1,2.1-2.1,2.1H26.2c-1.2,0-2.1-1-2.1-2.1V28.4h-4.9c-0.8,0-1.6-0.5-2-1.3
	c-0.3-0.8-0.1-1.7,0.5-2.3L48.9-7.3c0.4-0.4,1-0.7,1.5-0.7c0.6,0,1.1,0.2,1.5,0.7L65.7,6.8c0.3-0.8,1.1-1.4,2-1.4h7.1
	c1.2,0,2.1,1,2.1,2.1v10.7l6.4,6.5c0.6,0.6,0.8,1.5,0.4,2.3c-0.3,0.8-1.1,1.3-1.9,1.3H77v28.4C77,58,76,58.9,74.8,58.9z"/>
</svg>
