<?xml version="1.0" encoding="utf-8"?>
<!-- Generator: Adobe Illustrator 19.1.0, SVG Export Plug-In . SVG Version: 6.00 Build 0)  -->
<svg version="1.1" id="_x2014_ÎÓÈ_1" xmlns="http://www.w3.org/2000/svg" xmlns:xlink="http://www.w3.org/1999/xlink" x="0px"
	 y="0px" viewBox="27 -43.6 104.7 136.6" style="enable-background:new 27 -43.6 104.7 136.6;" xml:space="preserve">
<style type="text/css">
	.st0{fill:#7A9E9F;}
</style>
<g>
	<path class="st0" d="M129.6,7.9c-0.4-1-1.6-3.4-2.4-4.1c-1.1-1-2.2-1.7-3.5-2.3c-1.5-0.7-6.4-1.3-7.1-1.5
		c-1.5-0.3-10.7-0.8-11.1-0.8C103.3-0.9,101-1,98.8-1c-0.6-0.7-0.4-7.2-0.3-7.9c0.2-1.6,0.3-5.1,0.3-5.6c0.2-1.9-2.7-1.8-2.9-2.3
		c-0.4-2.3-0.9-4.3-2.2-5.9c-0.5-0.6-3.7-7.2-21.5-8.4c-0.2,0-0.4-0.2-0.5-0.3c-0.1-0.7,0.2-1.1,0.7-1.3c1.3-0.7,2.3-4,2.3-4.3
		s0-0.6,0-0.8c-0.4-0.8-0.5-1.4-0.7-2.1c-0.1-0.3-0.1-0.6-0.3-0.9c-0.8-1-1.6-1.8-2.8-2.4c-1.4-0.6-2.9-0.4-4.4-0.2
		c-0.7,0.1-1.3,0.3-1.9,0.6c-1,0.6-1.9,1.4-2.4,2.5c-0.2,0.6-0.3,1.2-0.5,1.8c-0.6,1.7-0.3,3.2,0.8,4.6c0.7,1,1.8,1,1.9,1.3
		c0,0.3,0.4,0.6,0.1,1c-0.1,0-0.2,0.1-0.3,0.1c-1.5,0.2-9.6,0.8-16,4.8c-2.5,1.6-4.1,4.2-4.6,7.3c-0.1,0.7-0.5,1.3-0.8,2
		c-0.2,0.4-1.2,0.2-1.3,0.2c-0.3,0-0.6,0.1-0.9,0.2c-0.2,0.2-0.5,3.6-0.7,4.6c1,0.3,1.9,0.7,2.8,1c0.8,0.2,1.7,0.4,2.6,0.5
		c2.4,0.3,4.7,0.8,7.1,1.2c1.8,0.3,7.5,0.2,8.4,0.9c0.1,0.1,0.3,0.1,0.5,0.1c2.6,0.1,5.3,0.2,7.9,0.4c0.8,0,1.7,0.1,2.7,0.2
		c-0.3,0.2-0.4,0.3-0.5,0.3c-1.3,0.1-2.5,0.1-3.8,0.5c-0.2,0.1-0.5,0-0.7,0c-2-0.2-4-0.5-6-0.7c-0.2,0-0.4,0.1-0.8,0.3
		c0.4,0.1,0.6,0.2,0.8,0.2C62-7.4,63-7.3,64.1-7.2c2.5,0.2,5.1,0.3,7.6,0.5c0.2,0,0.5,0.1,0.8,0.2c-0.5,0.7-1.2,0.6-1.8,0.7
		c-1.2,0.1-2.5-0.2-3.6,0.4c-0.2,0.1-0.4,0-0.6,0c-1.7-0.1-3.4-0.3-5.1-0.4c-0.3,0-0.6,0-1,0.1c0.4,0.5,0.8,0.5,1.2,0.5
		c2.1,0.1,4.2,0.2,6.3,0.3c1.4,0.1,2.8,0.1,4.3,0.2c0.2,0,0.5,0,0.7,0.1c0.1,0.1,0.2,0.3,0.3,0.4l0,0l0,0c1-0.5,2-0.3,3.1-0.2l0,0
		l0,0C76.4-5,76.4-5.1,77.2-5c-0.2,0.4-0.6,0.5-0.9,0.6l0,0l0,0c-0.1,0.1-0.1,0.2-0.2,0.2c-1,0.2-1.9,0.4-2.9,0l0,0l0,0
		c-0.4,0.1-0.9,0.2-1.3,0.3c-0.5,0.1-1.1,0.1-1.6,0.2v0.1c0.5,0,1,0.1,1.6,0.1c-0.3,0.2-0.5,0.4-0.7,0.6c0.5,0,0.9,0,1.3,0
		c0.4,0,0.8-0.1,1.4,0.4c-1.8,0.4-3.5,0-5.1,0.5c1.2,0,2.4,0,3.7,0c0,0.2,0,0.3,0,0.5c0.9-0.3,0.9-0.3,1.5,0.4
		c-1.6,0.2-3.1,0.2-4.5,0.2c-1.5,0-2.9,0-4.4,0S62.2-1.4,60.7-1c2,0.6,4,0.3,6,0.4c2,0.1,4,0,6,0c0,0.2,0,0.3,0,0.4l0,0l0,0
		c0.6-0.2,1,0.1,1.5,0.3c-0.6,0.5-1.2,0.3-1.8,0.4c0.1-0.3,0.2-0.5,0.3-0.7l0,0l0,0c-1.1,0.7-2.3,0.7-3.5,0.9c-0.2,0-0.3,0-0.5,0.1
		C68.1,0.9,67.5,1,66.8,1c-1.4,0-2.8-0.1-4.1-0.1c-0.5,0-1,0-1.7,0.2c0.4,0.1,0.6,0.2,0.8,0.2c1.9,0,3.7,0,5.6-0.1
		c0.7,0,1.5-0.1,2.2-0.1c0.3,0,0.5,0.2,0.8,0.3C71,1,71.6,0.8,72.3,1.1c0,0.2,0,0.3,0,0.4l0,0c0,0,0,0,0.1,0s0.1,0,0.2,0
		c1-0.5,1-0.5,2.2-0.2c-0.5,0.4-1.6,0.5-2.3,0.2h-0.1l0,0C71.5,1.9,70.6,2,69.7,2c-0.1,0-0.3,0-0.3,0.1c-0.5,0.6-1.1,0.4-1.7,0.4
		c-1.8,0-3.6,0-5.3,0c-0.3,0-0.6,0-0.8,0c-0.3,0-0.5,0.1-0.8,0.1c0,0.1,0,0.2,0,0.2c1.7,0,3.3,0.1,5,0c2.8-0.1,5.6-0.2,8.5,0
		c-0.8,0.7-0.8,0.7-1.4,0.4c-0.7,0.2-1.3,0.3-1.8,0.4c-0.9-0.2-1.4-0.2-2-0.2c-0.2,0-0.5,0-0.6,0.1C68,4.1,46,2.9,45.7,2.9
		c-0.8,0-1.6,0-2.5-0.1c-0.3,0-0.6-0.2-1.1-0.3c0.9-0.3,1.6-0.2,2.2-0.3c0.7,0,1.3-0.1,2.2-0.1c-0.9-0.2-1.6-0.3-2.3-0.4
		c-1.3-0.2-2.6-0.5-3.7,0.2c-0.9-0.5-1.7-0.9-2.7-1.4c-0.2-0.4-0.5-1.1-0.9-1.7c-0.4-0.6-1-1-1.5-1.5c-0.5-0.4-1-0.8-1.5-1.2
		c-1-0.8-2.1-1.7-3.4-2.1c-0.6-0.2-1.2-0.7-1.1-1.5c0.3-0.3,0.6-0.5,1-0.7c0.3-0.2,0.6-0.4,0.9-0.4c0.9,0,1.8,0.2,2.7,0.3
		C34.7-8.2,35.3-8,36-8c0.9,0,1.9-0.2,2.8,0.1c0.2,0.1,0.4,0,0.6,0c0.8-0.1,1.5-0.5,2.1-1.2c0.7,0.4,1.3,0.7,2.1,0.6
		c0.7-0.1,1.3-0.1,2-0.2c0.7,0,1.5,0,2.2,0c0-0.1,0-0.2,0-0.2c-2.1-0.3-4.1-0.4-6.1-0.9c-0.1-0.3-0.1-0.4-0.2-0.6
		c-0.6,0.2-1.2,0.3-1.6,0.5c-0.5-0.3-0.8-0.5-1.3-0.7c-0.3,0.3-0.5,0.7-0.8,1c-0.2-0.2-0.3-0.4-0.4-0.5c-0.2,0.1-0.5,0.2-0.7,0.1
		c-0.4-0.2-0.6-0.1-1.1,0.1c-0.6,0.3-1.3,0.4-1.9,0.5s-1.2-0.1-1.8-0.1c-0.6,0-1.2-0.3-2-0.8c1.5-0.5,3-0.8,4.5-0.9
		c1.6,0,3.1-0.4,4.7-0.6c0.1,0,0.3-0.3,0.4-0.5c-1-0.3-1-0.3-1.7-0.2c-0.9,0.2-1.9,0.4-2.8,0.4c-2.4,0-4.8,0.5-7.1,1.1
		c-0.9,0.2-1.1,0.7-1,1.6C27-8.9,27.1-8.5,27.2-8c0.1,0.4,0.3,0.8,0.6,1.1c1,0.9,2.1,1.8,3.1,2.7c1.2,1,2.5,1.9,3.1,3.5
		c0.2,0.5,0.6,0.9,1,1.2c1.1,0.8,1.1,2,1,3.1c-0.1,0.8-0.1,1.6,0.1,2.3c0.4,1.3,0.4,2.6,0.3,3.9c-0.1,0.8,0.1,1.4,0.8,1.7
		c1,0.5,1.1,1.3,1.1,2.2c0.1,2.1,0.1,4.2,0.1,6.3c0,1.6-0.1,3.2-0.1,4.9c0,3.1,0,6.3,0,9.4c0,0.6,0,1.2,0,1.8c0,1.5,0.1,2.9,0,4.4
		c-0.1,1.6,0,3,1.1,4.3c0.1-1.1,0.1-2.2,0.2-3.3c0-3.1,0.1-6.2,0.1-9.3c0-0.4,0-0.8,0-1.2c0.1-1.7,0.1-3.5,0.2-5.2
		c0-0.8,0-1.6,0.1-2.4c0-0.6,0-1.3,0.1-1.9c0.1-0.4,0.1-0.7,0-1.1c0.2-1-0.1-2.2,0.7-3c-0.2-1.6-0.3-3-0.2-4.4
		c0-0.1,0.1-0.2,0.1-0.3c0.1-0.5,0.4-0.7,0.8-0.7c0.8,0,1.5,0,2.3,0c0.5,0,0.6,0.3,0.4,0.8c-0.7,0.5-1.6-0.3-2.4,0.5
		c0.4,0.1,0.6,0.1,0.8,0.1c0.5,0,1,0,1.5,0.1c0.1,0,0.2,0.3,0.4,0.5c-0.7,0.4-1.3,0.3-1.9,0.3c-0.3,0-0.7,0-0.9,0.4
		c0.3,0,0.4,0.1,0.6,0.1c0.5,0,0.9-0.1,1.4-0.1c0.4,0,0.8,0,0.9,0.6c-0.7,0.2-1.4-0.5-2.1,0.3c0.3,0.1,0.6,0.1,0.8,0.2
		c0.3,0,0.7,0,1,0.1c0.2,0,0.2,0.3,0.5,0.6c-0.9,0-1.6,0-2.3,0c0.4,0.8-0.8,0.6-0.6,1.3c0.5-0.1,1-0.1,1.4-0.2
		c0.1-0.7,0.1-0.7,0.6-0.5c0.1,0.6,0,1.3,0.2,1.9c0.3,0.6,0.3,1.1,0.3,1.7c-0.3,0.3-0.6,0.5-0.9,0.8c-0.3-0.2-0.5-0.4-0.8-0.6
		c-0.3-0.1-0.6-0.1-0.7,0.2c-0.1,0.2,0,0.5,0.1,0.6c0.7,0.6,1.5,1.1,2.6,1c0.1-0.5,0.4-1.1,0.3-1.5c-0.2-0.9,0-1.9-0.1-2.8
		c-0.1-1,0.1-1.9,0.2-2.9c0-0.5,0.3-1-0.1-1.5c0.2-0.2,0.4-0.3,0.5-0.4v-0.1C45,13,45,13,45.1,12.5c1.1-0.2,5.7-0.1,6.6,0.1
		c0.1,1.6,0.1,11.2,0,13.1c-0.1,1.3-0.1,7.5,0,9.2c0.2,2.1-0.5,45.3-0.5,45.7c0,0.4,0,0.9,0,1.3c-0.1,0.7-0.3,1.3-0.9,1.6
		c-0.9,0.5-1.5,1.2-2.1,2c-0.2,0.2-0.4,0.4-0.7,0.6c-1.4-1.3-2.9-1.8-4.6-1.9c-0.3,0.5-0.6,0.9-0.9,1.3c-0.3,0.4-0.6,0.8-0.9,1.2
		c-0.3-0.2-0.5-0.4-0.7-0.6c-1.6,2.1-1.7,4-0.2,5.2c2.1,1,2.8,1.2,4.7,1.7c-0.2,0.2,2.4,0,2.8-0.4c0.9-0.7,1.8-1.6,2.6-2.4
		c0.7-0.7,1.3-1.4,2-2.1c0.7-0.6,1.5-1,2.5-0.7c1.5,0.5,5.2,0.9,5.4,1c1.4,0.3,11.5,1.1,15.1,1c0.4,0,9.7-1.2,11.2-1.1
		c0.5,0,0.8,0.2,1.1,0.5c1,1,3.5,3.1,3.6,3.2c0.9,1.1,1.4,1.2,2.7,0.6c1.2-0.5,2.4-1,3.6-1.5c0.8-0.3,1.7-0.6,2.5-1
		c1.2-0.5,1.6-1.2,1.4-2.8c-0.2-1.1-0.5-2-1.6-2.8c0.5-0.2,0.8-0.3,1.1-0.4c1.4-0.5,1.4-1.9,1.6-4.4c0.1-1,0.1-2-0.1-2.9
		c-0.4-2-0.3-3.8,1.3-5.2c0.3-0.2,9.3-12.3,9.8-12.7c0.5-0.5,9.9-12.5,13.9-21.2C128.1,36.5,135.2,22.6,129.6,7.9z M69.4-7.7
		c0.4,0,0.9-0.2,1.4,0.1C70.2-7.1,69.8-7.5,69.4-7.7z M69.2-5.8c0.5,0,1,0,1.7,0C70.2-5.1,69.7-5.7,69.2-5.8z M73-3.6
		c-0.2,0-0.4-0.1-0.6-0.1c0-0.1,0.1-0.2,0.1-0.3c0.2,0.1,0.4,0.1,0.6,0.2C73-3.7,73-3.6,73-3.6z M38.3,10c-0.9-0.4-1-1-0.7-2.7
		c0.1,0.8,0.2,1.3,0.2,1.8c0.3-1.1,0-2.2,0.4-3.3C38.7,7.2,38.3,8.6,38.3,10z M39.6,9.7c0,0.3-0.4,0.4-0.7,0.2C38.7,8.9,38.8,8,39,7
		c0-0.1,0.2-0.2,0.4-0.3C39.9,7.8,39.7,8.7,39.6,9.7z M44.9,91c-0.5,0.4-0.9,0.1-1.3-0.1c-0.9-0.6-1.9-1.2-2.9-1.8
		c-0.2-0.5,0.1-0.9,0.4-1.4c0.2-0.3,0.5-0.4,0.8-0.2c0.5,0.2,1,0.4,1.5,0.7c0.7,0.4,1.3,0.7,2.1,0.3C46,89.5,44.8,90.1,44.9,91z
		 M47.2,91.9c-0.6-0.3-0.8-0.6-0.7-1.2c0.2-0.1,0.4-0.2,0.8-0.4c0-0.2-0.1-0.5-0.1-0.8c0.9-0.8,1.1-0.8,2.1-0.1
		C48.8,90.6,47.8,91,47.2,91.9z M128.8,9.1c0.1,0.6,0.1,1.2,0.1,1.8c0,0.4,0,0.4-0.6,1c0-0.5-0.2-0.8-0.1-1.1
		c0.2-0.4,0.1-0.7-0.1-1.1c-0.2-0.4-0.1-0.8,0.4-1.2C128.7,8.8,128.8,8.9,128.8,9.1z M128.9,13.3c-0.4-0.3-0.4-0.3-0.1-0.7
		C128.9,12.8,128.9,13,128.9,13.3z M128.2,7.5c0.1,0.2,0.1,0.4,0.2,0.5c0,0-0.1,0.1-0.2,0.1c-0.1-0.2-0.1-0.4-0.2-0.6
		C128,7.5,128.1,7.5,128.2,7.5z M127.6,5.8c0.1,0.3,0.2,0.5,0.3,0.8c-0.1,0-0.2,0.1-0.3,0.1C127.4,6.5,127.1,6.3,127.6,5.8z
		 M127.7,11.3c0.2,1,0.2,1-0.2,1.6C127.1,12.3,127.3,11.9,127.7,11.3z M127.5,9.7c0.2,0.5,0.2,0.5-0.2,1.1
		C127,10.4,127.2,10.1,127.5,9.7z M127.4,8.1c0.2,0.5,0.2,0.8-0.2,1.1C126.9,8.8,127,8.5,127.4,8.1z M125.8,18.2
		C125.8,18.1,125.8,18.1,125.8,18.2c-0.1,0-0.3,0-0.4,0.1c-0.2-0.6-0.2-0.6,0.2-1.1C126,17.4,125.8,17.8,125.8,18.2
		C125.8,18.1,125.9,18.1,125.8,18.2C125.9,18.1,125.9,18.2,125.8,18.2c0.5,0.7,0.1,1.4,0,2.1C125.1,19.5,125.6,18.8,125.8,18.2
		L125.8,18.2z M123.6,7.5c-0.2-0.4,0-0.8,0.3-1C124.1,7,124.1,7,123.6,7.5z M124.1,8.1c0.4,0.5,0.3,0.9-0.1,1.3
		C123.6,9,123.7,8.6,124.1,8.1z M123.4,25.6c0.1,0,0.2,0,0.3,0c0,0.4,0,0.9,0,1.6C123.3,26.5,123.2,26.1,123.4,25.6z M123.6,19
		c-0.1,0.2-0.2,0.4-0.3,0.6C123.1,19.1,123.1,19.1,123.6,19z M123.8,20.2c0.2,0.4,0.1,0.7-0.3,1C123.4,20.8,123.4,20.5,123.8,20.2z
		 M123.6,13.9c0-0.2,0-0.5,0.1-0.7c0.1,0,0.2,0,0.4,0.1c-0.1,0.2-0.1,0.5-0.2,0.7C123.7,14,123.6,13.9,123.6,13.9z M124.4,10
		c0.4,0.7,0.3,1.2-0.1,1.8C123.7,10.9,123.7,10.9,124.4,10z M124.8,11.7L124.8,11.7C124.9,11.7,124.9,11.7,124.8,11.7
		c0.2-0.3,0.3-0.6,0.4-0.9c0-0.1,0.2-0.1,0.3-0.2c0.2,0.5,0.2,0.5-0.3,1.2C125.1,11.8,125,11.7,124.8,11.7
		C124.9,11.7,124.9,11.7,124.8,11.7C124.9,11.7,124.9,11.7,124.8,11.7c0,0.5,0,1-0.6,1.3C123.9,12.3,124.5,12.1,124.8,11.7z
		 M125.3,8.4c0.3,0.7,0.4,1.4-0.2,2C124.5,9.4,124.5,9.2,125.3,8.4z M125.1,13.1L125.1,13.1L125.1,13.1c0.2-0.4,0.4-0.8,0.6-1.3
		c0.4,0.8,0.4,0.8-0.3,1.6C125.4,13.3,125.2,13.2,125.1,13.1L125.1,13.1L125.1,13.1c0.1,0.6,0.1,1.2-0.5,1.6
		C124.3,13.8,124.3,13.8,125.1,13.1z M126.4,10.4c-0.1,0-0.1,0-0.2-0.1c0.1-0.2,0.1-0.4,0.2-0.6c0.1,0,0.1,0,0.2,0.1
		C126.5,10,126.4,10.2,126.4,10.4z M126.7,10.9c0.3,0.5,0.2,0.8-0.2,1.1C126.3,11.6,126.2,11.2,126.7,10.9z M125.9,8.9
		c0-0.7,0-1.1,0-1.6C126.5,8.1,126.6,8.1,125.9,8.9z M124.7,15.5c0.1-0.3,0.3-0.5,0.7-0.4c-0.1-0.6,0.1-1.1,0.6-1.4
		c0.5,1,0.4,1.4-0.4,2.1c-0.1,0.3-0.2,0.6-0.3,1C124.9,16.3,124.6,16,124.7,15.5z M125.2,22.9c-0.1,0-0.2,0-0.3,0
		c0.1-0.3,0.1-0.5,0.2-0.8C125.6,22.5,125.2,22.7,125.2,22.9z M126,26.7c0.4,0.4,0.5,0.7,0.3,1c-0.1,0-0.2,0-0.3,0
		C125.9,27.4,125.9,27.1,126,26.7z M126.4,15.9c0.3,0.5,0.2,0.8-0.2,1.1C125.9,16.5,126,16.2,126.4,15.9z M126.8,12.6
		c0.4,0.9,0.4,0.9-0.2,1.6C126.5,13.6,126.3,13.1,126.8,12.6z M126.5,5.2c0.3-0.3,0.5-0.1,0.6,0.2c-0.3,0.3-0.5,0.4-0.7,0.1
		C126.3,5.5,126.4,5.3,126.5,5.2z M125.2,4c0.3-0.3,0.6-0.2,1.1,0.5c-0.6,0.6-0.8,0.6-1.1,0.3C124.9,4.6,124.9,4.2,125.2,4z
		 M124.8,8c-0.4-1.4-0.5-1.7-0.1-2.5C125.4,6.4,125.4,7,124.8,8z M124.2,3.1c0.4,0.2,0.6,0.4,0.4,0.8c-0.3,0.4-0.5,0.1-0.9-0.2
		C123.9,3.5,124,3.3,124.2,3.1z M123.3,6.1c-0.1-0.5-0.3-0.9,0.1-1.3C123.9,5.5,123.9,5.5,123.3,6.1z M123.6,2.6
		c-0.5,0.8-0.5,0.8-1.2,0.5C122.9,2.2,123,2.2,123.6,2.6z M122.4,1.9c-0.6,1.1-0.7,1.2-1.9,0.6C121.3,1.3,121.4,1.3,122.4,1.9z
		 M119.9,5.6c0.5,0.8,0,1.3-0.4,2.1C119.1,6.7,120.1,6.3,119.9,5.6z M119.3,5.3c-0.1,0-0.1,0-0.2,0c0-0.3-0.1-0.7-0.1-1
		c0-0.2,0.3-0.3,0.5-0.4c0.1,0.2,0.3,0.4,0.3,0.6C119.7,4.8,119.4,5,119.3,5.3z M120.6,9.1c0.3,0.7,0.3,1.3-0.2,1.9
		c-0.1,0.2-0.4,0.2-0.6,0.3C120,10.5,120.1,9.7,120.6,9.1z M120.5,4.5c0.1,0,0.1,0,0.2,0c0,0.2,0,0.4,0.1,0.8
		c-0.2-0.3-0.3-0.4-0.3-0.5C120.4,4.7,120.5,4.6,120.5,4.5z M121.4,11.3c0,0.6,0,1,0,1.4c-0.2,0-0.3,0-0.5,0.1
		C120.4,11.9,120.4,11.9,121.4,11.3z M121.3,8.9c-0.1,0-0.1,0-0.2-0.1c0.1-0.2,0.1-0.4,0.2-0.7c0.1,0,0.1,0,0.2,0
		C121.5,8.4,121.4,8.6,121.3,8.9z M121.5,5.1c0.1,0,0.1,0,0.2,0c0.1,0.1,0.1,0.2,0.2,0.4c0,0.1,0,0.3,0,0.8
		c-0.2-0.4-0.3-0.5-0.3-0.7C121.5,5.4,121.5,5.2,121.5,5.1z M120.5,1.4c-0.7,1-0.7,1-1.6,0.8C119.4,1.1,119.7,1,120.5,1.4z
		 M118.8,1.2c-0.7,1-0.7,1-1.6,0.8C117.8,1,118,0.9,118.8,1.2z M117.7,3.8c0.1-0.2,0.1-0.4,0.2-0.5c0.1,0,0.2,0.1,0.2,0.1
		c0,0.2-0.1,0.3-0.1,0.5C117.9,3.8,117.8,3.8,117.7,3.8z M117.4,8.7c-0.1-0.9-0.3-1.5,0.1-2.4C117.8,7.1,118.2,7.8,117.4,8.7z
		 M118.1,4.5c0.6,1.1,0.6,1.4,0.2,2.2C117.9,6.1,118,5.4,118.1,4.5z M116.8,5.4c0-0.6-0.1-1,0.2-1.5C117.3,4.4,117.5,4.8,116.8,5.4z
		 M117.1,9.3c0,0-0.1,0.1-0.2,0.3c0-0.3,0-0.5-0.1-0.7C116.9,9.1,117,9.2,117.1,9.3z M116.9,1.2C116.6,2,115.9,2,115,2
		C116.2,0.8,116.2,0.8,116.9,1.2z M116.2,5.3c0.2,0.7,0.4,1.3,0,2C115.9,6.6,115.8,6,116.2,5.3z M115.8,3.9c-0.1,0-0.2-0.1-0.2-0.2
		c0.1-0.1,0.1-0.2,0.2-0.2s0.2,0.1,0.3,0.2C116,3.8,115.9,3.9,115.8,3.9z M115.1,0.9c-0.4,0.7-0.8,1.2-1.7,0.9
		C114.1,0.7,114.2,0.7,115.1,0.9z M114.6,6c0,0.4,0,0.7,0,1.2c-0.5-0.4-0.3-0.8-0.3-1.2C114.4,6,114.5,6,114.6,6z M112.7,3
		c0.3,0.5,0.4,0.8,0.1,1.3C112.5,3.9,112.5,3.6,112.7,3z M112.8,7.6c-0.5-0.2-0.6-0.6-0.2-1.1C112.7,6.9,112.8,7.3,112.8,7.6z
		 M113.1,5c0.4,0.4,0.4,0.8,0.2,1.4C113,5.9,112.8,5.5,113.1,5z M113.5,0.5c-0.4,1-0.6,1.1-1.6,1.1C112.4,1,112.8,0.5,113.5,0.5z
		 M110.8,0.7c0.3-0.3,0.3-0.3,1.1-0.2c-0.2,0.5-0.5,0.8-1,1c-0.1-0.1-0.3-0.2-0.5-0.4C110.6,1,110.7,0.8,110.8,0.7z M111.6,3.6
		c0-0.1-0.1-0.3-0.1-0.4c0.1,0,0.1,0,0.2-0.1c0,0.2,0.1,0.3,0.1,0.5C111.7,3.6,111.6,3.6,111.6,3.6z M111.6,7
		c-0.7-0.6-0.7-0.6-0.2-1.4C111.5,6.1,111.5,6.5,111.6,7z M110.2,3.7c-0.1-0.5-0.1-0.7-0.1-1C110.3,2.9,110.7,3.1,110.2,3.7z
		 M110.2,0.4c-0.3,0.9-0.4,1-1.5,0.9C109.1,0.7,109.5,0.3,110.2,0.4z M109.7,5.1c-0.3-0.4-0.5-0.7-0.2-1.3
		C109.7,4.2,110,4.5,109.7,5.1z M108.4,0.7c-0.4,0.7-0.9,0.8-1.5,0.5C107.4,0.4,107.4,0.4,108.4,0.7z M108.5,4c0,0.2,0,0.4,0,0.6
		c-0.1,0-0.2,0-0.2,0C108.3,4.4,108.3,4.2,108.5,4L108.5,4z M106.3,0.3c0.1,0,0.1,0.1,0.2,0.1c-0.1,0.2-0.2,0.3-0.3,0.5
		c-0.1-0.1-0.2-0.1-0.2-0.2C106,0.6,106.2,0.5,106.3,0.3z M106.3,4.3c-0.3-0.4-0.4-0.7-0.1-1.3C106.4,3.5,106.6,3.8,106.3,4.3z
		 M105.2,0.4c-0.2,0.6-0.7,0.8-1,1C104.2,0.8,104.5,0.5,105.2,0.4z M101.8,3.8c0.4-0.1,0.8-0.2,1.3-0.3c0.1,0.5,0,0.8-0.4,1
		c-0.9,0.3-1.7,0.5-2.6,0.8c-0.2-0.7-0.3-1.4,0-2.7c1-0.2,1.9-0.5,2.8-0.7c0.3,0.9,0.3,1-0.3,1.2c-0.4,0.1-0.8,0.2-1.1,0.3
		c-0.3,0.1-0.6,0.1-1.1,0.3C101,4,101.4,3.9,101.8,3.8z M103,0.9c-0.5,0.6-1.8,0.9-3.2,0.9C100.9,0.9,102,1.1,103,0.9z M99.9,6.1
		c0.9-0.6,1.9-0.9,3.2-0.9c-0.9,0.9-2.1,1-3,1.6c0.1,0.5,0.1,0.5-0.4,0.7C99.8,7,99.8,6.6,99.9,6.1z M103.1,9c0,0.1,0,0.1,0,0.2
		c-0.2,0-0.3,0.1-0.5,0.1c0-0.1,0-0.1,0-0.2C102.7,9.1,102.9,9.1,103.1,9z M102.5,7.4c-0.6,0.2-1.2,0.3-2.1,0.5
		c0.7-1.1,1.6-1.6,2.6-1.8C103.1,7.1,103.1,7.2,102.5,7.4z M99.7,8.3c1.2,0.6,2.2,0.1,3.3-0.1c-1,0.6-2.1,1.2-3.5,1
		C99.6,8.9,99.6,8.7,99.7,8.3z M98.5,65.8c0-0.3-0.1-0.6,0-0.8c0.3-0.5,0.9-0.8,1.4-1C100.2,65.2,100.1,65.3,98.5,65.8z M98.5,67.1
		c-0.1-1,0.9-0.9,1.4-1.5C100.1,67.1,99.7,67.4,98.5,67.1z M98.6,64.1c0-0.4,0-0.8,0-1.2c0.4-0.2,0.8-0.5,1.3-0.7
		C100.3,63.3,100.1,63.6,98.6,64.1z M98.5,59.6c-0.2,0.2-0.3,0.5-0.4,0.7c-0.1-0.1-0.2-0.2-0.3-0.2c-0.1-0.7-0.1-0.7,1.4-1.3
		C98.9,59.2,98.7,59.4,98.5,59.6z M99.1,69.4c-0.3,0.2-0.6,0.7-1.1,0.2C98.4,69.3,98.8,69.3,99.1,69.4z M98.3,70.5
		c0.5-0.3,1-0.6,1.6-1c0.4,1.2,0.4,1.4-0.4,2c-0.3,0.2-0.7,0.4-1.2,0.7C98.3,71.5,98.3,71.1,98.3,70.5z M98.8,62.1
		c-0.2-0.9,0.3-1.1,0.9-1.2c0.1,0.2,0.2,0.4,0.3,0.7C99.7,61.7,99.3,61.9,98.8,62.1z M99,58.3c-0.4,0.2-0.8,0.4-1.3,0.7
		c0-0.3-0.1-0.6,0-0.8c0.4-0.5,0.9-0.8,1.6-1C99.5,57.7,99.4,58,99,58.3z M95.1,76.3c0-0.1-0.1-0.1-0.1-0.2c0.2-0.1,0.4-0.2,0.7-0.3
		c0,0.1,0.1,0.1,0.1,0.2C95.6,76.1,95.3,76.2,95.1,76.3z M95.2,77.6c0,0.2,0,0.4,0,0.6c-0.1,0-0.1,0-0.2,0c0-0.2,0-0.4,0-0.6
		C95.1,77.6,95.2,77.6,95.2,77.6z M94.1,53.7c-0.2-1.3,0.3-1.8,1.9-2.1c0.6-1.2,1.7-1.7,2.8-2.4c0.2,0.6,0.1,1-0.4,1.4
		c-0.8,0.5-1.6,1.2-2.4,1.7c-0.5,0.3-1,0.4-1.8,0.7C94.1,53,94.8,53.7,94.1,53.7z M95.7,54.7c-0.4,0.5-0.8,1-1.7,1
		C94.1,54.4,94.5,54.2,95.7,54.7z M95.9,56.3c-0.7,0.9-0.9,1-1.9,0.6C94.5,56.1,95.2,56.2,95.9,56.3z M96.8,57.7
		c-0.7,1.1-1.3,1.4-2.6,1.1C94.6,57.8,94.6,57.8,96.8,57.7z M96.2,69.7c0-0.2,0.1-0.3,0.1-0.4l0,0l0,0c-0.3,0.1-0.6,0.2-1,0.3
		c-0.1-0.2-0.2-0.4-0.3-0.7c0.5,0,0.9,0,1.3,0c0,0.2,0,0.3,0,0.4l0,0l0,0c0.1-0.1,0.3-0.1,0.4-0.2s0.3-0.1,0.4-0.2
		C97.5,69.7,97.5,69.7,96.2,69.7z M97.3,70.3c-0.5,0.7-0.5,0.7-2.1,0.9c0.1-0.2,0.2-0.5,0.3-0.5C96.1,70.5,96.7,70.4,97.3,70.3z
		 M95.1,66.8c-0.1-1-0.1-1,1.3-0.8C95.8,66.3,95.5,66.5,95.1,66.8z M97.1,65.9c0,0.8,0,0.8-1,0.6C96.5,66.3,96.7,66.1,97.1,65.9z
		 M96.2,67.4c-0.3,0.3-0.4,0.4-0.6,0.5s-0.4,0.2-0.6,0.3C94.6,67.5,94.7,67.4,96.2,67.4z M96,68.4c0.4-0.6,0.4-0.6,1.1-1
		c0,0.2,0.1,0.3,0.1,0.5C96.9,68.1,96.5,68.2,96,68.4z M94.9,65.3c0.5-0.6,0.9-0.9,1.4-1c0.2-0.1,0.4,0,0.5,0.1s0.1,0.4,0.3,0.8
		C96.4,65.2,95.8,65.3,94.9,65.3z M96.3,62.5c0.1-0.1,0.1-0.2,0.1-0.2c0.2-0.1,0.3-0.1,0.5-0.2c0,0.1,0.1,0.3,0,0.3
		c-0.1,0.1-0.3,0.1-0.5,0.2C96.4,62.6,96.4,62.6,96.3,62.5z M97,61.3c-0.5,0-1,0-1.6-0.1c0.5-0.6,1-0.7,1.6-0.6
		C97,60.8,97,61,97,61.3z M95,60c0.4-0.7,1.1-0.5,1.8-0.8C96.3,60.1,95.6,60,95,60z M95.9,61.9c-0.4,0.8-0.9,0.9-1.6,0.8
		c0-0.3,0-0.5,0-0.8C94.8,62,95.3,62,95.9,61.9z M96.3,63.4c-0.6,0.3-0.6,0.3-1.7,0.2C95.3,63.2,95.8,63.3,96.3,63.4z M95.6,71.9
		c-0.2,0.1-0.5,0.2-0.8,0.4C94.9,71.7,95.3,71.8,95.6,71.9z M95.3,73.7c0.3-1,1-0.7,1.6-0.9C96.5,73.5,96.5,73.5,95.3,73.7z
		 M96.2,75.1c0.2-0.7,0.4-1.1,1-1c0.1,0,0.2,0.3,0.4,0.5C97.1,74.8,96.8,74.9,96.2,75.1z M96.5,76.9c-0.2,0.1-0.3,0.2-0.5,0.3
		c0-0.1-0.1-0.1-0.1-0.2c0.2-0.1,0.3-0.2,0.5-0.3C96.5,76.8,96.5,76.8,96.5,76.9z M96,72.3c0.4-0.5,0.8-0.7,1.3-0.8
		c0.2,0,0.2,0.1,0.4,0.7C97.1,72.2,96.6,72.2,96,72.3z M98,57.1c-0.8,0.4-0.8,0.4-1.6-0.4c0.9-0.6,1.8-1.1,2.8-1.8
		c0.1,0.6,0.1,1.1,0.1,1.6C98.9,56.7,98.5,56.9,98,57.1z M97.2,55.6c-0.5-0.1-0.9-0.1-1.3-0.1c0.5-0.9,1.9-1.9,3.1-2.3
		c0.1,0.4,0.1,0.7,0.2,1.1C98.5,54.7,97.9,55.1,97.2,55.6z M99,52.3c-0.9,0.6-1.7,1.1-2.5,1.7c-0.4-0.1-0.8-0.2-1.3-0.4
		c0.7-0.3,1-0.8,1.4-1.2c0.6-0.7,1.4-1.1,2.3-1.5C99.2,51.4,99,51.9,99,52.3z M98,49.1c-0.7,0.4-1.4,1-2.1,1.6
		c-0.6,0.5-1.2,0.6-1.9,0.4c-0.1-0.3-0.1-0.5-0.2-0.8c0.7-0.4,1.6-0.1,2.5-0.7c-0.3-0.2-0.5-0.3-0.8-0.5c1-0.8,2-1.6,3.3-2
		C99.2,47.9,98.9,48.6,98,49.1z M94.5,25c0,0.1,0.1,0.2,0.1,0.3c0,0.3-0.2,0.5-0.5,0.6c-0.4,0-0.8,0.1-1.2,0.1
		c-0.1-0.5-0.1-1,0.6-1.3c0,0.3,0,0.5,0,0.8C93.9,25.3,94.2,25.2,94.5,25z M93.6,26.6c0.2,0,0.4,0.1,0.6,0.1c0.1,0,0.3-0.1,0.5-0.2
		c0.1,0.3,0.2,0.5,0.3,0.8c-0.7,0.1-1.3,0.1-2,0.2C92.7,26.7,92.8,26.5,93.6,26.6z M93.7,28.3c0.4,0,0.4,0.2,0.4,0.5l0,0l0,0
		c0.2-0.1,0.4-0.3,0.7-0.4c0.3,0.3,0.3,0.6,0.1,0.8c-0.1,0.1-0.4,0.1-0.6,0c-0.1,0-0.1-0.3-0.1-0.5l0,0l0,0
		c-0.4,0.3-0.8,0.5-1.2,0.8c-0.4-0.4-0.2-0.8-0.2-1.2C93.1,28.3,93.4,28.3,93.7,28.3z M95.1,29.8c0,0.5,0,0.8,0,1.2
		c-0.7,0.4-1.4,0.3-2.3,0.3c0-0.3-0.1-0.5-0.1-0.8C93.4,29.9,94.4,30.8,95.1,29.8z M95.4,35.6c-0.1,0.1-0.3,0.1-0.4,0.2
		c0.1-0.2,0.1-0.4,0.2-0.6l0,0l0,0c-0.3,0.2-0.5,0.3-0.8,0.5c-0.4,0.3-0.8,0.4-1.2,0.2c-0.2-0.4,0-0.8,0.3-1
		c0.4-0.2,0.9-0.2,1.4-0.2c0.1,0,0.2,0.3,0.3,0.5l0,0l0,0C95.3,35.4,95.3,35.5,95.4,35.6z M93.6,44.3c-0.1-0.2-0.1-0.5,0-0.6
		c0.3-0.4,0.7-0.3,1.1,0c-0.1,0.2-0.2,0.5-0.3,0.7l0,0l0,0c0.2-0.1,0.5-0.3,0.7-0.4s0.4-0.3,0.6-0.5c0,0.4,0,0.6,0,0.9
		c-0.5,0.1-0.9,0.3-1.4,0l0,0l0,0C94.1,44.5,93.8,44.7,93.6,44.3z M93.5,42.6c0.4-1,0.6-1.1,1.6-0.8C94.6,42.3,94.4,42.9,93.5,42.6z
		 M94.9,42.8c0-0.4,0.3-0.6,0.7-0.8C95.7,42.8,95.7,42.8,94.9,42.8z M94.4,39.2c0.2-0.5,0.6-0.8,1.1-1
		C95.6,39.2,95.5,39.3,94.4,39.2z M94.1,32.5c0.4-0.3,0.7-0.4,0.9-0.6C95.1,32.6,95.1,32.6,94.1,32.5z M94,32
		c-0.4,0.7-0.6,0.8-1.3,0C93.3,32,93.6,32,94,32z M94.5,33.6c-0.3,0.7-0.9,0.4-1.6,0.4C93.4,33.1,93.4,33.1,94.5,33.6z M94.5,36.8
		c-0.5,0.7-0.5,0.7-1.4,0.7C93.7,36.7,93.7,36.6,94.5,36.8z M94.5,38.3c-0.3,0.6-0.6,0.9-1.2,0.9C93.5,38.7,93.7,38.2,94.5,38.3z
		 M93.8,39.9c0.5,0,1,0.1,1.5,0.1c-0.6,0.8-1,1.1-1.6,0.8c-0.2-0.1-0.4-0.3-0.3-0.5C93.3,40.2,93.6,39.9,93.8,39.9z M95.3,45.1
		c-0.4,0.9-1.5,0.3-1.7,1.2c0-0.3,0-0.6-0.1-1C94.1,45.3,94.6,45.2,95.3,45.1z M95.8,46.6c-0.4,1-1.4,0.7-2.1,1
		C94.6,46.2,94.6,46.2,95.8,46.6z M99,46.4c-0.8,0.3-1.6,0.7-2.4,1l0,0l0,0c-0.2,0.4-0.5,0.6-0.9,0.7l0,0l0,0
		c-0.4,0.6-0.9,1.1-1.8,1.1c0.3-1,0.7-1.3,1.8-1.1l0,0l0,0c0.2-0.3,0.5-0.6,0.9-0.7l0,0l0,0c-0.1-0.5-0.1-0.9,0.4-1.2
		c0.6-0.3,1.1-0.7,1.8-1.2C98.9,45.6,98.9,45.9,99,46.4z M97.6,24.1c0.5,1.1-0.5,1.4-1.1,2C96.4,24.8,96.5,24.7,97.6,24.1z
		 M97.4,22.3c0.5,1-0.2,1.3-0.8,1.7C96.3,23.2,96.8,22.8,97.4,22.3z M96.6,26.6c0.3-0.3,0.7-0.6,1.1-1c0.3,0.4,0.3,0.7,0,1
		s-0.6,0.7-0.9,1l0,0l0,0c0.3-0.1,0.7-0.3,1-0.4c0.4,1.1,0.1,1.7-1.3,2.5c-0.3-0.7-0.2-1.4,0.3-2l0,0l0,0
		C96.3,27.3,96.2,27,96.6,26.6z M98.4,44.7c-0.5,0.5-1,1-1.7,1.2c-0.3-1-0.3-1,0.3-1.5c0.4-0.3,0.8-0.6,1.1-0.8
		c0.1-0.1,0.3-0.1,0.5-0.2C98.8,43.9,98.8,44.4,98.4,44.7z M98.2,39.7L98.2,39.7L98.2,39.7c0.6,0.2,0.5,0.6,0.2,0.9
		c-0.4,0.5-0.9,0.8-1.4,1.3c-0.3-0.4-0.3-0.7,0-1C97.4,40.5,97.8,40.1,98.2,39.7L98.2,39.7c-0.4,0.2-0.8,0.4-1.2,0.6
		c-0.2-0.8,0-1,1.4-2C98.7,38.9,98.3,39.3,98.2,39.7L98.2,39.7z M97.9,37.9c-0.3,0.3-0.7,0.6-1.1,0.9c-0.5-1.2-0.2-2,1.2-2.4
		C98.6,37.2,98.6,37.3,97.9,37.9z M98.4,42.7c-0.4,0.4-0.9,0.8-1.5,1.3c0-0.7,0-1.1,0-1.5c0.5-0.4,1-0.8,1.5-1.2
		C98.8,42,98.8,42.3,98.4,42.7z M98.5,35.4c-0.5,0.4-1.1,0.8-1.9,1c0.4-1,1.1-1.4,2.1-1.8C98.6,34.9,98.6,35.3,98.5,35.4z
		 M96.7,35.1c-0.1-0.9,0.3-1.4,1.7-2C98.5,34.1,98.4,34.2,96.7,35.1z M98.1,32.4c-0.4,0.4-0.9,0.7-1.5,1.2c-0.2-1.4-0.1-1.5,1.5-2.2
		C98.4,31.7,98.5,32,98.1,32.4z M98.3,30.6c-0.5,0.4-1,0.7-1.6,1.1c-0.3-0.5-0.4-0.9-0.1-1.3c0.4-0.5,0.9-0.8,1.5-1.3
		C98.2,29.8,98.2,30.2,98.3,30.6z M97.8,11.3c0,0.7-0.1,1.3-0.1,1.9c0,0.6,0,1.2,0,1.8c-1.2,0.4-4,0.3-5.2-0.1
		c-0.1-0.4,0.1-0.6,0.5-0.6c0.9,0.1,1.9,0.1,2.8,0.2c0.2,0,0.4,0,0.6,0c-1.2-0.7-2.7-0.3-4.2-0.9c1.5-0.2,2.7-0.1,4-0.1
		c-0.1-0.1-0.2-0.3-0.3-0.3c-0.5-0.1-1.1-0.1-1.6-0.2c-0.5,0-1.1-0.1-1.7-0.3c1.1-0.5,2.1-0.1,3.2-0.2c-1.1-0.8-2.3-0.1-3.3-0.8
		c0.3-0.3,0.5-0.5,0.8-0.9c-0.1-0.2-0.3-0.4-0.5-0.6c0.3-0.6,0.7-0.4,1.1-0.1c0,0.2,0,0.5-0.1,0.8C95.3,11.6,96.6,11.1,97.8,11.3z
		 M92.4,6.2c0-0.5,0-1.1,0-1.6c0,0,0,0,0.1,0C92.4,5.2,92.4,5.7,92.4,6.2L92.4,6.2z M97.2,3.4c0,0.2,0.1,0.4,0.1,0.6
		c-0.1,1.1-0.2,2.2-0.4,3.3c-0.1,0.8,0,1.1,0.9,1.4c-0.4,0.1-0.7,0.2-1,0.3s-0.6,0.2-1.1,0.3c0.1-0.7,0.2-1.1,0.3-1.6
		c0.1,0.4,0.2,0.6,0.3,1c0.6-0.6,0.3-1.3,0.4-1.8c0.1-0.6,0.1-1.2,0.2-1.8C96.8,4.6,96.8,4,97.2,3.4z M96,6c-0.1-0.8-0.2-1.6,0-2.4
		C96.4,4.4,96,5.2,96,6z M96.2,1.7c0.2,0,0.3-0.1,0.5-0.1c0,0.1,0,0.1,0.1,0.2c-0.1,0.1-0.3,0.1-0.5,0.2C96.2,1.9,96.2,1.8,96.2,1.7
		z M95.9-8.9c0,0.1,0,0.1,0,0.2c-0.4,0.1-0.7,0.3-1.2,0.5c0.3,0.8,1,0.2,1.4,0.5c-0.1,0.8-0.9,0.5-1.2,1c0.3,0.1,0.5,0.2,1,0.4
		c-0.4,0.2-0.7,0.3-1,0.4c0,0.1,0.1,0.2,0.2,0.3c0.3,0,0.6,0.1,0.9,0.1c0,0.2,0,0.4-0.1,0.4c-0.3,0.2-0.7,0.3-1.3,0.5
		c0.6,0.2,1.1,0.3,1.5,0.4c0.1,0.7-0.6,0.6-0.9,0.9c1,0.6,1.1,0.5,0.4,1.6c0.2,0.1,0.4,0.2,0.7,0.4C96-1,95.8-0.8,95.5-0.5
		c0.4,0.3,1.1-0.3,1.3,0.6c-0.2,0.1-0.4,0.3-0.7,0.5c0.1,0.1,0.2,0.3,0.3,0.4c-0.5,0.3-1.3,0.2-1.6,0.9c-0.7,0.1-1.4,0.3-2.1,0.4
		c-1.2,0.2-2.3,0.1-3.5-0.1c0.3,0,0.6,0,0.9,0c0.4,0,0.7,0,1-0.3c0.1-0.2,0.5-0.2,0.8-0.2c0.7-0.1,1.4-0.2,2.2-0.5
		c-0.6,0-1.2,0-1.8,0c-0.6,0-1.2,0-1.7,0C90.2,0.6,90.7,0.4,91,0c-1.7,0.2-3.2,0.2-4.9-0.4c1.9-0.1,3.6-0.2,5.4,0.2
		c-0.3-0.7-0.9-0.3-1.3-0.6C91-0.9,91.8-1,92.6-1.1c-0.7-0.4-1.4,0-2.2-0.4c0.8-0.4,1.4-0.7,2-1c0-0.1,0-0.1,0-0.2
		c-0.4,0-0.8,0-1.2,0c-1.3,0-2.7,0.1-4,0.1c-0.6,0-1.2,0-1.8-0.5l0,0l0,0c-0.4,0-0.7,0-1.1-0.2c0.5-0.3,0.8-0.1,1.1,0.2l0,0l0,0
		c1.2-0.3,2.5-0.4,3.7,0.1c0.2,0.1,0.6,0.1,0.7,0c0.5-0.7,1.4-0.6,2.1-0.9c-1.6-0.3-3.3-0.4-4.8-1.1c0.8-0.3,0.8-0.3,2.7,0.2
		c0.9-0.4,1.6-0.7,2.7-1.1c-0.6,0-0.9,0-1.2,0c-0.4,0-0.7,0-1.1,0s-0.7,0-1.1,0.1c-1.1,0.1-2-0.1-3.1-0.7c0.8-0.3,1.5-0.2,2.1,0
		c0.7,0.1,1.3,0.4,1.9-0.1c0.1-0.1,0.4-0.1,0.6,0c0.8,0.3,1.2-0.1,1.5-0.7c-1.9-0.3-3.8,0.2-6-0.3c0.3-0.2,0.4-0.3,0.5-0.3
		c0.9,0,1.9,0,2.8,0.1c0.9,0.1,1.7,0.2,2.3-0.8c-1,0.3-1.9,0-3.1-0.1c0.7-0.7,1.4-0.5,2.1-0.6c0.6-0.2,1.3-0.2,2-0.3
		s1.4-0.2,2.1-0.2c0,0.4-0.1,0.7-0.1,1.1C95.3-8.8,95.6-8.8,95.9-8.9z M91.5,3.3c0.2,0.7,0.2,4.3,0,5.9c0,0.3-0.2,0.5-0.3,0.9
		C90.6,9.3,91,8.5,91,7.8c0-0.8,0-1.6,0.1-2.4C91.2,4.8,90.9,4.1,91.5,3.3z M89.9,9.9c0,0.2-0.2,0.3-0.3,0.5c-0.1,0-0.2-0.1-0.3-0.1
		c0-0.7,0.1-1.4,0.1-2.1c0-0.7,0-1.3,0.2-2.1c0.1,0.1,0.2,0.2,0.2,0.3C89.9,7.6,89.9,8.7,89.9,9.9z M88.3,5.3
		c-0.2-0.9-0.2-0.9,0.3-1.8C88.6,4.3,88.4,4.8,88.3,5.3z M88.3,7.4c0,0.5,0,0.9-0.1,1.4c0,0.4-0.1,0.9-0.1,1.3c0,0-0.1,0-0.1-0.1
		c0-1.3,0-2.5,0-3.8C88.3,6.6,88.3,7,88.3,7.4z M87.1,3.1c-0.5,0.1-1,0-1.3,0.4c-0.5-0.1-1-0.3-1.5-0.4C83.8,3,83.4,3,82.9,2.9
		c0-0.1,0-0.2,0-0.2c1.8-0.1,3.7-0.2,5.8,0.2C88,3,87.5,3,87.1,3.1z M86.9,4.1c0-0.1,0-0.2,0.1-0.2s0.3,0,0.4,0
		c-0.1,0.1-0.1,0.3-0.1,0.3C87.2,4.2,87.1,4.2,86.9,4.1z M87.2,8.2c0,0.7,0,1.4,0,2.1h-0.1c0-0.7,0-1.4,0-2.2
		C87.2,8.2,87.2,8.2,87.2,8.2z M86,4c0.7,1.3,0.9,5.3,0.4,6.8c-0.5,0-0.5-0.3-0.5-0.6C85.9,8.6,86,7,86,5.3C86.1,5,86,4.6,86,4z
		 M83.1,3.9c0.6-0.5,1.1-0.5,1.6-0.2C84.3,3.7,83.8,3.8,83.1,3.9z M83.4,10c0,0.2,0,0.4,0,0.6c0,0,0,0-0.1,0
		C83.4,10.4,83.4,10.2,83.4,10L83.4,10z M78.8,3.6L78.8,3.6c0.2-0.2,0.5-0.3,0.7-0.4c0,0.1,0,0.1,0.1,0.2
		C79.3,3.5,79.1,3.6,78.8,3.6z M79,10.2c0-1,0-2.1,0-3.1C79.5,8.1,79.2,9.2,79,10.2z M77.8,1.2c0.7-0.6,1.4-0.6,2.3-0.4
		C79.3,1.3,78.7,1.3,77.8,1.2z M81.3-4.6L81.3-4.6c-0.5,0.1-1,0.1-1.5,0.2c0-0.1,0-0.1,0-0.2C80.3-4.6,80.8-4.6,81.3-4.6z M80.3-8.2
		c0.3,0,0.5,0,0.8,0v0.1C80.8-8.1,80.6-8.1,80.3-8.2C80.3-8.1,80.3-8.1,80.3-8.2z M82.1-3.8c1-1.2,2.1-0.5,3.1-0.3
		c0,0.1,0,0.2,0,0.3C84.2-3.8,83.2-3.8,82.1-3.8z M83.4-2.9c0.7,0.1,1.4,0.1,2,0.6c-1,0.4-1.9,0.1-2.7-0.3
		C82.9-2.7,83.1-2.9,83.4-2.9z M83.9-5c1.5-0.2,2.9,0.4,4.5,0.9C87.2-3.9,85.6-4.2,83.9-5z M83.3-6.2c1.1-0.2,2,0.2,2.8,0.5
		C85.2-5.6,84.3-5.6,83.3-6.2z M82.2-7.5c1-0.3,1.7-0.2,2.5,0c0.2,0,0.3,0.3,0.4,0.5C84.2-6.7,83.9-6.7,82.2-7.5z M83.3-5.5
		c-0.7,0.2-1.3,0.2-1.9,0.1C82-6.1,82.1-6.1,83.3-5.5z M82.3-3.2c-0.6,0.6-1.1,0.4-1.5,0.4c0-0.1,0-0.2,0-0.2
		C81.2-3.1,81.6-3.1,82.3-3.2z M79.9-3.6c-0.7,0.4-1.3,0.2-1.9,0.1C78.8-4,78.9-4.1,79.9-3.6z M78.4-0.2c0.4-0.4,0.4-0.4,1.3-0.3
		C79.3-0.2,78.9-0.2,78.4-0.2z M78.2-1.8c0-0.1,0-0.2,0-0.3c0.7-0.1,1.4-0.1,2.1-0.2C79.6-1.7,78.9-1.9,78.2-1.8z M80.3,8.6
		c0-0.9,0.1-1.9,0.3-2.8c0,0.3,0,0.5,0.1,0.8c0,0.3,0.1,0.6,0.1,0.9c0,1-0.1,2-0.1,3.1c0,0.3-0.1,0.7-0.4,1
		C79.9,10.5,80.3,9.5,80.3,8.6z M80.7-1.4c1.9-0.6,3.7-0.2,5.5,0.2c-0.2,0-0.4,0-0.6,0.1c-1,0.7-2,0.6-3,0.1
		c-0.4-0.2-0.9-0.4-1.4-0.2C81.1-1.1,80.8-1.3,80.7-1.4z M86.7,0.2c-3.1,0.7-3.2,0.7-4.4,0.2c0.4-0.2,0.6-0.5,0.9-0.5
		C84.4-0.1,85.6,0.1,86.7,0.2z M81.5,3.5c0,0.1,0,0.1,0.1,0.2c-0.2,0.1-0.4,0.1-0.7,0.2V3.8C81.1,3.6,81.3,3.5,81.5,3.5z M81.8,4.8
		c0.3,0.8,0.3,2.8-0.2,5.8c0.4,0,0.8,0.1,1.2,0.1c-0.2,0.8-0.8,0.7-1.4,0.7c-0.1-0.3-0.2-0.5-0.2-0.8C81.4,8.7,81.6,6.8,81.8,4.8z
		 M82.7,1.7c0.2-0.4,0.5-0.4,0.8-0.4c0.2,0,0.3,0,0.5,0c0.7,0.1,1.4,0.2,2.2,0.2C85.2,2.1,84.2,2.1,82.7,1.7z M83.3,4.9
		C83.2,6,83.1,7.2,83,8.3h-0.1C83,7.1,83.1,6,83.1,4.8C83.1,4.9,83.2,4.9,83.3,4.9z M84.4,6.7c0,0.2,0,0.4,0,0.5
		c0,0.4-0.1,0.7,0.3,1c0.2,0.2,0.3,0.7,0.4,1.1c0.1,0.4,0.2,0.9,0.3,1.5c-0.3,0.5-0.8,0.2-1.3,0.3C83.8,9.6,84.2,8.1,84.4,6.7z
		 M86.7,1.3c1-0.4,1.3-0.3,2.5,0.2C88.4,1.5,87.6,1.4,86.7,1.3z M86.3-1.7c1-0.4,1.9,0.1,2.8,0.3C88.2-1.2,87.2-1.6,86.3-1.7z
		 M93.8-19.2c0.1,0,0.2,0.1,0.3,0.1c-0.1,0.2-0.2,0.3-0.3,0.5c-0.1,0-0.1-0.1-0.2-0.1C93.7-18.9,93.7-19.1,93.8-19.2z M94.5-13.3
		c-0.6,0-1.3,0.1-1.9,0.1C93.2-13.5,93.8-13.5,94.5-13.3z M92.8-22.1c0,0,0.1,0.1,0.2,0.1c-0.1,0.1-0.2,0.2-0.3,0.4
		c-0.1,0-0.1-0.1-0.2-0.1C92.6-21.9,92.7-22,92.8-22.1z M92.5-19.8c0.1,0,0.1,0.1,0.2,0.1c-0.1,0.1-0.2,0.3-0.4,0.4
		c-0.1,0-0.1-0.1-0.2-0.1C92.3-19.5,92.4-19.7,92.5-19.8z M93.5-11.5c-0.7,0.7-1.5,1.1-2.3,1.1c-2.4,0-4.7,0-7.1-0.1
		c-0.7,0-0.7-0.1-1.2-0.5c0-0.1,0-0.2,0.1-0.2c0.9-0.5,1.8-0.9,2.9-0.9c1.8,0,3.6-0.2,5.4-0.2C92.1-12.4,92.9-12.2,93.5-11.5z
		 M88.4-15c0,0,0.1,0.2,0.2,0.3c-0.2,0.1-0.3,0.1-0.4,0.2c0,0-0.1-0.2-0.1-0.3C88.1-14.9,88.2-15,88.4-15z M88.6-21.6
		c0,0.1,0,0.3,0,0.4c-0.1,0.2-0.2,0.3-0.3,0.6C88-21.1,88.3-21.4,88.6-21.6z M91-21.5c-0.1-0.5,0.1-0.6,0.5-0.6
		C91.6-21.7,91.4-21.5,91-21.5z M91-23.6c0.4,0.6,0.4,0.6-0.1,1.1C90.6-23,90.5-23.4,91-23.6z M89.7-20.5c0.2-0.3,0.3-0.6,0.5-0.9
		C90.7-20.8,90.1-20.7,89.7-20.5z M89.8-25c0.1,0.6,0.1,0.9,0.1,1.3C89.2-24.3,89.2-24.3,89.8-25z M88.8-22.9
		c-0.3-0.3-0.6-0.5-0.9-0.8c0.3-0.2,0.5-0.3,0.8-0.5C89.1-23.7,89.3-23.4,88.8-22.9z M88-25.5c0.4,0.6,0.4,0.6-0.3,1.1
		C87.3-25,87.3-25,88-25.5z M87.5-22.5c0,0,0.1,0,0.2,0c0,0.2-0.1,0.3-0.1,0.5c-0.1,0-0.2,0-0.3-0.1C87.3-22.2,87.4-22.4,87.5-22.5z
		 M86.3-26.1c0.1,0.4,0.2,0.6,0.3,0.9C86.2-25.5,86.2-25.5,86.3-26.1z M85.4-25.6c0.3,0.4,0.5,0.7,0.3,1.2
		C85.3-24.8,85-25,85.4-25.6z M83.9-25.8c-0.5-0.3-0.5-0.7-0.6-1.2C83.9-26.7,84-26.4,83.9-25.8z M82.8-26.1
		c-0.4-0.2-0.5-0.7-0.6-1.1C82.9-27,82.8-26.5,82.8-26.1z M82.1-18.6c0,0,0.1,0.1,0.2,0.1c-0.1,0.2-0.2,0.4-0.3,0.5c0,0-0.1,0-0.2,0
		c0-0.1-0.1-0.1-0.1-0.2C81.8-18.3,81.9-18.4,82.1-18.6z M80.3-28.2c0.1,0.2,0.2,0.4,0.4,0.7c-0.1,0-0.2,0.1-0.2,0.1
		c-0.1-0.2-0.2-0.5-0.3-0.7C80.1-28.1,80.2-28.1,80.3-28.2z M80.2-18.1c0.1-0.4,0.1-0.6,0.2-1C80.8-18.5,80.8-18.5,80.2-18.1z
		 M79.8-20.1c0.2,0.3,0.1,0.5-0.2,0.6c-0.1,0-0.3-0.1-0.3-0.2C79.2-20,79.4-20.1,79.8-20.1z M78.7-17.1c-0.3-0.5-0.2-0.8,0-1.2l0,0
		l0,0c0.2-0.1,0.3-0.2,0.6-0.4c0,0.2,0,0.4,0,0.6c-0.2-0.1-0.4-0.1-0.6-0.2l0,0l0,0C78.7-17.9,79.1-17.6,78.7-17.1z M78.3-20.6
		c0.2-0.5,0.2-0.5,0.8-0.6c0,0.3-0.1,0.5-0.1,0.8C78.7-20.5,78.5-20.6,78.3-20.6L78.3-20.6L78.3-20.6c0,0.2,0,0.4,0.1,0.6
		c-0.1,0-0.1,0-0.2,0.1c-0.1-0.2-0.2-0.3-0.4-0.6C78-20.5,78.1-20.6,78.3-20.6L78.3-20.6L78.3-20.6z M77.9-18.8
		c-0.1,0.6-0.3,1-1.1,1C77-18.5,77.5-18.7,77.9-18.8z M77.6-24.9c0.1,0.1,0.2,0.2,0.3,0.3c-0.1,0.1-0.2,0.2-0.3,0.2
		s-0.2-0.1-0.2-0.2C77.4-24.7,77.5-24.8,77.6-24.9z M77.5-20.1c0.4,0.7,0.1,0.8-0.5,1.1C77.3-19.4,77.3-19.6,77.5-20.1z M76.5-21.5
		c0.2,0.7,0.1,1.3-0.5,1.7c-0.6,0.4-1.1,0.9-1.6,1.4c0.3-0.2,0.6-0.3,0.9-0.5c0.6-0.3,1.1-0.7,1.7-1.1c0,0.9-0.3,1.5-0.9,2.1
		c-0.5,0.4-1,1-1.5,1.4c-0.1-0.1-0.2-0.3-0.5-0.6c-0.2,0.6-0.4,1.1-0.6,1.6c-0.1,0-0.2,0-0.2,0c-0.1-0.5-0.1-1-0.2-1.4
		c0.4-0.5,0.8-0.9,1.2-1.4c-0.7,0.5-1.4,1-2.2,1.5c-0.4-0.3-0.3-0.6,0-1c0.4-0.4,0.8-0.9,1.2-1.3c0.5-0.2,1-0.5,1.2-1.1
		c-0.4,0.4-0.8,0.7-1.2,1.1c-0.8,0.2-1.1,0.9-1.7,1.4c-0.3,0.3-0.7,0.5-1.2,0.9c0,0.1-0.2,0.5-0.4,1c-0.2-1,0-1.6,0.5-2.3
		c1.3-1.6,3-2.9,4.7-4c0.1,0,0.1,0,0.3,0c0.1,0.5-0.1,0.9-0.4,1.3c-0.2,0.2-0.4,0.5-0.6,0.7c0.3,0.1,0.6,0.2,1,0.4
		C75.8-20.5,75.6-21.3,76.5-21.5z M74.3-14.6c0-0.2,0-0.4,0.1-0.5c0.1-0.1,0.2-0.3,0.5-0.5C74.9-15,74.8-14.7,74.3-14.6z M73.6-14.8
		c-0.1,0.3-0.3,0.5-0.4,0.8C73-14.6,73-14.6,73.6-14.8z M71.1-14.8c0,0.2-0.1,0.3-0.1,0.5c-0.1,0-0.1,0-0.2,0c0-0.2,0.1-0.3,0.1-0.5
		C70.9-14.8,71-14.8,71.1-14.8z M75.1-22.7c-0.1-0.8-0.1-0.8,0.7-0.9C75.6-23.2,75.4-23,75.1-22.7z M75.2-28.7
		c0.1,0.4,0.2,0.6,0.3,1C75-28,74.9-28.2,75.2-28.7z M74.6-26.6c0.2,0.3,0.3,0.5,0.3,0.6s-0.2,0.2-0.3,0.2c-0.1-0.1-0.1-0.2-0.2-0.4
		C74.4-26.3,74.5-26.4,74.6-26.6z M74.7-24.6c-0.3,0.3-0.5,0.5-0.7,0.7C73.9-24.5,74.1-24.7,74.7-24.6z M74.4-28.6
		c-0.5,0.2-0.6-0.1-0.8-0.5C74-29.2,74.3-29.1,74.4-28.6z M71.9-29c0-0.2,0-0.4-0.1-0.7C72.2-29.4,72.2-29.4,71.9-29z M72.3-27.3
		c0.2,0.4,0.1,0.7-0.1,1.2C71.4-26.5,71.4-26.6,72.3-27.3z M71.3-30.6c0.2,0.5,0.2,0.9-0.1,1.4C70.8-30.1,70.8-30.1,71.3-30.6z
		 M71.2-27.4c-0.8,0.8-1.7,0.5-2.4,0.6C69.4-27.2,70.2-27.5,71.2-27.4z M67.3-28.3c0.8-0.3,1.6-0.7,2.6-0.6
		C69.1-28,68.3-27.9,67.3-28.3z M67.4-26.3c-0.2,0.1-0.4,0.3-0.6,0.4c-0.1-0.1-0.1-0.2-0.2-0.2c0.2-0.1,0.4-0.2,0.7-0.4
		C67.4-26.4,67.4-26.4,67.4-26.3z M68.6-32.6c0,0.1,0,0.2,0,0.3c-0.2,0-0.4-0.1-0.6-0.1c0-0.1,0-0.1,0-0.2
		C68.2-32.6,68.4-32.6,68.6-32.6z M68.1-38.4c0.4-0.4,0.7-0.6,0.9-0.8C69.2-38.4,69.2-38.4,68.1-38.4z M69.1-27.6
		c-0.5,0.1-0.8,0.5-1.6,0.3C68.1-27.6,68.6-27.7,69.1-27.6z M68.7-29.9c0.6-0.3,0.6-0.3,1.5,0C70-29.2,69.4-29.2,68.7-29.9z
		 M69.4-40.7c0.4,0.2,0.4,0.4,0.1,0.6c-0.4,0.2-0.8,0.4-1.4,0.7c-0.1-0.3-0.1-0.5-0.2-0.7c0.3,0,0.6,0.1,0.8,0
		C69.1-40.2,69.3-40.5,69.4-40.7z M62.1-36.2c0,0-0.1-0.1-0.1-0.2c0.3-0.2,0.6-0.4,0.9-0.6c0,0.1,0.1,0.1,0.1,0.2
		C62.7-36.6,62.4-36.4,62.1-36.2z M64.3-36.2c0.4,0,0.6,0,0.9,0c0-0.3,0-0.6-0.1-0.9c-0.4,0.1-0.6,0.2-1,0.3c-0.4-0.6-0.8-1.2-1.3-2
		c0.5-0.2,0.9-0.7,1.6,0.1c0.1-0.5,0.1-0.7,0.2-1c-0.3-0.1-0.6-0.1-1-0.2c0.1-0.4,0.3-0.8,0.7-1.1c0.3,0.1,0.6,0.3,0.9,0.4
		c0.5-0.6,0-0.8-0.6-1.1c0.5-0.2,0.8-0.3,1.1-0.4c0.7,0.4,0.1,1.3,0.8,1.6c0.4,0,0.5-0.3,0.4-0.6c-0.3-0.4,0.1-0.8,0.1-1.1
		c0-0.1,0.3-0.2,0.5-0.4c0,0.4,0,0.7,0,1.1c0.3,0,0.5-0.1,0.7-0.1l0,0l0,0c0.1-0.2,0.1-0.4,0.2-0.7c0.2,0.1,0.4,0.1,0.6,0.2
		c0,0.6-0.4,0.5-0.7,0.5l0,0l0,0c0,0.2,0,0.4,0,0.7c-0.3,0-0.5-0.1-0.8-0.1c-0.1,0.7-0.4,1.4,0.3,2c-0.1,0.2-0.3,0.4-0.4,0.6
		c0,0.2,0.1,0.4,0.1,0.7c-0.5,0.1-0.9,0.1-1.3,0.1c-0.4,0-0.5,0.3-0.3,0.7c0.2,0,0.5,0,1,0.1c-0.4,0.4-0.7,0.8-1.1,1
		c-0.3,0.2-0.7,0.1-1,0.1C64.6-35.7,64.5-35.9,64.3-36.2z M48.2-25.3c0.8-0.7,1.6-1.3,2.4-1.9c0.4-0.3,0.8-0.5,1.1-0.8
		c0.5-0.4,1.3-0.7,1.9-0.8c1.8-0.4,3.6-0.8,5.5-1.1C59.5-30,60-30,60.4-30c1.2-0.2,2.3-0.3,3.5-0.5c0.3,0,0.5,0,0.8,0
		c0.8,0.2,1.7,0.4,2.6,0.6c-0.1,0.1-0.2,0.2-0.4,0.3C66-29.3,65-29,64.1-28.7c-0.1,0.1-0.3,0.1-0.4,0.3c1.2-0.1,2.3-0.6,3.6-0.9
		c-0.3,0.7-0.8,0.6-1.2,0.7c-0.5,0.2-1,0.3-1.5,0.5c-0.4,0.2-0.9,0.4-1.3,0.6c0.1,0.3,0.2,0.4,0.4,0.7c-0.7,0.9-1.8,1.4-2.4,2.4
		c0.7-0.5,1.4-1,2.1-1.5c0.3-0.2,0.5-0.4,0.8-0.5c0.3-0.2,0.5,0,0.6,0.2c-1.1,1.1-2.1,2.3-3.2,3.4c0.6-0.1,1-0.5,1.4-0.9
		c0.7-0.6,1.3-1.2,2-1.8c0.4-0.3,0.8-0.4,1.2,0.1c-0.4,0.5-0.8,1-1.3,1.5c-0.7,0.2-1.1,0.6-1.2,1.3c0.4-0.4,0.8-0.9,1.2-1.3
		c0.3-0.2,0.6-0.3,0.8-0.5c0.5-0.4,0.9-0.9,1.6-0.9c0.1,0,0.3-0.1,0.4-0.2c0.5-0.6,1.2-0.6,1.9-0.8c-0.2,0.2-0.4,0.4-0.7,0.6
		c-2,1.3-3.6,3-5.3,4.7c-0.3,0.3-0.4,0.6-0.7,1c0.2-0.2,0.4-0.3,0.6-0.5c1.3-1.2,2.7-2.4,4-3.7c0.7-0.6,1.6-0.7,2.3-1.2
		c0.2,0.1,0.4,0.2,0.7,0.4c-0.8,0.7-1.5,1.3-2.2,2c1-0.6,2-1.2,3-1.8c0.2,0.3,0.3,0.5,0.5,0.8c0.4-0.7,0.9-1.3,1.6-1.7
		c0.3,0.6,0.1,1-0.3,1.3c-0.5,0.3-1,0.6-1.5,1c-0.3,0.2-0.5,0.5-0.7,0.7c-0.5,0.1-0.9,0.3-1,0.9c0.3-0.3,0.6-0.6,1-0.9l0,0
		c0.7-0.3,1.4-0.7,2.2-1.1c0,0.6-0.2,1-0.6,1.3c-0.3,0.3-0.5,0.6-0.7,0.9c0.8-0.6,1.6-1.2,2.6-1.9c0.2,0.9,0,1.5-0.7,1.9
		c-1.4,1-2.7,2-3.8,3.4c-0.3,0.3-0.6,0.6-0.8,1c-0.4,0.8-1,1.2-1.8,1.3c-0.2,0-0.4,0.1-0.6,0.2c0.3-0.9,0.7-1.6,1.2-2.3
		c0.7-0.7,1.4-1.4,2.1-2.1c0.2-0.3,0.4-0.6,0.6-0.8c-1.4,1-2.6,2.2-3.6,3.6c-0.7,0.9-0.9,1-2.4,1.3c0.2-0.7,0.5-1.3,0.9-1.8
		c0.8-0.9,1.7-1.8,2.5-2.7c0.2-0.2,0.3-0.3,0.5-0.5c-0.5,0.3-1,0.6-1.4,1c-1,1-2,2.1-3,3.2c-0.4,0.4-0.8,0.5-1.4,0.6
		c0.3-1.1,0.8-1.9,1.4-2.7c0.3-0.4,0.7-0.8,1-1.1c0.1-0.2,0.2-0.4,0.3-0.6c0.9-0.3,1.3-1.2,2-1.7c-0.9,0.3-1.5,0.9-2,1.7l0,0
		c-1.6,1.2-2.7,2.7-3.7,4.4c0.1-0.2,0.2-0.5,0.2-0.7s0.1-0.5,0.1-0.6c-0.6-0.5-0.2-1-0.1-1.5c-0.5,0.6-0.9,1.2-1.5,2.1
		c0.1-0.6,0.2-0.9,0.2-1.5c-0.3,0.2-0.6,0.2-0.6,0.3c-0.2,0.4-0.3,0.8-0.4,1.2c-0.3,0.9-0.4,1-1.6,1.1c0.6-0.9,1.3-1.6,1.5-2.7
		c-0.2,0.3-0.4,0.5-0.7,0.9c-0.2-0.4-0.4-0.7-0.6-1c0.2-0.4,0.4-0.7,0.6-1c-0.4,0.5-0.8,1-1.3,1.5c-0.4,0.4-0.6,1-1.2,1.3
		c-0.1-0.1-0.2-0.3-0.1-0.3c0.5-0.5,0.1-1.2,0.3-1.8c0.3-0.5,0.6-1.1,1-1.6c0.8-0.6,1.4-1.3,2-2.1c-0.7,0.4-1.5,1.2-2,2.2
		c-0.3,0.3-0.5,0.5-0.8,0.8c-0.3,0.4-0.6,0.8-0.9,1.1c-0.5,0.6-0.7,0.6-1.6,0.2c0.1-0.4,0.3-0.7,0.4-1.1c-0.5,0.3-1,0.7-1.5,1.1
		c-0.2-0.1-0.4-0.2-0.6-0.3c0-0.3,0-0.5,0-0.8c-0.2,0-0.3,0-0.5,0l0,0l0,0c-0.1,0.3-0.2,0.5-0.3,0.8c-0.2-0.4,0-0.6,0.3-0.8
		c0,0,0,0,0-0.1l0,0c0.6-1.4,1.8-2.4,2.9-3.4c0.4-0.4,0.9-0.7,1.5-1.2c-0.5-0.2-0.7,0-0.9,0.2c-1.5,1.1-2.6,2.5-3.7,4
		c-0.3,0.4-0.5,0.9-1.1,1.1c-0.2-1.2,0.5-1.9,1.1-2.7c0.5-0.6,1.1-1,1.6-1.6c0.3-0.3,0.5-0.5,0.7-1c-0.2,0.1-0.4,0.2-0.5,0.3
		c-1,0.9-2,1.9-3,2.8c-0.2,0.2-0.2,0.4-0.3,0.6c-0.1,0.4-0.2,0.8-0.3,1.1c-1.1,0-1.2-0.1-1-1c0.1-0.5,0.3-1,0.3-1.6
		c-0.7,0.5-0.6,1.4-1.1,2.1c-0.2-0.1-0.5-0.2-0.7-0.4c0-1.1,0.6-2.1,0.8-3.5c-0.3,0.2-0.5,0.3-0.6,0.4c-0.2,0.5-0.3,1-0.4,1.5
		c-0.1,0.4-0.1,1-0.5,1.3c-0.3-0.6-0.2-0.7,0.4-1.8c-0.1-0.1-0.2-0.3-0.3-0.4c-0.1-0.1-0.2-0.2-0.4-0.3C47-23.9,47.5-24.7,48.2-25.3
		z M67.5-15c-1,0.4-1.8,1.1-3,0.9C65.3-15.1,66.5-14.8,67.5-15z M65.9-15.7c-0.3,0.2-0.6,0.4-0.8,0.5C65.1-15.8,65.3-15.9,65.9-15.7
		z M68.6-14.6c-0.5,0.4-0.9,0.7-1.5,0.5C67.5-14.5,67.9-14.6,68.6-14.6z M64.2-14.8c-0.8,0.5-1.5,1.2-2.5,0.4
		C62.5-14.6,63.2-15.4,64.2-14.8z M61.5-14.8c0.4-0.5,1.5-1,2.4-1.1C63.1-15.3,62.4-15.1,61.5-14.8z M60.2-15.4
		c0-0.1-0.1-0.1-0.1-0.2c0.2-0.1,0.4-0.1,0.5-0.2c0,0.1,0.1,0.1,0.1,0.2C60.5-15.6,60.3-15.5,60.2-15.4z M60.6-14.6
		c-0.1,0.1-0.2,0.2-0.3,0.3c-0.1-0.2-0.1-0.3-0.1-0.3c0.1-0.1,0.2-0.2,0.3-0.2C60.5-14.7,60.6-14.6,60.6-14.6z M58.8-14.7
		c-0.3,0.2-0.3,0.2-0.8-0.3c0.4-0.2,0.7-0.4,1.1-0.6C59.5-15,59.1-14.9,58.8-14.7z M57.1-15.6c-0.1,0.2-0.1,0.3-0.2,0.5
		c-0.1-0.1-0.2-0.1-0.3-0.2c0.1-0.2,0.2-0.3,0.3-0.5C57-15.7,57.1-15.6,57.1-15.6z M54.2-17.6c0.3-0.2,0.6-0.5,1-0.3
		C55-17.4,54.6-17.4,54.2-17.6z M54.4-15.3c-0.2,0.1-0.3,0.2-0.5,0.3c0-0.1-0.1-0.1-0.1-0.2c0.1-0.1,0.3-0.2,0.4-0.3
		C54.3-15.4,54.4-15.4,54.4-15.3z M52.6-15.5c-0.2,0.1-0.3,0.3-0.3,0.2c-0.1,0-0.2-0.1-0.3-0.2c0.1-0.1,0.2-0.3,0.2-0.2
		C52.3-15.7,52.4-15.6,52.6-15.5z M51.8-17.9c-0.2,0.1-0.3,0.2-0.4,0.2l-0.2-0.2c0-0.1,0.1-0.2,0.2-0.2C51.6-18.1,51.7-18,51.8-17.9
		z M51.2-16c-0.3,0.2-0.5,0.4-0.8,0.6C50.3-16,50.3-16,51.2-16z M46.3-18.9c0.1,0.1,0.1,0.3,0.1,0.4c-0.1,0-0.2,0.1-0.2,0.1
		c-0.1-0.1-0.3-0.2-0.5-0.5C46-18.9,46.2-19,46.3-18.9z M45.6-16.1c0.1,0.1,0.3,0.2,0.4,0.3c0,0.1-0.1,0.1-0.1,0.2
		c-0.1-0.1-0.3-0.2-0.4-0.2C45.5-15.9,45.6-16,45.6-16.1z M44.2-14.6c-0.7-0.1-1.3-0.2-2-0.3V-15c0.7,0.1,1.3,0.2,2,0.3
		C44.3-14.8,44.3-14.7,44.2-14.6z M69.1-10.4c-1.7,0.1-3.5,0.3-5.2,0.2c-2.2-0.2-4.4-0.2-6.6-0.4c-0.4,0-0.9-0.1-1.3-0.2
		c-0.3,0-0.6-0.1-0.8-0.1c-1.9,0.3-3.7-0.3-5.5-0.5c-0.8-0.1-1.6-0.2-2.5-0.4c-0.5-0.1-0.9-0.2-1.2-0.7c0.4-0.6,0.9-0.9,1.7-0.8
		c1.4,0.2,2.8,0.3,4.3,0.2c0.5,0,1,0.1,1.7,0.2c-0.6-0.6-1.2-0.7-1.8-0.7c-2.1-0.3-4.2-0.6-6.2-0.8c-0.1,0-0.3-0.1-0.6-0.2
		c0.5-0.2,0.9-0.3,1.3-0.2c2.5,0.4,5.1,0.8,7.6,1.1c1.5,0.2,3,0.2,4.5,0.3c0.5,0,1,0.1,1.5,0.2c0.8,0.1,1.7,0.1,2.5,0.2
		c1.2,0,2.5,0.1,3.7,0.1c0.3,0,0.6,0.1,0.7,0.6c-1.3-0.1-2.6-0.1-3.9-0.2c-1,0-1.9-0.1-2.9,0.2c0.3,0.2,0.7,0.4,1,0.4
		c2.1,0.2,4.2,0.4,6.4,0.5c0.4,0,0.7-0.1,1.1,0c0.4,0,0.9,0.1,1,0.7C69.4-10.6,69.3-10.4,69.1-10.4z M69.9-8.8L69.9-8.8
		c0.3-0.1,0.7-0.1,1-0.1c0,0,0,0,0,0.1C70.6-8.8,70.3-8.8,69.9-8.8z M73.2-7.7c0-0.1,0-0.1,0-0.2c0.3,0,0.6,0,0.9,0
		c0,0.1,0,0.1,0,0.2C73.8-7.8,73.5-7.7,73.2-7.7z M73.5-9.1c0.5,0,1,0,1.5,0c0,0,0,0,0,0.1C74.5-9,74-9,73.5-9.1
		C73.5-9,73.5-9.1,73.5-9.1z M73.2-6.2c0.6-0.8,1-0.8,2.6-0.4C74.9-6.1,74.1-6.4,73.2-6.2z M72-12.4c-1.2-0.1-2.4,0-3.6,0
		c-0.3,0-0.5-0.1-0.8-0.1c0.3-0.5,0.6-0.4,1-0.4c1.3,0,2.5,0.1,3.8,0.1c2.2,0,4.4-0.1,6.6-0.2c1.3,0,2.7,0,4,0c0.9,0,1.8,0,2.7,0
		c0.3,0,0.5,0,0.8,0c0,0.1,0,0.2,0,0.2c-0.6,0-1.2,0-1.7,0c-1.6-0.1-3.2,0-4.8,0.4c-0.2,0.1-0.5,0-0.7,0
		C76.9-12.3,74.5-12.2,72-12.4z M76.3-8.1c0.6,0,1.1,0,1.7,0C77.1-7.5,77.1-7.5,76.3-8.1z M77.2-6.6c0.7-0.5,1.5-0.5,2.5-0.6
		C79-6.1,78-6.8,77.2-6.6z M77.7-5.2L77.7-5.2C77.8-5.2,77.8-5.2,77.7-5.2c0.7-0.4,1.4-0.8,2.2-0.6c-0.3,0.5-0.6,0.6-1.1,0.6
		C78.5-5.2,78.2-5.2,77.7-5.2C77.8-5.2,77.8-5.2,77.7-5.2C77.8-5.2,77.7-5.2,77.7-5.2c-0.1,0.5-0.1,0.5-0.8,0.6
		C77.3-4.8,77.5-5,77.7-5.2z M77.6-0.5C76.7,0.1,75.9-0.1,75,0C75.5-0.5,76-0.6,77.6-0.5z M76.8,1c-0.3,0.4-0.7,0.5-1.2,0.4
		C75.9,0.8,76.4,1.1,76.8,1z M74.1-2.9c0.6-0.5,1.1-0.5,1.7-0.2C75.2-2.7,74.8-2.7,74.1-2.9z M74.4-1.8c0.5,0,0.8,0,1.2,0
		C74.9-1.4,74.9-1.4,74.4-1.8z M72.8,4.1L72.8,4.1C72.9,4.1,72.9,4.1,72.8,4.1C73.2,4,73.6,4,73.9,3.9C73.6,4.3,73.2,4.4,72.8,4.1
		C72.9,4.1,72.8,4.1,72.8,4.1L72.8,4.1c-0.2,0-0.5,0.1-0.8,0.1C72.3,3.8,72.3,3.7,72.8,4.1z M71.5,9.3L71.5,9.3
		c0.1,0.6,0.1,1.1,0.1,1.7h-0.1C71.5,10.5,71.5,9.9,71.5,9.3z M69.8,4.9C70.5,5.3,70,5.8,70,6.3C70,5.8,69.5,5.4,69.8,4.9z
		 M70.8,21.3c0.2,0,0.4-0.2,0.5-0.3c0.1-0.6,0.7-0.8,1-1.3c-0.4-1.1-0.6-2.4-0.4-3.7c0.2-0.1,0.5-0.2,0.9-0.4
		c-0.3-0.3-0.6-0.5-0.9-0.7c0.2-0.3,0.4-0.6,0.6-0.9c-0.2-0.2-0.3-0.4-0.6-0.7c0.7-0.1,1.2-0.3,1.7-0.3c2.1-0.1,4.2-0.1,6.3-0.2
		c0.4,0,0.9-0.1,1.3-0.2c0.4,0,0.9,0,1.4,0c0.2,1.3,0.2,2.6,0.2,4c-2.5-0.3-4.9-0.4-7.4,0c0.2,0.1,0.5,0.2,0.7,0.2
		c1.2,0,2.5,0,3.7,0c1,0,2,0,3.2,0.6c-0.5,0.2-0.8,0.3-1.1,0.4c0,0.7,0.5,0.7,0.9,0.9c-0.2,0.1-0.4,0.3-0.6,0.4
		c0.1,0.2,0.2,0.4,0.3,0.5c0.6,0.7,0.6,0.8-0.2,1.3c-0.3,0.2-0.6,0.4-1,0.8c0.5,0.3,0.8,0.5,1.2,0.7c-0.7,0.3-1.2-0.1-1.8-0.2
		c-0.7-0.1-1.1,0.4-1.7,0.1c0,0.1,0,0.2,0,0.3c0.4,0.4,0.7,0.7,1.1,1.2c0.3-0.2,0.5-0.4,0.8-0.6c0,0,0.1,0.1,0.2,0.2
		c0.3,0.7,0.3,0.8,1,0.7c0.4-0.1,0.9-0.2,1.4-0.2c0,0.2,0,0.3-0.1,0.3c-1.1,0.2-2.1,0.7-3.2,0.5c-0.6-0.1-1.2,0-1.8,0
		c-1.1,0.1-2.3,0.2-3.4,0.3c-0.6,0.1-0.9-0.2-0.9-0.9c0-0.2-0.1-0.5-0.2-0.6c-0.2-0.1-0.5,0-0.8,0c0.1,0.5,0.2,1,0.2,1.5
		c-2.2,0.4-4.4,0.3-6.6,0.2c-0.1-1,0.9-1.3,1-2.2c-0.2,0-0.4-0.2-0.5-0.1c-0.4,0.2-1,0.4-1.1,1C66,24.2,66,24.6,66,25
		c0,0.1-0.2,0.2-0.4,0.3c0-0.6,0.1-1.1,0.1-1.7c-0.3-0.1-0.5-0.1-0.8-0.2c-0.1,0.6-0.1,1.1-0.2,1.6c-0.8,0.1-0.8,0.1-1.1-0.8
		c-0.4-0.2-0.8-0.4-1.2-0.6c-0.3-0.1-0.6-0.1-0.8,0.4c0.3,0.2,0.6,0.3,0.9,0.5c-0.7,0.4-1.3,0.8-2.2,0.4c-0.2-0.1-0.5,0-0.8,0
		s-0.7-0.1-1-0.1c-0.2,0-0.3-0.1-0.4-0.1c-0.7,0.3-1.3,0-2-0.1c-0.7-0.1-1.5-0.3-2.2-0.2c-0.3,0.1-0.6,0-0.8-0.5
		c0.3,0.1,0.6,0.2,0.9,0.3c0.1-0.3,0.2-0.6,0.4-0.9c1.4-0.4,1.4-0.4,1.1-1.2c-0.2,0-0.4,0.1-0.7,0.1c-0.2-0.2-0.5-0.5-0.7-0.8
		c0.6-1.3,1-1.6,2.7-1.4c0.1-0.4-0.1-0.6-0.4-0.6c-0.8-0.1-1.6,0.1-2.2,0.8c-0.2,0.2-0.4,0.4-0.7,0.7c-0.1-0.4-0.2-0.6-0.2-0.8
		c0.8-0.5,1.5-0.9,2.2-1.3c0.1,0,0.1-0.1,0.2-0.1c1.3,0,2.7-0.4,4.1,0.3c-0.1,0.2-0.2,0.4-0.4,0.6c0.1,0.1,0.3,0.3,0.5,0.5
		c0.2-0.4,0.4-0.8,0.7-1c0.2-0.3,0.6-0.5,1-0.8c-1-0.4-1.9,0-2.8-0.1S57,18.1,56.1,18c-0.9-0.1-1.7-0.3-2.6-0.7
		c0.2-0.1,0.4-0.2,0.6-0.2c0.7,0,1.3,0,2,0c0.4,0,0.9,0.1,1.2-0.5c-1.1-0.4-2.4,0.1-3.7-0.4c0.8-0.5,1.5-0.2,2.1-0.2
		c0.6-0.1,1.3,0,1.9-0.1c-1.1-0.5-2.3-0.2-3.6-0.6c1.3-0.3,2.3-0.4,3.4-0.2c0.5,0.1,0.9,0.1,1.3-0.3c-1.6-0.1-3.2-0.2-4.8-0.3
		c0-0.1,0-0.1,0-0.2c0.2-0.1,0.4-0.2,0.6-0.2c0.5,0,0.9,0,1.4,0c0.2,0,0.6,0,0.7-0.1c0.7-0.7,1.6-0.4,2.5-0.5c0.7,0,1.4,0,2.1-0.1
		c-1.2-0.1-2.5-0.2-3.9-0.4c1.2-0.6,2.3-0.3,3.3-0.1c0.5,0.1,1,0.2,1.5,0.2c2.1,0,4.3,0,6.5,0.1c-0.8,0.2-1,0.8-1,1.5
		c0,0.6,0.1,1.2,0.1,1.8c0,0.7,0.1,1.5-1,1.6c0.3,0.5,0.5,0.8,0.7,1.1c-0.8-0.2-1.7,0-2.4-0.7c-0.2-0.2-0.6-0.3-0.9-0.3
		c-0.6,0-1.2,0-2,0.1c0.5,0.2,1.1,0.3,1.1,0.5c0.2,0.8,0.6,0.6,1.1,0.5c0.1,0,0.3,0,0.4,0.1c0.7,0.3,1.3,0.5,2,0.8
		c0.2,0.1,0.4,0.3,0.5,0.5C68.1,21.5,69.5,21.4,70.8,21.3z M79.9,74.8c0.1,0.1,0.1,0.1,0.2,0.2c-0.1,0.1-0.2,0.3-0.3,0.4
		c-0.1-0.1-0.2-0.1-0.2-0.2C79.7,75.1,79.8,75,79.9,74.8z M79.8,70c0.1,0,0.2,0.1,0.3,0.1c-0.1,0.3-0.3,0.6-0.4,1
		C79.3,70.5,79.4,70.2,79.8,70z M79.4,67.1c0.2-0.3,0.3-0.4,0.5-0.7c0.2,0.3,0.3,0.4,0.5,0.8C79.9,67.1,79.7,67.1,79.4,67.1z
		 M83,30.2c0.1,0,0.1,0.1,0.2,0.1c-0.2,0.3-0.4,0.6-0.7,1C82.3,30.6,82.7,30.5,83,30.2z M82.8,29.6c0.2-0.2,0.3-0.5,0.6-0.8
		c0,0.2,0.1,0.3,0.1,0.4c-0.2,0.2-0.3,0.4-0.5,0.6C82.8,29.6,82.8,29.6,82.8,29.6z M83.1,41.4c-0.2,0.3-0.4,0.6-0.6,0.9
		c-0.1,0-0.2-0.1-0.3-0.1c0-0.2-0.1-0.6,0.1-0.7C82.4,41.4,82.7,41.3,83.1,41.4z M83.1,60.2c-0.1,0-0.2-0.1-0.3-0.1
		c0.1-0.2,0.1-0.4,0.2-0.5h0.2C83.2,59.8,83.1,60,83.1,60.2z M83.3,64.7c-0.1,0.2-0.1,0.3-0.2,0.5c-0.1,0-0.1-0.1-0.2-0.1
		c0.1-0.2,0.1-0.3,0.2-0.5C83.2,64.7,83.2,64.7,83.3,64.7z M79.4,58.4c0.2-0.3,0.5-0.6,0.8-0.9c0.1,0,0.1,0.1,0.2,0.1
		C80.2,58,80,58.4,79.7,59C79.5,58.8,79.3,58.5,79.4,58.4z M79.3,51.4c0.2-0.6,0.7-0.7,1.1-1.1c0.3,0.4,0,0.7-0.2,0.9
		C80,51.5,79.7,51.6,79.3,51.4z M80.4,60.9c0-0.1-0.1-0.1-0.1-0.2c0.1-0.1,0.2-0.2,0.3-0.4c0.1,0.1,0.1,0.1,0.2,0.2
		C80.6,60.7,80.5,60.8,80.4,60.9z M80.7,64.7c-0.1,0.2-0.2,0.4-0.3,0.5c-0.1,0-0.1-0.1-0.2-0.1c0.1-0.2,0.2-0.4,0.2-0.6
		C80.5,64.6,80.6,64.7,80.7,64.7z M80.2,53.1c0.2-0.4,0.3-1,1-0.9C80.9,52.8,80.9,52.8,80.2,53.1z M80.6,48.9c0-0.6,0.2-0.7,0.7-0.8
		C81,48.4,80.9,48.6,80.6,48.9z M81.6,48.6L81.6,48.6c0,0.2,0,0.4-0.1,0.5c-0.1,0.1-0.2,0.2-0.3,0.3l-0.1-0.1
		C81.2,49,81.4,48.8,81.6,48.6z M81.8,65.7c0.1,0.7-0.4,1-0.8,1.5C80.8,66.4,81.2,66.1,81.8,65.7z M81.2,61c0.1-0.1,0.2-0.2,0.3-0.3
		l0.1,0.1c-0.1,0.1-0.2,0.2-0.3,0.4C81.3,61,81.3,61,81.2,61z M81.7,70.5c0.5,0.7,0.4,0.8-0.7,1.1C81.3,71.1,81.5,70.8,81.7,70.5z
		 M81.6,51.6c-0.1-0.2-0.2-0.3-0.1-0.4c0.2-0.3,0.5-0.5,0.8-0.2l0,0l0,0c0.2-0.1,0.3-0.3,0.5-0.4c0.3,0.5,0,0.6-0.3,0.7
		c-0.1-0.1-0.1-0.2-0.2-0.3l0,0l0,0C82.1,51.2,81.8,51.4,81.6,51.6z M82,44.5c0-0.1-0.1-0.1-0.1-0.2c0.2-0.1,0.3-0.2,0.5-0.3
		c0,0.1,0.1,0.2,0.1,0.2C82.3,44.3,82.2,44.4,82,44.5z M83,45.9c-0.2,0.5-0.2,0.5-0.8,0.8C82.1,46,82.5,45.9,83,45.9z M82,69.2
		c-0.1-0.6,0.3-0.9,0.6-1.2C83,68.6,82.9,68.8,82,69.2z M82.5,58.5c0-0.5,0-0.5,0.6-0.7C82.9,58.1,82.7,58.3,82.5,58.5z M82.2,53.5
		c-0.2-0.7,0.3-0.9,0.9-1.2C82.8,53.1,82.8,53.1,82.2,53.5z M82.1,40.4c-0.1-0.1-0.2-0.1-0.2-0.2c0.1-0.2,0.3-0.3,0.4-0.5
		c0.1,0,0.1,0.1,0.2,0.1C82.3,40.1,82.2,40.3,82.1,40.4z M81.3,43c0.1-0.3,0.2-0.5,0.4-0.7C82,42.9,82,42.9,81.3,43z M81.3,45.8
		c-0.1,0.2-0.3,0.4-0.4,0.5c-0.1,0-0.1-0.1-0.2-0.1c0.1-0.2,0.3-0.3,0.4-0.5C81.2,45.7,81.3,45.7,81.3,45.8z M80.9,29.7
		c-0.2-0.5-0.2-0.5,0.2-0.9C81,29.2,81,29.4,80.9,29.7z M80.4,28.1l-0.2-0.2c0-0.1,0.1-0.2,0.2-0.2s0.2,0.1,0.4,0.2
		C80.6,27.9,80.6,28,80.4,28.1z M80.6,31.1c0.4,0.4,0.3,0.7-0.2,1C80.1,31.6,80.1,31.3,80.6,31.1z M80.4,45.3c0.1,0,0.2,0.1,0.2,0.1
		c-0.2,0.4-0.4,0.8-0.8,1.4c-0.1-0.4-0.2-0.7-0.1-0.8C80,45.8,80.2,45.6,80.4,45.3z M79.3,38.4c0-0.1-0.1-0.1-0.1-0.2
		c0.2-0.1,0.3-0.2,0.5-0.3c0,0.1,0.1,0.1,0.1,0.2C79.6,38.2,79.5,38.3,79.3,38.4z M79.7,61.8c-0.2,0.2-0.3,0.4-0.5,0.6
		C79.1,61.8,79.1,61.8,79.7,61.8z M80.7,68.2c0.1,0.5-0.1,0.7-0.6,0.8C80.1,68.5,80.3,68.3,80.7,68.2z M81.7,73.4
		C81.7,73.4,81.6,73.4,81.7,73.4C81.6,73.4,81.6,73.4,81.7,73.4c-0.3,0.5-0.9,0-1.2,0.4C80.9,73.2,80.9,73.1,81.7,73.4
		C81.6,73.4,81.6,73.4,81.7,73.4C81.6,73.4,81.6,73.4,81.7,73.4c0.1-0.4,0.1-0.9,0.7-1.1c0.1,0.1,0.3,0.3,0.3,0.5
		c0,0.1-0.2,0.3-0.3,0.4C82.2,73.3,81.9,73.3,81.7,73.4z M82,74.8c-0.1,1.1-0.9,1.2-1.6,1.7C80.6,75.5,81.1,75,82,74.8z M82.6,70.9
		c0.1-0.2,0.1-0.4,0.2-0.6c0.1-0.2,0.2-0.3,0.4-0.6C83.8,70.4,83.7,70.5,82.6,70.9z M82.8,54.8c0.4-0.2,0.6-0.3,0.9-0.4
		c0.1,0.1,0.1,0.2,0.1,0.2C83.3,55.2,83.3,55.2,82.8,54.8z M78.5,46.6c0-0.1-0.1-0.1-0.1-0.2c0.2-0.1,0.3-0.2,0.5-0.3
		c0,0.1,0.1,0.1,0.1,0.2C78.8,46.4,78.6,46.5,78.5,46.6z M78.9,48.3c-0.1,0.4-0.1,0.7-0.2,0.7c-0.1,0.1-0.3,0-0.8,0
		C78.4,48.7,78.5,48.6,78.9,48.3z M77.9,52.6c-0.1,0.1-0.1,0.2-0.2,0.3c-0.1-0.1-0.2-0.2-0.3-0.2c0.1-0.1,0.2-0.1,0.3-0.2
		C77.8,52.5,77.8,52.6,77.9,52.6z M76.2,46.8c0,0-0.2-0.1-0.2-0.2c0.1-0.1,0.2-0.3,0.4-0.6c0.1,0.2,0.2,0.3,0.2,0.4
		C76.4,46.6,76.3,46.8,76.2,46.8z M76.2,54.2c0,0.1-0.2,0.2-0.3,0.4c-0.1-0.2-0.2-0.3-0.2-0.3c0-0.1,0.2-0.2,0.3-0.3
		C76,54,76.2,54.1,76.2,54.2z M71.4,67.8c-0.2,0-0.4-0.1-0.5-0.1v-0.2c0.2,0,0.4,0,0.6,0C71.4,67.5,71.4,67.6,71.4,67.8z M71.4,76.7
		c-0.1,0.1-0.2,0.2-0.3,0.2c-0.1,0-0.2-0.1-0.2-0.2c0.1-0.1,0.2-0.2,0.3-0.3C71.2,76.5,71.3,76.5,71.4,76.7z M70.8,65.8l-0.1-0.1
		c0.2-0.4,0.4-0.7,0.6-1.2c0.2,0.1,0.5,0.2,0.8,0.4c0,0.1,0,0.2-0.1,0.2C71.6,65.3,71.2,65.5,70.8,65.8z M68.6,72
		c0.4-0.4,0.6-0.4,0.9,0.1C69.3,72.1,69,72.1,68.6,72z M68.8,74.6c-0.2-0.4-0.2-0.4,0.2-0.9C69.3,74.2,69.2,74.5,68.8,74.6z
		 M60,33.5c0.6,0.4,0.3,0.6,0.2,0.8l0,0l0,0c0.3-0.1,0.6-0.2,0.9-0.3c-0.4,0.7-0.4,0.7-0.9,0.3l0,0l0,0C60.1,34.1,60.1,33.9,60,33.5
		z M57.8,52.9L57.8,52.9c0.2,0.2,0.3,0.4,0.5,0.7c0.4-0.1,0.9-0.7,1.6-0.3c0,0.1,0.1,0.4,0,0.5c-0.3,0.3-0.6,0.7-1,0.9
		c-0.6,0.3-1.2,0.6-1.5,1.2c0.6-0.4,1.3-0.8,2.1-0.6c0.3,0.3,0.5,0.7,0.2,1c-0.2,0.3-0.7,0.4-1,0.5s-0.7-0.1-1.1,0
		c0.2,0.1,0.5,0.2,0.7,0.3c-0.3,0.3-0.5,0.6-0.7,0.9c0.7-0.3,1.2-0.9,2-0.9c0.2,0.7,0.2,0.7,0,1.3c-0.8,0.6-1.5,1.2-2.3,1.7l0,0
		c0.3-0.1,0.6-0.2,0.9-0.3c0.4-0.2,0.8-0.5,1.4-0.8c0.1,0.7,0.1,1.2,0.2,1.7c-0.8,0.3-1.5,0.2-2.7-0.1c0.1-0.2,0.1-0.3,0.2-0.5l0,0
		l0,0l0,0c-0.6,0.2-1.2,0.5-1.9,0.3c-0.1,0-0.3-0.1-0.5-0.2c0.5-0.9,1.2-1.4,2.2-1.5c0.1-0.2,0.2-0.5,0.2-0.7
		c-0.5,0.2-1,0.3-1.5,0.5l0,0l0,0l0,0c-0.4,0.6-0.8,1-1.5,1.3c-0.2-0.5-0.1-0.8,0-1.3c0.5,0,1,0,1.5,0l0,0c-0.3-0.2-0.6-0.3-1-0.5
		c0.1-0.2,0.2-0.4,0.3-0.7l0,0l0,0c-0.3,0-0.5,0-0.8,0c0.4-0.8,0.4-0.8,1.2-0.6c-0.1,0.2-0.3,0.4-0.4,0.6l0,0l0,0
		c0.5-0.2,1-0.4,1.5-0.7c0.2-0.1,0.4-0.4,0.5-0.7c-0.6,0.1-1.2,0.5-1.8,0c0.1-0.2,0.2-0.3,0.3-0.5c-0.4,0.1-0.7,0.3-1.2,0.5
		c0.2-0.5,0.3-0.9,0.5-1.3c0.3,0,0.6,0,1,0c-0.1,0.3-0.1,0.5-0.2,0.7c0.6-0.4,1.2-0.7,2.1-0.4c-0.7-0.8-1.6-0.5-2.3-0.9
		c0.3-0.4,0.6-0.7,0.8-1.1l0,0l0,0c-0.4,0.3-0.7,0.5-1.1,0.8c-0.5,0.4-0.8,0.2-1.1-0.5c0.4-0.1,0.9-0.3,1.3-0.3c0.3,0,0.6,0,0.9,0
		l0,0l0,0C56.9,53,57.4,53,57.8,52.9L57.8,52.9L57.8,52.9c-0.1-0.1-0.3-0.3-0.4-0.5c0.3-0.3,0.7-0.7,1-1c-0.3,0.2-0.7,0.3-0.9,0.5
		c-0.6,0.6-1.3,0.6-2,0.4c0.7-1.4,1.3-1.7,3.1-1.5c0,0.2,0,0.3-0.1,0.5c0.3-0.1,0.6-0.3,0.9-0.4c0.5,0.1,0.8,0.4,0.7,0.8
		c-0.1,0.5-0.4,1-1,1.1C58.7,52.9,58.2,52.9,57.8,52.9L57.8,52.9z M56.7,79.1c0.9-1,1.8-1.5,3.2-1.1C59,78.8,58.2,79.6,56.7,79.1z
		 M59.2,79.8c-0.3,0.4-0.6,0.3-0.9-0.1C58.6,79.8,58.9,79.8,59.2,79.8z M59.8,77.3c-0.6,0-1,0.1-1.5,0.1c-0.4,0-0.8-0.1-1.4-0.2
		c0.2-0.4,0.4-0.7,0.6-1l0,0l0,0c-0.3,0.2-0.5,0.3-0.8,0.5c-0.8,0.6-0.8,0.6-1.8,0.1c0.5-1.2,1-1.5,2.1-1.2c0.3,0.1,0.4,0.3,0.4,0.6
		l0,0l0,0c0.7-0.4,1.5-0.7,2.2-1.1c0.4,0.3-0.6,0.8,0.1,1.1C59.9,76.6,59.9,76.9,59.8,77.3z M55.3,64.4c0.7-0.9,1.5-0.7,2.4-0.4
		c-0.4,0.6-0.9,0.8-1.5,1c-0.5,0.3-0.9,0.6-1.5,1c-0.1-0.3-0.2-0.7-0.1-0.7C55,65.1,55,64.7,55.3,64.4z M54.6,64
		c0.1-0.4,0.1-0.4,0.8-0.3c-0.2,0.2-0.4,0.5-0.7,0.7C54.6,64.2,54.5,64.1,54.6,64z M57,63.3c0.7-0.8,1.6-0.8,2.6-0.6
		C58.9,63.7,58.1,63.9,57,63.3z M56.1,67.2C55.3,68,55.3,68,54.5,68c0-0.3,0-0.5,0-0.8C55,67.2,55.5,67.2,56.1,67.2z M55.3,68.7
		c0.9,0,1.8,0,2.6,0c0,0.1,0,0.2,0,0.3c-1,0.9-2.1,0.2-3.4,0.3C54.9,69,55.1,68.7,55.3,68.7z M59.5,70.1c-1,0.8-1.9,1.3-3,0.8
		C57.2,69.7,58.2,69.8,59.5,70.1z M57,71.5c-0.8,0.9-1,0.9-2,0.8C55.7,71.2,55.7,71.2,57,71.5z M57.5,73c-0.5,0.9-0.6,0.9-2,0.4
		C56.1,72.6,56.8,73,57.5,73z M56.4,74.4c-0.7,0.1-1.1,0.1-1.7,0.2C55.2,74,55.2,74,56.4,74.4z M57.9,74.2c0.5,0.1,1,0.1,1.6,0.2
		c-1,1.3-2.1,1-3.3,0.8C56.6,74.5,57.1,74.1,57.9,74.2z M56.8,72.5c1-1.1,1.8-1.3,2.8-0.8C58.8,72.6,58,73,56.8,72.5z M59.9,72.5
		c0,0.1,0,0.2,0.1,0.3c-0.2,0-0.3,0.1-0.5,0.1c0-0.1,0-0.2,0-0.3C59.6,72.5,59.8,72.5,59.9,72.5z M58.8,71.2
		c0.5-0.2,0.7-0.4,1.2-0.6C59.8,71.4,59.4,71.3,58.8,71.2z M59.4,69.7c-0.4,0-0.7-0.1-1.2-0.1c0.3-0.6,0.7-0.8,1.2-0.7
		c0.2,0,0.5,0.2,0.5,0.3C59.9,69.5,59.7,69.7,59.4,69.7z M59.7,67.2c-0.2,1.1-0.3,1.2-1.4,1.2c-0.7,0-1.4-0.2-2.2-0.3
		c0.6-1,1.5-0.9,2.4-1c-0.2-0.1-0.4-0.2-0.5-0.2c0.4-0.7,0.7-0.9,1.8-1.1c0,0.3,0.1,0.5,0.1,0.7C59.8,66.7,59.7,66.9,59.7,67.2z
		 M59.2,65.3c-0.3,0.1-0.5,0.2-0.7,0.5c-0.9,1-2.1,1.4-3.5,0.7c0.2-0.2,0.4-0.4,0.6-0.6c0.8-0.5,1.7-1,2.5-1.5
		c0.5-0.3,1-0.4,1.6-0.1C59.9,65,59.9,65.1,59.2,65.3z M58.8,62.2c0.4-0.2,0.6-0.3,0.8-0.4C59.7,62.4,59.7,62.4,58.8,62.2z
		 M55.7,61.9c0.2-0.6,0.6-0.8,1-0.8c0.7,0,1.4,0.1,2.2,0.2C57.8,62.6,56.8,61.9,55.7,61.9z M57.1,62.5c-0.7,0.9-1.5,0.7-2.5,0.5
		C55.2,62,55.5,61.9,57.1,62.5z M54.7,61.7c-0.1-0.3-0.2-0.5-0.3-0.6c0,0,0-0.1,0.1-0.2c0.3,0,0.7,0,1,0.1c0,0.1,0,0.1,0.1,0.2
		C55.3,61.4,55,61.5,54.7,61.7z M56.7,69.8c-1.2,1.4-1.6,1.4-2.2,0C55.2,69.6,55.9,69.8,56.7,69.8z M55.1,75.4
		c-0.2,0.3-0.3,0.5-0.4,0.8C54.6,75.6,54.6,75.6,55.1,75.4z M57.9,73.8c0.4-0.8,1-0.7,1.7-0.6c0.1,0.2,0.2,0.5,0.3,0.9
		C59.2,74.2,58.6,74.2,57.9,73.8z M56.9,34.4c-0.3-0.1-0.6-0.2-0.8-0.3c-0.6-0.1-1-0.4-1.4-0.9c0.1-0.2,0.1-0.5,0.2-0.8
		c0.8,0.2,1.6,0.3,2.3,0.5s1.4,0.4,2.2,0.6c0,0.4,0,0.7-0.1,1.1c-0.6,0.2-1.1,0.2-1.7,0C57.4,34.3,57.1,34.4,56.9,34.4L56.9,34.4
		L56.9,34.4L56.9,34.4c0.1,0.1,0.1,0.3,0.2,0.3c0.4,0.1,0.8,0.1,1.2,0.2c0.3,0.1,0.6,0.2,1,0.3c-0.1,0.5-0.2,0.8-0.2,1.2
		c-0.8,0.2-3.1-0.3-4.5-0.9c-0.2-1,0-1.3,0.9-1.2C56,34.3,56.4,34.3,56.9,34.4L56.9,34.4z M56.4,28c0.5,0.1,1.1,0.2,1.6,0.3
		c0.3,0.1,0.4,0.2,0.3,0.5c0.2-0.1,0.5-0.1,0.8-0.2c-0.1,0.8-0.3,0.9-1.3,0.4c-0.9,0.2-1.6-0.1-2.5-0.4C55.6,28.2,55.8,27.9,56.4,28
		z M55.4,27.3c0.3-0.5,0.6-0.6,1.2-0.5C56.2,27.3,56,27.7,55.4,27.3z M57.3,27c0.3-0.1,0.6,0,0.9,0c0.1,0,0.1,0.3,0.2,0.4
		c0.2-0.1,0.3-0.1,0.6-0.2c0,0.3,0.1,0.5,0.1,0.8c-0.6,0.2-0.9,0.1-1.3-0.3c-0.4,0.2-0.8,0.3-1.2,0.1C56.5,27.1,57,27.1,57.3,27z
		 M56.4,29.4c0.5,0.1,0.9,0.2,1.4,0.3c0.3,0.1,0.4,0.3,0.4,0.6l0,0l0,0c0.2-0.1,0.5-0.3,0.9-0.5c-0.2,0.6-0.4,0.8-0.8,0.8
		c0,0-0.1-0.2-0.2-0.3l0,0l0,0c-0.9,0.6-1.8,0.1-2.7-0.1c-0.3-0.1-0.6-0.4-0.4-0.9C55.5,29.2,56,29.3,56.4,29.4z M55,30.4
		c1.4,0.3,2.7,0.5,4.1,0.7c0.1,0.2,0.3,0.5,0.4,0.8c0.2,0.5-0.2,0.9-0.8,0.9c-0.5,0-0.7-0.5-1.3-0.4c-0.4,0.1-0.8-0.1-1.2-0.3
		c-0.4-0.1-0.9-0.3-1.4-0.5C54.9,31.3,55,30.9,55,30.4z M59.5,48.6c-0.5,0.2-1,0.4-1.5,0.6c-0.1,0.2-0.1,0.5-0.2,0.7
		C58.3,49.5,58.9,49.1,59.5,48.6c0.1,0.1,0.2,0.3,0.2,0.4c0,0.5,0.4,1.1-0.2,1.4c-0.5,0.2-1.1,0.1-1.7,0c0,0-0.1-0.3-0.1-0.5
		c-1.4,0.5-1.6,0.5-3.4-0.1c-0.1-1,0.9-0.6,1.4-1c-0.1-0.1-0.1-0.3-0.2-0.4c-0.2,0-0.5,0-0.7,0.1c-0.4-0.3-0.6-0.7-0.3-1.3
		c0.9,0.1,1.8-0.1,2.6,0.2c0.9,0.4,1.8-0.2,2.6,0.4C59.6,48.1,59.5,48.4,59.5,48.6z M54.3,50.6c0.6,0,1.2,0,1.8,0
		c-0.7,1.2-1,1.5-1.9,1.4c0.1-0.2,0.2-0.4,0.4-0.6C54.4,51.2,54.1,51,54.3,50.6z M55.7,43.6c1.2-1.3,2.5-0.7,3.8-0.3
		c0,0.8-0.1,1-0.6,1c-1-0.1-2-0.3-3-0.4C55.8,43.8,55.7,43.7,55.7,43.6L55.7,43.6L55.7,43.6c-0.3,0-0.5,0.1-0.8,0.1
		c-0.6-0.1-0.7-0.2-0.6-1.1c0.7-0.1,0.7-0.1,1.7,0.2C55.9,43.1,55.8,43.3,55.7,43.6L55.7,43.6z M54.9,45.2c0.8-0.4,1.2-1.2,2-0.5
		c0.8-0.3,1.6-0.1,2.6,0.3c-0.1,0.4-0.1,0.7-0.2,1c-0.2,0.3-0.1,0.7-0.5,1c-0.4,0.2-0.8,0.4-1.2,0.3c-1.1-0.2-2.1-0.4-3.3-0.6
		c0-0.2,0-0.5,0-0.8c1.3-0.3,2.6,0.6,4.2,0.2C57.2,45.6,56.2,45.4,54.9,45.2z M59.2,47.2c0-0.1,0-0.1,0-0.2c0.2-0.1,0.3-0.1,0.5-0.2
		c0,0.1,0.1,0.2,0.1,0.3C59.5,47.1,59.3,47.2,59.2,47.2z M55.2,36.1c1,0.2,1.9,0.4,2.9,0.6c1.1,0.2,1.2,0.4,0.9,1.6
		c-1.6-0.2-3.1-0.3-4.7-0.8c0-0.5,0.1-0.9,0.1-1.4C54.7,36.1,55,36,55.2,36.1z M54.4,38c1.4,0.2,2.8,0.4,4.3,0.7
		c-0.1,0.5,0.5,1,0,1.7c-0.6-0.1-1.3-0.2-2-0.4c-0.7-0.1-1.3-0.2-2-0.3C54.9,39.1,53.7,38.8,54.4,38z M54.3,40.1
		c0.6,0.1,1.1,0.1,1.7,0.2s1.2,0.3,1.7,0.3c0.6,0,0.9,0.7,1.7,0.4c0,0.6-0.1,1-0.1,1.6c-1.7,0-3.3-0.5-4.9-0.8
		C54.3,41.3,53.9,40.8,54.3,40.1z M54.2,43.8c0.3,0.1,0.4,0.2,0.7,0.3c-0.2,0.3-0.3,0.6-0.5,0.8c-0.1,0-0.1-0.1-0.2-0.1
		C54.2,44.5,54.2,44.3,54.2,43.8z M61.5,36c-0.3,0.8-0.7,0.7-1.3,0.4C60.6,36.3,61,36.2,61.5,36z M63.2,34.6
		C63.1,34.8,63,35,63,35.1c0.2,0.1,0.3,0.1,0.5,0.2c-0.1,0.1-0.2,0.2-0.3,0.3c-0.1-0.1-0.2-0.3-0.3-0.4
		C62.5,34.8,62.5,34.8,63.2,34.6z M62.8,29.9c0.1-0.1,0.2-0.3,0.3-0.5c0.1,0,0.1,0.1,0.2,0.1c-0.1,0.1-0.2,0.3-0.3,0.4
		C63,30,62.9,29.9,62.8,29.9z M64.6,29.9c-0.1,0.1-0.2,0-0.4,0c0-0.5,0.3-0.6,0.9-0.7C64.9,29.6,64.8,29.8,64.6,29.9z M65.6,31.2
		c-0.5,0.4-0.3,1.1-0.6,1.8c-0.3-0.4-0.4-0.7-0.7-1c0.3-0.3,0.5-0.5,0.7-0.6C65.3,31.2,65.4,31.2,65.6,31.2z M64.9,34.1L64.9,34.1
		L64.9,34.1c0.2-0.6,0.7-0.5,1.2-0.3c-0.1,0.3-0.1,0.6-0.2,1.1C65.5,34.5,65.2,34.3,64.9,34.1L64.9,34.1L64.9,34.1
		c0,0.6,0.1,1.2-0.9,1.3C64.2,34.8,64.2,34.2,64.9,34.1z M61.3,48.1c-0.3,0.3-0.4,0.5-0.7,0.9C60.4,48.2,60.7,48.1,61.3,48.1z
		 M61.2,46.7c-0.2,0.2-0.4,0.4-0.7,0.6C60.5,46.6,60.5,46.6,61.2,46.7z M61,49.3c0.2-0.3,0.4-0.5,0.7-0.9
		C61.9,49.1,61.6,49.2,61,49.3z M61.2,51.6c-0.2,0.1-0.4,0.2-0.6,0.3c0-0.1-0.1-0.1-0.1-0.2c0.2-0.1,0.4-0.2,0.6-0.4
		C61.2,51.5,61.2,51.5,61.2,51.6z M60.5,44.3c0.5-0.5,0.9-0.5,1.5-0.4C61.6,44.5,61.2,44.4,60.5,44.3z M60.6,42.5
		c0.2-0.1,0.3-0.3,0.5-0.4c0,0.1,0.1,0.1,0.1,0.2c-0.2,0.1-0.3,0.3-0.5,0.4C60.7,42.6,60.7,42.6,60.6,42.5z M60.7,39.4
		c0-0.1-0.1-0.1-0.1-0.2c0.2-0.1,0.4-0.3,0.6-0.4c0,0.1,0.1,0.2,0.1,0.2C61.1,39.2,60.9,39.3,60.7,39.4z M61,41.1
		c-0.3,0.4-0.3,0.4-0.7,0C60.5,41.1,60.7,41.1,61,41.1z M61.2,44.7c-0.3,0.3-0.5,0.4-0.7,0.6C60.4,44.9,60.5,44.7,61.2,44.7z
		 M61.3,66.3c-0.2,0.3-0.4,0.5-0.7,0.8C60.4,66.2,60.7,66.2,61.3,66.3z M60.5,64.7c0.2-0.7,0.5-0.3,0.8-0.2
		C61.1,64.5,60.8,64.6,60.5,64.7z M60.5,52.5c0.3-0.4,0.5-0.6,1.1-0.5C61.3,52.5,61,52.7,60.5,52.5z M62.6,54.1
		c-0.2,0.4-0.5,0.6-1.1,0.3C62.1,54,62.1,54,62.6,54.1z M62.5,52.7c-0.4-0.7,0-0.9,0.3-1.1c0.1,0.1,0.1,0.1,0.2,0.2
		C62.9,52,62.8,52.3,62.5,52.7z M64.5,60.7c0.3,0,0.5-0.1,0.9-0.2c-0.2,0.4-0.3,0.6-0.5,1C64.7,61.1,64.6,60.9,64.5,60.7z
		 M64.7,63.4c-0.2,0-0.4,0-0.6,0c0-0.1,0-0.2,0-0.3c0.2,0,0.4,0,0.6,0.1C64.7,63.3,64.7,63.3,64.7,63.4z M63.6,49L63.6,49
		c0,0.2-0.2,0.3-0.3,0.4c-0.1-0.1-0.1-0.1-0.2-0.2C63.3,49.2,63.4,49.1,63.6,49z M63.4,45.3c0.2-0.2,0.4-0.4,0.6-0.5
		c0.1,0.1,0.1,0.1,0.2,0.2c-0.2,0.2-0.3,0.4-0.5,0.6C63.6,45.4,63.5,45.3,63.4,45.3z M63.6,47.4c0-0.8,0.6-1,1-1.3
		c0.4,0.3,0.4,0.6,0.1,1C64.5,47.5,64,47.4,63.6,47.4z M66.5,51.9c0,0.4-0.1,0.7-0.8,0.7C66.1,52.3,66.3,52.1,66.5,51.9z M66.4,50.9
		c0.4-0.8,0.6-0.9,1.8-0.8C67.7,51,66.9,50.6,66.4,50.9z M65.4,51.7c0.2-0.4,0.5-0.4,0.9-0.1C66,51.9,65.8,52.1,65.4,51.7z
		 M65.7,53.2c-0.1,0.4-0.4,0.6-0.8,0.8C64.6,53.2,64.6,53.2,65.7,53.2z M65.4,50.7c-0.4,0.1-0.4-0.2-0.5-0.5c0.3,0,0.5-0.1,1-0.1
		C65.7,50.4,65.6,50.6,65.4,50.7z M64.6,49.5c-0.5-1.1-0.2-1.4,1-1.5C65.5,48.6,65.1,49,64.6,49.5z M65.4,47
		c0.2-0.8,0.4-1.1,1.2-0.8C66.2,46.4,65.9,46.6,65.4,47z M66.1,44.2c0,0.1,0,0.3-0.1,0.4c-0.3,0.2-0.6,0.4-0.9,0.6
		c-0.4-0.4-0.4-0.7-0.1-0.9c0.2-0.2,0.5-0.3,0.8-0.4C65.8,43.9,66,44.1,66.1,44.2z M65.8,41.5c0.3-0.2,0.7-0.4,1.1-0.7
		C66.8,41.7,66.7,41.8,65.8,41.5z M63.8,51.5c0.2-0.1,0.4-0.1,0.6-0.2c0,0.1,0,0.2,0.1,0.3c-0.2,0.1-0.4,0.2-0.7,0.4
		C63.8,51.7,63.8,51.5,63.8,51.5z M65.1,52.1c0,0,0.1,0.1,0.1,0.2c0,0.4-0.3,0.5-0.6,0.5c-0.1-0.1-0.2-0.2-0.2-0.3
		C64.6,52.3,64.8,52.2,65.1,52.1z M65,55.3c-0.1,0.5-0.4,0.7-1,0.9C64.3,55.7,64.5,55.4,65,55.3z M64.3,57.8c-0.4,0-0.8,0.1-1.1,0.1
		c0-0.1-0.1-0.2-0.1-0.3c0.2-0.2,0.4-0.4,0.7-0.6C64,57.3,64.1,57.5,64.3,57.8z M64.6,58.6c0.5,0.7,0.5,0.7-0.3,1.4
		c-0.5-0.1-0.5-0.4-0.6-0.8C64,59,64.3,58.8,64.6,58.6z M64.7,57.7c0.1-0.6,0.3-1,0.9-0.9C65.6,57.4,65.2,57.5,64.7,57.7z
		 M65.3,54.7c0.3-0.8,0.3-0.8,1-0.6l0,0l0,0c0.1-0.7,0.1-0.7,0.8-0.8c-0.1,0.5-0.2,0.8-0.8,0.8l0,0l0,0
		C66.2,54.7,66.1,54.7,65.3,54.7z M67.7,55.4c-0.5,0.6-1,1.1-1.9,0.9C66.2,55.3,66.2,55.3,67.7,55.4z M67.2,56.9
		c0.5,0.1,0.6,0.3,0.5,0.6c-0.2,0.4-0.5,0.5-1.1,0.3C66.8,57.4,67,57.1,67.2,56.9z M67,54.8c0.7-0.8,0.7-0.8,1.3-0.1
		C67.9,54.8,67.5,54.8,67,54.8z M68.3,50.9c0.4-0.3,0.7-0.5,0.9-0.6C69.1,50.6,69,51.1,68.3,50.9z M67,49.6
		c-0.1-0.2-0.1-0.4-0.2-0.5l0,0l0,0c-0.3,0.2-0.7,0.3-1,0.5c0-0.1-0.1-0.1-0.1-0.2c0.4-0.3,0.7-0.6,1.3-1.1
		c-0.1,0.4-0.1,0.6-0.2,0.8l0,0l0,0c0.4-0.3,0.7-0.7,1.1-1c0.4-0.3,0.8-0.5,1.4-0.3C68.5,48.4,67.8,49,67,49.6z M66.8,47.3
		c0.3-0.7,0.8-1,1.7-1C68.1,47.1,67.5,47.3,66.8,47.3z M67.3,45.6c-0.6-0.2-0.4-0.7-0.3-1c0.2-0.6,0.8-0.7,1.3-0.7
		C68.5,44.8,68.3,45,67.3,45.6z M67.7,34.7c-0.1,0-0.2-0.1-0.3-0.2c0.2-0.1,0.3-0.2,0.4-0.3c0.1,0.1,0.2,0.2,0.1,0.3
		C67.9,34.5,67.8,34.7,67.7,34.7z M68,39c-0.1,0.1-0.2,0.2-0.3,0.2c-0.1,0-0.2-0.1-0.3-0.2c0.1-0.1,0.1-0.2,0.2-0.2
		C67.7,38.8,67.8,38.9,68,39z M67.7,42.2c0,0.1,0.1,0.1,0.1,0.2c-0.4,0.4-0.7,0.7-1.1,1.1c0,0-0.1,0-0.2,0c0-0.2,0-0.5,0-0.7
		C66.8,42.4,67.2,42.2,67.7,42.2z M66.7,40.3c-0.5,0-0.9,0-1.3-0.1c0-0.1,0-0.1-0.1-0.2c0.5-0.2,1-0.5,1.7-0.8
		C66.9,39.7,66.8,39.9,66.7,40.3z M65.5,42.9c-0.3,0.5-0.9,0.6-1.5,0.3c0.2-0.8,0.7-0.8,1.3-1C65.4,42.5,65.6,42.8,65.5,42.9z
		 M63.3,41.1c0.5-0.1,1-0.1,1.6-0.2C64.2,41.8,63.9,41.9,63.3,41.1z M63.4,44.4L63.4,44.4c0,0.3-0.2,0.4-0.3,0.6
		c-0.1-0.1-0.1-0.1-0.2-0.2C63.1,44.7,63.2,44.6,63.4,44.4z M63.6,53.1c-0.2,0.4-0.3,0.7-0.4,1l0,0l0,0c0.3-0.1,0.6-0.2,1-0.4
		c0.1,0.2,0.2,0.6,0.2,0.6c-0.2,0.2-0.5,0.3-0.8,0.4c-0.4,0-0.3-0.3-0.4-0.6l0,0l0,0C62.9,53.6,62.9,53.6,63.6,53.1z M63.8,64
		c-0.1,0.6-0.3,0.7-0.7,0.7C63.3,64.5,63.5,64.4,63.8,64z M63.6,62.1c0.2-0.4,0.3-0.6,0.5-1c0.2,0.3,0.3,0.5,0.4,0.8
		C64.2,62,64,62,63.6,62.1z M64.5,64.8L64.5,64.8L64.5,64.8L64.5,64.8c0.1-0.2,0.2-0.5,0.4-0.6c0.3-0.2,0.7-0.3,0.9,0.1
		c0.2,0.3,0.1,0.6-0.1,0.9c-0.2,0.4-0.5,0.4-0.9,0.1C64.7,65.1,64.6,64.9,64.5,64.8L64.5,64.8c-0.1,0.6-0.1,0.6-0.6,0.6
		C63.9,65,64.1,64.8,64.5,64.8z M65.1,68.1c0.1,0.1,0.2,0.3,0.2,0.3c-0.1,0.2-0.3,0.4-0.5,0.7c-0.1-0.3-0.3-0.6-0.3-0.6
		C64.7,68.4,64.9,68.3,65.1,68.1z M66,69.9c-0.4,0.3-0.6,0.2-0.9-0.1C65.5,69.5,65.7,69.4,66,69.9z M65.6,57.9l-0.1-0.2
		c0.1-0.1,0.3-0.1,0.5-0.2c0,0.1,0.1,0.1,0.1,0.3C65.9,57.8,65.8,57.9,65.6,57.9z M66.8,62.9c0.1,0.7-0.3,0.7-0.8,0.7
		C66,63.1,66.3,63,66.8,62.9z M68.2,58.3c-0.2,1.1-0.5,1.4-1.7,1.6C67.2,59.4,67.1,58.4,68.2,58.3z M68,56.4c0-0.1-0.1-0.2-0.1-0.2
		c0.2-0.2,0.4-0.3,0.7-0.6c0.1,0.2,0.2,0.4,0.3,0.6C68.5,56.3,68.3,56.3,68,56.4z M68.4,53c0.3-0.9,0.6-1.1,1.6-1.3
		C69.4,52.1,69.2,52.8,68.4,53z M69.8,46.5c0.1-0.1,0.3-0.3,0.4-0.4l0.1,0.1C70.2,46.3,70,46.5,69.8,46.5
		C69.9,46.6,69.9,46.6,69.8,46.5z M69.8,62.1c-0.2,0.8-1,0.8-1.4,1.3c-0.3-0.2-0.5-0.5-0.3-0.8c0.2-0.2,0.5-0.4,0.8-0.4
		C69.1,62,69.4,62.1,69.8,62.1z M68.9,64.1c0.4,0.4,0.4,0.7-0.1,1C68.8,64.7,68.8,64.5,68.9,64.1z M69.8,67.4
		c-0.2,0.6-0.2,0.6-0.9,0.5C69,67.4,69,67.4,69.8,67.4z M70.2,68.9c-0.2,0.5-0.4,0.8-1,0.5C69.5,69,69.8,68.9,70.2,68.9z M69.9,57.8
		c0.6-0.7,0.7-1.6,1.6-1.9c0.1,0.1,0.2,0.2,0.2,0.3C71.8,56.7,70.8,57.5,69.9,57.8z M71.4,47.7c-0.2,0.3-0.5,0.5-0.8,0.8
		C70.4,47.8,70.4,47.8,71.4,47.7z M71.5,58.3c0.1,0,0.2,0.1,0.2,0.2c-0.1,0.1-0.2,0.2-0.3,0.3c0,0-0.2-0.1-0.3-0.2
		C71.3,58.4,71.3,58.3,71.5,58.3z M72.4,62.5c-0.2,0.5-0.5,0.7-1,0.8C71.4,62.6,71.5,62.5,72.4,62.5z M71,55.1
		c-0.1-0.6,0.3-0.8,0.8-1.1C71.6,54.6,71.4,54.8,71,55.1z M71.1,53.6c0-0.1,0-0.1-0.1-0.2c0.2-0.1,0.4-0.1,0.6-0.2
		c0,0.1,0,0.1,0.1,0.2C71.5,53.4,71.3,53.5,71.1,53.6z M70.6,39.6c-0.3-0.4-0.7-0.6-0.3-1.1c0.3,0.1,0.7,0.2,1.2,0.3
		C71.1,39.1,70.9,39.3,70.6,39.6z M71.5,33.5c0.1,0,0.1,0.1,0.2,0.1c-0.1,0.2-0.3,0.4-0.4,0.6l-0.1-0.1
		C71.3,33.9,71.4,33.7,71.5,33.5z M71,30.9c0,0-0.1-0.1-0.2-0.1c0.1-0.1,0.2-0.3,0.2-0.4c0.1,0,0.1,0.1,0.2,0.1
		C71.1,30.6,71,30.7,71,30.9z M70.7,29.8c-0.1-0.7-0.1-0.7,0.7-0.7C71.1,29.4,70.9,29.6,70.7,29.8z M70.6,35.5c0.1,0,0.2,0,0.3,0
		c0.1,0.2,0.2,0.4,0.4,0.7c-0.3,0.1-0.6,0.2-1.1,0.4C70.4,36.1,70.5,35.8,70.6,35.5z M70.5,36.7c0,0.2,0,0.4-0.1,0.4
		c-0.3,0.3-0.5,0.5-0.9-0.2C69.9,36.9,70.1,36.8,70.5,36.7z M69.6,36c-0.1-0.1-0.2-0.1-0.3-0.2c0.2-0.2,0.5-0.5,0.7-0.7
		c0.1,0,0.1,0.1,0.2,0.1C70,35.5,69.8,35.8,69.6,36z M69.8,47c-0.5,0.1-0.8,0.2-1.3,0.3C69,46.9,69.2,46.8,69.8,47z M68.7,38.3
		c-0.1-0.2-0.2-0.3-0.4-0.6c0.4-0.1,0.6-0.2,0.9-0.3C69.4,38.1,69.1,38.2,68.7,38.3z M68.3,33.1c-0.2-0.8-0.2-0.8,0.7-1.1
		C69.1,32.5,68.7,32.7,68.3,33.1z M67.9,31.4c0-0.2,0-0.3,0.1-0.4s0.3-0.2,0.6-0.5C68.5,31.1,68.4,31.4,67.9,31.4z M68,30.3
		c-0.1-0.1-0.1-0.1-0.2-0.2c0.2-0.2,0.3-0.4,0.5-0.7C68.7,30,68.1,30,68,30.3z M67.2,27.9c0-0.6,0-0.6,0.7-0.4
		C67.6,27.6,67.4,27.7,67.2,27.9z M67.2,36.5c-0.1,0.2-0.3,0.3-0.4,0.5c-0.1-0.1-0.1-0.1-0.2-0.2C66.8,36.7,66.9,36.5,67.2,36.5
		C67.1,36.5,67.2,36.5,67.2,36.5z M66.2,30c-0.1-0.6,0-0.8,0.8-0.8C66.6,29.5,66.4,29.7,66.2,30z M66.2,39c-0.4,0.2-0.7,0.3-1.2,0.6
		C65.3,38.9,65.5,38.7,66.2,39z M64.9,36.5c0.2-0.1,0.4-0.2,0.5-0.3c0,0.1,0.1,0.1,0.1,0.2c-0.2,0.1-0.3,0.2-0.5,0.3
		C65,36.7,65,36.6,64.9,36.5z M65.4,38.4c0.1-0.9,0.1-0.9,0.7-0.8C65.9,37.8,65.8,38,65.4,38.4z M63.5,32.9c0.1-0.2,0.3-0.4,0.5-0.6
		C64.2,32.8,64.2,32.8,63.5,32.9z M64,36.5c-0.1,0.6-0.3,0.8-0.8,0.9C63.2,36.7,63.2,36.7,64,36.5z M62.7,50.6
		c-0.4,0-0.6,0.1-0.9,0.1C62.1,50.1,62.1,50.1,62.7,50.6z M62.3,34.4c-0.1,0-0.2-0.1-0.3-0.1c0.1-0.2,0.1-0.4,0.2-0.5
		c0,0,0.2,0.1,0.3,0.1C62.5,34,62.4,34.2,62.3,34.4z M61.5,32.7c0-0.6,0.3-0.8,0.8-1.1C62.2,32.2,62,32.5,61.5,32.7z M61.3,29.6
		c0.1-0.1,0.2-0.3,0.4-0.5C62,29.6,61.7,29.7,61.3,29.6z M61.2,71.7c-0.1,0.5-0.2,0.7-0.9,0.5C60.7,72,60.9,71.8,61.2,71.7z
		 M61.2,73.4c0,0.1,0.1,0.1,0.1,0.2c-0.2,0.1-0.3,0.3-0.5,0.4c-0.1-0.1-0.1-0.1-0.2-0.2C60.8,73.6,61,73.5,61.2,73.4z M61.5,78.5
		c0,0.1,0,0.1,0.1,0.2c-0.2,0.1-0.4,0.2-0.6,0.2c0-0.1-0.1-0.2-0.1-0.3C61.2,78.6,61.4,78.6,61.5,78.5z M60.7,68.1
		c0.3,0,0.5,0,1-0.1C61,68.6,61,68.6,60.7,68.1z M61.6,61.2c0-0.1,0-0.1,0-0.2c0.2-0.1,0.3-0.1,0.5-0.2c0,0.1,0.1,0.2,0.1,0.3
		C61.9,61.2,61.7,61.2,61.6,61.2z M61.8,65.1c0.1-0.1,0.2-0.1,0.3-0.2c0,0.1,0.1,0.2,0.1,0.2c-0.1,0.1-0.2,0.2-0.4,0.4
		C61.8,65.3,61.7,65.2,61.8,65.1z M63.4,68.1c-0.2,0.9-0.5,1-1.4,0.5C62.6,67.9,62.6,67.9,63.4,68.1z M63.3,66.7L63.3,66.7
		L63.3,66.7c-0.1,0.2-0.1,0.3-0.2,0.4c-0.2,0.2-0.5,0.3-0.5-0.1l0,0l0,0c-0.1,0-0.3,0.1-0.5,0.2c-0.1-0.5,0.1-0.8,0.7-1.1
		c-0.1,0.5-0.2,0.7-0.2,1l0,0l0,0C62.8,66.9,63,66.8,63.3,66.7L63.3,66.7L63.3,66.7c0-0.2,0-0.4,0-0.6c0.4,0,0.7-0.1,1.3-0.1
		C64.2,66.5,63.9,66.9,63.3,66.7z M64,69.5c0,0.1,0.1,0.2,0.1,0.2c-0.1,0.1-0.3,0.1-0.4,0.2c0,0-0.1-0.2-0.2-0.2
		C63.7,69.6,63.9,69.5,64,69.5z M64.3,76.8c0.1,0,0.2,0.1,0.3,0.2c-0.1,0.1-0.2,0.2-0.2,0.2c-0.1-0.1-0.2-0.2-0.3-0.3
		C64.1,76.9,64.2,76.8,64.3,76.8z M64.2,71.4c0-0.1,0-0.1,0-0.2c0.2,0,0.4,0,0.6,0c0,0.1,0,0.2,0,0.3C64.6,71.5,64.4,71.5,64.2,71.4
		z M65.4,76.3c-0.1,0.2-0.2,0.4-0.4,0.6c-0.1-0.2-0.2-0.4-0.3-0.6C65,76.3,65.2,76.3,65.4,76.3z M65.4,74.3
		c-0.3-0.4-0.1-0.7,0.4-0.9c0.2,0.3,0.3,0.6,0.5,0.9C65.9,74.6,65.6,74.6,65.4,74.3z M66,71.8c-0.1,0-0.1-0.2-0.1-0.3
		c0.1-0.4,0.4-0.3,0.7-0.3C66.5,71.7,66.4,71.9,66,71.8z M67,72.8c0,0.1,0,0.1,0.1,0.2c-0.1,0.1-0.3,0.2-0.4,0.2c-0.1,0-0.3,0-0.4,0
		c0-0.1,0-0.1,0-0.2C66.5,73,66.8,72.9,67,72.8z M66.9,61.9c-0.4-1,0-1.4,2.2-1.9c-0.1,0.3-0.2,0.6-0.3,0.6
		C68.1,61,67.7,61.8,66.9,61.9z M67.5,70.8c0.1,0,0.2,0.1,0.3,0.2c-0.2,0.1-0.3,0.2-0.4,0.3l-0.2-0.2C67.3,71,67.4,70.9,67.5,70.8z
		 M67.7,74.1c0.1,0,0.2,0.1,0.3,0.2c-0.1,0.1-0.2,0.2-0.3,0.2c-0.1,0-0.2-0.1-0.2-0.1C67.5,74.3,67.6,74.2,67.7,74.1z M67.6,69.8
		c-0.1-0.4-0.1-0.7-0.2-1.2c0.5,0.1,0.8,0.1,1.1,0.2c0,0.2,0,0.3-0.1,0.4C68.2,69.4,68,69.5,67.6,69.8z M68.1,70.3
		c0.2-0.3,0.5-0.3,0.9-0.2c0.2,0.5,0,0.8-0.5,1.1C68.1,71,67.9,70.7,68.1,70.3z M69.5,75.4c0.1,0.1,0.2,0.2,0.3,0.2
		c-0.1,0.1-0.2,0.2-0.3,0.4c-0.1-0.1-0.2-0.2-0.2-0.2C69.3,75.7,69.4,75.5,69.5,75.4z M69.6,74.1c-0.1-0.3-0.2-0.4-0.1-0.5
		c0-0.1,0.2-0.2,0.2-0.2c0.1,0.1,0.3,0.2,0.3,0.3C70,73.8,69.8,73.9,69.6,74.1z M69.8,70.8c0-0.7,0.2-0.7,0.8-0.7
		C70.2,70.4,70.1,70.5,69.8,70.8z M70.6,74.6c-0.2,0.1-0.3,0.3-0.6,0.5C70,74.6,70.2,74.5,70.6,74.6z M70.5,59.3
		c0-0.1,0.1-0.2,0.1-0.3c0.1,0,0.2,0.1,0.2,0.1c0,0.1-0.1,0.2-0.1,0.3C70.6,59.3,70.5,59.3,70.5,59.3z M72.6,68c-0.3,0-0.5,0-0.8,0
		C72,67.6,72.2,67.5,72.6,68z M72.1,47.2c-0.2-0.5-0.4-0.8,0.5-0.9C72.4,46.6,72.3,46.9,72.1,47.2z M71.5,45.1
		c0.6-0.3,0.8-1.2,1.8-0.9C72.9,44.9,72.4,45.3,71.5,45.1z M72.7,37.2c-0.2,0.1-0.2,0.2-0.4,0.3l-0.2-0.2c0-0.1,0.2-0.2,0.3-0.3
		C72.5,37,72.6,37.1,72.7,37.2z M72.7,31.3c0-0.1,0-0.1,0-0.2c0.2,0,0.4,0,0.6,0.1v0.1C73.1,31.3,72.9,31.3,72.7,31.3z M72.9,42.5
		c-0.4,0.4-0.6,0.7-1.1,0.5C72,42.5,72.4,42.5,72.9,42.5z M73.9,44.7c0,0.1,0.1,0.1,0.1,0.2c-0.2,0.1-0.5,0.2-0.7,0.4
		c0-0.1-0.1-0.1-0.1-0.2C73.5,45,73.7,44.9,73.9,44.7z M74,48c0.1,0.2,0.2,0.3,0.2,0.3c-0.1,0.1-0.2,0.2-0.3,0.2s-0.2-0.1-0.2-0.2
		C73.7,48.3,73.8,48.1,74,48z M74.5,77.3c-0.1,0.1-0.3,0.2-0.4,0.2c0,0-0.1-0.1-0.2-0.2C74.2,77.3,74.3,77.3,74.5,77.3z M53.6,39
		c-0.7,0-0.7,0-0.7-0.8C53.2,38.5,53.3,38.8,53.6,39z M52.9,36.3c0.1,0,0.2,0,0.3-0.1c0,0.2,0.1,0.4,0.1,0.6c-0.1,0-0.1,0-0.2,0.1
		C53.1,36.7,53,36.5,52.9,36.3z M53.5,62.8c-0.1,0-0.4-0.2-0.4-0.3c0-0.4,0.2-0.5,0.5-0.4C53.8,62.4,53.9,62.7,53.5,62.8z
		 M53.7,64.7c-0.4,0-0.6-0.2-0.5-0.6C53.5,64.1,53.8,64.2,53.7,64.7z M53.5,57.2c0,0.2-0.1,0.5-0.2,0.8c-0.5-0.4-0.5-0.7-0.3-1.2
		C53.3,56.9,53.5,57,53.5,57.2z M53.2,53.4c0-0.3,0-0.6,0-1c0.1,0.1,0.3,0.2,0.3,0.2c0,0.2,0,0.5,0,0.7
		C53.4,53.4,53.3,53.4,53.2,53.4z M53.1,41.9c-0.2-0.3-0.3-0.4-0.6-0.8C53.3,41.1,53.3,41.1,53.1,41.9z M53.1,42.2
		c0.1,0,0.3,0.2,0.3,0.4c0,0.2-0.2,0.3-0.4,0.6c-0.2-0.3-0.4-0.5-0.4-0.6C52.6,42.3,52.9,42.2,53.1,42.2z M52.9,43.9
		c0.4,0.1,0.7,0.3,0.5,0.7c0,0.1-0.2,0.1-0.3,0.1C52.7,44.6,52.7,44.3,52.9,43.9z M52.9,58.9c0.3,0.2,0.3,0.2,0,0.6
		C52.9,59.2,52.9,59,52.9,58.9z M53.4,68.3c0.2,0.2,0.4,0.4,0.3,0.5c0,0.1-0.2,0.3-0.3,0.4c-0.1-0.1-0.3-0.2-0.3-0.4
		C53,68.7,53.2,68.5,53.4,68.3z M53.5,72.7c0.1,0.1,0.2,0.3,0.4,0.5c-0.2,0.1-0.3,0.2-0.5,0.3c-0.1-0.1-0.3-0.3-0.2-0.4
		C53.1,72.9,53.3,72.8,53.5,72.7z M53.4,18.5c0.2,0,0.5-0.1,0.8-0.1C53.7,18.9,53.7,18.9,53.4,18.5z M53.7,13.3
		c0.9-0.8,1.8-0.2,2.7-0.6C55.5,13.7,54.7,13.4,53.7,13.3z M69,4.7c0.2,1.3,0,2.8-0.3,3.7C68.4,6.9,68.5,5.6,69,4.7z M69.4,10.5
		c0,0.3,0,0.5,0,0.8c0,0.4,0,0.4-0.5,0.5c-0.2-0.8,0-1.4,0.4-2.1C69.3,10,69.4,10.2,69.4,10.5z M68.2,4.1c0.3,0,0.7,0,1,0v0.1
		C68.9,4.2,68.5,4.2,68.2,4.1C68.2,4.2,68.2,4.2,68.2,4.1z M68.3,11.9c-0.2,0-0.3,0-0.5,0c0-0.6-0.1-1.3,0.4-2
		C68.2,10.7,68.3,11.3,68.3,11.9z M66.9,4.9c0.1,2.2-0.5,4.3-0.2,6.4c0.1-0.8,0.2-1.6,0.4-2.4c0.1,0,0.1-0.1,0.1,0L67.3,9
		c0.1,0,0.1,0.1,0.3,0.2c0-0.8,0-1.6,0-2.3s-0.2-1.4,0.2-2.1c0.1,0,0.2,0,0.3,0.1c-0.3,2.3-0.5,4.6-0.8,6.9c-0.5,0-0.9,0.1-1.3,0.1
		c-0.4-0.8-0.1-1.6,0-2.3c0.1-0.8,0.2-1.7,0.3-2.5C66.5,6.4,66.3,5.6,66.9,4.9z M61.4,4.4c0.4,0,0.7,0,1.1,0c0.2,0,0.3,0,0.4,0.1
		c0.2,0.5,0,0.7-0.3,1c-0.3,0.2-0.1,0.9-0.1,1.4s0,1-0.1,1.5c0,0.5,0,0.9,0,1.4s0.1,0.9,0.2,1.6c0.5-0.6,0.3-1.2,0.4-1.8
		c0.1-0.6,0.1-1.2,0.2-1.8c0.1-0.5,0.1-1.1,0.2-1.6c0.1-0.6,0.2-1.2,0.3-1.8c0.5,0.1,0.8,0.2,1.2,0.2c0.2,1.1,0,2.2-0.1,3.2
		s-0.1,2-0.1,3.1c0.6-2,0.3-4.1,1.2-6.1c0,0.2,0.2,0.4,0.1,0.6c-0.1,1.9-0.3,3.8-0.4,5.7c0,0.3-0.2,0.6-0.2,0.9
		c-2.4,0.2-4.5,0.1-5.6-0.2c-0.3-0.9-0.1-1.8,0-2.7c0.1-1.1,0.3-2.3,0.5-3.4C60.3,4.6,60.5,4.5,61.4,4.4z M55.6,4.7
		c0.2,0,0.4,0,0.8,0c0,0.4,0.1,0.9,0.1,1.3c-0.1,1.7-0.3,3.4-0.5,5.1c0.4-0.6,0.4-0.6,0.4-1.5c0-0.5,0.1-1.1,0.2-1.6
		c0.1-0.5,0.2-1,0.2-1.5C56.9,6,57,5.4,57.1,4.7c0.4,0,0.7,0.1,1.2,0.1c0,2.1-0.6,4.2-0.3,6.2c0.1-1,0.2-2.1,0.3-3.1
		c0.1-0.9,0.2-1.7,0.4-2.6c0.1-0.6,0.2-0.6,0.9-0.6c0,0,0.1,0.1,0.2,0.2c-0.2,2.2-0.5,4.6-0.8,7c-1.4,0.1-2.7,0.1-4.1,0
		c-0.1-0.4-0.2-0.8-0.1-1.2c0.2-1.9,0.4-3.9,0.6-5.8C55.5,4.9,55.5,4.8,55.6,4.7z M47.1,11.5c-1.4-0.2-2.7-0.4-4.1-0.5
		c-0.5-0.1-1-0.1-1.5-0.2c-1-0.2-1.2-0.4-1.2-1.4c0-1.7,0-3.3,0-5c0.4,0.5,0.4,1.2,0.3,1.8c0,0.7-0.1,1.4,0.1,2
		c0.1,0.6-0.4,1.2,0.2,1.9c0.6-1.2-0.1-2.5,0.6-3.6c0.1,1.3,0.1,2.5,0.2,3.7c0,0,0.1,0.1,0.2,0.1c0.5-0.2,0.3-0.6,0.2-1
		c0-1.6-0.1-3.2-0.1-4.9c0-0.2,0.1-0.4,0.2-0.7c0.3,0,0.5-0.1,0.7,0c2.8,0.6,5.6,0.5,8.4,0.5c0.9,0,1.8,0.1,2.7,0.5
		c0.2,0.8-0.2,1.5-0.3,2.3c-0.1,0.8-0.3,1.6-0.3,2.4c0,0.7-0.4,1.5,0.1,2.5c0.2-1.4,0.3-2.6,0.5-3.7c0.2-1.1,0.2-2.3,0.8-3.4
		c0.5,1.2,0.1,2.4,0.1,3.6c0,1.2-0.2,2.4-0.3,3.5c-0.1,0.1-0.2,0.2-0.3,0.2C51.8,12.1,49.4,11.9,47.1,11.5z M52.9,85.1
		c-0.4,0-0.8,0-1.3,0c-0.3,0-0.6-0.2-0.8-0.4c-0.3-0.3-0.2-0.7,0.2-0.8c0.5-0.1,1-0.1,1.5-0.2C53,84.1,53.2,84.5,52.9,85.1z
		 M53.1,77.4c0.2,0,0.4,0.1,0.6,0.1c0,0.1-0.1,0.3-0.1,0.3c-0.2,0-0.4-0.1-0.6-0.1C53.1,77.6,53.1,77.5,53.1,77.4z M53.5,81.4
		c-0.4-0.2-0.6-0.4-0.4-0.9c0.3,0.1,0.5,0.2,0.8,0.3C53.8,81.1,53.7,81.2,53.5,81.4z M53.4,79c-0.1,0-0.1,0-0.2-0.1
		c0,0,0-0.1-0.1-0.2c0.4,0,0.8,0,1.1,0c0.3-0.5,0.5-1.1,1.4-1.1c-0.1,0.2-0.1,0.4-0.2,0.5l0,0l0,0c0.6-0.2,1.2-0.8,2-0.2
		c-0.6,0.5-1,1.3-2,1c0-0.3,0-0.6,0.1-0.8l0,0l0,0C54.9,78.7,54.3,79.2,53.4,79z M55.3,85.4c-0.1,0-0.1-0.1-0.2-0.1
		c0.1-0.2,0.2-0.3,0.3-0.5c0.1,0,0.1,0,0.2,0.1C55.5,85,55.4,85.2,55.3,85.4z M56.2,85.5c0.1-0.5,0.4-0.8,0.9-1
		C57,85.3,57,85.3,56.2,85.5z M59,86c0-0.6,0.3-0.8,0.7-0.7C59.5,85.5,59.3,85.7,59,86z M54.9,82.4c0.6,0,1.2,0,1.8,0
		c0-0.1,0-0.1,0-0.2c-0.4,0-0.8-0.1-1.2-0.2s-0.8-0.2-1.2-0.4c0.3-0.8,0.4-0.9,1.2-0.7c0.7,0.1,1.3,0.2,2,0.3
		c2.8,0.4,5.7,0.5,8.5,0.6c0.6,0,1,0.2,1.3,0.7c1-1,2.1-0.4,3.2-0.5c0.9,0,1.7,0.3,2.3,1.1c-0.7,0.5-1.5-0.2-2.2,0
		c0.8,0.4,1.8,0.2,2.7,0.8C71.1,85.1,58.5,83.7,54.9,82.4z M62.9,86.3c-0.1-0.1-0.1-0.2-0.2-0.3c0.2-0.1,0.3-0.2,0.5-0.3
		c0,0,0.1,0.1,0.1,0.2C63.2,86,63,86.2,62.9,86.3z M64.1,86.2c0.4-0.2,0.6-0.4,1-0.6C64.9,86.2,64.7,86.4,64.1,86.2z M65.9,86.4
		c0.1-0.9,0.8-0.6,1.1-0.8C66.8,86.2,66.5,86.5,65.9,86.4z M67.9,86.5c0.1-0.9,0.1-0.9,1.3-0.9C68.6,86.6,68.6,86.6,67.9,86.5z
		 M69.6,86.6c0.2-0.5,0.6-0.9,1.1-1.1C70.8,86.3,70.5,86.6,69.6,86.6z M71.2,86.6c0.1-0.5,0.6-0.7,0.9-1
		C72.3,86.7,72.1,86.9,71.2,86.6z M73.1,86.7c0.1-0.6,0.5-0.9,1.3-1.1C74,86.8,73.9,86.8,73.1,86.7z M73.5,83.5
		c-0.2-0.7,0.1-0.9,0.5-0.9s0.9,0.2,1.3,0.4C74.8,83.2,74.2,83.4,73.5,83.5z M75.2,82.4c1.1-0.3,2.1-0.3,3.4,0.1
		C77.9,83,76.4,83,75.2,82.4z M84.8,85.9c-0.1,0.1-0.2,0.1-0.5,0.2c0.3-0.3,0.4-0.4,0.5-0.5c0,0,0.1,0,0.1,0.1
		C84.9,85.8,84.8,85.9,84.8,85.9z M85.7,82.3c0,0.1,0,0.1,0,0.2c-0.7,0.1-1.3,0.2-2,0.3c-0.7,0.1-1.4,0.2-2.1,0.5
		c0.6-0.1,1.2-0.2,1.8-0.2c0.7,0,1.3,0,2.2,0c-1.4,0.7-2.8,0.6-4.1,0.9c-1.3,0.3-2.7,0.3-4-0.1c1.1-0.1,2.1-0.3,3.4-0.4
		c-0.5-0.6-1.5-0.7-0.9-1.7c0.9-0.5,2-0.1,3-0.1s2-0.4,3.2,0.1c-1,0.5-2,0.4-3,0.6C83.9,82.3,84.8,82.3,85.7,82.3z M84.8,70.3
		c0.1,0,0.2,0,0.3,0c0.1,0.3,0.2,0.6,0.2,0.8c0,0.3-0.2,0.5-0.5,0.5c-0.3,0-0.6-0.3-0.5-0.6C84.4,70.7,84.7,70.5,84.8,70.3z
		 M84.5,65.2c0-0.4,0-0.7,0.1-1.1C85.2,64.7,85.2,64.7,84.5,65.2z M85.6,72.2c0.3,0.4,0.3,0.8,0,1.3C85.3,73,85.2,72.7,85.6,72.2z
		 M83.9,73.6c0.1-0.2,0.2-0.4,0.3-0.8C84.5,73.3,84.4,73.5,83.9,73.6z M98.3,87.1c-1,0.6-2.1,1.1-3.4,1.3c-0.6-0.7-1.2-1.4-1.8-2.2
		c-0.4,0.3-0.4,0.5-0.2,0.8c0.4,0.5,0.7,1,1.2,1.5c0.5,0.6,0.7,1.3,0.8,2.3c-0.3-0.3-0.4-0.4-0.5-0.5c-0.5-1.1-1.1-2.1-2.1-2.9
		c-0.2-0.1-0.4-0.4-0.4-0.5c0.1-0.7-0.5-1-0.8-1.5c-0.4-0.4-0.9-0.8-0.7-1.5c0.1-0.4-0.3-0.5-0.7-0.7s-0.9-0.4-1.2-0.7
		c-0.6-0.4-0.8-1-0.7-1.8c0-0.5-0.2-1-0.2-1.5c-0.2-2.1-2.5-39.3-2.5-40.4c0-0.2-0.3-11.3-0.2-13.1c0.1-0.9-1.3-11.6-1.2-13.1
		c2.4-0.3,4.7-1.1,7.2-0.8c0.4,0.9,0.3,1.9,0.4,2.9c0.2,2,0.3,3.9,0.5,5.9c0,0,0.1,0.1,0.3,0.2c0.3-0.7,0.6-1.4,0.5-2.1
		c-0.1-0.7,0-1.3,0.7-1.7s1.4-0.1,2,0.2c0.2,0.1,0.4,0.3,0.5,0.4c0.7-0.1,0.4-1.2,1.3-1c-1.5-0.3-2.9-0.3-4.4-0.2
		c0-0.3,0-0.5-0.1-0.7c1.8,0,3.6,0.1,5.4,0.1c0,0.9,0.1,1.7,0.1,2.6c0,0.5-0.1,1,0,1.4c0.2,1.2-0.3,1.9-1.3,2.4
		c-0.2-0.1-0.3-0.3-0.5-0.5c-0.1,0.2-0.3,0.4-0.4,0.6c-0.2-0.2-0.4-0.4-0.6-0.6c-0.7,1.5-2,0.8-3,1.1c-0.8,0.8-0.7,1.8-0.7,2.8
		c0,2.1,0.1,4.1,0.2,6.2c0.2,2.7,2,43.3,2,44.2c0,0.2,0,0.3-0.1,0.6c-1.6,0.5-3.2,0.6-4.6,1.6c0.8,0,1.5-0.3,2.2-0.5
		s1.5-0.6,2.4-0.3c0,0.3,0.1,0.6,0.1,0.9s0,0.5,0,0.9c-1.5,0.7-3.1,0.8-4.4,1.8c1.6,0,2.9-1.2,4.6-0.7c-0.2,0.1-0.4,0.3-0.6,0.4
		c-1,0.3-2,0.6-3.1,0.9c-0.2,0.1-0.4,0.2-0.8,0.4c0.5,0.2,0.7,0.3,1,0.4c0,0.1-0.1,0.3-0.2,0.6c1.4-0.3,2.6-1.2,4.2-1.2
		c-1.2,0.9-2.6,0.8-3.7,1.7c0.1,0.7,0.7,1.1,1.1,1.4c0.5,0.3,1.1,0.5,1.8,0.7c0.8-0.4,1.5-1.1,2.7-1.1c-0.8,0.7-1.8,0.9-2.5,1.6
		c0.2,0.4,0.5,0.3,0.7,0.2c0.9-0.5,1.9-1,2.8-1.5c0.2-0.1,0.4-0.2,0.9-0.4c-0.6,0.8-1.3,1.1-1.9,1.4c-1,0.4-1,0.4-1.5,1.1
		c0.1,0.1,0.2,0.2,0.3,0.3c0.1,0.1,0.2,0.1,0.3,0.2c0.9-0.8,2-1.4,3.2-1.7C99.1,86.3,99,86.7,98.3,87.1z M93.2,81.2
		c-0.2,0.1-0.4,0.1-0.5,0.2c0,0,0-0.1-0.1-0.1C92.8,81.2,92.9,81.1,93.2,81.2C93.1,81.1,93.1,81.1,93.2,81.2z M96.8,80.4
		c0.3-0.1,0.6-0.2,0.8-0.4c0,0.1,0.1,0.1,0.1,0.2c-0.3,0.1-0.5,0.3-0.8,0.4C96.8,80.6,96.8,80.5,96.8,80.4z M100.3,76
		c-0.3,1.1-0.2,2.2-0.2,3.4c0,0.4-0.1,0.7-0.5,0.9c-0.4,0.2-0.7,0.3-1.1,0.5c0.5-0.3,0.5-0.8,0.3-1.3c-0.5,0-1.1,0-1.8,0
		c0.4-0.8,1.6-0.4,1.9-1.6c-0.6,0.1-1,0.3-1.6,0.4c0.5-0.6,0.9-1,1.3-1.4c-0.1-0.2-0.1-0.4-0.2-0.6c0.3-0.3,0.6-0.7,0.9-1l0,0l0,0
		c-0.3,0.1-0.5,0.1-0.8,0.2c-0.4-0.5,0-0.8,0.2-1.2c-0.6-0.4-0.2-1-0.4-1.6c0.5-0.4,1-0.7,1.6-1c0.6,0.9,0.1,1.4-0.4,1.9
		c0.2,0,0.4,0,0.5,0c0.4,0.9-0.3,1.3-0.8,1.7l0,0l0,0c0.3,0,0.5-0.1,0.8-0.1C100.3,75.5,100.4,75.8,100.3,76z M104.4,66.2
		c0.5-0.5,0.7-0.8,1-1.1C105.5,65.8,105.2,66.1,104.4,66.2z M104.7,65.1c-0.4,0.4-0.6,1.3-1.6,1c0.7-1.2,1.6-2.2,2.4-2.7
		C105.8,64.3,105.1,64.7,104.7,65.1z M105.4,62.7c-0.8,1-1.7,1.9-2.7,3c-0.1-0.7,0.1-1.2,0.4-1.6c0.2-0.3,0.4-0.6,0.6-0.9
		c0.5-0.1,0.7-0.5,1-1c0.2-0.1,0.5-0.2,0.9-0.3C105.5,62.3,105.5,62.6,105.4,62.7z M105.1,59c-0.5,1.3-1.4,1.9-2.2,2.8
		C103,60.8,103.3,60.3,105.1,59z M103.6,59.4c0.2-0.2,0.3-0.5,0.5-0.7c0.1,0.1,0.2,0.1,0.2,0.2c-0.2,0.2-0.4,0.4-0.5,0.6
		C103.7,59.5,103.7,59.4,103.6,59.4z M105.2,60.2c0.2,0.5,0.2,0.9-0.1,1.2c-0.2,0.2-0.3,0.5-0.4,0.8c-0.6,0.1-0.8,0.5-1,1
		c-0.2,0.2-0.5,0.4-0.8,0.6c-0.2-0.5-0.3-0.9,0-1.3C103.6,61.6,104.3,60.8,105.2,60.2z M106.1,56c0,0.3,0.1,0.5,0.1,0.9
		C105.7,56.5,105.7,56.5,106.1,56z M107.1,56.1c-0.7-0.9-0.7-1.3,0-2.1C107.4,54.7,107.3,55.4,107.1,56.1z M108.3,55.6
		c-0.6-1.5-0.6-2.1,0-3.2C108.4,53.6,108.5,54.6,108.3,55.6z M109.1,59.2c0-0.5,0-0.7,0-1.1C109.5,58.4,109.5,58.7,109.1,59.2z
		 M109.4,53.3c0-0.9,0-1.8,0.1-2.7c0-0.2,0.2-0.4,0.4-0.6c0.1,0,0.1,0,0.2,0.1c-0.1,1.1-0.3,2.1-0.4,3.2
		C109.6,53.3,109.5,53.3,109.4,53.3z M110.6,53.9c0,0.1-0.2,0.2-0.4,0.4c-0.3-0.8-0.3-1.6,0.4-3C110.6,52.2,110.6,53,110.6,53.9z
		 M111.1,49.8c0.6,0.5,0,1,0.2,1.5c-0.8-1.4-0.8-2.1,0.2-2.9C111.3,48.9,111.2,49.3,111.1,49.8z M112,49.7
		C111.9,49.7,111.9,49.7,112,49.7c-0.1-0.3-0.1-0.5-0.1-0.7c0.1,0,0.2,0,0.2,0C112.1,49.2,112,49.4,112,49.7z M112.8,49.2
		c0-0.5,0.1-1.1,0.2-1.9C113.3,48.4,113.3,48.4,112.8,49.2z M113.9,47.9c0-1-1-1.8-0.4-2.9c0.2,0.2,0.4,0.3,0.7,0.5
		C114.1,46.3,114,47.1,113.9,47.9z M114.3,47.4c0.1-0.8,0.2-1.6,0.3-2.4c0,0,0.1,0,0.1,0.1c0.1,0.9,0.2,1.9,0.3,2.8
		C114.9,47.7,114.6,47.6,114.3,47.4z M114.8,51.8c0.1,0.5,0.2,0.9,0.3,1.2C114.7,52.7,114.5,52.4,114.8,51.8z M115.4,49.9
		c0,0.4,0.1,0.8,0.1,1.3C114.9,50.8,114.9,50.8,115.4,49.9z M115.5,42.8c0,0.7,0,1.4,0,2C115.2,44.2,114.9,43.5,115.5,42.8z
		 M115.9,45.4c-0.1-0.8,0-1.4,0.1-2.2C116.7,44.7,116.7,44.9,115.9,45.4z M116.6,50.5c0-0.4,0-0.9,0-1.4
		C117.1,49.6,117.1,49.6,116.6,50.5z M116.9,44.2c-0.1-1-0.3-1.9-0.4-2.8c0-0.4,0-0.5,0.6-1.1C117.4,41.6,117.9,42.8,116.9,44.2z
		 M117.8,49.8c0-0.3,0-0.6-0.1-0.8c0.1,0,0.1,0,0.2,0c0.1,0.3,0.1,0.6,0.2,0.8C118,49.7,117.9,49.8,117.8,49.8z M118.4,48
		c-0.3-0.3-0.3-0.3,0-0.6C118.4,47.7,118.4,47.8,118.4,48z M118.7,41.3c-0.2,0.2-0.3,0.7-0.4,1.1c-0.5-1.1-0.4-3.4,0.2-4.7
		c0.1,0.3,0.2,0.5,0.3,0.6c0.1,0.5,0.2,1,0.2,1.5C119.1,40.4,119.2,40.9,118.7,41.3z M120.5,39.4c-0.3,0-0.5,0-0.7,0
		c0-1.3,0-2.5,0-3.9C120.6,36.2,120.8,37.3,120.5,39.4z M120.6,27.5c-0.2,1.1-0.6,2.2-1.2,3.2c-0.4,0.8-3.6,7.3-4.4,8.7
		c-0.5,0.8-1.1,1.6-1.7,2.5c-0.9,1.3-1.7,2.7-2.7,4c-1.1,1.5-6.9,10.2-9,9.7c-0.1-0.7-2.2-43.8-2.3-44.4c0.1-0.6,0.7-0.9,1.5-0.9
		c1.6-0.1,9.6-0.9,13.3-0.1c8.7,2.1,7,13.7,6.9,14.5C120.9,25.6,120.8,26.6,120.6,27.5z M121.4,36.6c-0.4-1.1-0.3-1.9-0.3-3.1
		C121.8,34.6,121.8,35.5,121.4,36.6z M122.1,42.8c0-0.5,0-1,0-1.5C122.6,41.8,122.5,42.3,122.1,42.8z M122.3,35.9
		c-0.3-1.1-0.6-2.2-0.8-3.4c-0.1-0.5,0.1-1.1,0.9-1.4C122.6,32.8,122.4,34.4,122.3,35.9z M122.6,6c0.4,0.4,0.4,0.8,0.1,1.4
		C122.4,6.8,122.5,6.5,122.6,6z M123.1,7.9c0.2,0.4,0.2,0.7-0.2,1C122.7,8.5,122.7,8.2,123.1,7.9z M123.2,16.5
		c0.5,0.4,0,0.6-0.3,1.1c-0.1-0.5-0.1-0.8-0.1-1.1C123,16.5,123.1,16.5,123.2,16.5z M122.9,34.6c0-0.3,0-0.5,0-0.8h0.1
		c0.1,0.3,0.1,0.5,0.2,0.8C123,34.6,122.9,34.6,122.9,34.6z M124,33.9c-0.4-0.6-0.8-1-0.9-1.6c-0.2-0.6-0.1-1.2-0.1-1.8
		c0-0.7,0-1.5,0-2.2C123.7,30.1,124.1,31.8,124,33.9z M123.9,29.1c-0.1-0.5-0.1-1-0.2-1.5c0.1,0,0.2,0,0.3,0
		C124.2,28.1,124.1,28.6,123.9,29.1z M123.7,23.4c-0.4-0.8-0.1-1.2,0.4-1.8C124.2,22.3,124.2,22.8,123.7,23.4z M124,15.9
		c-0.3-0.6-0.4-0.9,0-1.4C124.3,14.9,124.3,15.3,124,15.9z M124.2,16.4c0.1,0,0.2,0,0.3,0c0.1,0.6,0.3,1.2-0.3,1.8
		C124.2,17.5,124.2,16.9,124.2,16.4z M124.8,18.4c0.3,0.5,0.1,1-0.3,1.3C124.2,19,124.2,19,124.8,18.4z M124.5,31.4
		c0-0.3-0.1-0.7-0.1-1.1C124.7,30.8,124.7,30.8,124.5,31.4z M125.3,31.3c-0.4-0.4-0.5-0.8-0.3-1.2C125.3,30.4,125.4,30.7,125.3,31.3
		z M124.6,29c-0.2-0.7-0.2-1.4,0.1-2.3c0.4,0.8,0.5,1.4,0.6,2.2C125,28.9,124.8,28.9,124.6,29z M125.1,25.1
		c-0.1-0.6-0.2-1.1,0.3-1.6C125.7,24.5,125.7,24.6,125.1,25.1z M126.1,28.8c0.1,0.7,0.2,1.2,0.3,1.8C125.6,30,125.6,29.7,126.1,28.8
		z M126.6,26.2c-0.1,0-0.2-0.1-0.3-0.1c0.1-0.2,0.2-0.4,0.2-0.6c0,0,0.1,0,0.2,0C126.7,25.8,126.7,26,126.6,26.2z M126.3,24.1
		L126.3,24.1c0.1,0,0.3,0,0.4-0.1c0.1,0.5-0.1,0.8-0.6,1.2C126.2,24.7,126.3,24.4,126.3,24.1L126.3,24.1L126.3,24.1
		c-0.4-0.9-0.1-1.7,0.2-2.6c0.5,0.9,0.5,1.1,0.2,1.8C126.5,23.6,126.4,23.8,126.3,24.1L126.3,24.1z M127.2,29.5
		C127.2,29.5,127.1,29.5,127.2,29.5c-0.1,0.1-0.1,0.1-0.3,0c0-0.3,0-0.6,0-1.1C127.3,28.8,127.2,29.1,127.2,29.5z M127.5,21.6
		c0-0.1,0-0.3,0-0.4s0.1-0.3,0.1-0.6C128,21.1,127.7,21.4,127.5,21.6z M127.5,14.6L127.5,14.6L127.5,14.6c-0.1,0.5-0.2,1-0.3,1.4
		l0,0l0,0c0.6,0.5,0.7,0.7,0.1,1.7c-0.6-0.6-0.3-1.1-0.1-1.7l0,0l0,0C126.6,15.5,126.6,15.1,127.5,14.6L127.5,14.6L127.5,14.6
		c0.1-0.4,0-0.8,0.6-1c0.3,0.4,0.2,0.8-0.1,1.1C127.8,14.6,127.6,14.6,127.5,14.6z M128.2,15.2c0.3,0.6,0.4,1-0.1,1.5
		C127.9,16.1,127.8,15.7,128.2,15.2z M128.2,24.7c-0.2-0.8-0.2-0.8,0.2-1.5C128.3,23.6,128.3,24.1,128.2,24.7z M128.6,18
		c-0.2-0.2-0.3-0.3-0.3-0.5c0-0.1,0.1-0.3,0.1-0.4c0.1,0,0.1,0,0.2,0C128.6,17.4,128.6,17.6,128.6,18z M129.1,17.1H129
		c0-0.2,0-0.4,0.1-0.6h0.1c0,0.1,0,0.2,0,0.3S129.1,17,129.1,17.1z M128.8,15.7c-0.1-0.5-0.3-0.9,0-1.3
		C129.4,15.1,129.4,15.1,128.8,15.7z"/>
	<path class="st0" d="M41,84.6c0,0.3,0,0.6-0.1,1c0.3-0.2,0.4-0.3,0.5-0.4c1-1.3,2-2.6,2.9-3.9c0.3-0.3,0.5-0.7,0.2-1.2
		c-0.1-0.3,0-0.6,0-0.9c0.1-0.7,0.6-1.3,0.2-2c0.4-0.9,0.2-1.9,0.3-2.9c0.2-2.3,0.2-4.5,0-6.8c-0.1-0.9-0.2-1.7-0.1-2.6
		c0.2-2.2,0-4.4-0.1-6.5c0-1.1,0-2.3,0-3.4c0-1.2,0.2-2.4-0.1-3.7c-0.1-0.2,0-0.4,0-0.6c0-1.2,0.1-2.5,0.2-3.7
		c0.1-2.9,0.3-5.8-0.1-8.6c0-0.3,0-0.6,0-0.9c0.1-2,0.3-4,0.4-6c0-0.3,0-0.6-0.1-0.9c-0.3-0.7-0.3-1.4-0.2-2.1
		c0.1-0.8,0.3-1.6,0.2-2.3c-0.1-0.6-0.1-1.2,0-1.7c0.1-0.3,0-0.5,0-0.8c-0.9-0.1-1.7-0.3-2.5-0.3c-0.4-0.1-0.8,0.2-0.9,0.6
		c-0.1,0.2-0.2,0.5-0.2,0.8c-0.1,0.9-0.2,1.8-0.1,2.7c0,0.9-0.3,1.8,0.1,2.7c0.1,0.1,0,0.3,0,0.5c0,0.4,0.1,0.9,0.1,1.3s0,0.9,0,1.3
		c0,0.5,0.1,1-0.1,1.4c-0.2,0.5,0.4,0.7,0.2,1.2V36c0.1,0.7-0.3,1.4,0,2.1c0.1,0.1-0.2,0.4-0.3,0.6c0.5,0.5,0.5,1.2,0.4,1.9
		c-0.2,0.1-0.4,0.2-0.6,0.3c0.2,0.3,0.6,0.5,0.6,0.8s-0.2,0.6-0.4,0.9c0.2,0.3,0.6,0.6,0.2,1.1c-0.3,0.1-0.5,0.2-0.8,0.3
		c1.2,1,1.2,1,0.6,1.9c0.4,0.8,0,1.7,0.5,2.5c-0.3,0.2-0.5,0.4-0.7,0.6c0.1,0.1,0.2,0.2,0.2,0.3c0.6,0.4,0.6,0.4,0.3,1
		c0,0.1-0.1,0.3-0.1,0.3c0.6,0.6-0.1,0.9-0.4,1.4c0.9,0,0.7,0.7,0.8,1.2c0.2,0.7-0.4,0.9-0.9,1.3c0.5,0.3,1.3,0.3,0.9,1.1
		c-0.2,0-0.4,0.1-0.7,0.1c0.3,0.3,0.6,0.5,0.8,0.7c0.1,0.7-0.3,1.3,0,1.9c-0.5,0.5,0.7,1.1-0.1,1.7c-0.2,0.1-0.5,0.2-0.8,0.4
		c0.4,0.2,0.7,0.3,1,0.4c0,0.7-0.1,1.3-0.1,1.8c-0.3,0.1-0.5,0.2-0.9,0.4c0.7,0.2,1.2,0.4,0.9,1.2c-0.2,0.1-0.4,0.2-0.6,0.3
		c0.2,0.3,0.5,0.5,0.5,0.7s-0.4,0.5-0.3,0.7c0.1,0.3,0.4,0.5,0.3,0.8c0,0.1-0.1,0.3-0.1,0.5c-0.4,0-0.8,0-1.2,0v0.1
		c0.4,0.1,0.8,0.3,1.2,0.4c0.4,0.7-0.4,0.6-0.6,0.9c0.7,0.4,0.7,0.4,0.5,1c-0.5,0.1-1.1,0.2-1.6,0.3l0,0l0,0
		c0.5,0.5,1.1,0.1,1.7,0.3c0,0.3,0,0.5,0,0.7c-0.4,0.3-0.9-0.1-1.2,0.6c0.4,0.1,0.7,0.1,1.2,0.2c0,0.3,0.1,0.7,0.1,1.1
		c-0.3,0.1-0.6,0.2-0.9,0.3c0.4,0.3,1,0.2,0.7,1c-0.1,0.1-0.4,0.2-0.6,0.3c0.2,0.4,0.9,0.4,0.6,1.1c-0.2,0.1-0.5,0.1-0.9,0.2
		c0.4,0.1,0.6,0.2,0.9,0.4c-0.3,0.4-0.2,0.9,0.2,1.3c-0.4,0.1-0.7,0.2-1,0.2c0,0.1,0.1,0.2,0.1,0.2c0.1,0,0.1,0.1,0.2,0.1
		c1,0.2,1,0.2,1.1,1.3c0.4,0.3,1.1,0.1,1.4,0.9c-0.2,0-0.4,0.1-0.6,0c-0.7-0.2-1.5-0.3-2.2-0.5c-0.5-0.1-0.8-0.5-0.8-1
		c-0.1-0.9-0.2-1.8-0.2-2.7c0-1.8,0-3.6,0.1-5.4c0-0.2,0.1-0.4,0.2-0.5l0,0l0,0c0-2.2-0.1-4.4-0.1-6.6c0-1,0.1-2,0.1-3
		c0-1.2,0-2.4,0-3.6c0-0.7,0.2-1.4,0.2-2.1c0-2.5,0-5.1,0.1-7.6c0-0.4,0.1-0.8-0.2-1.1c-0.8,0.1-1,0.6-1,1.2
		C39.3,49,38.6,82,38.8,82.9C38.8,83.7,39.9,84.1,41,84.6z M42.9,66.9c0-0.3,0-0.6,0-1c0.3,0.2,0.5,0.3,0.7,0.4
		c0.2,0.1,0.4,0.1,0.8,0.2C43.9,67.1,43.4,67,42.9,66.9z M42.9,64.6c0.6,0.1,1.1-0.2,1.3,0.6C43.2,65.6,43.1,65.5,42.9,64.6z
		 M43,30.5c0.1,0.1,0.3,0.2,0.3,0.2c0,0.2,0,0.5,0,0.8c-0.1,0-0.2,0-0.3,0C43,31.1,43,30.8,43,30.5z M42.9,34.2
		c0.5-0.1,0.8,0.1,1.1,0.5c-0.4,0.1-0.7,0.2-1.1,0.3C42.9,34.6,42.9,34.4,42.9,34.2z M42.9,35.8c0.4,0,0.8-0.1,1.1,0.5
		c-0.4,0.1-0.7,0.2-1.1,0.3C42.9,36.2,42.9,36.1,42.9,35.8z M42.9,43.7c0-0.3,0-0.5,0.1-0.8c0.5,0.1,0.9,0.2,1,0.9
		C43.6,43.8,43.3,43.7,42.9,43.7z M43.9,45.5c-1,0-1,0-0.9-1C43.4,44.8,44.1,44.7,43.9,45.5z M42.9,39.3c0.4-0.2,0.7,0,0.9,0.2
		c0.1,0.1,0.1,0.3,0.1,0.5C43,40,43,40,42.9,39.3z M42.9,38c0.6-0.4,0.6-0.4,1.1,0.2C43.5,38.4,43.2,38.3,42.9,38z M44,49.8
		c-0.5,0.1-0.7-0.2-1.2-0.5C43.4,49.3,43.7,49.3,44,49.8z M42.7,50.7c0.5,0.2,0.8,0.3,1.3,0.5c-0.5,0.5-1,0.3-1.4,0.2
		C42.6,51.2,42.7,51,42.7,50.7z M42.6,56.1c0.5,0.1,0.9,0.2,1.4,0.3c-0.5,0.3-0.9,0.5-1.4,0.8C42.6,56.8,42.6,56.5,42.6,56.1z
		 M42.6,55.5c0-0.3,0.1-0.5,0.1-0.8c0.5,0.2,0.9,0.4,1.4,0.5C43.7,55.8,43.7,55.8,42.6,55.5z M43.5,58.3c-0.3,0-0.6-0.2-0.9-0.3
		c0.5-0.4,0.9-0.4,1.4,0C43.8,58.2,43.7,58.3,43.5,58.3z M43.8,59.5c-0.4,0.2-0.7,0.3-1.1,0.1C43,59.2,43.4,59.3,43.8,59.5z
		 M44,53.7c-0.5,0.1-0.9,0.2-1.4,0.3c0-0.4-0.1-0.6-0.1-1.1C43.2,53.1,43.7,53.1,44,53.7z M43.7,62c0.4,0.1,0.4,0.4,0.3,0.8
		c-0.5,0.2-1-0.1-1.5-0.4C42.8,61.9,43.2,61.9,43.7,62z M44.1,68c-0.4,0.4-0.6,0.3-1.4-0.4C43.3,67.8,43.7,67.9,44.1,68z M44.2,69.1
		c-0.1,0.2-0.1,0.4-0.2,0.6c-0.5-0.1-1-0.1-1.1-0.8C43.3,69,43.7,69.1,44.2,69.1z M44.1,72.4c-0.5,0-1,0-1.3-0.6
		C43.9,71.7,43.9,71.7,44.1,72.4z M44,73.6c-0.5,0.3-0.8,0.2-1.2-0.2C43.4,73.1,43.7,73.4,44,73.6z M42.9,75.1
		c0.3-0.5,0.3-0.5,1-0.2C43.7,75.6,43.7,75.6,42.9,75.1z M43.4,80.6c0.1,0,0.2,0.1,0.5,0.2c-0.2,0.2-0.3,0.3-0.4,0.3
		s-0.2-0.2-0.3-0.3C43.1,80.7,43.3,80.6,43.4,80.6z M42.4,82.8c-0.1-0.2-0.2-0.2-0.2-0.3c-0.1-0.4,0.2-0.5,0.6-0.4
		C42.7,82.3,42.6,82.5,42.4,82.8z M41.6,80c0.3,0,0.6,0.1,0.9,0.1c0,0.1,0,0.1,0,0.2c-0.1,0-0.2,0.1-0.4,0.1c-0.2,0-0.4-0.1-0.6-0.1
		C41.6,80.2,41.6,80.1,41.6,80z"/>
	<path class="st0" d="M48.2-1.3c-1.3-0.2-2.7-0.2-4-0.4C43.5-1.8,42.7-2,42-2.1c-0.5-0.1-0.6-0.4-0.3-0.8c0.5,0,1,0,1.5,0
		C43.5-2.9,43.7-3,44-3c-0.1-0.1-0.2-0.2-0.3-0.3c-0.5-0.1-1-0.3-1.5-0.4c-0.3-0.1-0.5-0.2-0.3-0.7c1.3,0,2.7,0,4.1,0v-0.1
		c-1.3-0.2-2.6-0.4-4-0.6c-0.3-1-1-1.6-1.9-1.8c-0.9-0.2-1.8-0.4-2.7-0.7c-0.1,0-0.2,0-0.4,0c-1,0-2.1,0.4-3.1,0
		c-0.1,0-0.4,0.1-0.4,0.3c0,0.1,0.1,0.4,0.2,0.5c0.3,0.1,0.6,0.2,0.9,0.2c1.2,0.1,2.4,0,3.7,0.2c0.7,0.1,1.5,0.2,1.9,0.9
		c0.2,0.4,0.5,0.8,0.4,1.2c0,1.2,0.5,2.4,0.2,3.6c0,0.2,0,0.4,0.1,0.6c0.2,0.3,0.4,0.2,0.6,0.1c0-0.5,0.1-1,0.1-1.5
		C43.8-1.1,46-1.1,48.2-1.3z"/>
	<path class="st0" d="M64.8-3.5c1.5,0,2.9,0.1,4.4-0.2c-0.4-0.1-0.8-0.3-1-0.4c-0.5,0.1-0.9,0.3-1.3,0.3c-0.7,0-1.5-0.1-2.2-0.1
		C63.3-4,62-4.1,60.6-4.2C61.9-3.5,63.3-3.5,64.8-3.5z"/>
	<path class="st0" d="M46.9-7.4c-2.8-0.6-4.1-0.7-4.7-0.3C42.8-7.3,43.8-7.2,46.9-7.4z"/>
	<path class="st0" d="M42.3,0.7c0.9,0,1.9,0,2.8,0c0.5,0,1,0,1.5,0c-0.5-0.2-0.9-0.3-1.4-0.3c-1.3-0.1-2.6-0.2-3.9-0.3
		C41.5,0.6,41.8,0.7,42.3,0.7z"/>
	<path class="st0" d="M41.4,0.1L41.4,0.1L41.4,0.1L41.4,0.1L41.4,0.1z"/>
	<path class="st0" d="M45.7,76.3c1.2,0.5,2.5,1,3.7,1.4c0.1,0,0.2-0.1,0.5-0.2c-1.3-0.5-2.5-1-3.7-1.4c-0.1-0.1-0.3,0-0.5-0.1
		C45.7,76.3,45.7,76.3,45.7,76.3z"/>
	<path class="st0" d="M49.8,81.7c0.1,0.1,0.3,0,0.6-0.1c-0.2-0.2-0.2-0.3-0.3-0.4c-1.5-0.4-2.9-0.7-4.4-1.1
		C46.8,81.1,48.4,81.1,49.8,81.7z"/>
	<path class="st0" d="M47.1,81.9L47.1,81.9c0.5,0.1,0.9,0.3,1.4,0.5l0,0l0,0l0,0c0.5,0,1,0.5,1.6,0c-0.2-0.1-0.3-0.2-0.4-0.3
		c-1.2-0.4-2.3-0.8-3.5-1.1c-0.1,0-0.3,0-0.6,0C46.3,81.4,46.7,81.7,47.1,81.9L47.1,81.9L47.1,81.9z"/>
	<path class="st0" d="M45,81.8c1.1,0.6,2.9,1.1,3.6,1c0-0.1,0-0.3,0-0.4c-0.5-0.1-1-0.1-1.4-0.5C46.4,82,45.8,81.3,45,81.8z"/>
	<path class="st0" d="M44.4,82.9c1.1,0.6,2.8,1,3.4,0.9C47.1,83.2,45.7,82.8,44.4,82.9z"/>
	<path class="st0" d="M46,78.3c1.4,0.6,2.8,0.9,4.3,1.2c0-0.1,0-0.2,0.1-0.2c-1.4-0.4-2.8-0.8-4.2-1.3C46.1,78.1,46,78.2,46,78.3z"
		/>
	<path class="st0" d="M49.7,76c-1.2-0.4-2.4-0.7-3.8-1.2C46.8,75.8,48.8,76.3,49.7,76z"/>
	<path class="st0" d="M41.8-6.1c1,0.4,2,0.1,2.9,0.1c-0.7-0.4-1.6-0.4-2.3-0.6C42.2-6.6,42-6.3,41.8-6.1z"/>
	<path class="st0" d="M50,81.2c0.2-0.1,0.4-0.1,0.7-0.2c-1.2-0.5-3.1-1-4-1C47.9,80.4,48.9,80.8,50,81.2L50,81.2L50,81.2L50,81.2z"
		/>
	<path class="st0" d="M42.1-0.7c1.1,0.2,2.1,0.3,3.2,0.1c-1.1-0.1-2.2-0.3-3.5-0.4C42-0.9,42-0.7,42.1-0.7z"/>
	<path class="st0" d="M44.2,20.4c-0.2-0.2-0.3-0.4-0.5-0.5c-0.4,0.1-0.7,0.4-0.4,0.7C43.5,20.9,43.8,20.7,44.2,20.4z"/>
	<path class="st0" d="M42.2,19.2c-0.1,0-0.3,0.2-0.7,0.6c0.6,0.1,0.9,0.1,1.2,0.1C42.8,19.4,42.5,19.2,42.2,19.2z"/>
	<path class="st0" d="M44.1-3L44.1-3L44.1-3L44.1-3L44.1-3z"/>
	<path class="st0" d="M45.8-3c-0.6,0-1.1,0-1.7,0c0.6,0.1,1.1,0.2,1.7,0.2C45.8-2.8,45.8-2.9,45.8-3z"/>
	<path class="st0" d="M70.4-3.6c0,0-0.1,0-0.2,0c0,0.1,0.1,0.2,0.1,0.2c0.1,0,0.1-0.1,0.2-0.1C70.4-3.5,70.4-3.6,70.4-3.6z"/>
	<path class="st0" d="M89.4,79.7c1.2-0.3,2.3-0.6,3.5-1c0.1,0,0.1-0.2,0.2-0.4c-1-0.2-2.9,0.4-4.1,1.3
		C89.2,79.6,89.3,79.7,89.4,79.7z"/>
	<path class="st0" d="M93,75.7c0-0.1,0-0.2-0.1-0.4c-1.2,0.2-2.3,0.6-3.4,1.2c1.1-0.2,2.1-0.4,3.2-0.7C92.8,75.9,92.9,75.8,93,75.7z
		"/>
	<path class="st0" d="M96.4,21.3c-0.1-0.2-0.2-0.6-0.2-0.6c-0.5,0.1-1.1-0.4-1.5,0.3C95.1,21.9,95.8,21,96.4,21.3z"/>
	<path class="st0" d="M92.9,21.8c0.1,0,0.1-0.3,0.1-0.3c-0.1-0.1-0.3-0.3-0.4-0.3s-0.3,0.1-0.8,0.4c0.3,0.1,0.5,0.2,0.6,0.2
		C92.5,21.9,92.7,21.9,92.9,21.8z"/>
	<path class="st0" d="M94.5,21c-0.3-0.4-0.6-0.3-0.9-0.1c-0.1,0.1,0,0.4,0.1,0.4C94,21.6,94.2,21.4,94.5,21z"/>
	<path class="st0" d="M97,18.4c0,0,0.1,0,0.2,0c0.1-0.3,0.2-0.7-0.2-0.8c-0.1,0-0.3,0.1-0.4,0.2C96.5,18.1,96.7,18.2,97,18.4z"/>
	<path class="st0" d="M74.7,17.4c0.6,0,1.2,0,1.9,0c-0.2,0.5-1,0.3-1.1,1c1.1-0.2,2.1,0.2,3.3-0.1c-0.3-0.3-0.5-0.6-0.8-0.9
		c0.2-0.1,0.3-0.2,0.5-0.3c-1.2-0.2-2.3-0.1-3.5-0.2c-1-0.1-1.7,0.1-2.4,1.1c0.7,0,1.3,0,2,0C74.6,17.8,74.7,17.6,74.7,17.4z"/>
	<path class="st0" d="M77.8,22.5c-0.6,0.1-1.2,0.1-1.9,0.2c-0.1,0.4-0.1,0.7-0.2,1.1c0.9,0.3,1.6-0.1,2.3,0c0.3,0.1,0.6-0.6,0.5-0.9
		C78.4,22.6,78.1,22.4,77.8,22.5z"/>
	<path class="st0" d="M75.9,14.4c0.2,0.7,0.6,0.7,1,0.7c1.4-0.1,2.8-0.2,4.3-0.3C79.4,14.7,77.7,14.2,75.9,14.4z"/>
	<path class="st0" d="M75.1,15.6c0,0.1,0,0.2,0,0.2c2.2,0,4.4,0,6.6,0C79.5,15.8,77.3,15,75.1,15.6z"/>
	<path class="st0" d="M74.7,13.9c2.1,0,4.2-0.1,6.3-0.3C78.5,13.3,75.9,13.4,74.7,13.9z"/>
	<path class="st0" d="M62.5,14.5c0-0.2,0-0.3,0.1-0.5c-1.5-0.1-2.9,0-4.5,0.2c0.2,0.2,0.4,0.4,0.5,0.5
		C59.9,14.2,61.2,14.3,62.5,14.5z"/>
	<path class="st0" d="M58.6,14.6L58.6,14.6L58.6,14.6L58.6,14.6L58.6,14.6z"/>
	<path class="st0" d="M56.1,23.1c-0.2,0.1-0.4,0.3-0.4,0.5S56,24,56.1,24c0.4,0,0.7,0.1,1.1,0.3c0.1,0.1,0.3,0,0.6,0
		c-0.3-0.5-0.5-0.9-0.9-1.4C56.7,22.9,56.3,23,56.1,23.1z"/>
	<path class="st0" d="M69.4,24.5c0.2-0.4,0.1-0.6-0.6-1c-0.2,0.3-0.5,0.7-0.7,1C68.8,24.9,69.2,24.9,69.4,24.5z"/>
	<path class="st0" d="M72.1,24.4c-0.2-0.5-0.3-0.9-0.4-1.2c-0.1-0.3-0.6-0.3-0.7-0.1c0,0.4,0,0.9,0.1,1.4
		C71.5,24.5,71.7,24.4,72.1,24.4z"/>
	<path class="st0" d="M62.9,19.4c-0.3-0.1-0.6-0.3-0.9-0.3c-0.1,0-0.3,0.2-0.3,0.3s0.1,0.3,0.2,0.4c0.3,0.2,0.7,0.4,1,0.5
		c0.1,0,0.3-0.1,0.4-0.1C63.5,19.7,63.2,19.5,62.9,19.4z"/>
	<path class="st0" d="M81.2,18.7c-0.9-0.9-1.3-1-1.8-0.3C80,18.7,80.5,19.2,81.2,18.7z"/>
	<path class="st0" d="M62.1,15.5c-1-0.2-2-0.4-3,0c1,0.1,2,0.2,3,0.3C62,15.7,62.1,15.6,62.1,15.5z"/>
	<path class="st0" d="M57.5,17.3c1,0.2,1.9,0.5,2.9,0.2C59.5,17.4,58.5,17.2,57.5,17.3z"/>
	<path class="st0" d="M67.7,22.5c0.3,0.2,0.5,0.2,0.7-0.1c0.1-0.1,0.1-0.2,0-0.3c-0.1-0.3-0.4-0.3-0.7-0.2c-0.1,0-0.2,0.1-0.3,0.3
		C67.6,22.4,67.6,22.5,67.7,22.5z"/>
	<path class="st0" d="M58.1,23.2c-0.1,0.3-0.2,0.7,0.3,0.8c0.1,0,0.4-0.2,0.4-0.3C58.8,23.2,58.5,23.1,58.1,23.2z"/>
	<path class="st0" d="M66.2,17.9c-0.4-0.3-0.7-0.4-1.1,0.1C65.7,18.4,65.7,18.4,66.2,17.9z"/>
	<path class="st0" d="M58.5,19.8c-0.2-0.4-0.5-0.6-0.9-0.3c-0.1,0.1-0.1,0.2-0.1,0.3C57.9,20.2,58.2,20.1,58.5,19.8z"/>
	<path class="st0" d="M60.2,23.6c-0.1,0-0.2,0.2-0.2,0.2c0,0.2,0.1,0.4,0.2,0.5c0.1,0.1,0.3,0,0.6,0c-0.1-0.2,0-0.4-0.1-0.5
		C60.5,23.8,60.4,23.7,60.2,23.6z"/>
	<path class="st0" d="M64.1,22.8c0.2,0.4,0.5,0.5,0.8,0.2c0.1-0.1,0.1-0.4,0-0.5C64.6,22.3,64.3,22.4,64.1,22.8z"/>
	<path class="st0" d="M74.6,22.3c0,0.1,0.2,0.3,0.3,0.3c0.1,0,0.3-0.2,0.5-0.3c-0.2-0.2-0.4-0.4-0.5-0.4
		C74.8,21.9,74.6,22.2,74.6,22.3z"/>
	<path class="st0" d="M58.3,22.2c-0.6-0.5-0.6-0.5-1,0.1C57.7,22.5,58,22.6,58.3,22.2z"/>
	<path class="st0" d="M69.3,23.2c0.1,0,0.3-0.2,0.4-0.3c0-0.5-0.3-0.5-0.7-0.4C68.9,22.8,68.8,23.2,69.3,23.2z"/>
	<path class="st0" d="M61.9-28.3c0.2,0.2,0.3,0.4,0.5,0.7c0.3-0.9,0.4-1,1-1.2c0.4-0.2,0.8-0.3,1.2-0.5c0-0.1-0.1-0.1-0.1-0.2
		c-0.8,0.3-1.5,0.5-2.3,0.8C62.1-28.7,62-28.5,61.9-28.3z"/>
	<path class="st0" d="M59.8-26.1c-0.2-0.1-0.4,0-0.5,0.1c-0.8,0.8-1.6,1.5-2.3,2.3c0.1,0.1,0.1,0.1,0.2,0.2
		C58-24.3,58.9-25.2,59.8-26.1z"/>
	<path class="st0" d="M63.7-30c-0.7,0.1-1.6,0.1-2.1,1.1C62.5-29.2,63.2-29.4,63.7-30z"/>
	<path class="st0" d="M58.5-23.5c0.6-0.3,1.1-0.7,1.5-1.3c1.1-0.7,1.8-1.2,2.3-1.9c-0.9,0.5-1.7,1-2.4,1.8
		C59.3-24.6,58.8-24.1,58.5-23.5z"/>
	<path class="st0" d="M55.6-20.6c-0.2,0.3-0.4,0.6-0.5,0.9C55.3-19.9,55.6-20.1,55.6-20.6z"/>
	<path class="st0" d="M55-19.7L55-19.7C54.9-19.6,54.9-19.6,55-19.7C54.9-19.6,55-19.6,55-19.7L55-19.7z"/>
	<path class="st0" d="M60.9-24.1c-0.4,0.2-0.7,0.5-0.7,1C60.6-23.3,60.9-23.6,60.9-24.1z"/>
	<path class="st0" d="M51.8,10.6c0.1,0,0.2,0,0.2,0c0-1.7,0.5-3.3,0.1-5C52,7.3,51.9,9,51.8,10.6z"/>
	<path class="st0" d="M59.9-12.3C59.9-12.3,60-12.3,59.9-12.3C60-12.3,60-12.3,59.9-12.3C60-12.3,60-12.3,59.9-12.3
		C60-12.3,59.9-12.3,59.9-12.3z"/>
	<path class="st0" d="M56.2-12.7c1.2,0.3,2.5,0.4,3.7,0.3C58.7-12.9,57.5-12.9,56.2-12.7z"/>
	<path class="st0" d="M68.3,82.9c-0.2,0-0.4,0.1-0.5,0.2c-0.2,0.2-0.2,0.4,0,0.6c0.1,0.1,0.3,0.2,0.5,0.2c0.1-0.3,0.1-0.5,0.1-0.8
		c0.4,0,0.8-0.1,1.2-0.1c0-0.1,0-0.1,0-0.2C69.2,82.9,68.7,82.8,68.3,82.9z"/>
	<path class="st0" d="M61.4,11.3c0.1-0.7,0.3-1.4,0.3-2.1c0.1-0.7,0-1.5,0-2.2s0-1.4,0-2.1c-0.3,0.1-0.4,0.3-0.4,0.5
		c-0.1,1.7-0.2,3.5-0.3,5.2c0,0.3,0.1,0.6,0.2,0.9C61.2,11.3,61.3,11.3,61.4,11.3z"/>
	<path class="st0" d="M63.9,4.9c-0.2,2.3-0.5,4.4-0.3,6.7C64.1,9.4,64.3,6,63.9,4.9z"/>
	<path class="st0" d="M63.9-38.2c0.1,0.4,0.2,0.6,0.7,0.6C64.8-38.3,64.7-38.4,63.9-38.2z"/>
	<path class="st0" d="M59.2-19.8c0.4-0.6,1.2-1,1.4-1.8c0.5-0.3,1-0.6,1-1.3c-0.3,0.4-0.6,0.9-1,1.3C60-21.1,59.5-20.6,59.2-19.8z"
		/>
	<path class="st0" d="M70.8-21.1c0.4-0.2,0.8-0.5,1.2-0.7C71.4-21.9,71.1-21.4,70.8-21.1z"/>
	<path class="st0" d="M60.1-18.9c0.6-0.1,0.9-0.4,1.1-1c0.5-0.3,0.9-0.7,1-1.3c-0.3,0.4-0.6,0.9-1,1.3
		C60.8-19.6,60.4-19.3,60.1-18.9z"/>
	<path class="st0" d="M84.5,8.8c0,0.4,0,0.8,0,1.1C84.7,9.5,84.7,9.2,84.5,8.8z"/>
</g>
</svg>
