<?xml version="1.0" encoding="utf-8"?>
<!-- Generator: Adobe Illustrator 19.1.0, SVG Export Plug-In . SVG Version: 6.00 Build 0)  -->
<svg version="1.1" id="_x2014_ÎÓÈ_1" xmlns="http://www.w3.org/2000/svg" xmlns:xlink="http://www.w3.org/1999/xlink" x="0px"
	 y="0px" viewBox="27 -34.1 104.9 118.1" style="enable-background:new 27 -34.1 104.9 118.1;" xml:space="preserve">
<style type="text/css">
	.st0{fill:#404045;}
</style>
<g>
	<path class="st0" d="M94.7-17.5c-1-0.7-1.6,0.7-1,1.3C94.6-16.1,94.7-16.8,94.7-17.5z"/>
	<path class="st0" d="M77.3-12.6c0.5,0,0.5,0.4,1.1,0.3c0.6-0.4,0.5-1.4,0.6-2.3C78.1-14.2,77.3-13.8,77.3-12.6z"/>
	<path class="st0" d="M86.6-13c0.5-0.1,0.5-0.6,0.5-1.3c-0.5-0.4-1.3-0.1-1.5,0.3C85.8-13.5,85.9-13,86.6-13z"/>
	<path class="st0" d="M80.3-12.4c0.7-0.1,1-1.1,0.6-1.8C79.9-14.8,79.1-12.7,80.3-12.4z"/>
	<path class="st0" d="M83.2-11.3c0.1-1.2-0.7-1.3-0.3-2.4c-1.7-1.2-1.1,1.8-0.8,2.6C82.6-11,82.9-11.2,83.2-11.3z"/>
	<path class="st0" d="M85.3-11.9c0-0.3,0-0.5,0-0.8C83.7-14,83.5-11,85.3-11.9z"/>
	<path class="st0" d="M83.2-10c0.3,0.4,1.1,0.4,1.6,0.2C85.3-11.2,82.9-11.4,83.2-10z"/>
	<path class="st0" d="M85.3-9.3c0.2,0.6,0.1,1.5,1.1,1.3C87.1-8.8,86.2-10,85.3-9.3z"/>
	<path class="st0" d="M82.9-8.5c0,0.8,0.3,1.2,1.1,1.1C84.6-8.4,83.8-9.3,82.9-8.5z"/>
	<path class="st0" d="M68.6,5.8c0.8-0.2,0.5-1.9-0.2-2.1C67.7,4.1,67.4,5.7,68.6,5.8z"/>
	<path class="st0" d="M70.8,6.6c0.3-0.6,0.3-2.1-0.5-2.1c-0.4,0.5-0.9,0.9-0.8,1.8C69.8,6.6,70.2,6.7,70.8,6.6z"/>
	<path class="st0" d="M76.6,7.1c2.2-0.4-0.7-3.5-0.8-1.1C75.8,6.2,75.9,6.9,76.6,7.1z"/>
	<path class="st0" d="M73.1,6.6c0.1-0.7-0.5-0.7-0.3-1.5c-0.9-0.1-1,0.5-1.3,1C71.8,6.5,72.4,7.1,73.1,6.6z"/>
	<path class="st0" d="M74.4,7.3c0.6-0.2,0.9-0.6,1-0.8C75.8,4,72.2,6.2,74.4,7.3z"/>
	<path class="st0" d="M69.4,7.9c-0.5-0.4-1.6-1.2-2.1-0.3C67.2,8.8,69.2,9.2,69.4,7.9z"/>
	<path class="st0" d="M91.9,8.1c-0.4-0.4-1.1,0-1.4,0.2c0,0.4-0.1,0.9,0.2,1.1C91.5,9.4,91.9,8.9,91.9,8.1z"/>
	<path class="st0" d="M90.2,10.5c0.3-1.7-1.7-1.1-1.5,0.2C89.2,10.9,89.8,10.8,90.2,10.5z"/>
	<path class="st0" d="M87.9,11.1c-0.2,0-0.2-0.4-0.3-0.5c-1.1-0.1-1.4,0.8-1.1,1.6C87.4,12.4,87.7,11.8,87.9,11.1z"/>
	<path class="st0" d="M84.8,11.9c-0.9,0-1,1.3-0.6,2.1C85.6,14.5,86,12.1,84.8,11.9z"/>
	<path class="st0" d="M82.7,13.9c-1.4-0.3-1.1,1-1.1,2.1C83.1,16.7,83.3,14.8,82.7,13.9z"/>
	<path class="st0" d="M123.8,29.3c0.6-0.2,0.8-1,0.5-1.6c-0.9-0.1-1.3,0.4-1.3,1.1C123.3,29,123.4,29.4,123.8,29.3z"/>
	<path class="st0" d="M36.8,32.7c0.6,0.3,0.9-0.1,1.3-0.3c-0.3-0.8-0.3-1.4-0.3-2.1c-0.4-0.1-0.8-0.3-1.1,0
		C37,31.1,36.6,32.1,36.8,32.7z"/>
	<path class="st0" d="M122.2,34.8c0.2-0.2,0.1-0.8,0.2-1.3c0.3,0,0.4,0.2,0.6,0.2c0.1-0.5,0.6-0.6,0.5-1.3c-0.7-0.4-1.5-0.1-1.3,1
		c-0.6,0-1,0.3-1,1C121.4,34.7,121.6,34.9,122.2,34.8z"/>
	<path class="st0" d="M35.5,35.9C37.9,34.7,33.9,34.1,35.5,35.9L35.5,35.9z"/>
	<path class="st0" d="M38,36.9c-1.3-0.2-1.3,1.1-0.6,1.6c0.8-0.1,0.8-1,1.1-1.6c0.4-0.1,0.3,0.3,0.8,0.2c0.3-0.4,0.2-1.4-0.2-1.6
		C38,35.3,37.9,36,38,36.9z"/>
	<path class="st0" d="M41.7,35.8c-0.9-0.5-1.7,0.6-1.3,1.4C41.2,37.2,41.7,36.7,41.7,35.8z"/>
	<path class="st0" d="M120.1,37.1c0.4-0.2,0.8-0.5,0.6-1.3c-0.6-0.4-1.4,0-1.5,0.6C119.5,36.7,119.6,37.1,120.1,37.1z"/>
	<path class="st0" d="M33.4,36.9c0.6,0.1,0.7-0.3,0.6-0.8C33.6,36.1,33.4,36.4,33.4,36.9z"/>
	<path class="st0" d="M35.5,36.9c-0.3,0-0.5,0-0.8,0c-0.3,0.3-0.1,0.9,0,1.3C35.5,38.3,35.6,37.7,35.5,36.9z"/>
	<path class="st0" d="M40.4,39.5c0-0.2,0.4-0.1,0.6-0.2c0.2-0.2,0.2-0.6,0.2-1c0.4,0.2,0.5,0.6,1.1,0.5c0.5-0.3,0.3-0.9,0.2-1.5
		c-1.4-0.1-1.7,0.8-2.7,1C39.7,39,40,39.3,40.4,39.5z"/>
	<path class="st0" d="M44.6,40.6c0.1-0.5-0.1-0.7-0.2-1.1c-0.5,0-0.8,0.2-1.1,0.3c0,0.3,0,0.5,0,0.8C43.5,40.8,44.3,40.8,44.6,40.6z
		"/>
	<path class="st0" d="M48.4,42.7c0-0.6-0.7-0.6-1.3-0.6c-0.2,0.2-0.2,0.6-0.2,1C47.3,43.2,48.6,43.4,48.4,42.7z"/>
	<path class="st0" d="M51,44.3c0.3-0.3,0.1-1.1,0-1.5c-0.6-0.1-0.8,0.2-1.1,0.3c-0.1,0.6,0.2,0.8,0.3,1.1
		C50.5,44.3,50.7,44.3,51,44.3z"/>
	<path class="st0" d="M99.8,47.1c0.2-1.7-2-1-1.1,0.3C99.1,47.3,99.5,47.2,99.8,47.1z"/>
	<path class="st0" d="M105.1,47.5c0.6-0.1,1-0.4,1.1-1C105.9,45.1,104,46.7,105.1,47.5z"/>
	<path class="st0" d="M63.9,47.5c-0.3-0.8-1.6-1.1-1.6,0.2c0.4,0.2,0.5,0.6,1.1,0.6C63.6,48.1,63.8,47.9,63.9,47.5z"/>
	<path class="st0" d="M93.2,48.8c0.1-0.6-0.4-0.7-0.5-1.1c-0.8-0.2-1,0.2-1,1C92.1,48.9,92.8,49.2,93.2,48.8z"/>
	<path class="st0" d="M68.4,49.6c0.6-0.1,1-0.5,1-1.3C68.6,47.4,67.5,49,68.4,49.6z"/>
	<path class="st0" d="M98.4,49.8c0.4-0.2,0.5-0.6,0.5-1.1C98,47.4,96.7,49.9,98.4,49.8z"/>
	<path class="st0" d="M62.9,49.3c-0.2-0.9-1.7-0.5-1.3,0.6C61.9,50.1,62.9,49.9,62.9,49.3z"/>
	<path class="st0" d="M63.6,50.8c0.5,0,1-0.1,1-0.6C64.4,48.7,62.5,49.9,63.6,50.8z"/>
	<path class="st0" d="M72.9,51.6c0.7-0.1,1-1,0.6-1.6c-0.3,0-0.5,0-0.8,0C72.4,50.3,72.6,51.3,72.9,51.6z"/>
	<path class="st0" d="M79.2,50.6c-0.2-0.8-2-0.7-1.6,0.5C78.1,51.5,79.2,51.5,79.2,50.6z"/>
	<path class="st0" d="M66.8,51.4c0.1-0.6-0.2-0.8-0.3-1.1c-1.2-0.2-1.5,0.6-1,1.3C66,51.5,66.6,51.7,66.8,51.4z"/>
	<path class="st0" d="M68.6,67.8c-0.1,0.2-0.2,0.3-0.2,0.6c0.2,0.2,0.8,0.2,1,0C69.3,68,69.1,67.8,68.6,67.8z"/>
	<path class="st0" d="M70.2,70.7c-0.2,0.3-0.4,0.5-0.3,1.1C70.9,72.2,70.8,70.8,70.2,70.7z"/>
	<path class="st0" d="M127,22.4c-1.7-0.6-4.4-0.4-5.2-2.4c-0.5-1.4-0.2-2.9-0.5-4.3c-0.4-1.9-1.5-3.3-2.3-5c-1.3-3.1-2-5.3-3.9-7.5
		c-0.9-1-2.4-2.4-3.8-2.6c-0.8,0.4-0.2,2.1-0.6,2.9c0.3-2.3-1-4.4-1.6-6.3c-0.4-1.1-0.5-2.3-0.8-2.7c-0.3-0.4-1-0.5-1.5-0.8
		c-1.4-1-3-3.1-4.5-3.9c-1.5-0.7-3.4-0.6-4.7-1.8c-0.3-7.6-6.6-15-14.7-10.6c-0.1-3.6,1.4-6.6,3.7-8.2c1.8-0.3,3.5-1.4,3.7-2.7
		c-0.5-1-2.5,0-3.5,0c-2.9,2.4-5.4,6.5-5.2,11c-3.1-0.5-4.8,0.1-6.9,1.3c-3.3,1.7-5.1,2.9-6,6.6c-0.3,1-0.9,2.1-1,3.1
		c0,1,0.3,2.2,0.5,3.2c-2.9,0.7-4.8,2.4-6.9,3.9C59-4.6,56.8-3.5,54.7-3c-0.6,1.3,0.5,3-0.2,4.7c-1.9,0.7-5.1-0.4-6.9,0.3
		c-0.8,2.5-0.1,5.3,0.6,7.4c-3,2-8.2,1.6-8.5,5.5c-0.1,0.7,0.4,1.5,0.5,2.3c0.1,0.7,0,1.6,0.3,2.4c0.3,0.8,1,1,1,1.8
		c0,1.7-3,2.8-4.4,3.4c-1.7,0.7-3.7,1.1-5.2,1.8c-0.8,2.8-3.2,3.9-4.8,5.8C27,33.7,28,34,28.4,34.8c-0.1,1.2-1.5,2.3-1.6,3.7
		c-0.1,1.8,1.9,4.1,2.7,5.6c4.2,7.5,13.4,28.7,14,30.4c0.7,0,10.6,5.2,11.6,5.6c1.8,0.7,3.1,1.7,5.5,1.4c0.5,0.3,1.4,0.4,2.1,0.5
		c2,0.2,4.1,1,6.3,1.3c1.1,0.1,2.4-0.1,3.7,0c1,0.1,1.9,0.5,2.9,0.6c2.4,0.3,6.1,0.3,8.5,0.2c3.7-0.3,11.8-1.1,12.4-1.3
		c1.8-0.6,11.6-1.7,18.7-9.8c1.8-5.2,3.2-10.8,5.5-15.5c0.7-4.8,2.6-8.4,4.4-12.2c1.3-4.1,2.8-8.9,4.5-12.1c0.9-1.6,1.7-2.9,2.1-4.4
		C129.1,27.8,128.5,24.7,127,22.4z M118,25.6c1.2-0.2,1.4,1,0.8,1.6c-0.5,0-0.5-0.4-1-0.5C117.8,26.2,118,26,118,25.6z M118.2,29.5
		c-0.7,0.1-0.9-0.4-1.3-0.6C117,27,119.2,28.4,118.2,29.5z M115.9,30c1.9-0.1,1.7,1.7,1,2.7C116.1,32.2,115.4,30.9,115.9,30z
		 M115.6,34.8c-0.4-0.7-0.7-2.2-0.6-2.7C115.5,32.6,116.1,33.8,115.6,34.8z M111.6,8.1c-0.2-0.4-1.1-0.2-1.5-0.5
		c0.1-0.6,0.3-1.2,0.3-1.9c0.6-0.1,0.5,0.5,0.5,1c2,1,3,4,3.2,6.8c0.9,9.6-3.2,19.1-9.2,21.9c1.3-2.8,3.9-4.3,4.7-7.6
		c3.1-2.2,2.1-8.5,4-11.9C112.9,13.2,112.5,10.8,111.6,8.1z M113.4,36.3c-0.2-0.9-0.4-2.8,0.5-3.1C114.7,33.7,114.5,36.3,113.4,36.3
		z M111.3,38.5c-0.2-1-0.1-2.9,0.5-3.5c0.3,0,0.3,0.2,0.5,0.2C112.6,36.3,112.3,38.2,111.3,38.5z M109.3,38.7c0.1-1-0.1-2.3,0.6-2.7
		C110.8,36.5,110.3,38.5,109.3,38.7z M106.4,37.5c0.3-0.3,0.8-0.5,1.1-0.8c0.6,0.8,0,3.2-1.5,3.1C106.3,39.1,106.5,38.5,106.4,37.5z
		 M102.7,13.1c0.5-0.4,1.2-0.6,2.1-0.6C104.8,13.6,103.4,12.7,102.7,13.1z M104.7,19.5c-0.5-0.1-0.3,0.4-0.8,0.3
		c-0.3-0.5-0.2-1.7,0-2.3h0.3C104.9,17.7,104.7,19.1,104.7,19.5z M103,28.5c1.1-0.4,2.3,4.2,1,4.8C103.9,32.4,102,29,103,28.5z
		 M104,34.5c0.6,0,0.1,1,0.6,1c-0.8,0.9-1.7,1.8-2.7,2.4C101.6,36.4,104.5,36.1,104,34.5z M105.1,38.2c0.9,1.2-0.6,2.6-2.1,2.4
		C103.6,39.6,104.3,38.9,105.1,38.2z M106.7,29.8c-0.8-1-1.1-2.6-1.4-4.2C106,26.8,106.9,27.8,106.7,29.8z M106.4,16.3
		c-0.1,0.6-0.2,1.2-0.8,1.3C105.1,17,105.8,15.7,106.4,16.3z M106.9,7.7c0-0.4,0.4-0.3,0.8-0.3C107.8,8,107.1,8,106.9,7.7z
		 M107.9,13.2c0.8,0.4-0.2,1.6-0.6,1.8C107.2,14.1,107.7,13.8,107.9,13.2z M109.3,11c0.3,0.4,0.1,1.6-0.5,1.6
		C108.7,11.8,109.1,11.5,109.3,11z M108.5,26.9c-0.6-0.1-0.8-1.4-0.5-1.9C108.5,25.3,108.5,26.1,108.5,26.9z M108,2.7
		c-0.1,0.6-1,1-1.5,0.6C106.8,2.9,107.4,2.9,108,2.7z M108.2,5.6c-0.6,1.1-2.2,1.1-3.5,1.4C105.5,6.3,106.7,5.8,108.2,5.6z
		 M105.9,10.8c-1,0.6-2.4,0.8-3.7,1.1C101.9,10.7,105,10.3,105.9,10.8z M102.4,18.9c0.5,0.5,0.5,2-0.2,2.3
		C102,20.2,102.5,20,102.4,18.9z M102.7,33.4c-0.5-0.7-0.9-1.3-1.1-2.3C102.7,31.2,102.7,32.2,102.7,33.4z M93.7,29.2
		c-0.3-0.7,0.3-1.8,1-2.1C95.2,27.5,94.8,29.4,93.7,29.2z M94.8,38.5c-0.5,0.1-0.5-0.3-0.5-0.8C94.6,37.9,94.9,38,94.8,38.5z
		 M93.7,18.2c0.5-0.2,0.8-0.4,1.3-0.2c0.2,1.7,1,2.7,0.8,4.7c-0.5,0.1-1,0.2-1.5,0.3c-0.2-1.1-0.5-2.4,0.3-2.9
		C94.4,19.4,93.4,19.5,93.7,18.2z M95,34.3c1.1,0.4,1.6,2.1,1.4,3.2C94.8,37.3,94.6,35.7,95,34.3z M96,27.4c-0.1-1,0.1-1.7,0.6-1.9
		C97.3,25.9,96.7,27.4,96,27.4z M96.6,22.1c-0.1-1.9,0.1-2.7,0.2-4C97.5,18.6,99.1,22.3,96.6,22.1z M98.5,24.5
		c0.6,0.2,0.1,1.5-0.6,1.3v-1C98,24.6,98.5,24.8,98.5,24.5z M97.9,35.3c0.4,0.2,0.5,0.6,0.5,1.1c-0.3,0.1-0.3,0.5-0.8,0.3
		C97,36.2,97.5,35.8,97.9,35.3z M98,32.6c0.7,0.8,1.2,1.7,1.5,2.9C98.8,34.8,98.3,33.1,98,32.6z M98.7,20.8C98.5,20,98,19,98.4,18.2
		h0.5c-0.3,0.6-0.1,1.2,0.3,1.4c0.8-0.1,0.8-1,1.5-1.3C101,19.7,99.8,20.5,98.7,20.8z M99.2,3.4c0.8,0.2,1.7,0.3,1.8,1.1
		C100.2,4.3,99.3,4.2,99.2,3.4z M100.5,5.8c-0.4-0.4-1.5-0.1-1.5-1C99.7,5,100.2,5.2,100.5,5.8z M99.7,1.9c0.9,0.1,1.4,0.5,1.8,1.1
		C100.7,2.9,99.7,2.9,99.7,1.9z M100,21.8c1.5-2,1.5,2.2,0,2.1V21.8z M101.8,34.6c-0.4,0.2-0.6,0.6-1.3,0.5
		c-0.4-1.3-0.2-2.2-0.3-3.9C101.2,31.9,101.5,33.2,101.8,34.6z M101.4,1.5c-1-0.1-1.8-0.3-1.9-1.3c0.5-0.4,1.4-0.1,1.8,0.2
		C101.2,0.8,101.6,0.9,101.4,1.5z M100.8-1.1c-0.1,0.4-0.8,0.1-1.1,0.2v-0.6C100.3-1.7,100.4-1.3,100.8-1.1z M98.9-5.8h0.6
		c0,0.2,0,0.3,0.2,0.3C99.5-4.9,98.7-5.2,98.9-5.8z M100.6,6.8c0.1,0.7-0.1,1.1-0.3,1.5c-1,0-1.4-0.6-1.9-1.1
		C98.3,5.4,99.8,6.7,100.6,6.8z M97.9,7.9C98.7,8,99,8.7,99.5,9c0,0.7-0.6,0.9-0.6,1.6c-0.8-0.1-0.9-0.9-1.3-1.3
		c-0.9,0-0.2,1-0.2,1.4c-0.3,0-0.4,0.3-0.6,0.5c0,0.7,0.7,0.8,0.6,1.6c-0.6,0.1-0.7-0.4-1.1-0.5c-0.6,0.8,0.5,1.1,0.3,1.9
		c-0.4,0.2-0.6,0.6-1.3,0.5c-0.3,0-0.3,0.4-0.6,0.5c-1.4,2.6-4.3,3.7-6.3,5.6c0,0.3,0.3,0.4,0.6,0.3c0.6-0.4,0.8-1.2,1.6-1.3
		c-0.7,2-3.9,2.8-5.5,4.4c-0.5,0.1-0.5-0.3-0.8-0.3c-2.2,1.3-4,3.1-6.9,3.7c-0.2-1.1,1-0.9,1-1.9c-1.7,0.3-1.9,3.4-4.7,3.1
		c0.2-1,0.9-1.3,1.1-2.3c-1.1,0.1-1.6,2.1-2.4,3.1c-1.1-0.2-1.7,0.5-2.4,0.2c0.1-0.8,0.8-0.9,1-1.6c-1.9-0.3-1.4,3.1-3.7,2.9
		c-0.1-1.2,2-1,1.1-2.4c-1.8,1.5-3.1,3.6-6.8,3.2c-0.4-0.4,0.4-0.6,0.2-1.3c3.8-2.3,8.6-3.5,12.7-5.5c2.8,0.7,3.8-1.7,6.1-1.9
		c3-1.9,6.7-3.8,9.8-6.1c0.1-0.4,0.3-0.6,0.2-1.1C94,14.2,95.9,11,97.9,7.9z M67.6,36.6c-0.5-0.1-0.4,0.5-1,0.3
		c-0.1-0.8,0.4-1,0.5-1.6C67.8,35.2,67.6,36,67.6,36.6z M76.3,37.9c1.4-2.3,5-1.3,6.6-3.4c-0.2-0.5-0.6,0.2-1,0
		c0.4-1.1-0.2-1-0.8-1.5c0.3-1.9,0.7-3.8,1.8-5c-0.1,1.2-1.9,3.9-0.6,5.5c1.1,0.1,2.5-0.2,2.9-0.2c-0.3,0.7-1.2,0.8-1.9,1.1
		c0,0.4,0,0.8,0.3,0.8c-2.5,1.8-6.9,1.7-7.4,5.5c0,0.3,0.4,0.3,0.6,0.5c0.6,0,0.6-0.6,0.8-1c1.5,1.3,3.7,0.4,5.3-0.2
		c0.2-0.7-0.3-0.6-0.3-1.1c0.2,0,0.5,0,0.5-0.2c0.8,0,0.3,1.4,1.1,1.4c0.5,0,1-0.1,1-0.6c0.1-1-0.5-0.2-0.6-0.8
		c0-0.5,0.6-0.5,1.1-0.5c0,1.3,0.8,1.8,1.1,2.7c-0.5,0.1-0.2-0.5-0.6-0.5c-0.8,0.7-1.6,1.4-2.9,1.6c-0.4-0.2-0.8-0.4-1.1-0.6
		c-2.6-0.3-4.9,1.1-7.6,0.5c-3.4,0.7-6.8,0.5-10.5,0.8c0-0.4-0.6-0.2-0.6-0.6c0.4-0.6,1.2-0.8,1.4-1.6C69,40.6,72.1,38.4,76.3,37.9z
		 M72.6,35.8c-0.5,0-0.6-0.3-1-0.5c0.2-1.5,1-2.5,1.8-3.5C73.6,32.9,72.3,34,72.6,35.8z M75.7,30.6c-0.4,1.6,0.1,3.8-1.3,4.7
		C73,33.6,74.5,31.6,75.7,30.6z M78.7,32.1c-0.2,0.7,0.3,2.3-1,2.1c-0.3-1.8,0.8-3.5,1.5-4.8c0.1,0.1,0.3,0.1,0.3,0.3
		C79.4,30.4,78.9,31.1,78.7,32.1z M81.5,28.2c-0.5,1.5-0.3,4.9-2.1,5.6C79.3,31.3,80.3,29.6,81.5,28.2z M76,33.7
		c0.1-2.1,0.5-4,2.3-4.5C77.4,30.6,77.8,33.2,76,33.7z M86.9,31.3c-1,0.1-1.4,0.7-2.4,0.8c-0.4-1.7,0.6-3.4,1.6-4.2
		C86.2,29,85.2,30.9,86.9,31.3z M89.8,30.5c0.6-0.1,0.2,0.9,0.3,1.3c-1.8,0.8-2.9,2.3-5,2.9C86.9,33.4,88.6,32.1,89.8,30.5z
		 M88.2,27.9c-0.3,0.5-0.5,1.1-0.8,1.6C86.4,29.4,87.6,27.3,88.2,27.9z M83.1,32.4c-1-1.1,0.3-3.9,1.6-4.3
		C83.8,29.2,83.7,31.1,83.1,32.4z M87.1,37.9c0.5-0.2,0.4,1.1,0.2,1.1C86.7,39.1,86.6,37.9,87.1,37.9z M88.5,40.1
		c0.7-0.8-1.1-2.8,0.6-2.9c-0.9,1.8,1.8,2.9,1.3,0.3c0.2,0.8,0.6,1.3,1,2.3c-1.3-0.3-2.2,0.5-2.9,1.3c-0.6-0.2-1.1-0.5-1.4-1
		C87.6,39.5,87.7,40.2,88.5,40.1z M91.1,21.6c0.7,0,0.5,0.9,0.2,1.1C90.4,22.7,91.1,22.1,91.1,21.6z M91.3,30.8v-1.3
		C92.8,27.8,93.1,30.9,91.3,30.8z M92.9,20.3c-0.4,0.1-0.3-0.3-0.6-0.3c0-0.4,0.2-0.6,0.6-0.6V20.3z M93.4,21.3
		c0.2,0.4,0.2,1,0.2,1.6c-0.1,0.3-0.8,0-0.8,0.3c-1-0.5-0.1-1.3,0-2.1C93,21.1,93.1,21.3,93.4,21.3z M92.9,40.3
		c-0.7-0.8-0.5-2.5-1-3.5C93.2,37.1,94.4,39.4,92.9,40.3z M62.3,34.8c-0.1-0.1,0.3-1.1,1-1C63.4,34.7,62.6,34.4,62.3,34.8z
		 M60.4,31.9c-0.8,0-0.9-0.7-1.9-0.5c0-0.7,0.3-1,0.6-1.3c0.6,0.6,1.3,0.2,2.1,0.5C61.2,31.3,60.7,31.6,60.4,31.9z M60.2,40.9
		c-0.1-0.6,0.2-0.7,0.3-1C61.2,40,60.7,41.1,60.2,40.9z M55,30.9c-0.6-1.7,0.6-2.9,1.5-3.7C57.4,28.6,56,30.4,55,30.9z M55.4,40.8
		c-0.1-0.7,0.1-1.1,0.3-1.5C56.3,39.4,55.9,40.9,55.4,40.8z M52.9,30.1c-0.3-1.5,0.9-3.6,2.1-3.5C54.8,28.2,54.1,29.5,52.9,30.1z
		 M54.6,39c0.1,0.6-0.2,0.9-0.3,1.3c-0.7,0-0.7-0.7-0.6-1.4C54,38.8,54.4,38.8,54.6,39z M50,39.5c-0.7-0.2-0.6-2.2-0.2-2.6
		c0.3,0,0.3,0.2,0.6,0.2C50.5,38,50.6,39.1,50,39.5z M48.3,28c0.4-1.5,1.6-2.3,2.1-3.7h0.5C50.5,26.1,49.5,27.2,48.3,28z M49.1,36.6
		c-0.4-0.1-0.2-1,0.3-0.8C49.5,36.3,49.1,36.3,49.1,36.6z M50.4,6.9c0.6-0.1,0.2,0.9,0.3,1.3C50.2,8.2,50.4,7.4,50.4,6.9z
		 M51.3,12.7c-0.4,0.9-0.7,2.1-1.8,2.4C49.9,14.1,50.4,13.2,51.3,12.7z M50.2,17.1v-0.6h0.5C50.7,16.9,50.6,17.1,50.2,17.1z
		 M50,19.7c-1-0.1-0.1-0.9-0.2-1.4C50.2,18.4,49.9,19.2,50,19.7z M48.1,15c0.2-0.9,0.9-2.5,2.1-2.9C49.6,13.1,49.2,14.5,48.1,15z
		 M48.6,17.1c0-0.6,0.1-1,0.8-1C49.5,16.8,49.2,17.1,48.6,17.1z M48.4,18.1c0.5,0.2,0.4,1,0,1.3C47.8,19.2,48.1,18.2,48.4,18.1z
		 M49.7,29c0.2-1.4,0.9-2.2,1.6-3.1C51.8,26.8,50.6,28.5,49.7,29z M51,15.3c0-1,0.8-1.1,1-1.9C52.7,13.8,51.6,15.1,51,15.3z
		 M51.7,7.3C52.5,7.6,52,9,52.2,9.6C51.3,9.4,51.7,7.6,51.7,7.3z M51.8,16.4c0.3,0,0.3,0.2,0.5,0.2c0,0.5-0.2,0.8-0.6,0.8
		C51.3,17.1,51.6,16.7,51.8,16.4z M52,39c0.4,0.3,0.6,0.8,0.5,1.6C51.8,40.6,51.6,39.5,52,39z M52.3,25c0.5-0.1,0.5,0.3,1,0.2
		c0,0.3-0.4,0.2-0.3,0.6C52.5,25.8,52.3,25.5,52.3,25z M53.7,13.9c0.1,1-0.5,2.1-1.4,1.6C52.6,14.8,52.8,13.9,53.7,13.9z M53.3,8.1
		c0.7,0.1,0.7,2-0.2,1.9C52.7,9.5,53.1,8.6,53.3,8.1z M53.1,19.7c0-0.5,0.2-0.8,0.3-1.1C54.1,18.6,53.5,19.7,53.1,19.7z M55.7,19
		c0.1-0.6,0.4-1,0.6-1.5C56.7,18,56.2,19,55.7,19z M56.2,30.8c0.6-0.1,0.6,0.8,0,0.6C55.9,31.1,56.2,31.2,56.2,30.8z M57,39
		c0.9,0.1,0.4,1.9,0.2,2.3C55.9,41.1,56.7,39.6,57,39z M57.3,31.1c-0.2-2.4,1.1-3.2,2.1-4.3c0.3-0.1,0.3,0.1,0.3,0.3
		C58.6,28.1,58.8,30.5,57.3,31.1z M59.1,36.4c-0.5,0.4,0,1.7-0.8,1.8C58.3,37.4,58,36.2,59.1,36.4z M60.8,25.8
		c-0.5,0.1-0.5-0.3-0.8-0.3c-0.8,0.6-1.5,1.3-2.1,2.1c-0.4-0.3-0.1-1.3,0-1.6c0.3-0.2,0.9-0.2,1-0.6c0-0.5-0.8-0.2-1-0.5
		c0.3-1.8,3.3-2.1,4.8-1.3C62.3,24.5,61.3,24.9,60.8,25.8z M58.9,18.9c0.4,0.3,0.1,1.4-0.2,1.6C57.8,20.4,58.7,19.2,58.9,18.9z
		 M87.1-3c0.5-0.1,0.7,0.3,1,0.5c-1,1.2-3.6,1.7-5.5,1.4C83.8-2.1,86.2-1.7,87.1-3z M82.7-4.5c0.4,0.1,0.9,0.2,0.8,0.8
		C82.8-3.6,82.5-4,82.7-4.5z M86.4,4.5c0.2-0.5,0.1-1.4,0.3-1.9C87.4,2.7,87.3,4.8,86.4,4.5z M85,3.6C84.6,3,84.5,1.9,85.6,2
		C86,2.5,85.7,3.5,85,3.6z M84.5,5.6c0.3-0.3,0.2-1,1-0.8C85.6,5.5,84.9,5.5,84.5,5.6z M83.2,4c0.6,0.6,0.6,2.2-0.3,2.4
		C83.4,5.7,83,4.8,83.2,4z M82.3,4.2c-1-0.3-0.9,0.5-1,1.1c-0.4-0.6-0.3-3,1.3-2.6C82.7,3.4,82.4,3.8,82.3,4.2z M79.8-3.9
		c-1.2,0.4-0.9-1.3-0.5-1.6C79.9-5.3,79.9-4.6,79.8-3.9z M79.7-6.6c0-1.1,1-1.9,1.8-1.8c-0.4,0.5-0.8,1-1,1.8H79.7z M78.2-5.3
		c-0.5-1,0.4-1.9,0.6-2.7C79.6-7.5,78.5-6,78.2-5.3z M79.4-2.6c0.3,0.5,0.7,0.9,1.4,1c-0.4,0.7-1.2-0.2-1.9-0.2
		C78.8-2.3,79.3-2.2,79.4-2.6z M80.2,3.1C81,3.8,79.8,5,79.4,5.5C79.2,4.8,79.7,3.6,80.2,3.1z M81.5,6.1c0.8,0.1-0.1,0.9-0.2,1.3
		c-0.6-0.1-0.7,0.3-1.3,0.2C79.7,6,81.5,7.3,81.5,6.1z M81.1,12.7c2.1-1.1,4.4-2,6.4-2.9c1.2-1.1,2.5-2.1,3.9-3.1
		c0.4,0.1,0.2,0.9,0.6,1c1.1,0.1,1.1-0.7,1.4-1.3c0.7-0.1,1.2,0.1,1.6,0.3c-3.4,5.3-8.5,8.9-14.5,11.6c0.1-1.2,0.9-2.7-0.2-3.4
		c-0.9,0.9-1.2,3-1.3,4.3c-1-0.4-0.3-2.4,0-3.4c-1.6-0.4-1.9,2.4-1.8,3.7c-0.3,0.2-1.4,0.2-1.8,0c0.1-1.4,1.9-2.4,1.1-3.5
		c-1.7,0.4-1.5,2.7-2.3,4c-0.7,0.2-1,0.1-1.6-0.2c0-1.3,0.8-1.7,1-2.7c-0.5-0.6-1.3,0-1.9-0.5c-1.9,0.6-0.8,4.2-3.2,4.3
		c0.1-2,1.1-3.1,1.8-4.5c-2.2-0.6-3.2,1.4-4,2.7c-0.1,1.1,0.1,2.4-0.8,2.6c-1.2-2.4,1.3-3.8,2.1-5.3c-2,0.4-3.7,2.6-3.4,5.8
		c-0.6,0.1-0.8-0.2-1.1-0.3c0.3-2.1,1.1-3.6,2.6-4.5c0.1-0.6-0.2-0.7-0.3-1c-1.8,0.1-1.3,3.1-3.2,2.6c0-1.1,1-1.3,1.5-1.9
		c0.1-0.3-0.1-0.4-0.2-0.6c-1.1-0.1-1.4,0.6-1.9,1.1c-0.4-0.5-0.9-1-1-1.8c3.7-1.1,6.6,0.6,11.1-0.2c0.4-0.1,1-0.2,1.5-0.3
		c2.1-0.6,4.7-1,6.3-1.6C80.2,13.6,80.5,13,81.1,12.7z M96.3,4.2c-1.1,0-1.9,0-2.6-0.2c0-1.3,1.1-1.6,2.6-1.4
		C96,3.3,95.9,3.6,96.3,4.2z M95.6,5.3c0,0.8-1.7,0.1-2.1-0.2C94.4,4.9,94.8,5.4,95.6,5.3z M88.9-3.2v-0.6c2.3,0.3,3.1-1.5,4.7-2.3
		C92.7-4.6,90.7-2.7,88.9-3.2z M90,0.5c0.4,0.6,0,1.1,0,1.6C89.3,1.9,90.1,1.1,90,0.5z M88.2,1.6c-0.1-0.5,0.1-0.7,0.6-0.6
		C88.9,1.5,88.7,1.7,88.2,1.6z M71,20.6c0.2-1.1,0.5-2,1.1-2.7C72.4,18.8,72,20.5,71,20.6z M67.6,21.4c-0.9-0.8,0.3-2,0.5-2.7
		C68.4,19.4,67.9,20.8,67.6,21.4z M62.1,22.2c-1.1-0.1-0.6-1.4,0-1.6C62.9,20.8,62.2,21.9,62.1,22.2z M61.5,18.1
		c-0.3,0.7-0.5,1.6-1.3,1.8C59.9,19.1,60.6,18.2,61.5,18.1z M95-9.2c-0.1-0.9,1.3-1.7,1.3-3.1C96.8-11.5,96.5-8.9,95-9.2z
		 M81.6-21.7c-0.2,0.9,0.3,1.2,0.3,1.9c-0.9,0.2-0.8-0.6-1-1.1h-0.8c-0.4,5,7.1,2.6,8.4,0.2c0.1-0.8-0.1-1.2-0.6-1.3
		c-0.5,0-0.7,0.3-0.6,0.8c-0.6,0-0.3-0.8-1-0.6c-0.6,0-0.8,0.2-0.8,0.8c-1.3-0.5-1.6,1-2.4,1.4c-0.1-0.4-0.2-0.7-0.2-1.3
		c2.2-3.1,8.9-2.3,10.5,0.8c0,0.6-0.8,0.3-0.8,1c0,0.3,0.2,0.3,0.2,0.5c0.7,0.2,0.8-0.3,1.1-0.5c1.2,1.2,3,4.3,2.1,6.1
		c-0.6-0.2-0.2-1.4-1.1-1.3c0.2-0.4,0.6-0.5,0.8-1c-0.2-0.5-0.8-0.5-1.3-0.6c-0.5,0.3-0.4,1.5,0.3,1.4c-0.6,0.7-0.2,1.8,0.5,2.1
		c-0.8,1-0.8,2-1.6,2.9c1.1,0.6,2,2.9,0.2,3.4C93.7-6.9,94-7.3,94-8c-0.5-0.3-1.3-0.2-1.8-0.5c-0.5,0.2-0.8,0.6-0.8,1.3
		c-0.6-0.1-0.7,0.3-1.3,0.2c0.1-0.4,0.3-0.8,0-1.1c-0.8-0.1-1.2,0.2-1.1,1c0,0.5,0.7,0.3,1.1,0.3c0,0.5,0.1,1.2-0.2,1.4
		c-1.2,0.2-1.6-0.3-2.3-0.6c-0.1,0-0.2,0.2-0.3,0.2c-0.4,0.1-0.1,0.9-0.2,1.3c-1.1-0.1-1.3-0.1-1.9,0.3c-0.1-0.3-0.4-0.4-0.3-1
		c0.8,0.2,2.3,0,1.6-1.5c-1.3-0.1-1.7,0.8-2.7,1c-0.1-0.3-0.4-0.6-0.3-1.1c-1.3,0-0.7,2-1.9,2.1c-0.5-2,2.2-6.4-1.5-6.4
		c-0.1,1.2,1,1,0.8,2.3c-0.6-0.1-0.9-0.5-1.3-0.8c-1.9,0.2-1.3,2.8-2.7,3.4c-0.4,0.5,0.4,1.1,0,1.6c-1.1-2,0.8-4.9,2.3-5.8
		c0-0.6-0.1-1-0.5-1.1c-1.6,0.9-1.9,3-3.1,4.3c0-1.2,0.6-1.7,0.8-2.7c-0.2-0.4-0.6,0.2-1.1,0c0.9-1.5,1.9-2.9,2.4-4.8
		c-0.7-0.3-1.1,1.4-2.1,0.8c0.1-1.2,1.6-1,1.6-2.3c-1.8,0-2.9,2.1-4,3.4c-0.8-2.6,3.1-3.1,3.5-5.5c0.8,0.1,1.2-0.2,1.4-0.6
		c0-0.7-0.3-1-0.8-1.1c-1.7,0.4-2.6,1.6-3.7,2.6c-0.3,0.1-0.3-0.2-0.3-0.5c-1.4,0.5-1.9,1.7-2.7,2.7C71.5-19.6,75.9-21.7,81.6-21.7z
		 M73.6-9.2c-0.4-1.4,1.1-2.3,1.6-3.4c0.2,0,0.3,0,0.3,0.2C74.9-11.3,74.1-10.4,73.6-9.2z M74.2-6.6c-0.6-0.2-0.3-1.6,0-1.9
		C74.4-8,74.7-7,74.2-6.6z M72.6-12.2c-0.2,0.7-0.7,1.1-0.8,1.9C71.4-10.9,71.8-12.2,72.6-12.2z M70-14.8c-0.1,1.2,0.5,1.8,1.3,2.4
		c0,0.8-0.8,0.7-1,1.3C70-9.4,71.2-9,70.9-7.6c0.4,0.8,1.9,1.3,1.5,2.4C69.6-6.3,68.3-11.6,70-14.8z M67.3-2.9
		C67.4-2,67-1.4,66.2-1.4C66.3-2.2,66.5-2.8,67.3-2.9z M66.6,2.4c0.6,0.5-1.5,2.1-0.5,3.1c0.6,0.1,0.8-0.2,1.1-0.3
		c-0.4-1.3,0.4-1.8,1.1-2.4C71.6,3.9,76,2.9,79,3.4c-0.1,1.3-1.8,1.7-1,3.4c0.2,0.4,0.7-0.2,1.3,0c0.2,1.2-1.5,1.1-2.1,0.6
		c-1.8,0.7-4.6,0.8-6.4,0.2c-1.8,3.3,6.5,0.3,7.9,2.1C79.5,9.8,79,8.6,80,8.9c-0.4,2.3-4.2,4.3-7.2,3.5c-3,0.5-7.5,0.9-9.5-0.6
		c-0.7-0.1-0.9,0.3-1.5,0.3C61.6,11.6,61,11.6,61,11c1.1-1.7,3.1-0.5,4.8-1.3C66,9.3,66.2,9.1,66,8.6c0.7,0,1-0.3,1.1-0.8
		c0-0.9-1-0.8-1-1.8c-0.9-0.2-0.7,0.6-1.3,0.6C64.3,4.7,65.4,3.4,66.6,2.4z M65.5-6.3c0.3,0.6-1.4,2-2.3,2.6
		C62.9-5,64.7-5.6,65.5-6.3z M63.4,0.3c0.3,0,0.3,0.2,0.5,0.2c-0.3,1.1-0.9,1.9-1.4,2.7c-0.5,0.1-0.4-0.4-0.8-0.5
		C61.9,1.6,62.8,1.1,63.4,0.3z M61.3-0.6c-0.2,0.7-0.8,1-1.3,1.4C59.5,0.1,60.7-0.4,61.3-0.6z M60-1.3c-0.3,0.5-0.8,1.4-1.3,1.1
		C59-0.7,59.2-1.3,60-1.3z M58.9-2.2c-0.2,0.7-0.5,1.3-1.5,1.3c-0.1-0.1-0.1-0.3-0.3-0.3C57.1-2.2,57.9-2.3,58.9-2.2z M54.9,2.7
		c2.4,3.3,7.2,3.9,10.8,5.5c-1.2,0.6-3.4,0-4.8,0.3c-0.4-0.2-0.4-1-1-1.1c-0.4,0.1-0.5,0.6-1,0.6c-1.4,0-2-0.8-3.5-0.6
		c-2.3-1.2-5.1-2-6.1-4.5C51,2.8,52.9,2.7,54.9,2.7z M45,12.6c1.1-0.9,2.8-2.5,4.5-1.8C49,12.4,48,13.5,47,14.7
		c-0.6,0.2-0.2-0.7-0.5-0.8c-0.5-0.1-0.7,0.3-1,0.5c-0.6-0.2-0.9-0.7-1.6-0.8C43.9,12.9,44.3,12.5,45,12.6z M46.2,34
		c0.3,0.1,0.5,0.4,0.6,0.6c-0.2,0.7-0.2,1.7-1.3,1.6C45,35.3,45.7,34.4,46.2,34z M46.7,26.3c-0.2,0.6-0.5,1-0.8,1.4
		C45.4,27.2,46.1,26.4,46.7,26.3z M46.3,24.7c0.1-0.6,0.5-1,0.6-1.6h0.5C47.4,23.9,47,24.4,46.3,24.7z M47.8,27.2
		c-0.1,0.6-0.5,0.8-0.8,1.1C46.6,28,47.3,27.3,47.8,27.2z M45,16c-0.6,0.2-0.3-0.7-0.2-0.8C45.2,15.1,45.4,15.9,45,16z M43.6,14.5
		c0.6-0.1,0.6,0.7,0.3,1C43.3,15.6,43.3,14.8,43.6,14.5z M44.9,22.4c0.2,0.1,0.3,0.2,0.3,0.5c-1.7,1.5-2.5,3.7-4.3,5
		C41.9,25.8,43.1,23.8,44.9,22.4z M43.8,32.6c-0.7-0.2-0.4,0.5-1,0.5c-0.1-0.6,0.1-0.9,0.3-1.3c1.6,0.2,0.9,2,0.3,2.9
		C42.8,33.9,44.1,33.6,43.8,32.6z M42.3,29.8c0.7,0.5,0.1,1.9-0.6,1.9C41.2,31,42,30.3,42.3,29.8z M41,30.1c0-1.1,0.6-1.5,1-2.3
		C42.7,28.5,41.8,29.9,41,30.1z M40.2,24.2c-1,1.4-3.2,2.5-5.2,2.4C36.5,25.6,38.6,25.1,40.2,24.2z M39.7,26.3
		c0.5,2.6-0.3,4.9,1,6.4c1.7,0.4,0.7,3.3,2.7,3.4c1.9,1.6,3.4,3.7,6,4.7c2,2.2,5.7,2.7,8.1,4.5c2,0.3,3.9,0.2,5.8,0.5
		c2.1,0.3,4.3,1.4,6.3,1.5c0.7,0,1.3-0.4,1.9-0.5c2.6-0.3,5.3,0.9,8.1,0c1.4,0.4,3,0,4.5-0.2c11-1.1,21.2-2,28.4-7.1
		c1.2-1.2,2.3-2.5,3.9-3.2c3-2.9,4-8.1,5.5-12.1c1.6,0.2,2.5,1.2,3.4,2.1c-0.4,1.2-0.2,2.8,1.5,2.4c-0.5,0.7-1.3,1.1-1.3,2.4
		c-0.3,0.2-0.9,0.2-1.1,0.5c0.5,1.8-1.2,2.3-1.1,4c-0.3,0.3-0.9,0.1-1.5,0.2c-0.3,1.1-1,1.8-1.8,2.4c-0.5-0.7-1.1-1.1-1.8-1.6
		c-1.3,0.1-0.6,1.5-0.2,1.9c-0.2,0.7-1.1,0.6-0.6,1.6c-0.7,0.2-1.4,1.1-1,1.9c-0.4,0.3-1,0.4-1.3,0.8c-0.3-0.2-0.1-1-0.5-1.1h-1.1
		c-0.2,0.7-0.2,1.5-0.6,1.9c-0.1,0.6,0.6,0.4,0.5,1c-0.2,0.8-0.7,1.6-1.5,1c-0.2-0.6,0.6-0.7,0.2-1.1c-0.3-0.5-0.9-0.2-1.3,0
		c-0.2,0.9,0.6,0.7,0.5,1.4c-0.3,0.4-0.5,0.7-1.3,0.6c0.1-0.8-0.2-1.1-0.6-1.3c-0.5,0.2-0.5,0.8-0.5,1.5c0.2,0.4,1.2-0.1,1,0.6
		c-2.1-0.2-3.3,0.8-5,1.3c0.7-1.3-0.7-1.6-1.3-2.1c-0.6,0.6-1.6,0.7-1.9,1.5c0,0.5,0.5,0.4,0.6,0.6c0.5,0.1,0.7-0.2,0.8-0.5
		c0.1,0.5,0.8,0.5,1,1c-0.7,0.6-1.4,0.3-2.6,0.5v-1.3c-0.3-0.3-0.9-0.1-1.4-0.2c-0.6,0.2-0.5,1-0.5,1.8c0.3,0.6,1.5-0.3,1.3,1
		c-1-0.5-2.8-0.3-4.3-0.3c0.3-0.8-0.2-1.5-1.1-1.5c-0.5,0.8-0.8,1.8-1.6,2.3c-0.5-0.2,0.2-1.6-1.1-1.3c-0.6,0.3-0.2,1.2,0,1.6
		c-0.2,0.2-0.6,0.2-0.6,0.5c-0.7-0.3-1.6-0.4-1.6-1.4h-1c-0.5,0.7-0.8,1.6-1.3,2.3c-0.7-0.2-1.5-0.3-2.1-0.6
		c-0.2-0.7,0.5-0.5,0.5-1.1c0.4,0,0.5,0.3,1,0.2c0.7-0.3,0.5-1.6-0.5-1.5c-0.4,0-0.3,0.5-0.3,1c-1.3-0.2-1.6,0.5-1.9,1.3
		c-1,0-1.2-0.7-2.1-0.3c-0.5-0.7-0.9-2.3-2.1-1.8c-0.2,1,0.5,1.1,0.5,1.9c-0.3,0.8-1.2,0.9-2.1,1.1c0-0.5-0.3-1.1-1.1-1.1
		c-0.8,0.6-0.4,2-0.6,2.7c-0.4,0.3-1.1-0.2-1.3-0.6c1.4-0.2,0.2-1.6,0.2-2.4c-0.6-0.1-0.9,0.1-1.1,0.3c-0.1,0.6,0.3,0.8,0.2,1.5
		c-1.3-0.4-1.9-1.5-3.5-1.5c0.1-0.8,0.2-1.4-0.2-1.9c-0.5,0.2-1.3,0.1-1.5,0.6c0.1,0.5,0.6,0.7,0.6,1.3c-0.5,0.2-0.9,0.4-1.6,0.3
		c-0.1-0.5,0.3-0.6,0.2-1.1c-0.2-0.1-0.4-0.2-0.8-0.2c-0.7-0.1-0.6,0.7-0.8,1.1c-1.1-0.3-1.2,0.5-1.4,1.1c-1.6-0.8-2.3-2.6-4.5-2.9
		c-0.3-1.6-1.7-2-2.6-3.1c-0.7,0-0.5,0.8-1.3,0.6c0.1-0.6,0-1.2-0.3-1.5c-0.7,0-1.1,0.3-1.3,0.8c0,0.7,1.1,0.2,1,1
		c-0.7,0.5-0.7-0.4-1.5-0.3c0.1-0.8,0.3-1.4,0.6-1.9c0-0.7-0.5-0.8-0.8-1.1c-0.1,0-0.2,0.2-0.3,0.2c-0.4,0.1-0.1,0.9-0.2,1.3
		c-0.5,0-0.8,0.1-1,0.5v0.6c0.2,0.4,0.7,0.5,1.3,0.5c-0.4,1.2,0.7,2.5-0.6,3.1c-0.7-1.5-1.6-3.8-3.9-4.3c0-0.8,1.2-0.3,1.1-1.1
		c0.1-0.4-0.3-0.3-0.3-0.6c-1.1,0.2-2.4,0.3-3.4,0.6c-0.1-0.4-0.5-0.5-0.5-1c-0.8-0.1-0.6,0.7-1.3,0.6c-0.7-0.5-1.1-0.5-1.3-0.8
		c0.5-0.8-0.2-1.2-0.6-1.6c-0.1-0.6,0.7-0.4,0.6-1c0.1-0.5-0.2-0.7-0.5-0.8c-0.5-0.1-0.4,0.4-0.8,0.5c0,0.5,0,0.8,0.3,1
		c-0.1,0.6-1.1,0.4-1,1.3c-0.1,0.5,0.3,0.5,0.8,0.5c0.1,0.7,0.1,1.1,0.5,1.8c-0.6-0.1-0.4,0.7-1.1,0.5c0-3.7-2.1-5.2-5.2-5.8
		c-0.2-0.7,0.3-1.5-0.5-1.9c-0.5,0.4-1,0.8-1.9,0.8c-0.7-1.4-2.3-1.9-3.7-2.6c0.5-1,1.2-1.8,1.8-2.7c-0.3-1.2-0.9-2.2-1.6-3.1
		C34.5,29.3,36.5,27.2,39.7,26.3z M119,40.6c-0.2,0.2-0.9,0.2-1.1,0c0.3-0.5,0.9-0.7,0.5-1.4c0.3-0.1,0.6-0.3,1-0.3
		C119.3,39.5,118.8,39.7,119,40.6z M111.9,47.9c-0.4,0.1-0.6,0-0.8-0.2c0-0.4,0.5-0.4,0.6-0.6C112.2,47.2,112,47.5,111.9,47.9z
		 M88.9,54c0.1-0.5,0.4-0.8,1-1C90.3,53.6,89.4,54.5,88.9,54z M58.9,49.8c-0.2,0.2-0.9,0.2-1.1,0c-0.1-0.6,0.2-0.7,0.3-1
		C58.5,49,58.9,49.2,58.9,49.8z M33.9,27.1v1.6c-0.8,0.5-1.5,1.1-2.6,1.3C32.3,29,32.6,27.5,33.9,27.1z M62.6,80.9
		c-1.1-1.1-0.1-3.2-1.3-4.2c0.5-1,0.3-2.5-0.6-2.9c-0.1-0.9,0.4-1.1,0.3-1.9c0-0.5-0.9-0.2-1.1-0.5c-0.1-0.7,0.5-0.7,0.6-1.1
		c-0.9-1.3,0.1-2.1-0.5-3.5c-0.7-0.1-0.4,0.8-1.1,0.6c-0.6-0.9,0.4-1.2,0.8-1.6c-0.6-1.4-1.4-2.5-2.3-3.7c0.6-0.1,1.2-0.2,1.5-0.6
		c-0.1-0.9-1.5-0.7-1.9-1.3c0.2-0.7,1.6,0.7,1.9-0.5c-0.2-1-1.4-1-2.4-1.1c-0.1-0.4-0.2-0.7-0.2-1.3c0.4,0.1,1.5,0.4,1.6-0.2v-0.3
		c-0.3-1.2-3,0.1-2.7-1.6c0.5-0.1,1.9,0.5,1.8-1c-0.8-0.5-2.7-0.3-3.9-0.2c0.3,1.4,1.6,1.8,1.6,3.5c1.4,1.9,1.8,5.1,2.6,7.7
		c1.3,4.6,3.3,9.4,3.5,15c-2.6,0.1-5-1.4-7.2-2.3c-0.2-2-0.7-3.7-0.6-6c-0.9-0.5-1.6-1.2-1.8-2.4c0.4-0.4,1.4-1.6,0.3-2.1
		c-0.5-0.1-0.6,0.3-0.6,0.6c-1.5-0.8,0.4-2.2-0.3-3.5c-0.7-0.2-0.9,0.5-1.3,0.2c-0.1-0.7,0.7-0.5,0.8-1c-0.2-1.1-0.9-0.5-1.5-0.6
		c-0.3-0.6,0-1.2,0.2-1.8c-0.3-1-1.6-1-1.6-2.3c-0.1-0.7,1.1-0.1,1-0.8c-0.4-0.8-2.4-0.8-1.8-2.1c0.8-0.1,1.2,0.9,1.9,0.3
		c0.2-1.9-2.8-0.5-2.7-2.3c1-0.2,1.1,0.6,1.9,0.6c0.2-0.1,0.4-0.3,0.5-0.5c0-1.5-2.1-0.8-2.9-1.4c0.2-0.8,1.1,0.1,1.8-0.2
		c0.1-0.5-0.2-0.6-0.2-1c-1.1,0.1-2.3-0.7-3.2-1.3c-0.7,0.1-0.8,0.7-1,1.3c0,0.7,0.8,0.7,1.3,1c2.5,8.3,6.8,14.9,8.5,24
		c-3.3-0.5-3.5-1.8-4.5-4.6c-0.1-0.5-0.8-1.8-0.7-2.2c-2.5-5.6-4.6-11.6-7.6-16.8v-1.1c-0.1-0.5-0.7-0.4-1-0.8
		c-0.2-0.8,0.7-0.4,0.8-1c-0.1-0.9-1.4-0.5-1.9-1c0.2-0.5,1-0.4,1.1-1c-0.1-1.5-2.4,0.1-2.1-1.6c0.4-0.2,1.2,0.2,1.6,0.5
		c0.2-0.3,0.4-0.5,0.3-1.1c-1.6-0.5-3.2-1.4-4.2-0.2c4.9,9,10.1,17.7,13.2,28.4c-1-0.2-1.6-0.8-2.4-1.1c0.1-0.6-6-12.8-8.7-18.5
		c-1.1-2.2-2.3-4.3-3.4-6.4C31.7,46,30.3,44,29.3,42c-0.4-0.8-1.1-2.5-1.1-3.1c-0.2-2.3,2.8-5.1,0.6-6.8c0.5-1.4,2.8-2.5,2.1,0
		c0.4,0.7,1.4,0.7,1.8,1.5c0,2.3-2.4,2.1-2.1,4.7c1.1,0.1,2.9,0.2,3.7,1.1c0.4,1.7-1.3,3,0.2,3.9c3.1-3.1,9.3-0.7,7.7,4.7
		c0.2,0.4,0.5,0.6,1,0.6c1.9-3.1,7.5-1.8,9.2,0.6c0.1,1.5,0.3,2.9,1.3,3.5c0.8,0.1,0.9-0.5,1.1-1c3.1-1.5,7.8-0.9,9.3,1.8
		c-0.9,1.1,0.2,2.8-1.1,3.5c3.7,6.3,4.4,15.2,4.8,24.3C65.8,81.8,64.9,80.7,62.6,80.9z M118.2,62c-1.8,1.3-1.4,4.8-3.5,5.8
		c0-2.9,1.3-5.8,2.6-7.9c2-8.7,5.1-14.9,8.5-22C123.8,46.5,120.5,53.7,118.2,62z M126,37c-2.2,3.1-3.7,7.1-5.4,10.8
		c-0.3,0.8-1.6,3.1-1.3,4.1c-2.9,4.7-3.7,10.2-5.8,15.7c0,0-1.8,6.1-2.3,7.1c0.7-0.6,2.5-3.8,2.7-4h0.5c-0.5,3.9-4,5.1-7.1,6.8
		c-1.7,0.9-4.1,2.4-6,2.5c0.6-0.5,3-11.4,5.5-15.2c-0.1-1-0.2-1.4,0.2-2.3c0.4-0.2,1.2-0.1,1.3-0.6c-0.3-1-0.7-1.9,0-2.7
		c0.8-0.1,1.6,0,1.9-0.5c0.1-0.8-0.9-0.5-1.3-0.8c0-1,1.7-0.4,1.9-1.1c0.2-0.9-0.9-0.6-1-1.3v-0.6c0.5-0.6,2.1-0.1,1.9-1.3
		c-0.8-0.6-2.2,0.3-3.2,0.3c-3.2,8.2-4.8,17.9-8.2,25.8c-2.1,0.2-3.8,1.8-6.1,1.3c-0.3-1.8,1.8-3.5,0.8-5.5c0-0.7,0.9-0.4,1-1.1
		c-0.7-1.4-0.5-2.5,0.6-3.2c-0.5-1.2-0.4-1.8,0.6-2.4c0.3-0.5-0.1-0.8-0.3-1.3c0-0.7,0.8-0.5,1-1.1c-0.2-0.7-0.8-1.3-0.3-2.1
		c0.9,0.1,1.6,0,1.6-0.8c-0.2-0.8-1,0.4-1.5-0.2c0.1-0.5,0.3-0.8,0.5-1.3c1-0.3,2.3,0.4,2.3-1.1c-0.2-0.5-1.5,0.2-1.8-0.3
		c0.2-1.2,2.8,0,2.7-1.4c-0.3-0.9-1.2-0.2-1.9-0.2c-0.4-0.5,0.1-1.1,0.2-1.6c0.8-0.2,1.7-0.4,2.4-0.6c-0.1-1.1-1.1-0.9-1.8-0.7v-1
		c-0.5,0.1-0.7-0.1-1.1-0.2c-1.4,1.6-1.3,4.6-2.4,6.4c-0.2,7.2-2.9,13.3-4.3,19.8c-2,0-4.9,1-6.8,0.6c0.6-1.6,1-3.3,0.8-5.3
		c0.2-0.4,0.7-0.5,1-0.8c0.1-1-1.2-0.5-0.8-1.8c0.6-0.1,1.4,0,1.4-1c-0.1-0.6-1.2-0.1-1.3-0.6c0.1-0.9,0.9-0.2,1.6-0.3
		c0.2-1.1-0.2-1.7-1.3-1.6c0.3-0.3,0-1.2,0.3-1.5c0.5,0.1,1.7,0.8,1.8-0.2c0.1-0.8-1-0.4-1.6-0.5v-1c0.8,0,1.4,0.3,1.8-0.3
		c0-1.1-1.3-0.2-1.6-0.8c0.1-1.5,2.2,0,2.4-1.3c0.2-1.2-1.8-0.1-1.8-1.1c0.5-0.4,2.2,0.3,1.9-1c-0.6-0.6-1.5,0.1-1.9-0.2
		c0.1-1.5,2.6,0.2,2.9-1c-0.3-1.1-1.3-0.6-2.4-0.6c0-0.4-0.1-0.9,0.2-1.1c0.4-0.2,1.4,0.1,2.3,0c0.1-0.5,0.1-0.3,0-0.8
		c-0.2-0.4-1-0.3-1.6-0.3c-0.3-0.4,0.3-1.2-0.2-1.8c-0.5-0.1-0.6,0.2-1,0.2c-0.6,2.5-1.5,5.2-1.9,8.5c-0.5,4.4-1,8.7-1.8,12.9
		c-0.2,1-0.8,2.1-0.5,3.4c-1.1,0.6-5.8,0.7-7.9,0.5c0.5-2.7-0.2-5.6,0.2-8.5c0.3-0.6,1.3-0.6,1-1.8c-0.2-0.6-0.5,0-1,0
		c-0.2-0.7-0.3-1.8,0-2.4c0-0.8,0.4,0.3,1,0c0.3-1.3-0.8-0.8-1-0.8c-0.3-0.6,0.1-1.3,0-2.3c0.4,0,0.9,0.1,1-0.3
		c0.4-1.3-1.1-0.7-1-1.8c0.2-0.9,2.2,0,1.9-1.3c-0.4-0.9-1.6,0.4-1.8-0.3c0.1-0.9,1.2-0.2,1.8-0.8c0-0.5-0.3-0.9-0.2-1.6
		c-0.1-0.7-1.1-0.4-1.3-1c0-1,1.2,0.4,1.5-0.6c0-1.5-2.1-0.7-2.9-0.3c-0.4,8,0.1,15.5-0.6,23.7c-1.9,0.4-3.7-0.3-5.6-0.3
		c-0.9-5-0.9-11.3-1.6-15.9c0.5-0.1,0.2,0.7,0.8,0.5c0.4-0.2,0.7-0.6,0.5-1.1c-0.1-0.5-0.9-0.3-1.5-0.3c-0.2-0.4-0.4-0.8-0.3-1.5
		c0.8,0,0.9,0.8,1.6,0.2c0.3-2-2.2-0.3-1.9-2.3c0.6-0.4,1.2,0.6,1.9,0c0.2-1-0.4-1.2-1.3-1.1c0.5-1-0.1-1.6-0.8-1.9
		c-0.2-0.6,0.9-0.1,0.8-0.6c0.2-1.2-1.4-0.8-2.1-1.1c0-0.2,0-0.5-0.2-0.5c0.8-2,3.1-3.1,5.3-3.1c2.3,0,4.1,2.2,5,3.5
		c0.6-0.1,0.8,0.2,1.1,0.3c0.8-2.1,2.8-3,4.8-3.9c3.7-0.3,6.2,0.9,7.6,3.4c0.7-0.2,0.9-0.9,1.1-1.6c1.9-2.2,6.8-4.2,10.2-2.4
		c0.3,0.4,0.3,1,0.6,1.3h1.1c0.4-4.5,6.5-6.5,10-3.7c0.8-0.1,0.9-1.1,0.6-1.8c0.6-3.5,3.3-6.6,7.6-5c0.4-0.1,0.4-0.7,0.6-1
		c-0.4-0.9-1-1.5-1-2.4c0.2-2.1,3-2.1,4.7-2.9c-0.9-3.4,0.9-5.9,4.4-6c-0.8,1.7-2,2.6-3,4C126.3,35.8,126,35.5,126,37z M129.1,30.9
		c0.3-2-1.5-3.2-2.7-4.2c0.2-3.1-3.7-2.3-4.5-4.4c1.4-0.2,2.6,1.1,4.2,1.3c1.4,1.9,2.1,4.7,4.4,5.8C130.2,30.2,130,30.9,129.1,30.9z
		"/>
	<path class="st0" d="M119,46.7c0-0.5,0.6-1.1,0.2-1.6c-1.3,0.2-0.9,2.2-1.9,2.7c-1.4,5.3-3.3,10.1-5.8,14.3
		c-1,4.9-5.2,15.2-5.2,15.2c0.5-0.4,1.6-1.6,1.6-0.9c-0.1-0.3,5.2-13.9,7.5-19.1c-0.4-0.6-0.3-1.3,0-1.9c0.6,0.4,1,0.3,1.5-0.2
		c0.1-0.9-0.4-1.2-0.6-1.8c0.4-0.8,1-0.9,1.8-1.1c0.4-0.9-1-0.8-0.5-1.3c-0.1-0.8,1.3-0.2,1.5-0.8c0.1-0.9-0.7-1.3-0.2-2.1
		c0.9,0.1,1.4-0.1,1.6-0.6C120.3,46.8,119.5,46.9,119,46.7z"/>
</g>
</svg>
