<?xml version="1.0" encoding="utf-8"?>
<!-- Generator: Adobe Illustrator 19.1.0, SVG Export Plug-In . SVG Version: 6.00 Build 0)  -->
<svg version="1.1" id="_x2014_ÎÓÈ_1" xmlns="http://www.w3.org/2000/svg" xmlns:xlink="http://www.w3.org/1999/xlink" x="0px"
	 y="0px" viewBox="43 -15.7 135.1 80.7" style="enable-background:new 43 -15.7 135.1 80.7;" xml:space="preserve">
<style type="text/css">
	.st0{fill:#404045;}
</style>
<g>
	<path class="st0" d="M105.9-5.3c0.3,0.3,1,0.6,1.5,0.3c-0.5-1-2.4-1.2-3.8-1C103.8-5.2,105.2-5.6,105.9-5.3z"/>
	<path class="st0" d="M105.8-0.9c1.6-0.3,2.9-0.9,4.4-1.3c0.7,0,1.4,0.1,1.3-0.8C109.4-2.5,106.5-2.2,105.8-0.9z"/>
	<path class="st0" d="M94.9-1.3c-0.8-0.3-2.5-1.2-3-0.5C92.2-0.9,94.5-0.4,94.9-1.3z"/>
	<path class="st0" d="M103.3-0.7c-1-0.4-3.6-0.2-4.6,0C99.2,0.2,102.4-0.1,103.3-0.7z"/>
	<path class="st0" d="M114.6,8.2c-0.2-0.2-0.9-0.3-1,0.1C113.9,8.5,114.5,8.5,114.6,8.2z"/>
	<path class="st0" d="M85,8.9c-1.5-0.7-3.7-1.4-5.1-1.7C80.9,8.3,83.4,9.3,85,8.9z"/>
	<path class="st0" d="M98.9,7.8c-0.9,0.1-1.6-0.2-2,0.2C97.9,7.9,98.6,8.6,98.9,7.8z"/>
	<path class="st0" d="M102,8.1c-1.1,0.1-2.1-0.4-2.7,0C100.4,8.2,101.2,8.4,102,8.1z"/>
	<path class="st0" d="M110.1,9.4c0.2-0.4,0.1-0.2,0.7-0.1c-0.3-0.7,1.2,0.2,1.4-0.5c-0.9,0-1.2-0.5-2.2-0.4
		c-0.3,0.4,0.1,0.6-0.2,0.9C109.9,9.3,110,9.3,110.1,9.4z"/>
	<path class="st0" d="M105.5,8.8c-3.7-0.2-8.4-0.4-12.2-0.5c-0.2,0-0.4,0.1-0.4,0.3C96.5,9.3,102.1,9,105.5,8.8z"/>
	<path class="st0" d="M106.9,8.8c-0.4-0.2-1-0.3-1.2,0.1C106,9,106.8,9.3,106.9,8.8z"/>
	<path class="st0" d="M116.6,9.5c-0.7-0.1-1.3-0.9-2.2-0.4C115,9.3,116,9.8,116.6,9.5z"/>
	<path class="st0" d="M107.8,9.4c0.2,0,0.4,0,0.5,0c0-0.2,0-0.4,0-0.5c-0.2,0.1-0.7-0.2-0.7,0.1C108,9.1,108,9.2,107.8,9.4z"/>
	<path class="st0" d="M104,9.5c0.3-0.1,1,0.2,1.1-0.1C104.8,9.2,104.2,9.3,104,9.5z"/>
	<path class="st0" d="M102.8,9.6c0.4,0,0.8,0,1-0.2C103.4,9.4,102.8,9.2,102.8,9.6z"/>
	<path class="st0" d="M99.9,9.8c0.4,0,1.2,0.2,1.2-0.2C100.8,9.4,100.1,9.3,99.9,9.8z"/>
	<path class="st0" d="M99.7,9.6c-1.6,0-3.2,0-4.5,0.4C96.8,10,98.5,10.2,99.7,9.6z"/>
	<path class="st0" d="M80.7,9.7c1.3,0.6,3.4,1.8,4.8,1.4c-1.5-0.6-3.3-1.6-4.8-1.8C80.7,9.4,80.7,9.6,80.7,9.7z"/>
	<path class="st0" d="M81.5,11.6c0,0.2-0.2,0.2-0.2,0.4c1.2,0.5,2.4,1,3.9,1.2C84.7,12.2,82.6,11.8,81.5,11.6z"/>
	<path class="st0" d="M71.5,11.5c-1.4,0.1-2.7,0.4-3.4,1.2C69.3,12.5,71.1,12.7,71.5,11.5z"/>
	<path class="st0" d="M107.1,13.3c-2.3-0.1-5.9-0.5-8,0.1C101.6,13.7,104.8,13.7,107.1,13.3z"/>
	<path class="st0" d="M110,13.3c-0.4,0.1-1.1-0.2-1.2,0.1C109,13.6,109.8,13.6,110,13.3z"/>
	<path class="st0" d="M131.9,14.4c-0.6,0.8-2.3,1.1-1.9,2.5c1.3-0.2,1.5-1.5,2.1-2.4C132.1,14.4,132.1,14.4,131.9,14.4z"/>
	<path class="st0" d="M131.2,17.2c1.4-0.3,1.9-1.6,2.7-2.6C132.7,15.1,131.7,15.9,131.2,17.2z"/>
	<path class="st0" d="M135.3,14.9c-1.1,0.5-2.2,1-2.7,2.2c0.3,0.4,0.5-0.1,1-0.1c-0.1,0.4,0,0.6,0.4,0.6c0.1,0,0.3,0,0.4,0
		c0.2-1,1.2-1.1,1.6-2c-0.9,0-1.2,0.7-1.9,0.9C134.4,16,135.5,15.7,135.3,14.9z"/>
	<path class="st0" d="M137.3,15.8c-1,0.3-2.4,0.9-2.4,1.8c0.6,0.3,1.2,0.9,1.9,0.3c0.1,0.1,0,0.5,0.4,0.4c1.4-0.4,2.2-1.5,3-2.6
		c-1.5,0.1-1.7,1.6-3.1,1.9c0.1-0.5,0.7-0.6,0.9-1.1c-0.7-0.1-1.2,0.8-1.6,0.5C136.4,16.5,137.2,16.5,137.3,15.8z"/>
	<path class="st0" d="M73.3,13.5c-1.5,0.4-2.9,0.8-4,1.6C70.6,15,72.6,14.6,73.3,13.5z"/>
	<path class="st0" d="M82.4,14.1c0.4,0.8,2.1,1.1,2.9,1.1C84.9,14.4,83.5,13.9,82.4,14.1z"/>
	<path class="st0" d="M106.2,14.9c-2.1-0.1-4.4-0.4-5.6,0.5c4-0.4,7.9,0.2,11.1,0C110.5,14.9,108.3,15,106.2,14.9z"/>
	<path class="st0" d="M143.5,16.5c-1.6,0.5-3,1.4-3.8,2.8C141.1,19,142.3,17.4,143.5,16.5z"/>
	<path class="st0" d="M138.1,18.9c0.1,0,0.2,0.2,0.3,0.3c1-0.5,2.6-1.8,2.4-2.6C139.8,17.2,138.8,17.8,138.1,18.9z"/>
	<path class="st0" d="M105.8,16.2c-1.6,0-3.3-0.3-4.6,0.2c2.7,0.5,5.7-0.4,8.5,0.2C108.8,15.8,107.1,16.2,105.8,16.2z"/>
	<path class="st0" d="M144.2,22.8c0.8,0.1,0.9-0.5,1.1-1c1-1.1,2.6-1.7,3.6-2.8c-0.2,0-0.2-0.2-0.4-0.2
		C146.9,19.8,144.6,20.8,144.2,22.8z"/>
	<path class="st0" d="M102.2,18.3c1.4,0.1,3.7,0,5-0.3C105.9,17.4,103.3,17.8,102.2,18.3z"/>
	<path class="st0" d="M104.9,20.1c-0.9-0.2-2.3-0.5-3.2-0.3c0,0.2,0.1,0.3,0.1,0.4C102.6,20.4,104.6,20.9,104.9,20.1z"/>
	<path class="st0" d="M59.2,20.7c-1.8,1.9-4.6,3.3-5.5,5.6c2-1.9,3.9-4,6.3-5.5C59.8,20.7,59.5,20.7,59.2,20.7z"/>
	<path class="st0" d="M100.6,23.9c-0.5-0.5-2.8-0.6-3.4,0C98,24.1,100,24.4,100.6,23.9z"/>
	<path class="st0" d="M96.5,25.4c1.2,0.5,4.2,0.3,5.3,0.2c-1.3-0.6-3.9-0.6-5.3-0.6C96.5,25.1,96.5,25.2,96.5,25.4z"/>
	<path class="st0" d="M102.9,27c-1.9-0.9-4.6-0.5-6.9-0.7c0,0.2-0.2,0.2-0.2,0.4C97.6,27.2,101.3,27.1,102.9,27z"/>
	<path class="st0" d="M94.6,27.9c2.2,1,4.9,0.1,7.2,0.4c0.9,0.1,1.8,0.8,2.6,0.2c-2.3-1.1-6.9-0.6-9.7-1.1
		C94.6,27.6,94.6,27.7,94.6,27.9z"/>
	<path class="st0" d="M94,29.3c1.7,0.8,5,0.5,7.6,0.7c1.4,0.1,2.5,0.7,3.5,0.3c-2.8-1.1-7.5-0.9-11.1-1.4C94,29.1,94,29.2,94,29.3z"
		/>
	<path class="st0" d="M99.8,30.7c-1.7-0.1-3.3-0.2-4.7-0.3c-0.1,0-0.2,0.1-0.3,0.1c-0.1,0.2-0.2,0.2,0,0.4c3,0.7,6.8,0.1,10,1.1
		C103.9,30.8,101.7,30.8,99.8,30.7z"/>
	<path class="st0" d="M100.4,32.9c1.4,0.1,3,0.7,3.8,0c-2.2-0.6-6.4-0.8-8.8-1.2c0,0.1,0,0.3,0,0.4C96.5,33.1,98.6,32.7,100.4,32.9z
		"/>
	<path class="st0" d="M137.2,34.3c-0.2,0-0.2-0.2-0.4-0.2c-0.4,0.8-1.3,1-1.4,2.1C136.4,36,136.7,35.1,137.2,34.3z"/>
	<path class="st0" d="M103.2,33.8c-2.2-0.5-5.7-0.1-7.7-0.8c-0.1,0-0.2,0.1-0.3,0.1c0,0.1,0,0.3,0,0.4c1.7,1.1,4.6,0.4,7,0.8
		c1,0.2,1.7,0.8,2.6,0.5C104.8,34.1,103.7,33.9,103.2,33.8z"/>
	<path class="st0" d="M151.1,37c-0.2,0.3-1.1-0.2-1,0.5C150.6,37.6,151.5,37.4,151.1,37z"/>
	<path class="st0" d="M150.4,38.5c0.7,0.1,1.1-0.1,1.4-0.5C151.3,38.2,150.5,38,150.4,38.5z"/>
	<path class="st0" d="M146.5,46.2c1.2,0.2,2.2-1.7,3.6-0.8c0.7-0.5,1.8-0.6,2.7-0.8c0-0.3,0-0.5,0.2-0.7
		C150.7,44.5,147.7,44.4,146.5,46.2z"/>
	<path class="st0" d="M68.2,43.1c0-0.1-0.1-0.2-0.3-0.1c-1,1.1-0.9,3.3-1.8,4.4c-0.3-0.9,0.4-2.5-0.3-2.7c-0.8,1.3,0,3.2-0.1,4.9
		c0,0.9-0.8,2.1,0,2.7c0.4-0.3,0.3-1.1,0.9-1.3C65.9,48.3,67.7,45.6,68.2,43.1z"/>
	<path class="st0" d="M144.5,48.7c-1.1,0.7-2.5,0.9-3.3,1.8c1.8-0.9,4-1.3,5.7-2.4c-0.6-0.2-1.1,0.5-1.5,0.1c1.2-0.3,2.4-1,3.6-1.4
		c0.3-0.1,0.8,0.3,0.8-0.4c-2.7-0.1-4.1,1.2-5.9,2.1C144.1,48.6,144.6,48.4,144.5,48.7z"/>
	<path class="st0" d="M72.7,46.7c-0.6,2.2-2.2,4.9-1.6,7.4c0.5,0,1-0.2,1.4-0.4c0-0.8-0.7-0.9-0.9-1.5c0.3-2.1,1.3-3.4,1.6-5.5
		C73,46.7,72.8,46.7,72.7,46.7z"/>
	<path class="st0" d="M74.7,48.5c0-0.2,0-0.3-0.3-0.3c-0.2,0.2-0.6,0.4-0.8,0.8c-0.6,1.1-1.4,6.4,0.1,6.7c0.5-0.5-0.4-0.8-0.4-1.4
		C73.5,52.5,73.7,49.8,74.7,48.5z"/>
	<path class="st0" d="M79.1,55.4c-0.3-0.3-0.6-0.6-1.1-0.7c0.2-2.1,0.7-3.8,1.3-5.4c-1.8,0.7-1.3,3.8-2.1,5.5
		c-0.6,0-1.2-0.1-1.3-0.5c0.2-2.1,0.9-3.6,1.3-5.5c-0.1,0-0.3,0-0.4,0C75.7,50.2,76,53,75,54.4c-0.7,0.2-0.7-0.7-1.2-0.3
		c-0.3,1.1,0.9,0.8,1.3,1.3c0,0.7-0.2,1.5,0.5,1.5c0.6-0.3-0.1-1.1,0.3-1.5c1.2-0.2,1.2,0.8,2,1C78.2,56,78.4,55.5,79.1,55.4
		c-0.1,0.7-0.1,1.2,0.5,1.3c0.5-1.2,0.7-3.5,0.9-4.6C79.3,52.5,79.6,54.4,79.1,55.4z"/>
	<path class="st0" d="M81,56.8c0.1,0.2,0.2,0.4,0.2,0.6c0.4,0.1,0.5-0.1,0.8-0.1C82.2,56,81.3,55.7,81,56.8z"/>
	<path class="st0" d="M84.1,57.5c-0.2,0.2-0.2,0.5-0.2,0.8c0.4,0.2,0.8,0.1,1-0.4C84.8,57.6,84.5,57.5,84.1,57.5z"/>
	<path class="st0" d="M88.7,57.9c-0.1,0.3,0,0.5,0.1,0.7c0.5,0,1.1,0,1.1-0.5C89.8,57.7,88.9,57.7,88.7,57.9z"/>
	<path class="st0" d="M174.3,21c-0.9-0.2-2.6-0.2-3.5-0.1c-2.2,0.1-4.4,1.6-6.2,1.7c-0.5-1.7-5.1-4.3-6.1-4.8
		c-1.1-0.7-2.6-1.7-4-2.3c-2.2-1-4.7-2.2-6.9-2.8c-0.8-0.2-4.1-1.3-5.1-1.6c-1.9-0.6-6.9-1.3-10.8-0.8c11.2,1,20.7,4.9,26.2,8.9
		c0.9,0.7,4.2,3.5,4.5,4.4c-1.2,0.5-6.5,2-7.7,2.4c-0.5,0-2.8,1.4-4,1.2c0.6-1.3,2-1.8,2.7-3c-1.5,0.8-3.6,2-3.5,3.5
		c-0.8-0.2-1.2,0.6-1.8,0.2c1.4-2,3.6-3,5.1-5c-2.7,0.9-3.8,3.4-6,4.8c-0.3,0.4-0.3,1.1-1.1,1c0.6-1.6,1.9-2.7,3.1-3.8
		c0.6-0.5,1.1-1.1,1.7-1.7c0.5-0.5,1.6-0.9,1.4-1.8c-2.5,1.5-3.8,4.2-6.5,5.6c0.4-3.2,4.1-4,5.8-6.3c-2.8,0.8-4.1,3.2-6.3,4.6
		c-0.8-1.2,1-2.1,1.9-2.9c0.4-0.4,0.9-0.9,1.4-1.3c0.5-0.4,1.4-0.6,1.1-1.2c-2.3,0.8-3.2,3.1-5.4,4c0-0.9-0.8-1.1-0.9-1.9
		c0.8-1.3,2.3-2,3.2-3.1c-1.7-0.3-2.5,2.5-4.2,2.3c0.3-1.4,2.5-1.9,3.4-3.1c-2.1,0-2.7,2.4-4.4,2.3c0.5-1.2,2.1-1.3,2.7-2.5
		c-1.8,0.5-2.8,1.8-4.3,2.5c2.8,1.8,5.2,4.6,5.1,8.6c-2.1,0.8-10.1,4.2-12,4.8c-3.3,1.2-6.7,2.8-10,3.7c-0.3,0.2-6.3,1.5-9.3,2.1
		c1-1.2,3.8-0.5,5.2-1.3c-0.8-0.7-2.3,0.5-3.4-0.1c1.2-0.7,3.4-0.2,4.4-1.2c-0.7-0.5-1.3,0.3-2,0.2c3.8-1.8,5-6,5.8-8
		c1.6-4.2,3-10.2,5-13.9c0.5,0,1.3,0.2,1.6-0.1c0-0.7-1.3-0.2-1.6-0.6c1.8-3.8,2.8-8.2,5.2-11.1c0.6-0.8,1.2-1.9,1.5-2.6
		c0.4-0.9,0.5-1.2,0.5-3.4c-1-2.2-1.1-2.6-3.1-4.7c-1.4-1.2-3-2.3-4.4-2.9c-8.5-3.6-25.2-4.8-25.6-4.4c-0.5,0-1.1,0-1.6,0
		c0.5-0.3,0.8-0.7,0.8-0.9c-0.4,0.3-0.9,0.6-1.3,0.9c-7.5,0.1-12.9,1-19,3c-1,0.3-1.9,0.9-2.8,1.5c-2.8,1.3-4.4,2.6-5.3,5.2
		c-0.6,1.8-0.4,3.5,0.7,4.7c1.1-0.8,0.5-1.6,0.4-2.3c-0.4-4,2-5.2,4.3-6.9c2.9-2.2,8.3-3,12-3.3c-1.6,0.7-2.6,2-3.7,3.2
		c-0.2-1.5,0.9-1.6,1.2-2.5c-2.6,1-12.4,2.5-11.7,8.5c0.2,1.5,1.2,2.2,1.9,3.2C82.2,2.7,90.1,3.5,93.1,4c1.4,0.2,10,0.7,14.1,0.7
		c2.5,0,5.6-0.2,8.3-0.5c3.9-0.4,7.4-0.7,10.3-1.9c0.5-0.2,2.5-0.8,3.1-1.1c2.1-1.1,2.7-1.6,3.6-3.5c0-0.9,0.2-1.5-0.1-2.2
		c-1.9,1.1-2.9,3.2-5.2,4c0.1-0.7,0.8-0.6,1.3-0.9c0.9-1.7,2.8-2.3,3.6-4.1c-1.3,0-1.7,1.6-2.8,1.4c0.4-0.9,1.7-1.3,1.4-2.4
		c-0.5-0.1-0.6-0.1-1.1-0.4c-0.9,0.4-1.3,1.8-2.4,1.5c-0.2-0.8,1.4-1.2,0.8-1.8c-0.9-0.2-1.2,2-2.4,1.4c0.2-1,1.2-1.1,1.3-2.3
		c-1.3,0.1-1.5,2.5-2.9,1.6c0.2-0.8,1.4-1.1,1.2-2c-1.3-0.1-1.5,2.5-2.6,1.3c0.3-0.9,1.8-1.2,1.4-2.3c-1.6,0.2-1.6,2.2-3,2.6
		c-0.3-1,1-1.3,1-2.4c-0.9-0.1-0.8,1-1.5,1.2c-2.1-0.8-4.7-1.2-7-1.8c2.1-0.2,5.1,0.4,7.2,1c-1.7-1.7-5.7-1.5-8.6-2.1
		c-0.1-0.2-0.1-0.5-0.4-0.6c-1.7-0.1-4.1-1.4-5.5-0.5c0.6,0.6,2.5,0.1,3.1,0.8c-0.8-0.2-1.6-0.2-2.6-0.2c0.2,1,2.1,0.3,2.7,0.9
		c-0.4,0.7-2.1,0.3-2.6-0.1c-1,0-3.2-0.1-3.9-0.8c-3.4-0.5-6.5,0-10,0c2.9-1.6,7.5-1.1,11.4-1c-1.5-0.5-4.8-0.9-7.3-0.7
		c-1.8,0.1-3.4,1.1-4.5,0.9c-0.4-0.1-1.2-0.4-1.2-1c3.9-0.6,9-0.4,9.5-0.4c4.6-0.1,5.4,0,10.2,0.4c5.6,1,14,2.7,16.9,4.2
		c2.4,1.8,4.4,2.8,5.8,5.7c0.3,0.5,0.5,1.8,0.3,2.4c-0.7,2-3.7,3.2-5.5,3.9c-7.4,3.1-31.3,4.2-46,0.8c-2-0.5-3.9-1.5-5.6-2.4
		c-0.3-0.8-1-1.2-2-1.3c-0.7,0.3,0.3,1.1-0.3,1.2C70.3,1.4,66,1.1,63.4,3.5c-5.7,4.7-4.6,9-3.6,11.7c-6.8,4-13.7,8-16.8,16.4
		c0.1,0.2,0.7,0,0.5,0.4c-1.6,4.7,0.5,8.2,2.5,11.6c3,5.1,8.9,10.8,17,14.8c1.7,0.8,13.5,4.1,15.2,4.4c1.2,0.2,8.7,1.2,10.5,1.5
		c7.2,1,17.5,0.6,19.1,0.6c10.8-0.1,20.2-2.5,29.5-5.4c1.1-0.3,4.9-2,5.9-2.5c2.1-0.9,7.1-3.6,7.8-4.2c2.7-2.2,5.2-4.3,7.7-6.8
		c1.9-1.8,8.3-12.6,8-13.5c1.1-0.2,3.1-0.5,4.3-0.7c2.6-0.6,5-0.9,6.7-2.9C178.4,26.2,178.4,22.1,174.3,21z M82.1-3
		c-0.4-0.7,0.7-0.8,1-1.2C83.1-4,82.7-3.1,82.1-3z M81.9-7.8c0.5-0.6,1.7-1.2,2.6-0.8C84-8,82.9-7.9,81.9-7.8z M84.5-9.4
		c-0.8-0.1-1,0.3-1.8,0.2c0.5-0.5,1.1-0.9,2.1-1C84.8-9.9,84.6-9.7,84.5-9.4z M85.3-8.9c0.6-0.4,0-2.1,1.3-1.7c-0.3,1,0,1.4,0,2.3
		C86.1-8.3,85.7-8.6,85.3-8.9z M87.8-2.8c-0.2-0.5,0.1-0.7,0.3-1.1C88.3-3.7,88.3-2.6,87.8-2.8z M129.6-6.2c0.1,0.5-0.6,1.3-1.3,1.4
		C128.5-5.4,129.3-5.6,129.6-6.2z M128.1-3.2c0.2,0,0.5,0.1,0.5-0.1c0.1,0,0.1,0.1,0.3,0.1v0.3c-0.3,0.1-0.9,0-1,0.4
		C127.6-2.7,128.1-3,128.1-3.2z M127.4-2.2c-0.2,0.4-0.4,0.9-1,0.9C126.5-1.8,126.9-2,127.4-2.2z M89.6-8c0,0.3-0.2,0.5-0.6,0.5
		C89.1-7.8,89.3-8,89.6-8z M104,2.7c-0.1-0.1-0.3-0.2-0.5-0.2c0.1-1,0.9-1.2,1.8-1.3C105.2,2.2,104.1,1.9,104,2.7z M105.4,2.7
		c0.3-0.7,1.1-1.3,1.9-1C106.9,2.2,106.3,2.7,105.4,2.7z M109.2,2.7c0-0.5,0.5-0.4,1-0.4C110.3,2.9,109.4,3,109.2,2.7z M110.3,1.1
		h-0.4c-0.1-0.4,0.3-0.3,0.3-0.5C110.6,0.7,110.3,0.7,110.3,1.1z M111.5,2.9c0-0.4,0.5-0.3,0.8-0.4C112.3,2.9,111.8,2.8,111.5,2.9z
		 M112.4,2.4c-0.1-0.5,0.2-0.7,0.6-0.7C113,2.2,112.8,2.4,112.4,2.4z M111.6-0.6c0.7-0.2,1-1,1.8-1.2C113.1-1.1,112.5-0.7,111.6-0.6
		z M113.9,2.7c0-0.7,1-0.9,1.4-0.6C115.1,2.6,114.6,2.8,113.9,2.7z M113.9,0.1c0.2-0.3,0.5-0.5,1-0.5C114.8,0.1,114.4,0.2,113.9,0.1
		z M113.9-1.2c0.3-0.9,1.2-1.2,2.4-1.3C115.6-1.8,114.6-2,113.9-1.2z M115.6-0.2c0.2-0.6,0.8-0.9,1.4-1c-0.1-0.4-0.2-0.2-0.5-0.2
		c0.3-0.4,0.9-0.4,1.4-0.6C117.2-1.4,117.1,0.5,115.6-0.2z M117.3,2.3c0.1-0.9,0.9-0.9,1.7-1C118.7,1.9,118.1,2.3,117.3,2.3z
		 M118.7-1.4c0.4,0.2-0.1,0.7-0.4,0.7C118.1-1.3,118.5-1.2,118.7-1.4z M118.6,0.3c0.1-0.6,0.7-0.6,1.1-0.9
		C120.4-0.1,119.4,0.9,118.6,0.3z M119.8-1.1c0.3-0.5,0.5-0.9,1.3-0.9C121-1.3,120.3-1.2,119.8-1.1z M120.5,0.3
		c0.3-0.7,0.6-1.4,1.5-1.3C121.7-0.4,121.4,0.2,120.5,0.3z M122.4,1c-0.3,0-0.4-0.2-0.7-0.3c0.1-0.3,0.6-0.3,1-0.4
		C122.8,0.8,122.5,0.8,122.4,1z M123.2,1.2c0.3-0.8,0.6-1.7,1.7-1.7C124.4,0.1,124.3,1.2,123.2,1.2z M125.3,0.4
		c0-0.6,0.4-0.9,0.7-1.2C126.2-0.4,125.6,0.3,125.3,0.4z M126.3-2.9c0,0.5-0.3,0.6-0.4,0.9C125.4-2.2,125.7-3.1,126.3-2.9z
		 M125.8-1.8c-0.2,0.4-0.4,0.7-1,0.8C124.7-1.7,125.3-1.7,125.8-1.8z M124.6-2.8c0.1,0,0.1,0.1,0.3,0.1v0.3
		c-0.4-0.1-0.3,0.4-0.8,0.2C124-2.6,124.4-2.6,124.6-2.8z M123.5-5.7c0.2-0.2,0.7-0.1,0.8,0.2C124.3-5.1,123.2-5.3,123.5-5.7z
		 M124-1.6c-0.2,0.6-0.5,1.1-1.3,1C123-1.1,123.3-1.6,124-1.6z M123.1-2.4c-0.1,0.6-0.7,0.7-1.3,0.7C122-2.2,122.4-2.7,123.1-2.4z
		 M122.2-5.2c-2.3-0.2-4.9,0.1-7.4-0.6C117.1-6,120.1-6.2,122.2-5.2z M120.1-6.5c-0.7,0.3-2.4-0.1-2.4-0.4
		C118.2-7,119.6-6.9,120.1-6.5z M117.7-7.6c-1,0.4-2.3-0.2-3.4-0.1C114.6-7.9,116.9-7.8,117.7-7.6z M112.5-7.1
		c1.4-0.1,2.4,0.2,3.5,0.4c-1.2,0.3-2.1,0-3.3,0.3C112.7-6.7,112.4-6.7,112.5-7.1z M111.4-6.9c0,0.6-0.4,0.3-0.7,0.1
		C110.7-7.1,111.2-6.8,111.4-6.9z M109.2-9.5c-1.5,0.5-3.4-0.4-5.3-0.6c-1.3-0.1-2.9,0.1-4.6-0.2C102.7-11,106.1-10.4,109.2-9.5z
		 M105.9-8.6c-0.8,0.2-2.2-0.3-2.8-0.8C104.3-9.3,104.8-8.7,105.9-8.6z M100.9-11c-1.5-0.2-2.7,0.1-4.2,0
		C97.7-11.2,100.1-11.8,100.9-11z M92.5-4.9c-1,0.3-2.7,1.7-1.2,2.7c0.6-0.2,0.3-0.8,0.3-1.5c0.6-0.5,1.5-0.5,1.7-1.4
		c1.4,0,3.7,0.3,4.9-0.2c-0.1-0.8-1.1-0.7-1.7-1c-0.3-0.2,0-1.1-0.6-1.1c0.2-0.4,0.8-0.4,1.4-0.4c0.2,0.3,0,0.2,0,0.5
		c2,0.4,4.2,0.3,6.4,0.4c1.3,0,2.2,0.8,3.4,0.7c-0.8-1-3.1-1.7-4.4-1.3c-1.5-0.8-4.7-1.4-7-1c-1,0.2-1.4,1.4-2.3,1
		c0.4-1.8,3.3-1,4.4-2.1c3.6,0,5.8,1.2,8.7,1.8c0.5,0-0.2-0.6,0.2-0.5c1,0.1,2,1,2.6,0c0.4,0.2,1,0.3,1.5,0.5
		c-0.3,0.6-1-0.1-1.6,0.1c0.3,1.5,1.9,1.8,3.2,2.4c-1.3,0.7-2.5-1-3.4-0.3c0.7,0.9,2.1,1,3.6,1.1c0.5,0,0-0.5,0.3-0.5
		c1.7,0.4,3.2,0.9,5.3,1c-0.3,1.3-2.2,0.8-3.3,1.2c-0.3-0.6-2.4-0.9-2.6,0.2c0.4,0.4,0.9-0.1,1.5,0.1c-1.9,0.9-5,2.7-7.6,3
		c-0.5,0-1-0.2-1.5-0.2c-2.4,0.1-5.2,1.4-7.6,0.1c-0.2,0.1-0.5,0.1-0.7,0.2c-2.5-1.4-5.9-1.2-6.8-4.1c0.1-0.7,0.8-0.8,0.9-1.5
		C91-4.7,92-5,92.5-4.9z M95.3-6.4c-0.8,0.2-0.5-1,0-0.9C95.1-7,95.1-6.8,95.3-6.4z M89.6-10.9c0.3-0.7,1.1-0.8,1.7-1.2
		C91.7-11.7,90.3-10.9,89.6-10.9z M167.3,23c-1.3,2.5-4,4.6-5.6,7.2c-0.6,0-1,0.4-1.8,0.2C162.1,27.6,164.5,25.1,167.3,23z
		 M161.6,33.1c-0.7,0.3-1.4,0.6-2.5,0.6C159.7,33.2,160.5,33,161.6,33.1z M164.5,24.1c0.3,0,0.2,0.1,0.1,0.3
		c-1.8,2.3-3.9,4.1-5.7,6.4c-0.6,0-1.1,0.3-1.8,0.2C159.1,28.1,161.8,26.1,164.5,24.1z M163.4,24.1c-1.9,1.5-3.7,3.3-5.5,5.3
		c-0.9,1-1.4,1.9-2.9,2.1C157.3,28.4,159.8,25.6,163.4,24.1z M159.3,25.5h0.4c-0.7,1.4-2.1,2.1-3.1,3.1s-1.6,2.6-3.1,3.1
		c-0.1-0.5,0.8-1.5,1.4-2.1c0.7-0.7,1.6-1.3,1.8-2.1C157.8,27.1,158.4,26.2,159.3,25.5z M157.1,26.3c0.2,0.4-0.6,0.9-1,1.5
		c-0.5,0.6-0.9,1.3-1.4,1.6c0.1,0.4-0.2,0.3-0.2,0.7c-1.1,0.6-1.5,2.1-2.9,2.3C153.2,30,154.7,27.7,157.1,26.3z M154.8,26.3h0.4
		c-0.2,1.3-1.4,2.4-2.3,3.4c-0.8,1-1.5,2.6-3,2.9C151.1,30,153.5,28.7,154.8,26.3z M139.6,32.5c4.6-2.1,9-4.6,14.5-5.8
		c-0.8,1.1-1.8,1.9-2.7,3c-0.7,0.9-1.4,2.6-2.4,3.2c-0.7,0.4-2,0.5-3.2,0.8c-3.9,1.1-7.5,2.5-11.5,3.2c0.2-1.3,1.3-1.6,1.6-2.8
		c-0.9,0.1-1.4,0.8-1.8,1.4c-0.4,0.6-0.6,1.6-1.4,1.7c-0.2-1,1.1-1.5,1.5-2.4c-0.4-0.4-1.1,0.5-1.6-0.1
		C134.7,33.9,136.8,32.8,139.6,32.5z M138.8,42.4c-0.9-0.1-1.3,0.9-2.2,0.3c0.5-0.7,1.4-0.9,2-1.6c-0.9-0.3-1.8,1.2-2.6,1
		c0.4-0.9,1.4-1.1,2-1.8c-1-0.2-1.7,1.2-3,1.1c0.2-0.3,0.6-0.3,0.7-0.8c-0.3-0.1-0.5-0.4-1.3-0.3c1.6-2.1,5.5-2.2,8.4-3.2
		c0.8-0.3,1-0.8,2.1-0.7c-1.4,2.9-3.4,5.2-6.1,6.7C138.2,42.8,138.9,42.7,138.8,42.4z M134.4,44.9c-0.2,0.8-1.2,0.7-1.8,1
		C132.9,45.3,133.7,45.2,134.4,44.9z M132.3,41.7c0.7-0.6,1.5-0.9,2.6-1C134.3,41.3,133.4,41.5,132.3,41.7z M134,43.7
		c-0.1-0.3,0.6-1,1.3-0.9C135.2,43.4,134.5,43.4,134,43.7z M135.7,37.5c1.5-0.6,3.3-0.9,5.2-1.2C139.3,36.8,137.8,37.5,135.7,37.5z
		 M134.4,38.1c-0.5,0.4-1.4,0.4-2.1,0.6C132.8,38.3,133.7,38.3,134.4,38.1z M130.2,45.1c0.5-0.6,1.1-1.1,2.1-1.1
		C131.9,44.8,131,44.9,130.2,45.1z M131.5,46.3c-0.2,0.3-0.9,0.6-1.2,0.4C130.4,46.3,130.9,46.2,131.5,46.3z M128.5,43
		c0.4-0.6,1.2-0.7,2.1-0.9C130,42.6,129.2,42.8,128.5,43z M129.7,45.9c-0.1,0.3-0.6,0.3-1,0.4C128.8,45.9,129.4,46.1,129.7,45.9z
		 M127.5,44.6c-0.7,0.7-1.5,1.3-2.5,1.7C125.6,45.6,126.5,44,127.5,44.6z M125.7,44.2c0.2-0.5,0.8-0.4,1.1-0.8
		C127,43.7,126.3,44.2,125.7,44.2z M124.7,41.3c-3.2,0.2-4.5,2.4-7.2,3.2c0.6-1,1.9-1.3,2.9-1.9c0.6-0.4,1.1-1.1,1.7-1.4
		c0.5-0.3,1-0.1,1.6-0.2c2.2-0.5,4.9-2.1,7.7-2.1C129.6,40.1,126.3,39.7,124.7,41.3z M113.5,55.9c0.1-1.1,1.7-1.9,2.2-3.2
		c0-0.2-0.2-0.1-0.4-0.2c0.7-1.3,1.7-1.7,2.2-3c-0.9-0.1-1.3,1.4-2.1,1.8c0.3-0.9,0.7-1.6,1.2-2.3c1.1,0.1,2,0,2.9-0.2
		c-0.6,0.6-1.5,1-2.1,1.5c1-0.4,1.9-1,2.6-1.7c0.1,0.1,0.1,0.2,0.3,0.3c-1.2,1.1-2.6,2.1-4.1,3C116.3,53.6,114.2,54.5,113.5,55.9z
		 M105.5,54.8c-1.5,0.2-3.1,0.7-4.4,0.6c-0.2,0-0.5-0.3-0.7-0.3c-0.5,0-0.8,0.4-1.2,0.4c-2.1,0-4.1-0.6-6.1-0.9
		c1.5-0.4,3.1,0.4,5.1,0.3c6-0.1,12.3-1,15.6-4c0.2,0,0.3,0.1,0.3,0.3C112.3,53.4,109.4,54.2,105.5,54.8z M110.9,55.9
		c0.1-0.3,0.3-0.4,0.4-0.7C111.6,55.5,111.4,56.2,110.9,55.9z M106.8,56.9c0-0.3,0.4-0.1,0.4-0.4C107.6,56.7,107,57.3,106.8,56.9z
		 M105.7,56.1c-0.3,0.4-1.1,0.9-1.5,0.8C104.6,56.5,105,56.2,105.7,56.1z M100.8,56.2h1.1c-0.3,0.4-0.9,0.4-0.9,1.1
		c-0.5-0.1-0.9,0-1.2,0.1C99.9,56.8,101.3,57.1,100.8,56.2z M98.6,56.3c-0.5,0.3-0.9,1.4-1.7,0.9C97.4,56.7,97.8,56.3,98.6,56.3z
		 M87.2,44.7c-0.3,0.9-0.7,1.6-1.4,2c-0.2-1.2,1.2-1.9,1.9-2.6C88.2,44.1,87.3,44.6,87.2,44.7z M87.9,45.8c-0.1,0.5-0.7,1.6-1.6,1.8
		C86.1,46.7,87.2,45.7,87.9,45.8z M85.5,45.4c-0.6-0.7,0.4-1.8,1.3-1.9C86.6,44.4,85.9,44.8,85.5,45.4z M87.2,49.3
		c-0.8-1.7,1.2-2.5,2.3-3.3c0.1,0.6-1.4,1.9-2.1,2.6c0,0.7,0.4,1.1,0.6,1.7c0.8-0.4,0.9-1.7,1.8-2c0.2,1.4-1.4,1.6-1.1,2.7
		c0.6,0.1,0.3-0.8,1-0.6c-0.5,0.6-0.3,0.8-0.1,1.5c-3.1-0.6-5.4-1.9-6.3-4.5C84.8,47.8,85,50.5,87.2,49.3z M89.1,48
		c0,0.4-0.1,0.6-0.6,0.5c0-0.2,0.2-0.3,0.2-0.5L89.1,48z M90.5,53.6c-2.2,0.2-5.2-1.2-6.3-3C86.1,51.9,87.8,53.2,90.5,53.6z
		 M89.8,49.9c0.1-0.3,0.5-0.4,1-0.4C90.8,50,90.2,50,89.8,49.9z M89.3,45.5c0.5-0.6,1-1.2,2-1.3C91,45.1,90.1,45.2,89.3,45.5z
		 M88.9,44.4c0.4-0.2,0.6-0.5,1.1-0.6C89.8,44.1,89.5,44.4,88.9,44.4z M91.6,48.5c0.1,0.5-0.4,0.4-0.8,0.4
		C91,48.7,91.3,48.6,91.6,48.5z M91.5,48c0.4-0.4,0.6-1,1.5-0.9C92.8,47.6,92.4,48.1,91.5,48z M92,50.2c0.4,0.4-0.6,0.6-1.1,0.5
		C90.8,50,91.7,50.5,92,50.2z M91.6,49.9c0.1-0.7,0.9-1,1.5-0.8C92.9,49.8,92.2,49.8,91.6,49.9z M93.7,50c0,0.5-0.5,0.5-1,0.5
		C93,50.2,93.2,49.9,93.7,50z M93.3,48.5c0-0.4,0.3-0.4,0.7-0.4C93.8,48.3,93.7,48.5,93.3,48.5z M93.4,50.9
		c-0.2,0.4-0.8,0.4-1.2,0.5C92.1,50.7,93.1,51.1,93.4,50.9z M101.9,42.3c0.7-1.3,1.7-2.3,2.8-3.1C104.4,40.2,103.1,41.6,101.9,42.3z
		 M106.4,41.5c-0.6,1.1-1.5,2-2.4,2.8C104.2,43.2,105.5,42.2,106.4,41.5z M100.9,48.1c0.4-0.9,1.3-1.4,2-2.1c0.3,0.1,0,0.6,0.5,0.4
		c-0.1,0.6-0.6-0.1-0.8,0.2C102.9,47.7,101.9,48.1,100.9,48.1z M96.3,51.3c0,0.4-0.6,0.3-1,0.4C95.3,51.2,95.8,51.3,96.3,51.3z
		 M95.1,50.3c0-0.5,0.3-0.7,0.8-0.6C95.8,50,95.6,50.3,95.1,50.3z M95.9,50.7c0.2-0.3,0.6-0.3,1.1-0.2
		C96.9,50.9,96.3,50.7,95.9,50.7z M96.6,49.9c0.1-0.5,0.6-0.6,1.1-0.8C97.7,49.8,97.2,50,96.6,49.9z M96.2,49c0.1-0.5,0.4-0.8,1-0.8
		C97.2,48.9,96.7,48.9,96.2,49z M96.7,46.7c0.6-0.5,0.9-1.4,2-1.4C98.1,45.8,97.5,46.4,96.7,46.7z M98.8,48
		c-0.2,0.2-0.3,0.5-0.7,0.5C98.2,48.1,98.4,47.9,98.8,48z M99.1,51c-0.1,0.3-1.3,0.6-1.4,0.1C98,50.8,98.7,51,99.1,51z M98.6,50.4
		c0.2-0.5,1-0.4,1.5-0.6C100,50.5,99.3,50.5,98.6,50.4z M99.6,49.4c0.2-0.7,1-0.8,1.8-0.9C101.1,49.2,100.4,49.3,99.6,49.4z M99,46
		c0.1-0.6,0.7-0.5,1-0.9C100.2,45.4,99.6,46,99,46z M102,49.5c0,0.5-0.4,0.6-1,0.5C101.1,49.5,101.5,49.5,102,49.5z M102.8,42.7
		c0.3-0.4,0.7-0.8,1-1.2C104,41.9,103.4,42.6,102.8,42.7z M101.1,37.5c-1.5,0-2.6-0.3-4.1-0.3C97.8,36.8,100.7,36.8,101.1,37.5z
		 M100.5,35.8c0.7-0.6,2.4-0.3,3.4,0.1C102.7,36.3,101.8,35.8,100.5,35.8z M103.4,38.9c-0.5,1.3-2,2.8-2.9,4.2c-2-0.9-5-0.8-5.7-2.9
		C97.2,39.1,99.8,38.5,103.4,38.9z M94.9,44.7c0.6,0.2-0.2,0.7-0.6,0.7C94.3,44.9,94.7,45,94.9,44.7z M102.3,52.9
		c0.1-0.5,0.8-0.2,1.1-0.1C103.3,53.1,102.6,52.8,102.3,52.9z M111.4,49.4c0.2-0.5,0.9-0.7,1.1-1.2
		C112.7,48.7,111.8,49.2,111.4,49.4z M120.1,45.6c-0.3,0.6-1.2,0.5-1.7,1c0.1,0.5,0.5,0.2,0.8,0.2c-0.4,1-1.7,1.1-2.4,1.8
		c-0.5-0.1,0-0.4-0.1-1c1.2-0.7,1.6-2.2,3.1-2.6C120.2,45.2,119.6,45.5,120.1,45.6z M116.2,45.7c-0.3-0.4,0.7-1.3,1.1-0.9
		C117.1,45.3,116.4,45.3,116.2,45.7z M118.1,48.3c1.3-0.9,2.8-1.6,4.2-2.4c0.3,0.6-0.9,1.2-1.6,1.6C119.9,47.9,119,48.3,118.1,48.3z
		 M124,46.3c-0.6,0.8-1.6,1-2.4,1.7C121.7,47.2,122.9,46.3,124,46.3z M130.5,43.3c0.4-0.5,1.1-0.7,1.8-0.9
		C131.8,42.8,131.2,43.1,130.5,43.3z M132,36c0.4,0.2-0.5,1.5-1.1,1.6C130.9,36.7,131.7,36.6,132,36z M130.1,36.9
		c0.3,0.3-0.5,0.7-0.6,1.1C129.1,37.5,129.9,37.2,130.1,36.9z M129.3,36.4c-0.4,0.8-0.8,1.6-1.7,1.8
		C128.1,37.6,128.5,36.8,129.3,36.4z M127.1,37.8c-0.4,0.3-0.3,1-1,0.9C126.3,38.3,126.5,37.9,127.1,37.8z M125.3,38.2
		c0.1,0.3-0.3,1.3-0.9,1.3C124.4,38.7,125.1,38.8,125.3,38.2z M124.3,38.1c-0.3,0.7-0.8,1.1-1.2,1.7C123,39.2,123.8,38.4,124.3,38.1
		z M116.3,39.6c-0.2,0.2-0.6,0.3-1.1,0.2C115.3,39.5,115.8,39.6,116.3,39.6z M117.9,39.9c2.2,0,3.2-1.3,5.2-1.6
		c-0.3,0.8-1,1.1-1,2.1c-2.6,1.1-4.8,2.6-7.1,4.1c-0.7,1.7-2.1,2.7-3.7,3.5c1-1.3,2.5-2.1,3.4-3.5c-3.2,1.4-4.4,5-7.7,6.2
		c1.1-1.8,2.9-2.8,4.2-4.3c-1.7,0.5-3.1,2.3-4.5,3.8c-0.4,0.4-1,1.2-1.7,0.7c1.1-1.7,2.8-2.8,4.1-4.3c-2,0.2-2.8,3-4.9,3.6
		c0-0.2,0.2-0.3,0.6-0.2c0.5-2,2.5-2.5,3.4-4.1c-2.4,0.7-2.9,3.5-5.6,4c0.6-1.7,3.1-2.7,4.1-4.5c-2.1,0.1-2.6,3-4.7,3.5
		c0.9-1.9,3-2.5,4-4.3c-1.1,0.1-1.3,1.3-2.4,1.4c1.3-2,2.9-3.7,4.6-5.4c0.9,0.1,0.9,0.9,2,0.8c-0.3-0.6-1-0.7-1.3-1.3
		C111.6,40.4,115.5,41.4,117.9,39.9z M116.3,35c0.2-0.3,1.1-0.1,1.2,0C117.4,35.3,116.5,35.1,116.3,35z M129.4,9.7
		c-0.4,0.2-1.1,0.1-1.2,0.6c0.1,0.3,0.2,0.5,0.7,0.4c-0.4,1.5-0.8,3.2-2.1,3.9c-0.2,0.4,0.4,0.1,0.2,0.6c-1.1,2.2-2.1,4.4-3,6.8
		c-1.4-0.7-2.8-0.5-4.4-0.9c1.3-0.8,3.2-0.9,4.8-1c-0.2-1.2-2.4-0.6-3.4-1.1c1-0.7,2.6-0.8,3.8-1.2c-0.4-0.9-2.2-0.5-2.9-1.1
		c1-0.6,2.2-0.5,3.5-0.4c-0.4-1.3-2.7-0.8-4-1.2c1-1.3,3-0.2,4.6-0.5c0.2-0.6-0.4-0.4-0.4-0.8c0.5-0.1,0.6-0.7,1.1-0.8
		c-0.1-0.5-0.9-0.4-1.2-0.7c0.7-0.4,2-0.2,2.3-1c-0.4-0.8-1.9-0.5-2.8-0.8c0.4-0.8,1.6-0.1,2.4-0.2c0.4-0.6-0.4-0.7-0.1-1.2
		c0.3-0.3,0.8,0.4,1-0.2c0-0.5-0.6-0.4-0.8-0.7c0.4-0.4,1.5-0.2,2.3-0.2C130,8.7,129.3,8.8,129.4,9.7z M125.6,11.3
		c-1.4,0.9-3.5,0.7-5.4,0.3C121.7,10.8,123.7,10.7,125.6,11.3z M119.2,10c1.1-0.9,3-0.5,4.6-0.2C122.8,10.7,120.6,9.7,119.2,10z
		 M120.5,12.2c-1.4,1.2-4.9,0.3-6.6-0.4C116,12,118.4,12,120.5,12.2z M125.6,13.1c-1.4,0.8-3.5,0.6-5.3,0.2
		C121.5,12.5,123.9,12.6,125.6,13.1z M123.8,9.2c0.2-0.6,2.4-0.8,2.7,0C125.8,9.4,124.8,9.2,123.8,9.2z M130.2,5.9
		c0.1-0.6-0.2-0.7-0.2-1.1c0.7-0.1,1-0.8,1.5-1.2c0.4,1.1-1,2.6-1.6,3.5c-0.9-0.7-1.7,0.3-3,0C127.6,6.3,129.3,6.6,130.2,5.9z
		 M126.7,6.2c-0.7,0.4-1.5,0.6-2.6,0.6C124.7,6.3,125.7,6.3,126.7,6.2z M125.9,7.5c-0.4,0.6-1.3,0.5-2.2,0.3
		C124.2,7.3,125.2,7.4,125.9,7.5z M119.2,8.6c1-0.6,2.7-0.7,4.1-0.4C122.5,9,120.3,8.9,119.2,8.6z M122.8,7.1
		c-0.5,0.2-0.8,0.4-1.5,0.3C121.5,7.1,122.2,7.1,122.8,7.1z M83.8,5.5c0.6,0.1,6.5,1.5,10.5,1.4c7.4,1.2,16.4,0.8,23.1,0.4
		c0.3,0.5,1.3,0.4,1.9,0.6c-0.7,0.4-1.6,0.6-2.5,0.7c0.5,0.4,1.3,0.4,2.2,0.5c-0.6,0.3-1.4,0.4-2.2,0.6c1.4,0.7,2.9,0.5,4.3,1
		c-2.5,1.5-6.5-0.3-8.9-0.3c0.6,1.1,3.4,0.3,4,1.4c-6.7-0.1-12.9-0.4-19-0.2c3.1,0.7,8,0.4,11.8,0.3c1.3,0,2.9-0.1,3.6,0.7
		c3.4,0.1,6.1,1,9,1.6c-3.2,1.7-7.3-0.8-10.4-0.7c0.6,0.2,1.4,0.2,1.5,0.9c2,0,3.6,0.4,5.4,0.6v0.7c1.4-0.4,2.7-0.2,4.1,0.3
		c-2.3,1.5-6.6-0.7-9.2-0.1c1.7,0.6,4.8-0.1,5.4,1.6c1.4-0.2,3-0.3,4.2,0.3c-2.6,1.7-6.4,0.6-9.8,0c1.1,1.2,4.4,0.4,5.2,1.8
		c1.1-0.3,2.1-0.1,3.1,0.3c-2,1.1-4.3,1.1-6.9,0.5c2.1,1,4.3,1.1,6.7,1.6c-2.2,1.7-5.9,0-8.4-0.1c2,0.9,4.5,1.3,7,1.8
		c-1.4,1.4-4.2,0.2-6.4,0c1.8,0.7,3.8,1.1,5.8,1.6c-1.5,1.6-4.7,0.6-6.5,0.3c1.7,1.3,4.9,1.1,7.5,1.5c-2.3,1.4-5.3,0.7-8-0.2
		c0.2,0.8,1.3,0.7,2,0.9c1.1,0.3,2.2,0.5,2.9,1.1c0.5,0.1,1.2-0.1,1.5,0.2c-1.5,1.1-3.9-0.3-5.8-0.4c1.6,1.1,4.3,1.6,6.4,1.7
		c-2,1.4-5.3-0.5-7.3-0.3c1.5,1,4.2,0.9,5.8,1.9c0.6-0.3,1.6-0.1,2.2-0.5c0-0.5-0.5-0.6-0.5-1.1c0.3,0,0.7,0,0.8-0.1
		c0.4-0.4-0.5-0.4-0.1-1c0.2-0.2,0.8,0,1-0.2c0-0.9-1.5-0.4-2-0.8c0.4-0.4,1.1-0.3,1.6-0.5c0.2-0.6,0-0.9,0.6-1.2
		c-0.2-0.6-1.4-0.2-2-0.4c0.5-1.2,2.5-0.1,3.2-1c-0.7-0.3-1.7-0.4-2.4-0.6c0.8-0.4,1.8-0.8,3-0.8c-0.1-0.8-1.6-0.3-2.1-0.8
		c0.8-0.7,2.1-0.7,3.4-0.8c-0.5,1.2-2.7,8.2-2.8,8.6c-0.2,1-0.9,1.8-1.2,2.7h-0.9c-0.2-0.2-0.1-0.6-0.1-1c-2,0.1-4.2-0.1-6.2-0.7
		c-0.3-0.1-0.7-0.4-0.8-0.4c0.5,0.1-0.7-0.4-0.7,0.1s3.2,1.2,3.9,1.4c1.5,0.4,3,0.5,3.7,1.4c-2.6,0.1-4.5-1-6.3-1.2
		c0.5,1.1,2.3,1.1,3.5,1.6c-1,0.4-2.6-0.9-3.5-0.3c0.4,1,2.5,0.5,3.5,1.1c-0.9,1.2-2.4,0.1-3.8,0c-0.3,0-0.2,0.7,0.1,0.7
		c-0.9,0.5-2.4,0.4-3,1.2c-2-0.2-3.7,0.1-5.3-0.3c-0.2-0.6,0.6-0.2,0.6-0.7c0.5,0.4,2,0.7,2.7,0.5c-0.8-0.5-2.1-0.3-2-1.4
		c-2.3-0.6-5.6-0.3-8-0.7c-0.8-0.1-1.5-0.8-2.2-0.4c0.3,0.7,0.5,1.4,1.4,1.5c-3.4,0.6-9.9-5.2-12-10.9c-1.6-5.4-3.5-9.2-4.9-14.8
		c-0.1-0.5-0.8-3.5-1.4-4.8c0.9,0.2,2.1,0.5,3.2,0.9c0.9,0.3,2.1,1.6,2.8,0.7c-1.9-1-4.4-2-6.6-2.3c-0.4-0.4-0.4-1.2-0.9-1.5
		C79.3,2.9,81.1,5.1,83.8,5.5z M82.3,22.2c-0.8,0.1-0.8-0.5-0.8-1.3C82.2,21.1,82.1,21.8,82.3,22.2z M80.9,21.9
		c-0.3-0.4-0.5-0.8-0.5-1.5C80.7,20.7,80.8,21.3,80.9,21.9z M79.2,20.4c0.7,0.4,0.7,1.5,1,2.3C79.1,22.6,79.2,20.9,79.2,20.4z
		 M79.6,25.5c-0.4,0-0.3-0.6-0.4-1C79.6,24.7,79.7,25,79.6,25.5z M76.6,6.3C76.1,5.7,75.7,5,75.7,4C76.3,4.4,76.5,5.3,76.6,6.3z
		 M73.9,4.3c1,0.1,0.5,1.5,1,2.1C74,6.8,73.7,4.9,73.9,4.3z M73.5,9.4c0.7,0.3,0.1,1,0.2,1.8C73.4,10.8,73.2,10,73.5,9.4z
		 M73.9,11.3c0.6,0.2,0.6,1.3,1.5,0.9c0.6,2.3,4.8,3.7,2.7,6.5c-0.5,0.3-1-0.2-1.5,0.1c-0.5,0-0.2-0.7-0.7-0.7
		c-0.4,0-0.3,0.5-0.6,0.7c-0.5-0.2-0.5-0.8-0.9-1.1c-0.4,0-0.4,0.4-0.8,0.4c-3.6-0.6-5.6-2.6-8-4.4c-0.2-1.6,0.1-2.5,0.9-3.2
		c0.4-0.1,0.2,0.4,0.7,0.3c0.4-0.1,0.4-0.6,0.6-0.9c0.5,0,0.5,0.6,0.9,0.7c0.3-0.1,0.2-0.6,0.4-0.8c0.6,0.2,0.4,1.1,0.9,1.4
		c0.4-0.2,0.4-0.7,0.5-1.2c0.5,0.1,0.4,0.7,0.8,0.8c0.5,0.1,0.7-0.1,1.1-0.1c0,0.6,0.5,0.7,0.8,1.1C73.7,11.9,73.5,11.2,73.9,11.3z
		 M77.7,21.9c-0.9-0.2-0.9-1.1-1-2.1C77.7,20,77.4,21.2,77.7,21.9z M75.5,19.5c0.5,0.3,0.8,1.6,0.7,1.9
		C75.6,21.2,75.7,20.3,75.5,19.5z M75.5,24.7c-0.6,0-0.4-0.7-0.5-1.1C75.4,23.7,75.4,24.2,75.5,24.7z M73.8,18.5
		c0.9,0.3,1.2,1.7,1.1,2.5C73.9,20.8,73.6,19.4,73.8,18.5z M74.1,24.2c-0.3-0.1-0.3-0.4-0.4-0.7C74.2,23.5,74.2,23.8,74.1,24.2z
		 M72.3,18.3h0.4c0.2,0.7,0.4,1.3,0.5,2.1C72.6,19.9,72.4,19.2,72.3,18.3z M72.6,21.6c-0.4,0-0.4-0.3-0.4-0.7
		C72.4,21,72.7,21.2,72.6,21.6z M72,20.1c-0.7-0.2-0.6-1.3-0.7-2.1h0.4C71.7,18.6,71.8,19.3,72,20.1z M66.4,15.7h0.4
		c0.1,1.6,0.9,3.4,0.8,4.8c-0.6,0-0.3-0.6-0.2-1C66.8,18.5,66.5,17.1,66.4,15.7z M66.4,19.7c-0.8-1.1-0.9-3-1-5.1
		c0.2,0,0.2,0.1,0.4,0.2C65.7,16.7,66.6,18.2,66.4,19.7z M67.8,16.2c0.2,0,0.3,0.2,0.5,0.2c-0.4,1.3,0.3,2.1,0.3,3.4
		C68,19,67.5,17.4,67.8,16.2z M68.6,20.2c0.5,0,0.4,0.7,0.9,0.7c-0.1,0.2-0.9-0.1-1.2-0.2C68.2,20.4,68.6,20.5,68.6,20.2z
		 M68.7,16.8h0.4c0.2,1.4,0.8,2.5,0.9,4C69.2,19.8,68.9,18.4,68.7,16.8z M69.9,17.4h0.4c0.3,0.7,0.5,1.6,0.6,2.5
		C70.1,19.5,70.3,18.2,69.9,17.4z M67.1,9V8.3C67.7,8.2,67.7,9.2,67.1,9z M67.8,4.4h0.5c0.3,0.5,0.2,1.8-0.7,1.5
		C67.7,5.4,67.6,4.7,67.8,4.4z M68.6,8.1c0.4,0,0.3,0.7-0.2,0.7C68.4,8.5,68.5,8.3,68.6,8.1z M69.6,5.6c-0.4-0.3-0.7-1.1-0.2-1.4
		h0.4C70,4.6,69.8,5.3,69.6,5.6z M69.9,7.5c0.4,0.1,0.6,1,0.2,1.4C69.5,8.8,69.7,7.9,69.9,7.5z M72.9,9.1c-0.4,0-0.3-1-0.1-1.2
		C73.4,7.9,73,8.9,72.9,9.1z M72.3,2.2c0.5,0,0.8,0.1,0.8,0.6c0,0.4-0.4,0.5-0.8,0.5C72,3.1,72.1,2.4,72.3,2.2z M72,4.2
		c1.2-0.5,1.3,1.1,1,1.7C72.2,5.8,71.9,5.2,72,4.2z M71.7,9.2c-0.6,0-0.6-1.1-0.4-1.5C71.8,8,71.8,8.5,71.7,9.2z M71.2,5.5
		c-0.3-0.4-0.7-0.6-0.6-1.2c0.3,0.1,0.3-0.2,0.7-0.1C71.4,4.6,71.5,5.3,71.2,5.5z M71.3,2.4c0,0.4,0,0.8-0.2,0.9
		c-0.6,0.1-0.6-0.4-0.9-0.6c-0.5,0-0.6,0.4-1,0.5c-0.4,0.1-0.2-0.5-0.5-0.4c-1.3,0.9-2.6,1.2-4.4,1.7C65.4,2.7,68.6,1.6,71.3,2.4z
		 M54.5,19.8c-0.2,0.5-0.7,0.6-1,1C53.1,20.2,53.8,19.7,54.5,19.8z M47.5,28.2c0.1-0.1,0.5-0.2,0.6-0.4c0.1-0.2-0.2-0.4-0.1-0.7
		c0-0.4,0.7-0.8,1.1-1.4c1.2-1.6,2-3.6,3.8-4.3c0,0.4-0.2,0.3,0,0.5c1.9-1.1,2.9-3,5.4-3.5c-1.5,1.5-3.6,2.5-4.8,4.3
		c1.6-0.4,2.6-2.2,4.1-3.2c1-0.6,2.1-0.6,3-1.4c-1.5-1-3.3-0.2-4.6,0.8c0.5-1.2,3.3-3.1,4.8-2.3c-0.3-1.4-1.3-3.3-0.9-5.9
		c0.1-0.1,0.3-0.1,0.5-0.1c0.5-3.7,2.8-5.5,6.3-5.9c-0.1,0.6,0,1,0.1,1.5c-1.3,0.8-2.5,1.7-4,2.3c-2.7,3.4-1.1,8.8,1.5,11.3
		c-1.4-0.2-2.1-2-3.1-3c0.3,2.6,3.3,3.7,4.9,5.5c-1.2,0.9-2.6,2.1-3.9,3.2c-1,0.9-2.1,1.8-3,2.9c-1.5,1.9-1.6,5.2-4,6.2
		c-0.2,1-0.3,2.1-1.2,2.4c-0.2-3.6,2.1-5.1,3.7-7.2c-1.2,0.2-1.9,2.2-3.1,2.9V32c-1.1,0.5-0.6,2.5-1.6,3.1c-0.4-3.8,3.4-5.6,5.2-7.9
		c-1.7,0.5-3.1,2.6-4.4,4c-0.4,0.1-0.3-0.2-0.7-0.2c-0.4,0.4-0.9,0.7-1,1.5c-0.1,0-0.1-0.1-0.1-0.1c0.8-2.8,3.1-3.9,4.7-5.8
		c-1.5,0.2-2.7,2.7-4.1,3.1c1.3-3.1,3.9-4.8,6.2-6.7c-1.2-0.5-1.5,1.2-2.6,1.3c-1.7,2-3.6,3.8-5.2,5.8c0.2-1.6,1.7-2.9,2.2-4.7
		c-1.5,0.5-1.7,2.3-3,2.9c2.2-4.1,6.2-6.3,9.8-8.8c-0.8-0.7-1.7,0.7-2.2,1.1c-1.5,0.8-2.6,2.1-3.9,3.1h-0.7
		c-0.9,0.6-1.7,2.3-2.6,2.6c0.4-1.7,1.8-2.4,2.6-3.7c-2.8,1.5-4.8,5.2-5.8,9.1C46.8,31.1,47.1,29.1,47.5,28.2z M64.4,12.7
		C64,12,63,11.3,63.5,10.1c0.8,0.3,0.7,1.4,1.4,1.7c-0.3,2.5-0.1,4.5,0.3,6.9c-0.5,0.2-0.9-0.6-1.2-1c0-0.2,0.4,0,0.4-0.3
		C64.4,15.7,63.6,14.3,64.4,12.7z M63.6,16.1c-0.4-0.6-0.5-1.3-0.3-2.2C63.8,14.2,63.3,15.5,63.6,16.1z M60.6,43.2
		c-0.5,1.3-1.2,3.2-0.9,4.4c0.6-0.2,0.1-1.6,0.6-1.9c0.4,1.3,0.2,3,0.5,4.4c-2.5-0.5-2-5-1.3-7.2c0-0.3-0.4,0-0.3,0.3
		c-0.7-1.6,0.9-2.9,1.4-4.2c1.3,0.6,2.2,1.4,3.6,1.9c-0.6,1.7-1.8,3.4-2.4,5.2c-0.2,0.6,0,1.4-0.7,1.7c0-2.6,0.1-5.6,1.5-7.1
		C61.8,40.8,61,42.2,60.6,43.2z M57.9,43.5c0.1,0.5,0.5-0.4,0.5,0c0.2,0.9-0.1,2.4-0.5,3.1c-1.9-2.9,0.7-6.2,2.1-8.5
		C60.2,39.8,58.1,41.4,57.9,43.5z M58.6,48.5c-0.7-0.1-0.6-1.1-0.3-1.6C58.8,47,58.4,48,58.6,48.5z M57.4,41.6
		c-0.8-2,0.5-4.1,1.3-5.2c0.6,0.1,0.6,0.8,1,1.1C58.9,38.8,58.1,40.1,57.4,41.6z M56.9,45.4c0.1,0.5,0,1.3,0.2,1.8
		c-0.5-0.3-1-0.6-1.5-1c-0.3-2-0.4-4.1,0.8-5.4c0.8,1.5-0.2,3.6-0.5,4.6C56.1,45.8,56.5,45.2,56.9,45.4z M56.9,37.4
		c-0.3,1.5-0.7,2.9-1.4,4c-0.9-2.8,1.3-4.5,2.1-6.3c0.6-0.1,0.7,0.3,0.9,0.6C58.1,36.3,57.9,37.3,56.9,37.4z M57.3,33.3h0.4
		c0.1,1.9-1.4,2.8-2.3,4C55.3,35.2,56.8,34.8,57.3,33.3z M54.5,40.8c0.8,0.8,0.4,3-0.5,3.4C53.9,42.8,53.9,41.8,54.5,40.8z
		 M54.7,37.3c0.4,1.2-0.2,2.6-0.7,3.4C53.4,39.7,54.1,37.8,54.7,37.3z M53,39.8c0.9,0.5-0.1,2.8,0.4,3.8c-0.4-0.3-0.8-0.7-1-1.1
		C52.8,41.7,52.2,40.6,53,39.8z M52.3,40.1c-0.2-1.5,0.1-3.9,1.1-4.8C53.8,36.4,53.7,39.5,52.3,40.1z M51.8,38.6
		c-0.4,0-0.3-0.8-0.1-1C52.2,37.7,51.7,38,51.8,38.6z M48.7,32.9C48.5,32,49.1,32,49,31.3C49.3,31.2,49.2,32.9,48.7,32.9z
		 M48.4,36.1c-0.3,0-0.5-0.2-0.5-0.6c0.6-0.4,0.6-1.3,0.9-2C49.2,33.9,48.6,35.5,48.4,36.1z M47.5,34.5c0-2.5,0.6-4.9,1.7-6.6
		c0.2,0,0.2,0,0.3,0.1C48.7,30,48.4,32.5,47.5,34.5z M50.3,34c0.3,0.7,0,2.6-0.9,3.1C48.9,35.8,49.7,34.7,50.3,34z M49.8,31.3
		c-0.4-1.1,0.4-2.2,0.9-2.8C51.2,29.1,50,30.4,49.8,31.3z M51.6,29.9c0.3,1.3-1.1,3.1-1.9,4.1C49.5,32.2,50.9,31,51.6,29.9z
		 M50.7,35.7c0.7,1,0.4,2.9-0.5,3.6C48.8,38.3,50.3,36.7,50.7,35.7z M50.9,39.1c0.4,0.2,0.3,0.9,0.9,0.8l-0.1,1.5
		c-0.7-0.2-0.8-0.9-1.2-1.4C50.5,39.5,50.7,39.4,50.9,39.1z M51.8,36.8c-0.6-0.2-0.2-1.5-0.1-1.9c0.3,0,0.2,0.4,0.5,0.3
		C52.2,35.8,52.2,36.5,51.8,36.8z M94.1,62.3c0.2-0.5,0.6-0.8,1.1-0.9C95.2,62.1,94.8,62.4,94.1,62.3z M97,62.6
		c0.5-0.4,0.6-1.2,1.5-1.2C98.3,62.1,97.7,62.3,97,62.6z M98.8,62.6c0.1-0.7,1.1-0.6,1.5-1C100.5,62.1,99.6,62.7,98.8,62.6z
		 M105,62.6c-0.5-0.4,0.5-0.5,0.6-0.8C106,62.2,105.2,62.4,105,62.6z M121.4,60.8c0.2-0.5,0.7-0.6,1.1-0.8
		C122.3,60.4,122.1,60.9,121.4,60.8z M160.5,40.5c-2.2,1-2.7,3.8-4.9,4.7c-2.4,2.8-5.8,4.4-8.7,6.7c-0.3,0-0.4,0.2-0.8,0.1
		c-0.4,0.3-0.8,0.6-1.1,1c-1-0.2-1.4,0.3-1.8,0.7c-1.7,0.1-3.7,1-4.8,2.1c-0.5,0.1-0.3-0.5-0.7-0.6c-0.9,0.2-1.4,1-2.2,1.3
		c-0.2,0,0-0.4-0.3-0.4c-1.4,0.4-2.5,0.3-3.6,1.5c-0.5,0.1-0.1-0.6-0.5-0.6c-1.2,0.4-1.7,1.5-2.9,1.8c0-0.4,0.4-0.3,0.3-0.8
		c-1.4-0.2-2.8,0.3-3.7,1.3c-0.4-0.2-0.7-0.5-1.1-0.7c-2,0.3-3,1.8-4.7,2.4c0.3-1.1,1.6-1.1,1.9-2.2c-1,0.1-2.2,1.1-3.1,1.8
		c-0.2-0.2-0.1-0.7-0.5-0.7c-0.9,0.6-1.2,1.8-2.5,1.9c0.4-0.8,1.2-1.2,1.7-1.8c-1.4-0.6-2,0.9-2.9,1.4c-0.6-0.6,0.3-0.7,0.5-1.3
		c-1.2-0.4-1.9,1.5-3.2,1c-1,0.6-1.8,1.3-2.9,1.6c0.8-1,2.1-1.6,3.1-2.5c-1-0.3-2.4,1-3.2,1c-0.4-0.6,0.5-0.7,0.7-1.1
		c-1.6-0.2-2.9,1.2-4.5,1.5c0.1-0.6,0.8-0.5,0.9-1.1c-0.8-0.6-2,0.8-2.9,1.1c-0.5-0.3-0.6-0.5-0.4-1.1c-1.2-0.1-1.4,0.8-2.5,0.7
		c-0.6,0,0.2-0.2,0-0.7c-1.6-0.2-2.3,1.4-3.6,0.7c0-0.4,0.6-0.6,0.3-0.9c-1.3,0.3-2.2,1.1-3.2,1.8c-0.3-0.3,0.6-1.1,0.2-1.6
		c-0.7-0.2-0.8,0.4-1.4,0.5c-0.6,0.1-1.4-0.4-1.9-0.3c-0.9,0.1-1.3,1.1-2.2,0.7c0-0.5,0.8-0.3,0.8-0.8c-0.6-0.6-1.1,0.1-1.8,0.2
		c0.1-0.3,0.5-0.2,0.4-0.7c-1.3-0.6-1.9,1.3-3.2,0.8c0.2-0.7,1.5-0.2,1.5-1c-1.2-0.4-2.1,0.7-3.4,0.7c0.1-0.6,1-0.2,1.1-0.8
		c-0.4-0.6-1.6,0.2-2.3,0.2c0.1-0.3,0-0.5-0.2-0.6c-0.9,0-1.4,0.4-2.2,0.6c-0.1-0.8,0.9-0.5,1.1-0.9c-0.3-0.5-1.7,0.2-1.9-0.8
		c-0.6,0-1.1,0.1-1.5,0.3c-0.4-0.7-1.2-0.6-2-0.4c-0.1-0.5,0.3-0.6,0-0.8c-0.8-0.2-1,0.8-1.6,0.3c-0.6,0,0.2-0.5-0.2-0.7
		c-0.5-0.1-0.7,0.1-1,0.2c-2-1-4.4-0.6-5.6-2.3c-0.6,0.2-1,0-1.5-0.2c0.1-0.4-0.1-0.5-0.1-0.8c-0.7-0.4-1.5,0-2.2,0.1
		c-0.3-0.2-0.1-0.9-0.5-1.1c-0.6-0.2-0.4,0.4-0.8,0.4c-0.4-0.4-1.2-0.6-1.3-1.3c-2.1-0.9-4.2-2.5-6-3.9c-0.6-0.5-1.2-1.3-1.8-2
		c-1.2-1.3-2-2.3-3.1-3.6c-1.8-3.7-4.9-7.1-3.4-13c0.7-0.4,0.8-1.5,1.4-2.1c0.4,1-0.7,2.4-0.5,3.6c0,0.4,0.5,0.6,0.6,1.2
		c0.2,0.6-0.1,1.4,0.1,1.9c0.1,0.6,0.8,0.9,0.5,2.1c0.5,0.4,1,0.7,0.9,1.7c0.1,0.3,0.5,0.4,0.8,0.6c2.5,4.3,5.5,8.2,9.9,10.8
		c0.1,0.3,0.4,0.5,0.5,0.8c0.9,0,1.3,0.5,1.7,1c1.5,0.8,3.3,1.7,5.1,2.4c1.8,0.7,3.5,1.8,5.2,1.7c-2.3-1.5-6.5-2.5-8.9-4.4
		c-0.3-1.8-0.4-3.9,0.6-5.5c0.6,1.7-0.3,4.9,1.3,5.7c0.6-0.2-0.1-0.9-0.1-1.4c0.4-3.5,1.8-5.8,3-8.3c-2.1,0.9-2.1,4.2-3.2,6.1
		c-0.5-2.2-0.1-5.6,1.3-6.6c0.6,0,0.7,0.3,1.2,0c0.2-0.7-0.6-0.4-0.8-0.8c-1,0.2-2.6-0.7-3.6-1.5c-1.5-1.2-3.3-4.1-3.3-5.3
		c0-0.6,0.7-2.4,1.1-3.2c1.4-3.1,4.6-5.9,6.9-7.6c1.4,0.4,2.6,1.1,3.6,1.9c0.4,0.1,0.5-0.1,0.8-0.1c2.1,1.3,4.6,1.9,7.1,2.6
		c3.5,0.9,7.1,2.6,7.9,5.5c0.1,0.3,0,1.2,2.2,3.2c1,0.7,2.3,1.1,3.3,1.8c-0.8,0.7-1.9-1.1-3-0.5c1,1.1,2.9,1.3,4.4,1.9
		c-0.1,0.6-1.1,0.4-1.5,0.8c-0.1-1.2-1.9-0.8-2.8-1.3c-0.1,0.7,1.5,1,2.4,1.3c-3.2,1.7-7.6,2.2-9.2,5.7c-1.6,0-3.4-0.9-4.5-0.4
		c0.4,1.3,3,0.5,4,1.1c-0.7,2.1,1,3.9,2,4c0.1,0.5-0.4,0.5-0.4,0.8c0.4,1,6.2,6,9.2,7.1c6.3,2.4,15,3.2,22.5-1.8
		c-0.6-0.9,0.5-1.5,0.9-2.1c0.3,0.1-0.1,1,0.5,0.8c0.9-1.2,1.9-2.2,2.7-3.4c-1.3,0.4-1.6,1.8-2.8,2.3c1.2-2.5,3.9-3.5,5.8-5.2
		c0.2,0,0.2,0.1,0.4,0.2c0.6-0.2,1.1-1.2,1.9-0.7c-0.3,0.4-1,0.4-1.4,0.6c-0.2,0.4,0.7,0.4,0.2,0.6c-1.5,1.2-3.1,2.4-4.6,3.6
		c0.1,0.3,0.3,0.6,0.7,0.6c0.8-0.7,1.2-1.7,2.1-2.2c0.7,0.3,1.2,0.1,1.6-0.2c0-0.6-0.2-1,0.3-1.2c0.4,0.1-0.2,0.3,0,0.7
		c0.8,0.1,1.1-0.5,1.5-0.9c1.9-0.3,9.4-2.6,12.8-5.2c3.6-0.6,5.4-3.3,7.9-5.1c-0.8-0.1-0.9,0.6-1.7,0.6c1.2-3.2,3.8-5,7.5-5.4
		c-0.1,0.5-0.7,0.2-0.8,0.6c1.6,0.6,3.3-1.1,5.3-1c-1.4,1-3.3,1.4-5,2.1c2.4,0.5,4-1.9,6.3-1.5c-1.4,1.1-3.6,1.5-5.4,2.2
		c1.8,0.3,3.1-1,5.1-0.9c-1,0.7-2.3,1.1-3.3,1.8c0.9,0,2.5-0.5,3.7-0.7c-1.6,1.7-5.1,1.3-7.2,2.6c2.1-0.2,4.6-1.1,7.1-1.4
		c-2,1.4-5.5,1.2-7.4,2.7c0,0.2,0.2,0.2,0.3,0.4c0.9-0.6,3-1.8,4-0.9c0.9-0.5,1.8-1.1,3.3-1.1c-1.5,1-4,1.7-6.2,2.3
		c-0.5,0.2-1.6-0.1-1.7,0.7c1.1,0.3,2-1.2,3.5-0.5c1.2-0.8,2.9-1.1,4.8-1.2c-2.3,1.9-6.7,1.5-9.1,3.3c1,0.3,2.5-1.3,3.5-0.5
		c2.5-0.7,4.8-1.6,6.9-2.7c-0.2-0.4-0.6,0.2-1.1,0.1c0.1-0.3,0.4-0.2,0.2-0.5l-1.4-0.1c1.3-0.6,2.5-1.3,4.3-1.5
		C161,39.7,160.6,39.9,160.5,40.5z M157.7,38.9c0.9-0.8,2.5-0.9,3.6-1.6c-1.2-0.3-2.2,0.9-3.7,0.4c1.4-1.1,3.7-1.1,5.2-2.1
		C163.2,37.8,160.2,38.8,157.7,38.9z M162.8,35.3c-1.5,0.1-2.6,0.7-4.2,0.8c0.9-0.9,2.6-0.8,3.5-1.8c-1.6,0.1-3.4,1-5.3,1.1
		c1.9-1,4.3-1.4,6.6-1.9C164,34,163,34.8,162.8,35.3z M176.1,28.2c-1.8,1.3-4,1.4-6.3,2.1c0.1-0.9,1-0.8,1.1-1.6
		c-1.6-0.2-1.8,2.2-3.9,1.9c1.1-1.7,2.8-2.7,4.2-4c-1.2-0.9-1.8,1.3-2.9,1.5c-0.9,0.9-1.4,2.4-3.1,2.5c1.2-2.3,3.5-3.4,4.8-5.5
		c-2.5,0.6-3.6,3.9-5.9,5.2c1.2-3.1,4.9-4.9,7.1-7.5c-1.1-0.2-1.8,0.8-2.5,1.4c-0.7,0.6-1.5,1.3-2.1,2c-1.3,1.4-2.2,3.4-4.2,3.9
		c1.5-1.9,4.5-6.6,7.1-7.6c1.4-0.5,4.3-0.4,5.7,0.4c1,0.5,0.9,1.9,1.7,2.9C176.8,26.6,176.2,27.1,176.1,28.2z"/>
	<path class="st0" d="M69.1,52.4c-0.3-1.1-0.6-2.5-0.5-3.8c0.1-1.5,1.2-2.9,1.1-3.8c-1.7,1.6-2.2,5.2-2.2,8.1c0.3,0.3,0.5,0,0.9,0
		c-0.1,0.6,0.1,0.8,0.4,1c0.5,0,0.4-0.6,1-0.5c0-2.9,1.1-5.8,2.2-7.9C69.9,46.6,69.9,50,69.1,52.4z"/>
</g>
</svg>
